<svg xmlns="http://www.w3.org/2000/svg" fill="none" viewBox="0 0 24 24" height="24" width="24">&#xa;<g clip-path="url(#clip0_995_212)">&#xa;<path fill="url(#paint0_linear_995_212)" d="M0.329687 21.9721C0.0792141 22.2241 -0.0475292 22.4911 -0.0475292 22.7733C-0.0457954 22.9331 -0.0114441 23.0909 0.0534191 23.237C0.118282 23.383 0.212294 23.5143 0.329687 23.6228C0.438145 23.7402 0.569435 23.8342 0.715508 23.899C0.86158 23.9639 1.01936 23.9983 1.17918 24C1.46133 24 1.7284 23.8733 1.98038 23.6228L5.32855 20.2746C6.30328 21.1241 7.40324 21.5315 8.62844 21.5013C9.85515 21.4379 10.9234 20.9506 11.8348 20.0377L12.9197 18.9544C13.1716 18.7024 13.2969 18.4353 13.2969 18.1531C13.2969 17.8378 13.1716 17.5556 12.9197 17.3037L6.78914 11.1747C6.68091 11.0574 6.54987 10.9634 6.40406 10.8986C6.25825 10.8337 6.10073 10.7993 5.94115 10.7974C5.62731 10.7974 5.34364 10.9227 5.09166 11.1747L4.0083 12.258C3.09694 13.1709 2.62467 14.2241 2.59298 15.4176C2.53112 16.5809 2.89174 17.6341 3.67786 18.5771L0.329687 21.9721ZM10.0453 18.2467C9.54131 18.719 8.97548 18.9544 8.34779 18.9544C7.7186 18.9544 7.15277 18.719 6.65032 18.2467L5.70728 17.3037C5.23501 16.8012 4.99962 16.2354 4.99962 15.6062C4.99962 14.9785 5.23501 14.4127 5.70728 13.9087L5.94115 13.6733L10.2791 18.0113L10.0438 18.2467H10.0453ZM12.3086 14.0505C12.4168 14.1678 12.5478 14.2618 12.6936 14.3266C12.8394 14.3915 12.997 14.4259 13.1565 14.4278C13.4402 14.4278 13.7073 14.3025 13.9593 14.0505L16.126 11.8808L17.069 12.8238C17.1774 12.9413 17.3087 13.0354 17.4548 13.1002C17.6009 13.1651 17.7587 13.1994 17.9185 13.2011C18.0791 13.2055 18.2385 13.1739 18.3853 13.1086C18.532 13.0433 18.6623 12.946 18.7665 12.8238L19.8514 11.7872C20.7627 10.8759 21.2501 9.8378 21.3135 8.67446C21.3839 7.50628 21.0321 6.3517 20.3221 5.42135L23.6703 2.07318C23.7876 1.96495 23.8815 1.83392 23.9464 1.68811C24.0113 1.54229 24.0457 1.38477 24.0475 1.2252C24.0475 0.911354 23.9223 0.627688 23.6703 0.375707C23.4183 0.125236 23.1513 0 22.8691 0C22.5538 0 22.2716 0.126745 22.0196 0.377216L18.673 3.7269C17.7511 2.95734 16.5702 2.56875 15.3716 2.64051C14.1449 2.70389 13.0781 3.19125 12.1652 4.10411L11.0803 5.18748C10.9702 5.29902 10.8841 5.43193 10.8272 5.57803C10.7704 5.72413 10.7441 5.88031 10.7499 6.03697C10.7477 6.18586 10.7761 6.33363 10.8331 6.47116C10.8902 6.60869 10.9749 6.73308 11.0819 6.83666L12.0702 7.82799L9.90192 9.94945C9.64994 10.2014 9.52471 10.4836 9.52471 10.7989C9.52656 10.9585 9.56097 11.116 9.62583 11.2619C9.6907 11.4077 9.78464 11.5387 9.90192 11.6469C10.0103 11.7644 10.1416 11.8584 10.2877 11.9233C10.4338 11.9882 10.5916 12.0225 10.7514 12.0241C10.911 12.0223 11.0685 11.9879 11.2143 11.923C11.3601 11.8582 11.4912 11.7642 11.5994 11.6469L13.7209 9.47718L14.4753 10.2316L12.3086 12.3531C12.0566 12.6051 11.9313 12.8872 11.9313 13.2026C11.9332 13.3621 11.9676 13.5197 12.0325 13.6655C12.0973 13.8113 12.1913 13.9423 12.3086 14.0505ZM13.6288 6.03395L13.8642 5.75179C14.0838 5.52411 14.3477 5.34385 14.6396 5.22214C14.9316 5.10042 15.2454 5.03984 15.5617 5.04413C16.1909 5.04413 16.7401 5.27952 17.2124 5.75179L18.1554 6.74161C18.6579 7.21388 18.9098 7.77971 18.9098 8.43908C18.9098 9.06828 18.6579 9.61901 18.1554 10.0898L17.92 10.3252L13.6288 6.03546V6.03395Z"/>&#xa;</g>&#xa;<defs>&#xa;<linearGradient gradientUnits="userSpaceOnUse" y2="14.7548" x2="-0.299401" y1="2.25763" x1="20.9335" id="paint0_linear_995_212">&#xa;<stop stop-color="#2395FF"/>&#xa;<stop stop-color="#0057D2" offset="1"/>&#xa;</linearGradient>&#xa;<clipPath id="clip0_995_212">&#xa;<rect fill="white" height="24" width="24"/>&#xa;</clipPath>&#xa;</defs>&#xa;</svg>