<svg xmlns="http://www.w3.org/2000/svg" fill="none" viewBox="0 0 24 24" height="24" width="24">&#xa;<path fill="url(#paint0_linear_995_131)" d="M20.3939 14.6543C21.003 14.6543 21.5416 14.8423 22.0082 15.2178C22.4744 15.5793 22.805 16.0519 22.9994 16.6357H20.7054C20.524 16.6357 20.3485 16.699 20.1801 16.8242C19.9989 16.9493 19.9086 17.1091 19.9086 17.3037V17.9717C19.9087 18.1661 19.999 18.3328 20.1801 18.4717C20.3485 18.5968 20.524 18.6602 20.7054 18.6602H22.9994C22.805 19.2162 22.4745 19.6822 22.0082 20.0576C21.5416 20.4192 21.003 20.5996 20.3939 20.5996C20.0182 20.5996 19.6812 20.5306 19.3832 20.3916L16.2142 23.8125C16.0977 23.9375 15.9491 23.9999 15.7679 24C15.6125 24 15.4763 23.9375 15.3597 23.8125L14.4652 22.8525C14.3487 22.7275 14.2905 22.5818 14.2904 22.415C14.2904 22.2342 14.3486 22.0736 14.4652 21.9346L17.7504 18.4512C17.6726 18.187 17.6342 17.9158 17.6342 17.6377C17.6342 17.2344 17.7055 16.8518 17.848 16.4902C17.9906 16.1287 18.1914 15.816 18.4506 15.5518C18.6967 15.2737 18.9877 15.0573 19.3246 14.9043C19.6485 14.7374 20.0052 14.6543 20.3939 14.6543ZM10.1849 0C10.9267 0 11.6123 0.145962 12.2416 0.439453C12.8696 0.702109 13.4267 1.08286 13.9135 1.58008C14.3987 2.07722 14.769 2.64743 15.0267 3.29199C15.3119 3.93529 15.4554 4.63813 15.4554 5.39941C15.4554 6.18863 15.2977 6.92009 14.9838 7.59277C14.7099 8.24773 14.3172 8.84364 13.8265 9.34863H13.8256C14.0257 9.43709 14.268 9.55419 14.5531 9.7002C14.8396 9.81817 15.1098 9.97856 15.3676 10.1836C15.6527 10.3886 15.8959 10.6073 16.0961 10.8418C16.2833 11.0435 16.3909 11.3097 16.3969 11.5879V11.7197C16.3969 11.8953 16.3246 12.057 16.182 12.2031C15.9819 12.4066 15.7683 12.5088 15.5394 12.5088C15.3797 12.4748 15.2222 12.4309 15.0677 12.377C14.877 12.2749 14.7029 12.1418 14.5531 11.9834C14.2104 11.6606 13.7388 11.3983 13.14 11.1934C12.5535 10.9563 11.9278 10.8367 11.2972 10.8418H9.2406C8.4988 10.8418 7.79778 10.9881 7.14099 11.2803C6.51302 11.5738 5.9545 11.9821 5.46912 12.5088C4.97146 13.0246 4.5782 13.6366 4.31189 14.3086C4.05555 14.9827 3.9281 15.7132 3.9281 16.5039V17.7324H10.267C10.5247 17.7324 10.7391 17.835 10.9105 18.04C11.0059 18.1193 11.0821 18.22 11.1342 18.334C11.1862 18.4481 11.2122 18.5733 11.2103 18.6992C11.2124 18.8377 11.1868 18.9755 11.1351 19.1035C11.0835 19.2312 11.0072 19.3469 10.9105 19.4434C10.8267 19.53 10.7261 19.5981 10.6156 19.6436C10.505 19.689 10.3861 19.7113 10.267 19.708H2.9867C2.7204 19.7156 2.46035 19.6218 2.2572 19.4453C2.08513 19.2375 1.99343 18.9716 2.00037 18.6992V16.5039C2.00037 14.8649 2.42961 13.4167 3.2865 12.1582C4.14348 10.8716 5.25713 9.94879 6.6283 9.39258C6.0896 8.90107 5.6523 8.30392 5.34216 7.63672C5.02849 6.93485 4.8676 6.17132 4.87146 5.39941C4.87146 4.63813 5.01399 3.93529 5.2992 3.29199C5.57587 2.66215 5.95308 2.08374 6.41443 1.58008C6.89979 1.08292 7.4702 0.702516 8.1283 0.438477C8.78507 0.146332 9.47058 7.27947e-06 10.1849 0ZM10.184 1.97461C9.26958 1.97461 8.47004 2.31186 7.78455 2.98438C7.468 3.29634 7.2168 3.67182 7.04724 4.08691C6.87768 4.50219 6.79276 4.94931 6.79822 5.39941C6.79827 6.36426 7.12781 7.18328 7.78455 7.85742C8.47005 8.52998 9.26955 8.86523 10.184 8.86523V8.86719C11.097 8.8671 11.8841 8.52958 12.5394 7.85547C13.2249 7.18412 13.5677 6.3637 13.5677 5.39746C13.5677 4.46215 13.2249 3.65709 12.5394 2.98438C12.2349 2.66022 11.8684 2.40316 11.4633 2.22949C11.0583 2.05596 10.6229 1.96927 10.184 1.97461Z"/>&#xa;<defs>&#xa;<linearGradient gradientUnits="userSpaceOnUse" y2="19.6792" x2="22.1446" y1="3.40642" x1="3.90432" id="paint0_linear_995_131">&#xa;<stop stop-color="#00CEAC"/>&#xa;<stop stop-color="#07838F" offset="1"/>&#xa;</linearGradient>&#xa;</defs>&#xa;</svg>