<svg xmlns="http://www.w3.org/2000/svg" fill="none" viewBox="0 0 24 24" height="24" width="24">&#xa;<path fill="url(#paint0_linear_995_18)" d="M19.3949 14.6543C20.004 14.6543 20.5416 14.8423 21.0082 15.2178C21.4747 15.5794 21.806 16.0517 22.0004 16.6357H19.7054C19.5242 16.6358 19.3493 16.6983 19.181 16.8232C18.9996 16.9484 18.9086 17.109 18.9086 17.3037V17.9707C18.9086 18.1654 18.9996 18.3326 19.181 18.4717C19.3494 18.5967 19.5242 18.6591 19.7054 18.6592H22.0004C21.806 19.2155 21.4748 19.6821 21.0082 20.0576C20.5417 20.419 20.0039 20.5996 19.3949 20.5996C19.0191 20.5996 18.6822 20.5297 18.3842 20.3906L15.2152 23.8125C15.0986 23.9376 14.9494 24 14.7679 24C14.6125 24 14.4764 23.9376 14.3597 23.8125L13.4652 22.8525C13.3488 22.7275 13.2905 22.5817 13.2904 22.415C13.2904 22.2342 13.3486 22.0736 13.4652 21.9346L16.7513 18.4512C16.6736 18.1871 16.6342 17.9157 16.6342 17.6377C16.6342 17.2345 16.7055 16.8517 16.848 16.4902C16.9906 16.1286 17.1914 15.815 17.4506 15.5508C17.6968 15.2727 17.9886 15.0573 18.3256 14.9043C18.6496 14.7374 19.0061 14.6543 19.3949 14.6543ZM9.18493 0C9.92661 0 10.6123 0.146027 11.2416 0.439453C11.8696 0.702095 12.4267 1.08289 12.9135 1.58008C13.3988 2.07721 13.7689 2.64744 14.0267 3.29199C14.3119 3.93528 14.4564 4.63814 14.4564 5.39941C14.4564 6.18854 14.2986 6.92016 13.9847 7.59277C13.7109 8.24761 13.3181 8.8437 12.8275 9.34863H12.8256C13.0258 9.43712 13.2689 9.55412 13.5541 9.7002C13.8405 9.81815 14.1109 9.97767 14.3685 10.1826C14.6537 10.3876 14.8959 10.6073 15.0961 10.8418C15.2833 11.0435 15.3909 11.3097 15.3968 11.5879V11.7197C15.3968 11.8953 15.3256 12.0571 15.183 12.2031C14.9828 12.4067 14.7684 12.5088 14.5394 12.5088C14.3798 12.4748 14.222 12.4308 14.0677 12.377C13.877 12.2749 13.7038 12.1417 13.5541 11.9834C13.2113 11.6604 12.7392 11.3984 12.14 11.1934C11.5534 10.9563 10.9278 10.8366 10.2972 10.8418H8.2406C7.49876 10.8418 6.79781 10.9881 6.14099 11.2803C5.51301 11.5738 4.9545 11.9821 4.46911 12.5088C3.97145 13.0246 3.5782 13.6367 3.31189 14.3086C3.05556 14.9827 2.9281 15.7133 2.9281 16.5039V17.7324H9.26697C9.52472 17.7324 9.73913 17.835 9.91052 18.04C10.006 18.1194 10.0831 18.2199 10.1351 18.334C10.1871 18.4481 10.2132 18.5733 10.2113 18.6992C10.2133 18.8374 10.1876 18.9747 10.1361 19.1025C10.0845 19.2305 10.0074 19.3468 9.91052 19.4434C9.82663 19.53 9.7262 19.5981 9.6156 19.6436C9.505 19.689 9.38607 19.7104 9.26697 19.707H1.98572C1.7194 19.7145 1.45932 19.621 1.25622 19.4443C1.08443 19.2366 0.993476 18.9714 1.00036 18.6992V16.5039C1.00036 14.8649 1.42957 13.4166 2.2865 12.1582C3.14352 10.8716 4.25706 9.94878 5.62829 9.39258C5.08959 8.9011 4.6523 8.30388 4.34216 7.63672C4.02848 6.93488 3.8676 6.17129 3.87146 5.39941C3.87146 4.63814 4.01398 3.93528 4.29919 3.29199C4.57588 2.66216 4.95305 2.08374 5.41443 1.58008C5.8998 1.08294 6.47019 0.702512 7.12829 0.438477C7.78505 0.146356 8.4706 2.82995e-05 9.18493 0ZM9.18396 1.97461C8.26951 1.97461 7.47008 2.31184 6.78454 2.98438C6.46797 3.29635 6.21681 3.67181 6.04724 4.08691C5.87767 4.50218 5.79276 4.94932 5.79822 5.39941C5.79828 6.36422 6.12779 7.1833 6.78454 7.85742C7.47008 8.52996 8.26951 8.86523 9.18396 8.86523V8.86719C10.0971 8.86714 10.884 8.52961 11.5394 7.85547C12.225 7.1841 12.5677 6.36377 12.5677 5.39746C12.5677 4.46214 12.225 3.6571 11.5394 2.98438C11.235 2.66028 10.8683 2.40314 10.4633 2.22949C10.0583 2.05599 9.62288 1.96924 9.18396 1.97461Z"/>&#xa;<defs>&#xa;<linearGradient gradientUnits="userSpaceOnUse" y2="24" x2="11.5002" y1="0" x1="11.5002" id="paint0_linear_995_18">&#xa;<stop stop-color="#5B738B"/>&#xa;<stop stop-color="#223548" offset="1"/>&#xa;</linearGradient>&#xa;</defs>&#xa;</svg>