<svg xmlns="http://www.w3.org/2000/svg" fill="none" viewBox="0 0 16 16" height="16" width="16">&#xa;<g clip-path="url(#clip0_963_667)">&#xa;<path fill="url(#paint0_linear_963_667)" d="M12.8063 9.60627C13.2446 9.60627 13.6516 9.69026 14.0273 9.85824C14.424 10.0262 14.7684 10.2572 15.0607 10.5511C15.3529 10.8451 15.5825 11.1915 15.7495 11.5906C15.9165 11.9685 16 12.3779 16 12.8189C16 13.2598 15.9165 13.6798 15.7495 14.0787C15.5825 14.4566 15.3529 14.7821 15.0607 15.055C14.7684 15.349 14.424 15.58 14.0273 15.748C13.6516 15.9159 13.2446 16 12.8063 16C12.3679 16 11.9504 15.9159 11.5538 15.748C11.1781 15.58 10.8441 15.349 10.5519 15.055C10.2596 14.7821 10.03 14.4566 9.86301 14.0787C9.69602 13.6798 9.61252 13.2598 9.61252 12.8189V12.4094L5.38552 10.3307C4.73842 10.9186 3.99739 11.2126 3.16243 11.2126C2.72407 11.2126 2.30659 11.1286 1.90998 10.9606C1.53425 10.7926 1.20026 10.5616 0.908023 10.2676C0.636661 9.97372 0.417482 9.63777 0.250489 9.25981C0.0834961 8.86087 0 8.44092 0 7.99998C0 7.55903 0.0834961 7.14958 0.250489 6.77163C0.417482 6.37269 0.636661 6.03672 0.908023 5.76376C1.20026 5.4698 1.53425 5.23883 1.90998 5.07085C2.30659 4.90287 2.72407 4.81888 3.16243 4.81888C3.60078 4.81888 4.00783 4.89238 4.38356 5.03935C4.78017 5.18633 5.11416 5.4068 5.38552 5.70077L9.61252 3.59054V3.21259C9.61252 2.77165 9.69602 2.3622 9.86301 1.98425C10.03 1.5853 10.2596 1.23884 10.5519 0.944879C10.8441 0.650916 11.1781 0.419947 11.5538 0.251968C11.9504 0.0839889 12.3679 0 12.8063 0C13.2446 0 13.6516 0.0839889 14.0273 0.251968C14.424 0.419947 14.7684 0.650916 15.0607 0.944879C15.3529 1.23884 15.5825 1.5853 15.7495 1.98425C15.9165 2.3622 16 2.77165 16 3.21259C16 3.65353 15.9165 4.07348 15.7495 4.47243C15.5825 4.85038 15.3529 5.18633 15.0607 5.4803C14.7684 5.75326 14.424 5.97373 14.0273 6.14171C13.6516 6.3097 13.2446 6.39368 12.8063 6.39368C12.2427 6.39368 11.7313 6.2782 11.272 6.04723C10.8337 5.79526 10.4684 5.4593 10.1761 5.03935L6.26223 7.0551C6.3666 7.41205 6.41879 7.72701 6.41879 7.99998C6.41879 8.29394 6.3666 8.61939 6.26223 8.97635L10.1761 10.9606C10.4892 10.5616 10.865 10.2362 11.3033 9.98422C11.7417 9.73225 12.2427 9.60627 12.8063 9.60627ZM12.8063 1.60629C12.3679 1.60629 11.9922 1.76377 11.6791 2.07873C11.3659 2.39369 11.2094 2.77165 11.2094 3.21259C11.2094 3.65353 11.3659 4.03148 11.6791 4.34644C11.9922 4.6614 12.3679 4.81888 12.8063 4.81888C13.2446 4.81888 13.6204 4.6614 13.9335 4.34644C14.2466 4.03148 14.4031 3.65353 14.4031 3.21259C14.4031 2.77165 14.2466 2.39369 13.9335 2.07873C13.6204 1.76377 13.2446 1.60629 12.8063 1.60629ZM3.25636 9.60627C3.69472 9.60627 4.07045 9.44879 4.38356 9.13383C4.69667 8.81887 4.85323 8.44092 4.85323 7.99998C4.85323 7.55903 4.69667 7.18108 4.38356 6.86612C4.07045 6.55116 3.69472 6.39368 3.25636 6.39368C2.818 6.39368 2.44227 6.55116 2.12916 6.86612C1.81605 7.18108 1.65949 7.55903 1.65949 7.99998C1.65949 8.44092 1.81605 8.81887 2.12916 9.13383C2.44227 9.44879 2.818 9.60627 3.25636 9.60627ZM12.8063 14.4251C13.2446 14.4251 13.6204 14.2677 13.9335 13.9527C14.2466 13.6378 14.4031 13.2598 14.4031 12.8189C14.4031 12.3779 14.2466 12 13.9335 11.685C13.6204 11.37 13.2446 11.2126 12.8063 11.2126C12.3679 11.2126 11.9922 11.37 11.6791 11.685C11.3659 12 11.2094 12.3779 11.2094 12.8189C11.2094 13.2598 11.3659 13.6378 11.6791 13.9527C11.9922 14.2677 12.3679 14.4251 12.8063 14.4251Z"/>&#xa;</g>&#xa;<defs>&#xa;<linearGradient gradientUnits="userSpaceOnUse" y2="14.7481" x2="13.6882" y1="2.27095" x1="1.45096" id="paint0_linear_963_667">&#xa;<stop stop-color="#00CEAC"/>&#xa;<stop stop-color="#07838F" offset="1"/>&#xa;</linearGradient>&#xa;<clipPath id="clip0_963_667">&#xa;<rect fill="white" height="16" width="16"/>&#xa;</clipPath>&#xa;</defs>&#xa;</svg>