<svg xmlns="http://www.w3.org/2000/svg" fill="none" viewBox="0 0 49 49" height="49" width="49">&#xa;<g clip-path="url(#clip0_2622_3748)">&#xa;<circle stroke-width="0.857143" stroke="#D5DADD" fill="url(#paint0_linear_2622_3748)" r="23.5714" cy="24.0349" cx="24.5"/>&#xa;<path fill="url(#paint1_radial_2622_3748)" d="M36.8698 12.4585C36.0949 11.6835 35.1262 11.296 33.9638 11.296H15.1007C13.9383 11.296 12.9696 11.6835 12.1947 12.4585C11.4197 13.2334 11.0322 14.1845 11.0322 15.3117V36.9223C11.0322 37.4859 11.2964 37.891 11.8248 38.1375C12.3884 38.3841 12.8815 38.2961 13.3042 37.8734L18.3238 32.8538H33.9638C35.1262 32.8538 36.0949 32.4663 36.8698 31.6914C37.6448 30.9164 38.0323 29.9653 38.0323 28.8381V15.3117C38.0323 14.1845 37.6448 13.2334 36.8698 12.4585ZM32.672 21.1978C32.6314 21.0696 32.5267 20.9736 32.3983 20.9522L30.4792 20.6604L29.6143 18.8311C29.4994 18.5891 29.1244 18.5891 29.0095 18.8311L28.1412 20.6568L26.2221 20.9522C26.0937 20.9736 25.9889 21.0661 25.9484 21.1978C25.9079 21.3259 25.945 21.4682 26.0362 21.5643L27.4249 22.963L27.0836 24.9809C27.06 25.1161 27.114 25.2478 27.2154 25.3297C27.3201 25.4115 27.4553 25.4222 27.5702 25.3581L29.3068 24.4115L31.0435 25.3581C31.0941 25.383 31.1448 25.3973 31.1989 25.3973C31.2698 25.3973 31.3408 25.3724 31.3982 25.3297C31.503 25.2478 31.5536 25.1126 31.53 24.9809L31.1887 22.963L32.5774 21.5643C32.672 21.4718 32.7058 21.3294 32.6652 21.1978H32.672ZM23.0696 21.1978C23.029 21.0696 22.9243 20.9736 22.7959 20.9522L20.8768 20.6604L20.0119 18.8311C19.897 18.5891 19.522 18.5891 19.4071 18.8311L18.5388 20.6568L16.6197 20.9522C16.4913 20.9736 16.3865 21.0661 16.346 21.1978C16.3055 21.3259 16.3426 21.4682 16.4338 21.5643L17.8225 22.963L17.4812 24.9809C17.4576 25.1161 17.5116 25.2478 17.613 25.3297C17.7177 25.4115 17.8529 25.4222 17.9678 25.3581L19.7044 24.4115L21.4411 25.3581C21.4917 25.383 21.5424 25.3973 21.5965 25.3973C21.6674 25.3973 21.7384 25.3724 21.7958 25.3297C21.9006 25.2478 21.9512 25.1126 21.9276 24.9809L21.5863 22.963L22.975 21.5643C23.0696 21.4718 23.1034 21.3294 23.0628 21.1978H23.0696Z" clip-rule="evenodd" fill-rule="evenodd"/>&#xa;</g>&#xa;<defs>&#xa;<linearGradient gradientUnits="userSpaceOnUse" y2="44.2792" x2="41.5645" y1="6.84775" x1="4.85287" id="paint0_linear_2622_3748">&#xa;<stop stop-color="white"/>&#xa;<stop stop-color="#EAECEE" offset="1"/>&#xa;</linearGradient>&#xa;<radialGradient gradientTransform="translate(15.2192 15.2572) rotate(45.2944) scale(26.5733 50.2086)" gradientUnits="userSpaceOnUse" r="1" cy="0" cx="0" id="paint1_radial_2622_3748">&#xa;<stop stop-color="#0195FF"/>&#xa;<stop stop-color="#1147E9" offset="1"/>&#xa;</radialGradient>&#xa;<clipPath id="clip0_2622_3748">&#xa;<rect transform="translate(0.5 0.0349121)" fill="white" height="48" width="48"/>&#xa;</clipPath>&#xa;</defs>&#xa;</svg>