<svg xmlns="http://www.w3.org/2000/svg" fill="none" viewBox="0 0 49 49" height="49" width="49">&#xa;<circle stroke-width="0.857143" stroke="#D5DADD" fill="url(#paint0_linear_2622_2916)" r="23.5714" cy="24.0349" cx="24.5"/>&#xa;<g clip-path="url(#clip0_2622_2916)">&#xa;<path fill="url(#paint1_radial_2622_2916)" d="M20.7944 30.8116C21.905 34.6936 25.4801 37.5349 29.7187 37.5349C34.8446 37.5349 39 33.3796 39 28.2537C39 23.6885 35.704 19.8931 31.3618 19.1174L33.437 22.7116C34.4016 24.3824 34.4016 26.4409 33.437 28.1117C32.4723 29.7824 30.6896 30.8116 28.7604 30.8116H20.7944Z" clip-rule="evenodd" fill-rule="evenodd"/>&#xa;<path fill="url(#paint2_radial_2622_2916)" d="M24.0685 11.8849C23.5862 11.0495 22.6948 10.5349 21.7302 10.5349C20.7656 10.5349 19.8743 11.0495 19.392 11.8849L12.3617 24.0616C11.8794 24.897 11.8794 25.9262 12.3617 26.7616C12.844 27.597 13.7354 28.1116 14.7 28.1116H28.7604C29.7251 28.1116 30.6164 27.597 31.0987 26.7616C31.581 25.9262 31.581 24.897 31.0987 24.0616L24.0685 11.8849Z" clip-rule="evenodd" fill-rule="evenodd"/>&#xa;</g>&#xa;<defs>&#xa;<linearGradient gradientUnits="userSpaceOnUse" y2="44.2792" x2="41.5645" y1="6.84775" x1="4.85287" id="paint0_linear_2622_2916">&#xa;<stop stop-color="white"/>&#xa;<stop stop-color="#EAECEE" offset="1"/>&#xa;</linearGradient>&#xa;<radialGradient gradientTransform="translate(23.6918 21.8815) rotate(45.3316) scale(18.1357 22.0087)" gradientUnits="userSpaceOnUse" r="1" cy="0" cx="0" id="paint1_radial_2622_2916">&#xa;<stop stop-color="#00BBFF"/>&#xa;<stop stop-color="#008BFF" offset="1"/>&#xa;</radialGradient>&#xa;<radialGradient gradientTransform="translate(15.0178 13.1157) rotate(42.405) scale(18.2467 34.3366)" gradientUnits="userSpaceOnUse" r="1" cy="0" cx="0" id="paint2_radial_2622_2916">&#xa;<stop stop-color="#0195FF"/>&#xa;<stop stop-color="#1147E9" offset="1"/>&#xa;</radialGradient>&#xa;<clipPath id="clip0_2622_2916">&#xa;<rect transform="translate(12 10.5349)" fill="white" height="27" width="27"/>&#xa;</clipPath>&#xa;</defs>&#xa;</svg>