<svg xmlns="http://www.w3.org/2000/svg" fill="none" viewBox="0 0 49 49" height="49" width="49">&#xa;<circle stroke-width="0.857143" stroke="#D5DADD" fill="url(#paint0_linear_2622_3145)" r="23.5714" cy="24.0349" cx="24.5"/>&#xa;<g clip-path="url(#clip0_2622_3145)">&#xa;<path fill="url(#paint1_radial_2622_3145)" d="M17.9835 24.563C18.133 24.7125 18.3357 24.7965 18.5471 24.7965C18.7585 24.7965 18.9612 24.7125 19.1107 24.563C19.2602 24.4136 19.3441 24.2108 19.3441 23.9994C19.3422 23.2665 19.4858 22.5406 19.7666 21.8636C20.0475 21.1867 20.4599 20.5722 20.9801 20.0559C22.042 19.0406 23.4547 18.4739 24.924 18.4739C26.3932 18.4739 27.8059 19.0406 28.8678 20.0559C29.0176 20.2057 29.2207 20.2898 29.4325 20.2898C29.6443 20.2898 29.8474 20.2057 29.9972 20.0559C30.1469 19.9062 30.2311 19.703 30.2311 19.4913C30.2311 19.2795 30.1469 19.0763 29.9972 18.9266C28.6295 17.6236 26.8129 16.8968 24.924 16.8968C23.035 16.8968 21.2184 17.6236 19.8507 18.9266C19.1829 19.5915 18.6535 20.3822 18.2929 21.2529C17.9323 22.1235 17.7478 23.057 17.75 23.9994C17.75 24.2108 17.834 24.4136 17.9835 24.563ZM22.1734 30.6302C23.0441 30.9907 23.9776 31.1753 24.92 31.1731C26.1785 31.1715 27.4146 30.8398 28.5048 30.2111C29.595 29.5824 30.5012 28.6787 31.1329 27.5902C31.1883 27.4996 31.225 27.3989 31.2409 27.2939C31.2569 27.1889 31.2517 27.0818 31.2256 26.9788C31.1996 26.8759 31.1532 26.7792 31.0893 26.6944C31.0253 26.6096 30.9451 26.5385 30.8533 26.4851C30.7615 26.4318 30.6599 26.3974 30.5546 26.3838C30.4493 26.3702 30.3423 26.3779 30.24 26.4062C30.1377 26.4346 30.0421 26.4831 29.9587 26.5489C29.8754 26.6148 29.8061 26.6966 29.7548 26.7896C29.5103 27.2117 29.2108 27.5996 28.8643 27.943C27.8023 28.9584 26.3896 29.525 24.9204 29.525C23.4511 29.525 22.0385 28.9584 20.9765 27.943C20.8268 27.7933 20.6236 27.7091 20.4118 27.7091C20.2 27.7091 19.9969 27.7933 19.8472 27.943C19.6974 28.0928 19.6133 28.2959 19.6133 28.5077C19.6133 28.7195 19.6974 28.9226 19.8472 29.0724C20.5121 29.7402 21.3027 30.2696 22.1734 30.6302ZM24.9199 25.8967C24.6711 25.8964 24.4247 25.8471 24.1948 25.7516C23.965 25.6561 23.7562 25.5162 23.5804 25.3401C23.4046 25.1639 23.2653 24.9548 23.1703 24.7247C23.0753 24.4947 23.0265 24.2482 23.0268 23.9993C23.0268 23.9295 23.0406 23.8604 23.0673 23.796C23.094 23.7315 23.1331 23.6729 23.1825 23.6236C23.2318 23.5742 23.2904 23.5351 23.3549 23.5084C23.4193 23.4817 23.4884 23.4679 23.5582 23.4679C23.628 23.4679 23.6971 23.4817 23.7615 23.5084C23.826 23.5351 23.8846 23.5742 23.9339 23.6236C23.9833 23.6729 24.0224 23.7315 24.0491 23.796C24.0758 23.8604 24.0896 23.9295 24.0896 23.9993C24.0892 24.1087 24.1104 24.217 24.152 24.3182C24.1936 24.4193 24.2547 24.5113 24.3319 24.5888C24.4912 24.7396 24.7023 24.8237 24.9217 24.8237C25.1411 24.8237 25.3522 24.7396 25.5115 24.5888C25.629 24.4724 25.7092 24.3237 25.7419 24.1617C25.7747 23.9996 25.7585 23.8314 25.6955 23.6786C25.6325 23.5257 25.5254 23.3951 25.388 23.3032C25.2505 23.2113 25.0888 23.1624 24.9235 23.1626C24.7826 23.1626 24.6474 23.1066 24.5477 23.0069C24.4481 22.9073 24.3921 22.7721 24.3921 22.6312C24.3921 22.4903 24.4481 22.3551 24.5477 22.2555C24.6474 22.1558 24.7826 22.0998 24.9235 22.0998C25.4269 22.1004 25.9095 22.3008 26.2653 22.6569C26.621 23.0131 26.8209 23.4959 26.8209 23.9993C26.8207 24.2487 26.7713 24.4956 26.6757 24.726C26.5801 24.9563 26.44 25.1656 26.2635 25.3418C26.0869 25.518 25.8774 25.6577 25.6469 25.7529C25.4164 25.8481 25.1694 25.8969 24.9199 25.8967ZM22.4531 27.6906C23.1833 28.1786 24.0418 28.4392 24.92 28.4393C25.1314 28.4393 25.3342 28.3554 25.4836 28.2059C25.6331 28.0564 25.7171 27.8537 25.7171 27.6423C25.7171 27.4309 25.6331 27.2281 25.4836 27.0787C25.3342 26.9292 25.1314 26.8452 24.92 26.8452C24.3581 26.8433 23.8093 26.6752 23.3427 26.362C22.8762 26.0488 22.5127 25.6046 22.2981 25.0852C22.0835 24.5659 22.0273 23.9946 22.1367 23.4435C22.2461 22.8923 22.5162 22.3858 22.9128 21.9878C23.4549 21.4703 24.1756 21.1816 24.925 21.1816C25.6744 21.1816 26.395 21.4703 26.9371 21.9878C27.2024 22.2511 27.4126 22.5645 27.5555 22.9098C27.6984 23.2552 27.7712 23.6255 27.7696 23.9992C27.7696 24.2106 27.8536 24.4133 28.0031 24.5628C28.1526 24.7123 28.3553 24.7962 28.5667 24.7962C28.7781 24.7962 28.9808 24.7123 29.1303 24.5628C29.2798 24.4133 29.3638 24.2106 29.3638 23.9992C29.3652 23.4155 29.2507 22.8373 29.0271 22.2982C28.8034 21.7591 28.475 21.2697 28.0608 20.8584C27.2146 20.052 26.0904 19.6021 24.9215 19.6021C23.7525 19.6021 22.6283 20.052 21.7821 20.8584C21.1608 21.4792 20.7376 22.2703 20.566 23.1316C20.3944 23.993 20.4821 24.8859 20.818 25.6973C21.1539 26.5088 21.723 27.2025 22.4531 27.6906Z" clip-rule="evenodd" fill-rule="evenodd"/>&#xa;<path fill="url(#paint2_radial_2622_3145)" d="M26.6469 36.8435C25.3245 37.6327 23.6756 37.6327 22.3532 36.8435L14.6836 32.2665C13.4169 31.5106 12.6411 30.1442 12.6411 28.6691L12.6411 19.3529C12.6411 17.8778 13.4169 16.5114 14.6836 15.7555L22.3532 11.1785C23.6756 10.3893 25.3245 10.3893 26.6469 11.1785L34.3165 15.7555C35.5832 16.5115 36.359 17.8778 36.359 19.3529L36.359 28.6691C36.359 30.1442 35.5832 31.5106 34.3165 32.2665L26.6469 36.8435ZM23.7844 34.4452C24.2252 34.7083 24.7748 34.7083 25.2157 34.4452L32.8853 29.8682C33.3075 29.6162 33.5661 29.1608 33.5661 28.6691V19.3529C33.5661 18.8612 33.3075 18.4058 32.8853 18.1538L25.2157 13.5768C24.7749 13.3137 24.2252 13.3137 23.7844 13.5768L16.1148 18.1538C15.6926 18.4058 15.434 18.8612 15.434 19.3529L15.434 28.6691C15.434 29.1608 15.6926 29.6162 16.1148 29.8682L23.7844 34.4452Z" clip-rule="evenodd" fill-rule="evenodd"/>&#xa;</g>&#xa;<defs>&#xa;<linearGradient gradientUnits="userSpaceOnUse" y2="44.2792" x2="41.5645" y1="6.84775" x1="4.85287" id="paint0_linear_2622_3145">&#xa;<stop stop-color="white"/>&#xa;<stop stop-color="#EAECEE" offset="1"/>&#xa;</linearGradient>&#xa;<radialGradient gradientTransform="translate(16.3138 14.6256) rotate(48.5431) scale(24.9544 22.5663)" gradientUnits="userSpaceOnUse" r="1" cy="0" cx="0" id="paint1_radial_2622_3145">&#xa;<stop stop-color="#1348FF"/>&#xa;<stop stop-color="#06238D" offset="1"/>&#xa;</radialGradient>&#xa;<radialGradient gradientTransform="translate(16.3191 14.5288) rotate(48.8585) scale(24.9588 46.7336)" gradientUnits="userSpaceOnUse" r="1" cy="0" cx="0" id="paint2_radial_2622_3145">&#xa;<stop stop-color="#0195FF"/>&#xa;<stop stop-color="#1147E9" offset="1"/>&#xa;</radialGradient>&#xa;<clipPath id="clip0_2622_3145">&#xa;<rect transform="translate(11 10.5349)" fill="white" height="27" width="27"/>&#xa;</clipPath>&#xa;</defs>&#xa;</svg>