<svg xmlns="http://www.w3.org/2000/svg" fill="none" viewBox="0 0 49 49" height="49" width="49">&#xa;<circle stroke-width="0.857143" stroke="#D5DADD" fill="url(#paint0_linear_2622_3040)" r="23.5714" cy="24.0349" cx="24.5"/>&#xa;<g clip-path="url(#clip0_2622_3040)">&#xa;<path fill="url(#paint1_radial_2622_3040)" d="M12.3384 23.9241H12.3361L12.5772 21.2685L12.608 20.9136L12.9336 20.7499L20.2721 17.0768L20.6134 16.9046L20.936 17.1026L23.1374 18.4453L12.3384 23.9241ZM26.8424 20.724L13.0756 27.6146L12 28.1546L12.2201 25.6566L12.2516 25.3056L12.5748 25.1396L24.2782 19.1552L24.6055 19.3532L26.8424 20.724ZM24.2223 27.8115L25.2741 28.3937L26.4726 29.0608L26.7889 29.2352L38.5301 23.3644L38.8731 23.1922L38.8912 22.8199L38.9512 21.3849L39.0001 20.2639L24.2223 27.8115ZM28.0078 29.9535L37.7952 25.0237L38.8219 24.5051L38.7706 25.6239L38.7083 27.0161L38.6926 27.3862L38.3542 27.5584L30.7234 31.4559L30.4048 31.2793L29.0683 30.5413L28.0078 29.9535Z" clip-rule="evenodd" fill-rule="evenodd"/>&#xa;<path fill="url(#paint2_radial_2622_3040)" d="M24.6387 10.5433L24.6235 10.5349V11.7077L24.6101 13.0442V13.3947L35.656 20.4124L35.9816 20.6273L36.3269 20.4574L38.6861 19.2998L24.6387 10.5433Z"/>&#xa;<path fill="url(#paint3_radial_2622_3040)" d="M19.1673 26.2028L18.8488 26.0245L18.5232 26.1882L16.0726 27.4167L17.1308 28.0062L26.6421 33.287V30.4036L26.3102 30.2163L19.1673 26.2028Z"/>&#xa;<path fill="url(#paint4_radial_2622_3040)" d="M24.559 14.7851H24.5479V15.9664L24.5345 17.453V17.8085L24.8438 17.9998L31.7862 22.3361L32.1071 22.5358L32.4501 22.3682L33.7378 21.7337L34.7715 21.2274L24.559 14.7851Z"/>&#xa;<path fill="url(#paint5_radial_2622_3040)" d="M15.1366 28.2621L14.8204 28.0883L14.4972 28.2492L12.1939 29.4091L12.1916 29.4136L25.6368 36.9713L26.642 37.5349V34.6038L26.3054 34.4193L15.1366 28.2621Z"/>&#xa;</g>&#xa;<defs>&#xa;<linearGradient gradientUnits="userSpaceOnUse" y2="44.2792" x2="41.5645" y1="6.84775" x1="4.85287" id="paint0_linear_2622_3040">&#xa;<stop stop-color="white"/>&#xa;<stop stop-color="#EAECEE" offset="1"/>&#xa;</linearGradient>&#xa;<radialGradient gradientTransform="translate(16.1809 14.5966) rotate(45) scale(26.5979 24.2376)" gradientUnits="userSpaceOnUse" r="1" cy="0" cx="0" id="paint1_radial_2622_3040">&#xa;<stop stop-color="#1348FF"/>&#xa;<stop stop-color="#06238D" offset="1"/>&#xa;</radialGradient>&#xa;<radialGradient gradientTransform="translate(16.187 14.4993) rotate(45.318) scale(26.5844 50.2292)" gradientUnits="userSpaceOnUse" r="1" cy="0" cx="0" id="paint2_radial_2622_3040">&#xa;<stop stop-color="#0195FF"/>&#xa;<stop stop-color="#1147E9" offset="1"/>&#xa;</radialGradient>&#xa;<radialGradient gradientTransform="translate(16.187 14.4993) rotate(45.318) scale(26.5844 50.2292)" gradientUnits="userSpaceOnUse" r="1" cy="0" cx="0" id="paint3_radial_2622_3040">&#xa;<stop stop-color="#0195FF"/>&#xa;<stop stop-color="#1147E9" offset="1"/>&#xa;</radialGradient>&#xa;<radialGradient gradientTransform="translate(16.187 14.4993) rotate(45.318) scale(26.5844 50.2292)" gradientUnits="userSpaceOnUse" r="1" cy="0" cx="0" id="paint4_radial_2622_3040">&#xa;<stop stop-color="#0195FF"/>&#xa;<stop stop-color="#1147E9" offset="1"/>&#xa;</radialGradient>&#xa;<radialGradient gradientTransform="translate(16.187 14.4993) rotate(45.318) scale(26.5844 50.2292)" gradientUnits="userSpaceOnUse" r="1" cy="0" cx="0" id="paint5_radial_2622_3040">&#xa;<stop stop-color="#0195FF"/>&#xa;<stop stop-color="#1147E9" offset="1"/>&#xa;</radialGradient>&#xa;<clipPath id="clip0_2622_3040">&#xa;<rect transform="translate(12 10.5349)" fill="white" height="27" width="27"/>&#xa;</clipPath>&#xa;</defs>&#xa;</svg>