<svg xmlns="http://www.w3.org/2000/svg" fill="none" viewBox="0 0 49 49" height="49" width="49">&#xa;<circle stroke-width="0.857143" stroke="#D5DADD" fill="url(#paint0_linear_2622_3113)" r="23.5714" cy="24.0349" cx="24.5"/>&#xa;<g clip-path="url(#clip0_2622_3113)">&#xa;<path fill="url(#paint1_radial_2622_3113)" d="M18.647 21.7029C19.0526 22.2593 18.9304 23.039 18.3741 23.4446C17.5852 24.0198 16.9227 24.756 16.4347 25.6048C17.1879 25.7167 17.9217 25.8069 18.6344 25.8767C18.6824 25.6613 18.735 25.4499 18.7922 25.243C18.9411 24.704 19.4988 24.3878 20.0378 24.5368C20.5768 24.6857 20.893 25.2434 20.744 25.7824C20.7219 25.8624 20.7006 25.9433 20.68 26.0252C21.9809 26.0855 23.196 26.0741 24.3129 26.001C24.2945 25.9283 24.2754 25.8563 24.2558 25.7851C24.107 25.2461 24.4233 24.6885 24.9624 24.5397C25.5014 24.3909 26.059 24.7073 26.2078 25.2463C26.2565 25.4231 26.302 25.6031 26.3441 25.7862C26.6851 25.7349 27.0133 25.6771 27.3284 25.613C27.8763 25.5017 28.4109 25.8556 28.5222 26.4036C28.6336 26.9516 28.2796 27.4861 27.7316 27.5975C27.3849 27.6679 27.0254 27.7314 26.6537 27.7874C26.6902 28.2188 26.7091 28.66 26.7091 29.1083C26.7091 29.5253 26.6906 29.9322 26.6552 30.3282C27.5128 30.1959 28.4091 30.0284 29.3656 29.8275C29.3932 29.5761 29.4073 29.3206 29.4073 29.0619C29.4073 28.6048 29.3634 28.1593 29.2798 27.7288C29.1485 27.0529 29.59 26.3986 30.2659 26.2674C30.9417 26.1362 31.596 26.5777 31.7272 27.2535C31.8411 27.8398 31.9005 28.4445 31.9005 29.0619C31.9005 34.2752 27.6744 38.5013 22.4611 38.5013C17.2479 38.5013 13.0217 34.2752 13.0217 29.0619C13.0217 25.9243 14.5538 23.1444 16.9053 21.43C17.4616 21.0244 18.2414 21.1466 18.647 21.7029ZM28.749 32.0176C27.8934 32.1826 27.0783 32.3196 26.2885 32.4274C26.0345 33.3804 25.6764 34.2379 25.2442 34.9793C25.1224 35.1884 24.9933 35.3902 24.8577 35.5836C26.5757 34.9521 27.975 33.6611 28.749 32.0176ZM24.5906 30.5837C24.6512 30.116 24.6841 29.6234 24.6841 29.1083C24.6841 28.7334 24.669 28.366 24.6401 28.0083C23.3214 28.1033 21.8876 28.1165 20.3567 28.0367C20.3292 28.3855 20.315 28.7433 20.315 29.1083C20.315 29.6369 20.3495 30.1417 20.4132 30.6203C21.8184 30.7268 23.1722 30.7116 24.5906 30.5837ZM20.9103 32.6808C21.9791 32.7361 23.0276 32.7256 24.0986 32.6535C23.9251 33.1355 23.7204 33.5724 23.4947 33.9596C23.1813 34.4973 22.84 34.9204 22.4995 35.2387C22.1591 34.9204 21.8177 34.4973 21.5043 33.9596C21.2829 33.5797 21.0817 33.1521 20.9103 32.6808ZM18.3488 30.3829C18.3102 29.9698 18.29 29.5445 18.29 29.1083C18.29 28.6927 18.3061 28.2833 18.3376 27.8822C17.4771 27.7959 16.5912 27.6818 15.6825 27.5381C15.5728 28.0285 15.5149 28.5384 15.5149 29.0619C15.5149 29.3261 15.5297 29.5869 15.5584 29.8434C16.543 30.0694 17.465 30.2486 18.3488 30.3829ZM16.1899 32.0525C17.0719 32.2326 17.9114 32.3747 18.7249 32.4805C18.9779 33.4123 19.3307 34.2517 19.7548 34.9793C19.8844 35.2017 20.0222 35.4159 20.1673 35.6205C18.4147 35.0075 16.9826 33.712 16.1899 32.0525Z" clip-rule="evenodd" fill-rule="evenodd"/>&#xa;<path fill="url(#paint2_radial_2622_3113)" d="M25.3641 20.9324C25.7471 21.3295 26.1311 21.7327 26.5486 22.0937C26.7434 22.285 26.9918 22.4072 27.2856 22.4072C27.6043 22.4072 27.8696 22.2634 28.0709 22.0435C28.2908 21.8422 28.4347 21.5768 28.4347 21.2581C28.4347 20.9509 28.301 20.6933 28.0945 20.4948C27.7413 20.1554 27.2446 19.6302 26.8426 19.1865C26.9247 19.0728 27.0092 18.9509 27.096 18.8209C27.2702 18.588 27.4435 18.3376 27.6158 18.0698C28.1474 17.3007 28.4889 16.4811 28.8761 15.6422C28.951 15.4738 29.0069 15.2956 29.0432 15.115H29.9347C30.603 15.115 31.0553 14.6245 31.0553 13.9659C31.0553 13.3023 30.5982 12.8452 29.9347 12.8452H26.4407V12.6555C26.4407 12.3452 26.3386 12.0481 26.0921 11.8295C25.8689 11.6141 25.5802 11.5349 25.2916 11.5349C25.0014 11.5349 24.6983 11.6078 24.4711 11.835C24.2438 12.0623 24.1709 12.3654 24.1709 12.6555V12.8452H20.6485C20.0032 12.8452 19.5278 13.3222 19.5278 13.9659C19.5278 14.618 19.9841 15.115 20.6485 15.115H26.7031C26.396 15.7093 26.0878 16.2834 25.7065 16.8343C25.5743 17.0334 25.4461 17.2347 25.309 17.4305L25.3031 17.4393L25.299 17.4454C24.8973 17.0437 24.5978 16.5948 24.3197 16.1054C24.1709 15.8238 23.9737 15.6048 23.6549 15.5339C23.0606 15.4019 22.5209 15.6713 22.2741 16.2266L22.2684 16.2392L22.2636 16.2522C22.1553 16.5408 22.1906 16.8413 22.2904 17.1159L22.2966 17.1329L22.3041 17.1494C22.4159 17.3953 22.5678 17.6426 22.7543 17.8913L22.7615 17.9008L22.7691 17.91C22.9509 18.1282 23.1338 18.3658 23.3176 18.6232L23.34 18.6545L23.3673 18.6818C23.5056 18.8201 23.6237 18.9555 23.7228 19.0877L23.7333 19.1017L23.8583 19.2445L21.2593 21.869C21.0493 22.0795 20.9236 22.3471 20.9236 22.6539C20.9236 22.9612 21.0487 23.2282 21.2593 23.4388C21.47 23.6494 21.737 23.7745 22.0443 23.7745C22.3477 23.7745 22.6144 23.653 22.835 23.46L22.8467 23.4498L25.3641 20.9324Z" clip-rule="evenodd" fill-rule="evenodd"/>&#xa;<path fill="url(#paint3_radial_2622_3113)" d="M29.2282 22.9568L32.091 15.8152C32.2145 15.5757 32.359 15.38 32.5997 15.2575C32.7806 15.1654 33.0415 15.1169 33.2634 15.1169C33.459 15.1169 33.6501 15.1582 33.8213 15.2575C34.0513 15.3777 34.1863 15.5839 34.2504 15.8152L37.1131 22.9567C37.3577 23.5168 37.0783 24.2085 36.4886 24.3984C35.9054 24.6434 35.2878 24.3137 35.0413 23.7591L35.0348 23.7446L34.4832 22.3515H31.8581L31.3004 23.7592C31.0576 24.3054 30.4515 24.6406 29.878 24.3961C29.2895 24.1895 28.9755 23.5355 29.2282 22.9568ZM33.1707 18.0698L32.1817 20.5112H34.1905L33.1707 18.0698Z" clip-rule="evenodd" fill-rule="evenodd"/>&#xa;</g>&#xa;<defs>&#xa;<linearGradient gradientUnits="userSpaceOnUse" y2="44.2792" x2="41.5645" y1="6.84775" x1="4.85287" id="paint0_linear_2622_3113">&#xa;<stop stop-color="white"/>&#xa;<stop stop-color="#EAECEE" offset="1"/>&#xa;</linearGradient>&#xa;<radialGradient gradientTransform="translate(15.9493 23.7324) rotate(42.8359) scale(17.8243 33.5837)" gradientUnits="userSpaceOnUse" r="1" cy="0" cx="0" id="paint1_radial_2622_3113">&#xa;<stop stop-color="#0195FF"/>&#xa;<stop stop-color="#1147E9" offset="1"/>&#xa;</radialGradient>&#xa;<radialGradient gradientTransform="translate(21.3128 13.3762) rotate(46.7162) scale(11.7118 10.6534)" gradientUnits="userSpaceOnUse" r="1" cy="0" cx="0" id="paint2_radial_2622_3113">&#xa;<stop stop-color="#1348FF"/>&#xa;<stop stop-color="#06238D" offset="1"/>&#xa;</radialGradient>&#xa;<radialGradient gradientTransform="translate(30.4231 16.5222) rotate(49.2735) scale(8.65283 10.3848)" gradientUnits="userSpaceOnUse" r="1" cy="0" cx="0" id="paint3_radial_2622_3113">&#xa;<stop stop-color="#00BBFF"/>&#xa;<stop stop-color="#008BFF" offset="1"/>&#xa;</radialGradient>&#xa;<clipPath id="clip0_2622_3113">&#xa;<rect transform="translate(13 11.5349)" fill="white" height="27" width="27"/>&#xa;</clipPath>&#xa;</defs>&#xa;</svg>