<svg xmlns="http://www.w3.org/2000/svg" fill="none" viewBox="0 0 16 16" height="16" width="16">&#xa;<circle stroke-width="0.285708" stroke="#D5DADD" fill="url(#paint0_linear_3890_21460)" r="7.85696" cy="7.99908" cx="7.99542"/>&#xa;<g clip-path="url(#clip0_3890_21460)">&#xa;<path fill="url(#paint1_linear_3890_21460)" d="M7.96733 3.15014C8.10909 2.91316 8.41612 2.83597 8.6531 2.97773L11.8246 4.8749C12.2877 5.15196 12.5713 5.65198 12.5713 6.19168V9.64228C12.5713 10.183 12.2867 10.6838 11.8222 10.9605L8.98156 12.6527C8.49772 12.9409 7.89486 12.9409 7.41102 12.6527L4.57041 10.9605C4.10588 10.6838 3.82129 10.183 3.82129 9.64228L3.82129 6.1924C3.82129 5.65212 4.10543 5.15166 4.56937 4.87479L6.38994 3.78833C6.62706 3.64682 6.93401 3.72433 7.07552 3.96145C7.21703 4.19858 7.13952 4.50553 6.90239 4.64704L5.08183 5.73351C4.92025 5.82993 4.82129 6.00423 4.82129 6.1924L4.82129 9.64228C4.82129 9.8306 4.92041 10.005 5.08219 10.1014L7.9228 11.7935C8.09131 11.8939 8.30127 11.8939 8.46978 11.7935L11.3104 10.1014C11.4722 10.005 11.5713 9.8306 11.5713 9.64228V6.19168C11.5713 6.00371 11.4725 5.82957 11.3112 5.73308L8.13974 3.8359C7.90276 3.69414 7.82557 3.38711 7.96733 3.15014Z" clip-rule="evenodd" fill-rule="evenodd"/>&#xa;<path fill="url(#paint2_linear_3890_21460)" d="M10.4971 7.95372C10.6104 8.00519 10.667 8.09269 10.667 8.21623V8.24711L10.5898 8.57139C10.5589 8.70522 10.4765 8.77213 10.3427 8.77213H10.3118L9.81769 8.69492C9.72504 8.89052 9.57576 9.07067 9.36987 9.23538L9.55518 9.76041C9.56547 9.78099 9.57062 9.80673 9.57062 9.83761C9.57062 9.96115 9.52429 10.0435 9.43164 10.0847L9.13824 10.2391C9.09707 10.2597 9.06618 10.27 9.04559 10.27C8.95294 10.27 8.88088 10.2237 8.82941 10.131L8.53601 9.62143C8.48454 9.63172 8.42792 9.64202 8.36615 9.65231H8.19629H8.04187C8.00069 9.64202 7.95437 9.63172 7.90289 9.62143L7.59406 10.1465C7.54258 10.2288 7.47567 10.27 7.39331 10.27C7.34184 10.27 7.30581 10.2597 7.28522 10.2391L6.99182 10.1001C6.89917 10.0589 6.85284 9.98689 6.85284 9.88394C6.85284 9.84276 6.85799 9.81188 6.86829 9.79129L7.05359 9.26627C6.86829 9.13244 6.71901 8.95743 6.60577 8.74125L6.08075 8.81846H6.04987C5.91604 8.81846 5.83368 8.75154 5.8028 8.61771L5.72559 8.29344V8.26255C5.72559 8.13902 5.78221 8.05151 5.89545 8.00004L6.34326 7.86107V7.7993C6.34326 7.54194 6.38959 7.30516 6.48224 7.08898L6.14252 6.78014C6.11163 6.74926 6.0859 6.69264 6.06531 6.61028C6.06531 6.53822 6.0859 6.4816 6.12708 6.44042L6.32782 6.17791C6.37929 6.11614 6.44106 6.08526 6.51312 6.08526C6.5646 6.08526 6.61092 6.1007 6.6521 6.13159L7.00726 6.37865C7.22345 6.20365 7.46023 6.08011 7.71759 6.00805L7.74847 5.56024C7.75877 5.49847 7.78451 5.447 7.82568 5.40582C7.87716 5.35435 7.93378 5.32861 7.99554 5.32861H8.31982C8.39189 5.32861 8.44851 5.35435 8.48969 5.40582C8.54116 5.447 8.56689 5.49847 8.56689 5.56024L8.59778 5.99261C8.85514 6.05438 9.10221 6.16762 9.33899 6.33233L9.69415 6.08526C9.74563 6.05438 9.79195 6.03894 9.83313 6.03894C9.91549 6.03894 9.97725 6.06982 10.0184 6.13159L10.2192 6.3941C10.2604 6.43527 10.2809 6.49189 10.2809 6.56396C10.2809 6.62572 10.2552 6.68234 10.2037 6.73382L9.8949 7.04265C9.94637 7.15589 9.9824 7.27428 10.003 7.39781C10.0339 7.52135 10.0493 7.65518 10.0493 7.7993V7.81474L10.4971 7.95372ZM7.43964 8.55595C7.23374 8.35006 7.1308 8.09784 7.1308 7.7993C7.1308 7.50076 7.23374 7.24854 7.43964 7.04265C7.64553 6.83676 7.89775 6.73382 8.19629 6.73382C8.49483 6.73382 8.74705 6.83676 8.95294 7.04265C9.15883 7.24854 9.26178 7.50076 9.26178 7.7993C9.26178 8.09784 9.15883 8.35006 8.95294 8.55595C8.74705 8.76184 8.49483 8.86478 8.19629 8.86478C7.89775 8.86478 7.64553 8.76184 7.43964 8.55595Z" clip-rule="evenodd" fill-rule="evenodd"/>&#xa;</g>&#xa;<defs>&#xa;<linearGradient gradientUnits="userSpaceOnUse" y2="14.747" x2="13.6835" y1="2.27016" x1="1.44653" id="paint0_linear_3890_21460">&#xa;<stop stop-color="white"/>&#xa;<stop stop-color="#EAECEE" offset="1"/>&#xa;</linearGradient>&#xa;<linearGradient gradientUnits="userSpaceOnUse" y2="10.4744" x2="12.0504" y1="4.39651" x1="5.13295" id="paint1_linear_3890_21460">&#xa;<stop stop-color="#0195FF"/>&#xa;<stop stop-color="#1147E9" offset="0.991028"/>&#xa;</linearGradient>&#xa;<linearGradient gradientUnits="userSpaceOnUse" y2="9.52871" x2="9.91433" y1="6.0556" x1="6.45614" id="paint2_linear_3890_21460">&#xa;<stop stop-color="#1348FF"/>&#xa;<stop stop-color="#06238D" offset="1"/>&#xa;</linearGradient>&#xa;<clipPath id="clip0_3890_21460">&#xa;<rect transform="translate(3.1958 2.79932)" fill="white" height="10" width="10"/>&#xa;</clipPath>&#xa;</defs>&#xa;</svg>