<svg xmlns="http://www.w3.org/2000/svg" fill="none" viewBox="-0.00028179809570311187 0.6026177532958985 23.99956414550781 23.99956414550781" height="23.99956414550781" width="23.99956414550781">&#xa;<circle stroke-width="0.428565" stroke="#D5DADD" fill="url(#paint0_linear_7023_11201)" r="11.7855" cy="12.6024" cx="11.9995"/>&#xa;<mask height="11" width="16" y="7" x="4" maskUnits="userSpaceOnUse" style="mask-type:luminance" id="mask0_7023_11201">&#xa;<path fill="white" d="M19.2882 10.4211L17.1749 16.2558C16.9038 16.9851 15.9594 17.7986 14.8373 17.7986C13.7153 17.7986 12.7148 17.2563 12.3781 16.2932L11.4618 13.7592C11.041 12.5997 11.3402 11.2626 12.7428 10.7483C14.1454 10.2341 15.2861 11.1037 15.6228 12.4782C15.6695 12.6652 15.8846 12.768 16.0529 12.6932C16.1931 12.6278 16.2679 12.4688 16.2118 12.3192L15.1459 9.37382C15.043 9.08395 15.1272 8.80344 15.2113 8.62578C15.7163 7.64397 16.8851 7.1671 17.951 7.55982C19.1105 7.98059 19.7089 9.27096 19.2882 10.4304V10.4211ZM8.90911 8.87824C8.48834 7.71878 7.20732 7.12035 6.04786 7.54112C4.88839 7.97124 4.28996 9.25226 4.71074 10.4117L6.82395 16.2371C7.24472 17.3965 8.52574 17.995 9.6852 17.5742C10.8447 17.1534 11.4431 15.8631 11.0223 14.7036L8.90911 8.87824Z"/>&#xa;</mask>&#xa;<g mask="url(#mask0_7023_11201)">&#xa;<g filter="url(#filter0_d_7023_11201)">&#xa;<path fill="url(#paint1_radial_7023_11201)" d="M18.7645 5.78312C18.4782 5.26581 18.1687 4.7892 17.8401 4.35303L3.40631 6.47869L6.07977 20.7424L16.6647 19.5858L22.5123 11.3402C21.4293 9.47042 20.1118 7.59308 18.7645 5.78312Z" clip-rule="evenodd" fill-rule="evenodd"/>&#xa;</g>&#xa;<g filter="url(#filter1_d_7023_11201)">&#xa;<path fill="url(#paint2_radial_7023_11201)" d="M11.6675 21.7163C14.0893 21.5012 17.6705 18.2659 18.9235 15.5917C20.1765 12.9081 15.1833 9.60736 10.8727 9.56996C7.78805 9.5432 3.68348 10.3735 1.35504 12.0747L11.6675 21.7163Z" clip-rule="evenodd" fill-rule="evenodd"/>&#xa;</g>&#xa;<g filter="url(#filter2_d_7023_11201)">&#xa;<path fill="url(#paint3_radial_7023_11201)" d="M15.5761 16.2273C14.987 10.991 10.1154 11.2061 4.53318 12.6834C3.38701 12.986 2.59768 13.718 2.10675 14.6768L11.1815 22.575C13.7971 21.0737 15.8592 18.7979 15.5761 16.2273Z" clip-rule="evenodd" fill-rule="evenodd"/>&#xa;</g>&#xa;</g>&#xa;<defs>&#xa;<filter color-interpolation-filters="sRGB" filterUnits="userSpaceOnUse" height="20.1296" width="22.8462" y="3.41798" x="1.53621" id="filter0_d_7023_11201">&#xa;<feFlood result="BackgroundImageFix" flood-opacity="0"/>&#xa;<feColorMatrix result="hardAlpha" values="0 0 0 0 0 0 0 0 0 0 0 0 0 0 0 0 0 0 127 0" type="matrix" in="SourceAlpha"/>&#xa;<feOffset dy="0.93505"/>&#xa;<feGaussianBlur stdDeviation="0.93505"/>&#xa;<feColorMatrix values="0 0 0 0 0 0 0 0 0 0 0 0 0 0 0 0 0 0 0.8 0" type="matrix"/>&#xa;<feBlend result="effect1_dropShadow_7023_11201" in2="BackgroundImageFix" mode="normal"/>&#xa;<feBlend result="shape" in2="effect1_dropShadow_7023_11201" in="SourceGraphic" mode="normal"/>&#xa;</filter>&#xa;<filter color-interpolation-filters="sRGB" filterUnits="userSpaceOnUse" height="15.8872" width="21.5048" y="7.69924" x="-0.515058" id="filter1_d_7023_11201">&#xa;<feFlood result="BackgroundImageFix" flood-opacity="0"/>&#xa;<feColorMatrix result="hardAlpha" values="0 0 0 0 0 0 0 0 0 0 0 0 0 0 0 0 0 0 127 0" type="matrix" in="SourceAlpha"/>&#xa;<feOffset/>&#xa;<feGaussianBlur stdDeviation="0.93505"/>&#xa;<feColorMatrix values="0 0 0 0 0 0 0 0 0 0 0 0 0 0 0 0 0 0 0.4 0" type="matrix"/>&#xa;<feBlend result="effect1_dropShadow_7023_11201" in2="BackgroundImageFix" mode="normal"/>&#xa;<feBlend result="shape" in2="effect1_dropShadow_7023_11201" in="SourceGraphic" mode="normal"/>&#xa;</filter>&#xa;<filter color-interpolation-filters="sRGB" filterUnits="userSpaceOnUse" height="14.5412" width="17.2356" y="10.8389" x="0.236651" id="filter2_d_7023_11201">&#xa;<feFlood result="BackgroundImageFix" flood-opacity="0"/>&#xa;<feColorMatrix result="hardAlpha" values="0 0 0 0 0 0 0 0 0 0 0 0 0 0 0 0 0 0 127 0" type="matrix" in="SourceAlpha"/>&#xa;<feOffset dy="0.93505"/>&#xa;<feGaussianBlur stdDeviation="0.93505"/>&#xa;<feColorMatrix values="0 0 0 0 0 0 0 0 0 0 0 0 0 0 0 0 0 0 0.8 0" type="matrix"/>&#xa;<feBlend result="effect1_dropShadow_7023_11201" in2="BackgroundImageFix" mode="normal"/>&#xa;<feBlend result="shape" in2="effect1_dropShadow_7023_11201" in="SourceGraphic" mode="normal"/>&#xa;</filter>&#xa;<linearGradient gradientUnits="userSpaceOnUse" y2="22.7243" x2="20.5316" y1="4.00891" x1="2.17603" id="paint0_linear_7023_11201">&#xa;<stop stop-color="white"/>&#xa;<stop stop-color="#EAECEE" offset="1"/>&#xa;</linearGradient>&#xa;<radialGradient gradientTransform="translate(10.3139 12.0167) rotate(-75.65) scale(24.7134 24.3767)" gradientUnits="userSpaceOnUse" r="1" cy="0" cx="0" id="paint1_radial_7023_11201">&#xa;<stop stop-color="#004DF8"/>&#xa;<stop stop-color="#002688" offset="1"/>&#xa;</radialGradient>&#xa;<radialGradient gradientTransform="translate(4.93148 13.3196) rotate(31.98) scale(23.6287 42.6757)" gradientUnits="userSpaceOnUse" r="1" cy="0" cx="0" id="paint2_radial_7023_11201">&#xa;<stop stop-color="#0097F9"/>&#xa;<stop stop-color="#004BE2" offset="1"/>&#xa;</radialGradient>&#xa;<radialGradient gradientTransform="translate(8.23635 24.0488) rotate(-46.96) scale(18.2054 25.0406)" gradientUnits="userSpaceOnUse" r="1" cy="0" cx="0" id="paint3_radial_7023_11201">&#xa;<stop stop-color="#00BCFB"/>&#xa;<stop stop-color="#008DF9" offset="1"/>&#xa;</radialGradient>&#xa;</defs>&#xa;</svg>