<svg xmlns="http://www.w3.org/2000/svg" fill="none" viewBox="0 0 16 16" height="16" width="16">&#xa;<circle stroke-width="0.285708" stroke="#D5DADD" fill="url(#paint0_linear_3890_21478)" r="7.85696" cy="7.99884" cx="7.99493"/>&#xa;<g clip-path="url(#clip0_3890_21478)">&#xa;<path fill="url(#paint1_linear_3890_21478)" d="M6.60439 4.60002V3.51245L4.68896 5.42788H5.77654C6.00379 5.42788 6.19858 5.34671 6.36091 5.18439C6.52323 5.02207 6.60439 4.82728 6.60439 4.60002Z"/>&#xa;<path fill="url(#paint2_linear_3890_21478)" d="M10.2813 2.80933H7.46757C7.3592 2.80933 7.25527 2.85238 7.17864 2.92901C7.10201 3.00564 7.05896 3.10957 7.05896 3.21794V4.65242C7.05896 4.98752 6.93928 5.27476 6.69991 5.51412C6.46055 5.75348 6.17332 5.87317 5.83821 5.87317H4.40373C4.29536 5.87317 4.19143 5.91622 4.1148 5.99285C4.03817 6.06948 3.99512 6.17341 3.99512 6.28178V11.3754C3.99512 11.962 4.47071 12.4376 5.05738 12.4376H10.0303C10.0171 12.3023 10.028 12.165 10.0631 12.0331H9.03275C8.41143 12.0331 7.90776 11.5294 7.90776 10.9081C7.90776 10.2868 8.41143 9.78312 9.03275 9.78312H10.0631C9.96719 9.42264 10.0518 9.02142 10.317 8.73284C10.5908 8.43499 10.9861 8.33248 11.3435 8.42532V3.87159C11.3435 3.28492 10.868 2.80933 10.2813 2.80933ZM5.8 7.47049V8.65357H5.175V7.47049C5.175 7.12531 5.45482 6.84549 5.8 6.84549H7.10442V7.47049H5.8ZM9.42357 8.65357H10.0486V7.47049C10.0486 7.12531 9.76875 6.84549 9.42357 6.84549H8.11915V7.47049H9.42357V8.65357ZM5.8 9.26382H5.175V10.4469C5.175 10.7921 5.45482 11.0719 5.8 11.0719H7.10442V10.4469H5.8V9.26382Z" clip-rule="evenodd" fill-rule="evenodd"/>&#xa;<path fill="url(#paint3_linear_3890_21478)" d="M10.7558 11.992C10.5861 12.1767 10.5861 12.4759 10.7558 12.6606C10.9256 12.8453 11.2006 12.8453 11.3703 12.6606L12.6735 11.2425C12.8433 11.0578 12.8433 10.7586 12.6735 10.5739L11.3703 9.15586C11.2006 8.97116 10.9256 8.97116 10.7558 9.15586C10.5861 9.34056 10.5861 9.63977 10.7558 9.82447L11.2923 10.4082H9.05517C8.77903 10.4082 8.55518 10.6321 8.55518 10.9082C8.55518 11.1844 8.77903 11.4082 9.05517 11.4082H11.2923L10.7558 11.992Z"/>&#xa;</g>&#xa;<defs>&#xa;<linearGradient gradientUnits="userSpaceOnUse" y2="14.7468" x2="13.683" y1="2.26992" x1="1.44604" id="paint0_linear_3890_21478">&#xa;<stop stop-color="white"/>&#xa;<stop stop-color="#EAECEE" offset="1"/>&#xa;</linearGradient>&#xa;<linearGradient gradientUnits="userSpaceOnUse" y2="5.14053" x2="6.31265" y1="3.79425" x1="4.97215" id="paint1_linear_3890_21478">&#xa;<stop stop-color="#1348FF"/>&#xa;<stop stop-color="#06238D" offset="1"/>&#xa;</linearGradient>&#xa;<linearGradient gradientUnits="userSpaceOnUse" y2="9.2144" x2="11.6001" y1="4.24918" x1="5.09668" id="paint2_linear_3890_21478">&#xa;<stop stop-color="#0195FF"/>&#xa;<stop stop-color="#1147E9" offset="0.991028"/>&#xa;</linearGradient>&#xa;<linearGradient gradientUnits="userSpaceOnUse" y2="12.5365" x2="11.8106" y1="9.57371" x1="9.18287" id="paint3_linear_3890_21478">&#xa;<stop stop-color="#1348FF"/>&#xa;<stop stop-color="#06238D" offset="1"/>&#xa;</linearGradient>&#xa;<clipPath id="clip0_3890_21478">&#xa;<rect transform="translate(3.99512 2.79907)" fill="white" height="9.99997" width="9.99997"/>&#xa;</clipPath>&#xa;</defs>&#xa;</svg>