<svg xmlns="http://www.w3.org/2000/svg" fill="none" viewBox="0.4997367482299805 0.6049365620727539 23.997526244140627 23.997526244140627" height="23.997526244140627" width="23.997526244140627">&#xa;<circle stroke-width="0.428526" stroke="#D5DADD" fill="url(#paint0_linear_7023_11180)" r="11.7845" cy="12.6037" cx="12.4985"/>&#xa;<mask height="11" width="9" y="7" x="8" maskUnits="userSpaceOnUse" style="mask-type:luminance" id="mask0_7023_11180">&#xa;<path fill="white" d="M14.3322 14.6436C15.8385 14.1664 16.9331 12.7724 16.9331 11.1259C16.9331 9.08635 15.2491 7.43042 13.1815 7.43042H11.7595C9.71996 7.43042 8.06403 9.08635 8.06403 11.1259V15.5604C8.06403 16.786 9.05572 17.7777 10.2813 17.7777C11.5069 17.7777 12.4986 16.786 12.4986 15.5604V11.3691C12.4986 11.0791 12.9102 11.0323 12.9757 11.313L13.6399 14.1664C13.7335 14.5594 13.9767 14.7558 14.3322 14.6436Z"/>&#xa;</mask>&#xa;<g mask="url(#mask0_7023_11180)">&#xa;<g filter="url(#filter0_d_7023_11180)">&#xa;<path fill="url(#paint1_radial_7023_11180)" d="M21.04 6.77578C19.6273 8.09492 17.5504 8.59076 17.3072 14.5503C17.0546 20.5097 9.87885 18.6667 8.3539 17.9837C5.6595 16.7956 1.74888 8.90885 6.25825 6.43898C10.7676 3.96912 13.5369 1.9109 16.2313 3.10841C18.9257 4.30592 22.4527 5.45665 21.0494 6.77578H21.04Z"/>&#xa;</g>&#xa;<g filter="url(#filter1_d_7023_11180)">&#xa;<path fill="url(#paint2_radial_7023_11180)" d="M20.0484 10.3496C18.4111 10.7239 14.987 9.14277 12.1897 13.5305C9.39237 17.9183 4.462 14.3725 3.61064 13.2031C2.1044 11.1168 2.31957 4.47434 6.79153 4.58661C11.2728 4.68952 16.2781 5.35377 17.7937 7.4307C19.3093 9.50763 21.6856 9.97541 20.039 10.3496H20.0484Z"/>&#xa;</g>&#xa;<g filter="url(#filter2_d_7023_11180)">&#xa;<path fill="url(#paint3_radial_7023_11180)" d="M5.13556 14.625C3.15218 14.0637 1.99209 11.9961 2.56278 10.0034C3.12412 8.02 7.16572 4.03453 9.15845 4.59586C11.1418 5.16655 11.9371 8.89007 11.3757 10.8828C10.8144 12.8662 7.70834 15.3548 5.14492 14.625H5.13556Z"/>&#xa;</g>&#xa;</g>&#xa;<defs>&#xa;<filter color-interpolation-filters="sRGB" filterUnits="userSpaceOnUse" height="19.7803" width="20.9118" y="0.886701" x="2.32738" id="filter0_d_7023_11180">&#xa;<feFlood result="BackgroundImageFix" flood-opacity="0"/>&#xa;<feColorMatrix result="hardAlpha" values="0 0 0 0 0 0 0 0 0 0 0 0 0 0 0 0 0 0 127 0" type="matrix" in="SourceAlpha"/>&#xa;<feOffset/>&#xa;<feGaussianBlur stdDeviation="0.935556"/>&#xa;<feColorMatrix values="0 0 0 0 0 0 0 0 0 0 0 0 0 0 0 0 0 0 0.6 0" type="matrix"/>&#xa;<feBlend result="effect1_dropShadow_7023_11180" in2="BackgroundImageFix" mode="normal"/>&#xa;<feBlend result="shape" in2="effect1_dropShadow_7023_11180" in="SourceGraphic" mode="normal"/>&#xa;</filter>&#xa;<filter color-interpolation-filters="sRGB" filterUnits="userSpaceOnUse" height="14.8228" width="21.5687" y="2.71409" x="0.899274" id="filter1_d_7023_11180">&#xa;<feFlood result="BackgroundImageFix" flood-opacity="0"/>&#xa;<feColorMatrix result="hardAlpha" values="0 0 0 0 0 0 0 0 0 0 0 0 0 0 0 0 0 0 127 0" type="matrix" in="SourceAlpha"/>&#xa;<feOffset/>&#xa;<feGaussianBlur stdDeviation="0.935556"/>&#xa;<feColorMatrix values="0 0 0 0 0 0 0 0 0 0 0 0 0 0 0 0 0 0 0.6 0" type="matrix"/>&#xa;<feBlend result="effect1_dropShadow_7023_11180" in2="BackgroundImageFix" mode="normal"/>&#xa;<feBlend result="shape" in2="effect1_dropShadow_7023_11180" in="SourceGraphic" mode="normal"/>&#xa;</filter>&#xa;<filter color-interpolation-filters="sRGB" filterUnits="userSpaceOnUse" height="13.9551" width="12.8764" y="2.67113" x="0.546186" id="filter2_d_7023_11180">&#xa;<feFlood result="BackgroundImageFix" flood-opacity="0"/>&#xa;<feColorMatrix result="hardAlpha" values="0 0 0 0 0 0 0 0 0 0 0 0 0 0 0 0 0 0 127 0" type="matrix" in="SourceAlpha"/>&#xa;<feOffset/>&#xa;<feGaussianBlur stdDeviation="0.935556"/>&#xa;<feColorMatrix values="0 0 0 0 0 0 0 0 0 0 0 0 0 0 0 0 0 0 0.6 0" type="matrix"/>&#xa;<feBlend result="effect1_dropShadow_7023_11180" in2="BackgroundImageFix" mode="normal"/>&#xa;<feBlend result="shape" in2="effect1_dropShadow_7023_11180" in="SourceGraphic" mode="normal"/>&#xa;</filter>&#xa;<linearGradient gradientUnits="userSpaceOnUse" y2="22.7248" x2="21.0299" y1="4.01104" x1="2.67602" id="paint0_linear_7023_11180">&#xa;<stop stop-color="white"/>&#xa;<stop stop-color="#EAECEE" offset="1"/>&#xa;</linearGradient>&#xa;<radialGradient gradientTransform="translate(11.2541 8.7375) rotate(79.1) scale(16.8868 15.6331)" gradientUnits="userSpaceOnUse" r="1" cy="0" cx="0" id="paint1_radial_7023_11180">&#xa;<stop stop-color="#1348FF"/>&#xa;<stop stop-color="#06238D" offset="1"/>&#xa;</radialGradient>&#xa;<radialGradient gradientTransform="translate(14.6474 4.60582) rotate(108.55) scale(22.2194 39.443)" gradientUnits="userSpaceOnUse" r="1" cy="0" cx="0" id="paint2_radial_7023_11180">&#xa;<stop stop-color="#0195FF"/>&#xa;<stop stop-color="#1147E9" offset="1"/>&#xa;</radialGradient>&#xa;<radialGradient gradientTransform="translate(9.0645 6.22178) rotate(144.75) scale(13.472 18.3275)" gradientUnits="userSpaceOnUse" r="1" cy="0" cx="0" id="paint3_radial_7023_11180">&#xa;<stop stop-color="#00BBFF"/>&#xa;<stop stop-color="#008BFF" offset="1"/>&#xa;</radialGradient>&#xa;</defs>&#xa;</svg>