<svg xmlns="http://www.w3.org/2000/svg" fill="none" viewBox="0 0 16 16" height="16" width="16">&#xa;<circle stroke-width="0.285708" stroke="#D5DADD" fill="url(#paint0_linear_3890_21493)" r="7.85696" cy="7.99835" cx="7.99493"/>&#xa;<g clip-path="url(#clip0_3890_21493)">&#xa;<path fill="url(#paint1_linear_3890_21493)" d="M10.3749 7.89462L9.37605 6.13015C9.30527 6.00407 9.20234 5.89901 9.07775 5.82567C8.95315 5.75233 8.81134 5.71333 8.66676 5.71265C8.52224 5.7134 8.3805 5.75243 8.25598 5.82576C8.13145 5.8991 8.02857 6.00413 7.95783 6.13015L7.37585 7.64068C7.30002 7.55496 6.82306 7.05675 6.71864 7.00988C6.61423 6.96302 6.50103 6.93894 6.38658 6.93925C6.2391 6.93982 6.09453 6.98036 5.96825 7.05655C5.84197 7.13274 5.73871 7.24173 5.66944 7.37193L5.63742 7.44271C5.94434 8.51073 6.92857 9.29215 8.0953 9.29215C9.09009 9.29215 9.9522 8.72407 10.3749 7.89462Z"/>&#xa;<path fill="url(#paint2_linear_3890_21493)" d="M11.6128 10.0812C10.7284 11.0106 9.47951 11.5899 8.0953 11.5899C6.66349 11.5899 5.37645 10.9701 4.48787 9.98416L3.91087 11.2598C3.84146 11.3892 3.80664 11.5344 3.80976 11.6812C3.81289 11.8281 3.85387 11.9716 3.92872 12.098C4.00017 12.22 4.10235 12.3212 4.22507 12.3914C4.3478 12.4617 4.48678 12.4986 4.62819 12.4984H11.5625C11.7053 12.4986 11.8456 12.461 11.9692 12.3893C12.0928 12.3177 12.1951 12.2146 12.2659 12.0905C12.3404 11.9622 12.3801 11.8167 12.3811 11.6683C12.382 11.5199 12.3442 11.3739 12.2714 11.2446L11.6128 10.0812Z"/>&#xa;<path fill="url(#paint3_linear_3890_21493)" d="M8.09507 3.55342C6.33769 3.55342 4.91304 4.97807 4.91304 6.73546C4.91304 8.49284 6.33769 9.91749 8.09507 9.91749C9.85246 9.91749 11.2771 8.49284 11.2771 6.73546C11.2771 4.97807 9.85246 3.55342 8.09507 3.55342ZM3.86523 6.73546C3.86523 4.39938 5.759 2.50562 8.09507 2.50562C10.4311 2.50562 12.3249 4.39938 12.3249 6.73546C12.3249 9.07153 10.4311 10.9653 8.09507 10.9653C5.759 10.9653 3.86523 9.07153 3.86523 6.73546Z" clip-rule="evenodd" fill-rule="evenodd"/>&#xa;</g>&#xa;<defs>&#xa;<linearGradient gradientUnits="userSpaceOnUse" y2="14.7463" x2="13.683" y1="2.26943" x1="1.44604" id="paint0_linear_3890_21493">&#xa;<stop stop-color="white"/>&#xa;<stop stop-color="#EAECEE" offset="1"/>&#xa;</linearGradient>&#xa;<linearGradient gradientUnits="userSpaceOnUse" y2="12.5692" x2="9.71765" y1="6.73072" x1="5.09237" id="paint1_linear_3890_21493">&#xa;<stop stop-color="#00BBFF"/>&#xa;<stop stop-color="#008BFF" offset="1"/>&#xa;</linearGradient>&#xa;<linearGradient gradientUnits="userSpaceOnUse" y2="12.5692" x2="9.71765" y1="6.73072" x1="5.09237" id="paint2_linear_3890_21493">&#xa;<stop stop-color="#00BBFF"/>&#xa;<stop stop-color="#008BFF" offset="1"/>&#xa;</linearGradient>&#xa;<linearGradient gradientUnits="userSpaceOnUse" y2="9.6962" x2="11.0568" y1="3.77071" x1="5.13338" id="paint3_linear_3890_21493">&#xa;<stop stop-color="#0195FF"/>&#xa;<stop stop-color="#1147E9" offset="0.991028"/>&#xa;</linearGradient>&#xa;<clipPath id="clip0_3890_21493">&#xa;<rect transform="translate(3.09521 2.49854)" fill="white" height="10" width="10"/>&#xa;</clipPath>&#xa;</defs>&#xa;</svg>