<svg xmlns="http://www.w3.org/2000/svg" fill="none" viewBox="-0.00031498016357423 0.6025855249023437 24.025629578857423 24.025629578857423" height="24.025629578857423" width="24.025629578857423">&#xa;<circle stroke-width="0.42903" stroke="#D5DADD" fill="url(#paint0_linear_7023_11214)" r="11.7983" cy="12.6154" cx="12.0125"/>&#xa;<mask height="11" width="10" y="7" x="7" maskUnits="userSpaceOnUse" style="mask-type:luminance" id="mask0_7023_11214">&#xa;<path fill="white" d="M11.5934 12.9611C11.4068 12.9518 11.2575 12.7838 11.2575 12.5972C11.2575 12.4106 11.4068 12.2426 11.5934 12.2332L14.2158 12.0466C15.6996 11.9439 16.4368 10.7961 16.4368 9.64824C16.4368 8.20176 15.3263 7.43652 13.8051 7.43652C12.004 7.43652 10.1656 7.94979 9.16708 8.81768C8.06589 9.77889 7.56195 11.1227 7.56195 12.6065C7.56195 14.0903 8.06589 15.4342 9.16708 16.386C10.1656 17.2539 11.9947 17.7672 13.8051 17.7672C15.3263 17.7672 16.4368 17.002 16.4368 15.5555C16.4368 14.3983 15.7089 13.2598 14.2158 13.1571L11.5934 12.9705V12.9611Z"/>&#xa;</mask>&#xa;<g mask="url(#mask0_7023_11214)">&#xa;<g filter="url(#filter0_d_7023_11214)">&#xa;<path fill="url(#paint1_radial_7023_11214)" d="M21.6441 15.6022C21.6975 14.3549 21.8263 13.3331 22.01 12.4856L14.4207 4.49585C13.658 4.89223 12.8438 5.35313 11.9627 5.85189C11.3175 6.2171 10.6365 6.60261 9.91362 6.99794C5.13556 9.62027 9.27903 17.9819 12.144 19.251C13.7585 19.9696 21.3828 21.92 21.6441 15.6022Z"/>&#xa;</g>&#xa;<g filter="url(#filter1_d_7023_11214)">&#xa;<path fill="url(#paint2_radial_7023_11214)" d="M7.42177 4.09561C8.34565 5.62608 7.87905 9.59224 13.2264 10.9641C18.5737 12.3266 16.6419 18.4671 15.7367 19.7269C14.1409 21.9387 7.37511 23.9264 5.99396 19.3723C4.62213 14.8089 3.62359 9.54558 5.21939 7.33386C6.81518 5.11281 6.49789 2.56514 7.42177 4.09561Z"/>&#xa;</g>&#xa;<g filter="url(#filter2_d_7023_11214)">&#xa;<path fill="url(#paint3_radial_7023_11214)" d="M10.5197 24.1503C14.0099 24.0103 16.7163 21.0707 16.5763 17.5804C16.4936 15.5798 15.3106 15.3112 13.7303 14.9524C11.7428 14.5011 9.12699 13.9071 7.28148 9.54548C6.13719 6.84109 4.70343 6.40794 3.32245 7.14352L10.5197 24.1503Z"/>&#xa;</g>&#xa;</g>&#xa;<defs>&#xa;<filter color-interpolation-filters="sRGB" filterUnits="userSpaceOnUse" height="19.3476" width="18.0157" y="2.62723" x="5.86283" id="filter0_d_7023_11214">&#xa;<feFlood result="BackgroundImageFix" flood-opacity="0"/>&#xa;<feColorMatrix result="hardAlpha" values="0 0 0 0 0 0 0 0 0 0 0 0 0 0 0 0 0 0 127 0" type="matrix" in="SourceAlpha"/>&#xa;<feOffset/>&#xa;<feGaussianBlur stdDeviation="0.934309"/>&#xa;<feColorMatrix values="0 0 0 0 0 0 0 0 0 0 0 0 0 0 0 0 0 0 0.5 0" type="matrix"/>&#xa;<feBlend result="effect1_dropShadow_7023_11214" in2="BackgroundImageFix" mode="normal"/>&#xa;<feBlend result="shape" in2="effect1_dropShadow_7023_11214" in="SourceGraphic" mode="normal"/>&#xa;</filter>&#xa;<filter color-interpolation-filters="sRGB" filterUnits="userSpaceOnUse" height="22.2297" width="16.1677" y="1.76151" x="2.53226" id="filter1_d_7023_11214">&#xa;<feFlood result="BackgroundImageFix" flood-opacity="0"/>&#xa;<feColorMatrix result="hardAlpha" values="0 0 0 0 0 0 0 0 0 0 0 0 0 0 0 0 0 0 127 0" type="matrix" in="SourceAlpha"/>&#xa;<feOffset/>&#xa;<feGaussianBlur stdDeviation="0.934309"/>&#xa;<feColorMatrix values="0 0 0 0 0 0 0 0 0 0 0 0 0 0 0 0 0 0 0.5 0" type="matrix"/>&#xa;<feBlend result="effect1_dropShadow_7023_11214" in2="BackgroundImageFix" mode="normal"/>&#xa;<feBlend result="shape" in2="effect1_dropShadow_7023_11214" in="SourceGraphic" mode="normal"/>&#xa;</filter>&#xa;<filter color-interpolation-filters="sRGB" filterUnits="userSpaceOnUse" height="21.0629" width="16.9963" y="4.95609" x="1.45383" id="filter2_d_7023_11214">&#xa;<feFlood result="BackgroundImageFix" flood-opacity="0"/>&#xa;<feColorMatrix result="hardAlpha" values="0 0 0 0 0 0 0 0 0 0 0 0 0 0 0 0 0 0 127 0" type="matrix" in="SourceAlpha"/>&#xa;<feOffset/>&#xa;<feGaussianBlur stdDeviation="0.934309"/>&#xa;<feColorMatrix values="0 0 0 0 0 0 0 0 0 0 0 0 0 0 0 0 0 0 0.5 0" type="matrix"/>&#xa;<feBlend result="effect1_dropShadow_7023_11214" in2="BackgroundImageFix" mode="normal"/>&#xa;<feBlend result="shape" in2="effect1_dropShadow_7023_11214" in="SourceGraphic" mode="normal"/>&#xa;</filter>&#xa;<linearGradient gradientUnits="userSpaceOnUse" y2="22.7483" x2="20.5538" y1="4.0126" x1="2.17839" id="paint0_linear_7023_11214">&#xa;<stop stop-color="white"/>&#xa;<stop stop-color="#EAECEE" offset="1"/>&#xa;</linearGradient>&#xa;<radialGradient gradientTransform="translate(17.0241 10.6853) rotate(79.1) scale(17.9177 16.5925)" gradientUnits="userSpaceOnUse" r="1" cy="0" cx="0" id="paint1_radial_7023_11214">&#xa;<stop stop-color="#004DF8"/>&#xa;<stop stop-color="#002688" offset="1"/>&#xa;</radialGradient>&#xa;<radialGradient gradientTransform="translate(1.67779 14.2973) rotate(0.34) scale(23.5823 41.8546)" gradientUnits="userSpaceOnUse" r="1" cy="0" cx="0" id="paint2_radial_7023_11214">&#xa;<stop stop-color="#0097F9"/>&#xa;<stop stop-color="#004BE2" offset="1"/>&#xa;</radialGradient>&#xa;<radialGradient gradientTransform="translate(4.99413 10.233) rotate(41.54) scale(24.5808 34.1929)" gradientUnits="userSpaceOnUse" r="1" cy="0" cx="0" id="paint3_radial_7023_11214">&#xa;<stop stop-color="#00BCFB"/>&#xa;<stop stop-color="#008DF9" offset="1"/>&#xa;</radialGradient>&#xa;</defs>&#xa;</svg>