<svg xmlns="http://www.w3.org/2000/svg" fill="none" viewBox="-0.00001319787597658939 -0.00001319787597658939 48.00002258105469 48.00002258105469" height="48.00002258105469" width="48.00002258105469">&#xa;<g clip-path="url(#clip0_7271_11030)">&#xa;<circle stroke-width="0.861427" stroke="#D5DADD" fill="url(#paint0_linear_7271_11030)" r="23.5693" cy="24" cx="24"/>&#xa;<mask height="22" width="18" y="13" x="13" maskUnits="userSpaceOnUse" style="mask-type:alpha" id="mask0_7271_11030">&#xa;<path fill="#01ABFF" d="M25.7672 13.6143C28.8578 13.6143 30.4288 15.8571 30.4288 18.2942C30.4288 20.7312 30.4288 24.4267 30.4288 28.1939C30.4288 31.9611 27.5041 34.3858 22.8434 34.3858C18.1827 34.3858 15.4248 31.5232 14.3479 29.7008C13.5187 28.2604 13.5851 26.1836 14.9146 24.7075C16.2769 23.1384 18.9399 23.0153 20.8702 24.8691L23.0115 26.9436C23.2508 27.1645 23.4825 27.0326 23.5715 26.9436C23.6605 26.8547 23.7406 26.6613 23.5715 26.3645C23.5715 26.3645 22.078 23.8263 21.7313 23.2037C21.3845 22.5811 21.3983 21.7291 21.3983 21.7291C21.3983 21.7291 21.4107 20.5165 21.4107 18.2942C21.4107 16.0718 22.6765 13.6143 25.7672 13.6143Z"/>&#xa;</mask>&#xa;<g mask="url(#mask0_7271_11030)">&#xa;<g filter="url(#filter0_d_7271_11030)">&#xa;<path fill="url(#paint1_linear_7271_11030)" d="M35.1947 24C35.1947 31.217 29.3441 37.0676 22.1271 37.0676C14.91 37.0676 9.05945 31.217 9.05945 24C9.05945 16.7829 14.91 10.9324 22.1271 10.9324C29.3441 10.9324 35.1947 16.7829 35.1947 24Z"/>&#xa;</g>&#xa;<g filter="url(#filter1_d_7271_11030)">&#xa;<path fill="url(#paint2_linear_7271_11030)" d="M21.7449 16.5972C32.5767 16.5972 33.7599 35.101 24.5417 36.9719C9.16189 40.0935 10.9132 16.5972 21.7449 16.5972Z" clip-rule="evenodd" fill-rule="evenodd"/>&#xa;</g>&#xa;<g filter="url(#filter2_d_7271_11030)">&#xa;<ellipse fill="url(#paint3_linear_7271_11030)" ry="7.12015" rx="7.12015" cy="26.7755" cx="20.3661"/>&#xa;</g>&#xa;</g>&#xa;</g>&#xa;<defs>&#xa;<filter color-interpolation-filters="sRGB" filterUnits="userSpaceOnUse" height="33.7062" width="33.7062" y="9.03964" x="5.27397" id="filter0_d_7271_11030">&#xa;<feFlood result="BackgroundImageFix" flood-opacity="0"/>&#xa;<feColorMatrix result="hardAlpha" values="0 0 0 0 0 0 0 0 0 0 0 0 0 0 0 0 0 0 127 0" type="matrix" in="SourceAlpha"/>&#xa;<feOffset dy="1.89274"/>&#xa;<feGaussianBlur stdDeviation="1.89274"/>&#xa;<feColorMatrix values="0 0 0 0 0 0 0 0 0 0 0 0 0 0 0 0 0 0 0.8 0" type="matrix"/>&#xa;<feBlend result="effect1_dropShadow_7271_11030" in2="BackgroundImageFix" mode="normal"/>&#xa;<feBlend result="shape" in2="effect1_dropShadow_7271_11030" in="SourceGraphic" mode="normal"/>&#xa;</filter>&#xa;<filter color-interpolation-filters="sRGB" filterUnits="userSpaceOnUse" height="28.2314" width="24.9969" y="12.8117" x="9.52458" id="filter1_d_7271_11030">&#xa;<feFlood result="BackgroundImageFix" flood-opacity="0"/>&#xa;<feColorMatrix result="hardAlpha" values="0 0 0 0 0 0 0 0 0 0 0 0 0 0 0 0 0 0 127 0" type="matrix" in="SourceAlpha"/>&#xa;<feOffset/>&#xa;<feGaussianBlur stdDeviation="1.89274"/>&#xa;<feColorMatrix values="0 0 0 0 0 0 0 0 0 0 0 0 0 0 0 0 0 0 0.4 0" type="matrix"/>&#xa;<feBlend result="effect1_dropShadow_7271_11030" in2="BackgroundImageFix" mode="normal"/>&#xa;<feBlend result="shape" in2="effect1_dropShadow_7271_11030" in="SourceGraphic" mode="normal"/>&#xa;</filter>&#xa;<filter color-interpolation-filters="sRGB" filterUnits="userSpaceOnUse" height="22.2728" width="22.2728" y="17.8043" x="9.22977" id="filter2_d_7271_11030">&#xa;<feFlood result="BackgroundImageFix" flood-opacity="0"/>&#xa;<feColorMatrix result="hardAlpha" values="0 0 0 0 0 0 0 0 0 0 0 0 0 0 0 0 0 0 127 0" type="matrix" in="SourceAlpha"/>&#xa;<feOffset dy="2.16507"/>&#xa;<feGaussianBlur stdDeviation="2.0081"/>&#xa;<feComposite operator="out" in2="hardAlpha"/>&#xa;<feColorMatrix values="0 0 0 0 0 0 0 0 0 0 0 0 0 0 0 0 0 0 0.4 0" type="matrix"/>&#xa;<feBlend result="effect1_dropShadow_7271_11030" in2="BackgroundImageFix" mode="normal"/>&#xa;<feBlend result="shape" in2="effect1_dropShadow_7271_11030" in="SourceGraphic" mode="normal"/>&#xa;</filter>&#xa;<linearGradient gradientUnits="userSpaceOnUse" y2="44.2443" x2="41.0645" y1="6.81284" x1="4.35287" id="paint0_linear_7271_11030">&#xa;<stop stop-color="white"/>&#xa;<stop stop-color="#EAECEE" offset="1"/>&#xa;</linearGradient>&#xa;<linearGradient gradientUnits="userSpaceOnUse" y2="33.1469" x2="31.214" y1="14.7774" x1="12.9234" id="paint1_linear_7271_11030">&#xa;<stop stop-color="#1348FF"/>&#xa;<stop stop-color="#06238D" offset="1"/>&#xa;</linearGradient>&#xa;<linearGradient gradientUnits="userSpaceOnUse" y2="36.4897" x2="24.7431" y1="17.6854" x1="20.6017" id="paint2_linear_7271_11030">&#xa;<stop stop-color="#0195FF"/>&#xa;<stop stop-color="#1147E9" offset="0.991028"/>&#xa;</linearGradient>&#xa;<linearGradient gradientUnits="userSpaceOnUse" y2="31.7559" x2="25.3481" y1="21.7919" x1="15.3771" id="paint3_linear_7271_11030">&#xa;<stop stop-color="#00BBFF"/>&#xa;<stop stop-color="#008BFF" offset="1"/>&#xa;</linearGradient>&#xa;<clipPath id="clip0_7271_11030">&#xa;<rect fill="white" height="48" width="48"/>&#xa;</clipPath>&#xa;</defs>&#xa;</svg>