<svg xmlns="http://www.w3.org/2000/svg" fill="none" viewBox="0 0 17 17" height="17" width="17">&#xa;<path fill="url(#paint0_linear_775_8)" d="M13.6756 8.63748C14.6469 9.17171 15.4647 9.94646 16.0506 10.8875C16.6546 11.8455 16.9566 12.9285 16.9566 14.1375V15.9185C16.9566 16.5015 16.6546 16.7935 16.0506 16.7935H5.42564C5.15464 16.7935 4.93564 16.7105 4.76864 16.5435C4.60264 16.3975 4.51864 16.1895 4.51864 15.9185V15.0125H1.86264C1.27964 15.0125 0.98764 14.7205 0.98764 14.1375V12.3565C0.98764 11.4805 1.22764 10.6895 1.70664 9.98048C2.16435 9.29109 2.80207 8.74017 3.55064 8.38748C3.28622 8.08623 3.08431 7.73543 2.95664 7.35548C2.8334 6.97181 2.76999 6.57145 2.76864 6.16848C2.76864 5.66848 2.86264 5.21048 3.05064 4.79348C3.23764 4.35548 3.48764 3.98048 3.80064 3.66848C4.12478 3.34161 4.50608 3.0769 4.92564 2.88748C5.35992 2.70073 5.82791 2.60509 6.30064 2.60648C6.44664 2.60648 6.58164 2.61648 6.70664 2.63648C6.83164 2.63648 6.96664 2.65848 7.11264 2.69948C7.50219 2.1219 8.02847 1.64956 8.64464 1.32448C9.29158 0.99092 10.0098 0.819343 10.7376 0.824476C11.3626 0.824476 11.9466 0.939476 12.4876 1.16848C13.0296 1.39848 13.4976 1.72048 13.8936 2.13748C14.2896 2.53348 14.6026 3.00148 14.8316 3.54348C15.0616 4.06348 15.1756 4.63748 15.1756 5.26248C15.1777 5.91948 15.0392 6.56933 14.7696 7.16848C14.529 7.73932 14.1536 8.24336 13.6756 8.63748ZM10.7366 2.60548C9.98664 2.60548 9.35164 2.86548 8.83064 3.38748C8.33064 3.88748 8.08064 4.51248 8.08064 5.26248C8.08064 6.01248 8.33064 6.64748 8.83064 7.16848C9.35064 7.66848 9.98664 7.91848 10.7366 7.91848C11.4866 7.91848 12.1116 7.66848 12.6116 7.16848C13.1326 6.64848 13.3926 6.01248 13.3926 5.26248C13.3926 4.51248 13.1326 3.88748 12.6126 3.38748C12.1126 2.86648 11.4866 2.60548 10.7366 2.60548ZM6.20664 4.38848C5.72664 4.38848 5.31064 4.56548 4.95664 4.91948C4.62364 5.25248 4.45664 5.66948 4.45664 6.16948C4.45664 6.64948 4.62364 7.06548 4.95664 7.41948C5.31064 7.75248 5.72664 7.91948 6.20664 7.91948H7.20664C6.92708 7.54898 6.70585 7.13789 6.55064 6.70048C6.38706 6.23895 6.30254 5.75313 6.30064 5.26348V4.82348C6.31732 4.67513 6.34847 4.52876 6.39364 4.38648H6.20664V4.38848ZM2.76864 13.2635H4.61264C4.80064 11.8255 5.39364 10.6385 6.39364 9.70047H5.42664C4.67664 9.70047 4.04064 9.96047 3.51964 10.4815C3.01964 10.9815 2.76964 11.6075 2.76964 12.3575L2.76864 13.2635ZM15.1756 14.1385C15.1826 13.5477 15.0654 12.9621 14.8316 12.4195C14.6133 11.8943 14.2947 11.4167 13.8936 11.0135C13.4974 10.5963 13.0185 10.2663 12.4876 10.0445C11.9335 9.81273 11.3382 9.69571 10.7376 9.70047C10.1126 9.70047 9.52964 9.81548 8.98764 10.0445C8.46764 10.2745 7.99764 10.5965 7.58164 11.0135C7.18058 11.4167 6.86197 11.8943 6.64364 12.4195C6.41028 12.9622 6.29343 13.5478 6.30064 14.1385V15.0135H15.1756V14.1385Z"/>&#xa;<defs>&#xa;<linearGradient gradientUnits="userSpaceOnUse" y2="16.7935" x2="8.97214" y1="0.824364" x1="8.97214" id="paint0_linear_775_8">&#xa;<stop stop-color="#5B738B"/>&#xa;<stop stop-color="#223548" offset="1"/>&#xa;</linearGradient>&#xa;</defs>&#xa;</svg>