<svg xmlns="http://www.w3.org/2000/svg" fill="none" viewBox="0 0 16 16" height="16" width="16">&#xa;<g clip-path="url(#clip0_963_689)">&#xa;<path fill="url(#paint0_linear_963_689)" d="M0.250484 14.6481C0.0841618 14.816 0 14.9941 0 15.1822C0.00115108 15.2887 0.0239611 15.3939 0.0670328 15.4913C0.110105 15.5887 0.172531 15.6762 0.250484 15.7485C0.322505 15.8268 0.409686 15.8895 0.506684 15.9327C0.603682 15.9759 0.708452 15.9988 0.814577 16C1.00194 16 1.17928 15.9155 1.34661 15.7485L3.56992 13.5164C4.21717 14.0827 4.94759 14.3543 5.76116 14.3342C6.57574 14.292 7.28511 13.9671 7.89029 13.3585L8.61068 12.6362C8.77801 12.4683 8.86117 12.2902 8.86117 12.1021C8.86117 11.8919 8.77801 11.7038 8.61068 11.5358L4.5398 7.44977C4.46793 7.37158 4.38092 7.30895 4.28409 7.26571C4.18727 7.22246 4.08267 7.19952 3.9767 7.19829C3.7683 7.19829 3.57994 7.28178 3.41261 7.44977L2.69322 8.17201C2.08804 8.78059 1.77444 9.48271 1.7534 10.2784C1.71232 11.0539 1.95178 11.7561 2.47379 12.3848L0.250484 14.6481ZM6.70198 12.1645C6.36734 12.4793 5.99161 12.6362 5.5748 12.6362C5.15699 12.6362 4.78126 12.4793 4.44762 12.1645L3.8214 11.5358C3.5078 11.2008 3.35149 10.8236 3.35149 10.4041C3.35149 9.98567 3.5078 9.60845 3.8214 9.27248L3.9767 9.11555L6.85729 12.0075L6.70098 12.1645H6.70198ZM8.2049 9.36703C8.27676 9.44522 8.36378 9.50785 8.4606 9.55109C8.55742 9.59433 8.66202 9.61727 8.76799 9.61851C8.95635 9.61851 9.1337 9.53502 9.30102 9.36703L10.7398 7.92053L11.366 8.54923C11.438 8.62754 11.5252 8.69024 11.6222 8.73349C11.7192 8.77673 11.824 8.79961 11.9301 8.8007C12.0367 8.80364 12.1426 8.78258 12.2401 8.73906C12.3375 8.69555 12.424 8.63068 12.4932 8.54923L13.2136 7.85817C13.8188 7.2506 14.1424 6.55853 14.1845 5.78297C14.2313 5.00419 13.9976 4.23447 13.5262 3.61423L15.7495 1.38212C15.8274 1.30997 15.8898 1.22261 15.9328 1.1254C15.9759 1.0282 15.9988 0.923183 16 0.816799C16 0.607569 15.9168 0.418458 15.7495 0.250472C15.5822 0.0834905 15.4048 0 15.2175 0C15.0081 0 14.8207 0.0844964 14.6534 0.251477L12.4311 2.4846C11.8189 1.97156 11.0348 1.7125 10.2388 1.76034C9.42426 1.80259 8.71589 2.1275 8.10971 2.73607L7.38932 3.45832C7.31617 3.53268 7.25897 3.62129 7.22123 3.71869C7.1835 3.81608 7.16602 3.92021 7.16989 4.02464C7.16844 4.12391 7.18725 4.22242 7.22516 4.31411C7.26307 4.4058 7.31928 4.48872 7.39032 4.55778L8.04659 5.21866L6.6068 6.63297C6.43948 6.80096 6.35631 6.98906 6.35631 7.1993C6.35754 7.30568 6.38039 7.41069 6.42347 7.5079C6.46654 7.60511 6.52892 7.69246 6.6068 7.76462C6.67878 7.84293 6.76596 7.90563 6.86296 7.94888C6.95997 7.99212 7.06476 8.015 7.17089 8.01609C7.27686 8.01486 7.38146 7.99192 7.47828 7.94868C7.5751 7.90544 7.66212 7.8428 7.73398 7.76462L9.14271 6.31812L9.64368 6.82107L8.2049 8.23538C8.03757 8.40337 7.95441 8.59147 7.95441 8.80171C7.95564 8.90809 7.97849 9.01311 8.02156 9.11032C8.06463 9.20752 8.12702 9.29488 8.2049 9.36703ZM9.08159 4.02263L9.2379 3.83453C9.3837 3.68274 9.55895 3.56257 9.75282 3.48142C9.94668 3.40028 10.1551 3.35989 10.3651 3.36276C10.7829 3.36276 11.1476 3.51968 11.4612 3.83453L12.0874 4.4944C12.4211 4.80925 12.5884 5.18647 12.5884 5.62605C12.5884 6.04552 12.4211 6.41267 12.0874 6.72652L11.9311 6.88344L9.08159 4.02364V4.02263Z"/>&#xa;</g>&#xa;<defs>&#xa;<linearGradient gradientUnits="userSpaceOnUse" y2="14.7481" x2="2.31184" y1="2.27095" x1="14.549" id="paint0_linear_963_689">&#xa;<stop stop-color="#00CEAC"/>&#xa;<stop stop-color="#07838F" offset="1"/>&#xa;</linearGradient>&#xa;<clipPath id="clip0_963_689">&#xa;<rect fill="white" height="16" width="16"/>&#xa;</clipPath>&#xa;</defs>&#xa;</svg>