<svg xmlns="http://www.w3.org/2000/svg" fill="none" viewBox="0 0 16 16" height="16" width="16">&#xa;<g clip-path="url(#clip0_963_662)">&#xa;<path fill="url(#paint0_linear_963_662)" d="M9.36935 6.46659C9.1792 6.36921 9.0174 6.29149 8.88393 6.2325H8.88485C9.21199 5.89584 9.4738 5.49866 9.65639 5.06203C9.86574 4.61351 9.97086 4.12566 9.97086 3.59942C9.97086 3.0919 9.87488 2.62372 9.68473 2.19486C9.51287 1.76506 9.26605 1.3849 8.94244 1.05342C8.61791 0.721944 8.24677 0.468186 7.82808 0.293085C7.40848 0.0973828 6.95141 0 6.45685 0C5.98057 0 5.52349 0.0973828 5.08561 0.292148C4.64682 0.468186 4.26653 0.721944 3.94292 1.05342C3.63531 1.38922 3.38417 1.77493 3.19971 2.19486C3.00956 2.62372 2.91449 3.0919 2.91449 3.59942C2.91189 4.11407 3.0189 4.62311 3.22805 5.09106C3.43481 5.53588 3.72636 5.93384 4.08553 6.26153C3.17137 6.63233 2.42907 7.24753 1.85773 8.10524C1.28638 8.94423 1.00025 9.90963 1.00025 11.0024V12.4659C0.995602 12.6476 1.05646 12.8246 1.17119 12.9631C1.30667 13.081 1.47988 13.1433 1.65753 13.1382H6.5117C6.59111 13.1405 6.67013 13.126 6.74387 13.0957C6.81761 13.0654 6.88451 13.02 6.94044 12.9622C7.00504 12.8978 7.05613 12.8206 7.09055 12.7352C7.12498 12.6499 7.14202 12.5583 7.14064 12.4659C7.14191 12.382 7.12456 12.2988 7.08988 12.2228C7.0552 12.1467 7.0041 12.0797 6.94044 12.0268C6.82617 11.8901 6.68356 11.8217 6.5117 11.8217H2.28555V11.0024C2.28555 10.4752 2.37057 9.98829 2.54152 9.53883C2.71906 9.09085 2.98127 8.68322 3.31306 8.33934C3.63667 7.9882 4.00874 7.71571 4.42742 7.52001C4.8653 7.32525 5.33243 7.22786 5.82699 7.22786H7.19823C7.61864 7.22443 8.03577 7.3039 8.42685 7.46196C8.82634 7.59867 9.14081 7.77377 9.36935 7.98913C9.46921 8.09473 9.58494 8.18325 9.71216 8.25132C9.81511 8.28727 9.92013 8.31666 10.0266 8.33934C10.1793 8.33934 10.3219 8.27098 10.4554 8.13521C10.5504 8.03782 10.598 7.93014 10.598 7.8131V7.72508C10.594 7.53959 10.5226 7.3623 10.3978 7.22786C10.2643 7.07149 10.1025 6.92541 9.91236 6.7887C9.7405 6.65199 9.56041 6.54525 9.36935 6.46659ZM8.02645 5.23713C7.58949 5.68659 7.06476 5.91132 6.45593 5.91132V5.91039C5.84619 5.91039 5.31324 5.68659 4.85616 5.23807C4.41828 4.78861 4.19888 4.24271 4.19888 3.59942C4.19524 3.29935 4.25169 3.00171 4.36474 2.72487C4.47779 2.44802 4.64504 2.19785 4.85616 1.98979C5.31324 1.54127 5.84619 1.31654 6.45593 1.31654C6.74872 1.31294 7.03913 1.37083 7.30924 1.48662C7.57935 1.60241 7.82344 1.77365 8.02645 1.98979C8.48353 2.43832 8.71207 2.97486 8.71207 3.59848C8.71207 4.24271 8.48353 4.78955 8.02645 5.23713ZM9.19371 14.943C9.19371 14.8225 9.23259 14.7159 9.31036 14.6231L11.5007 12.3006C11.4488 12.1244 11.4229 11.9436 11.4229 11.7582C11.4229 11.4893 11.4704 11.2343 11.5655 10.9933C11.6605 10.7522 11.7944 10.5436 11.9673 10.3674C12.1314 10.182 12.3258 10.0383 12.5505 9.93628C12.7665 9.82502 13.0041 9.76939 13.2633 9.76939C13.6694 9.76939 14.028 9.89456 14.339 10.1449C14.6501 10.386 14.8704 10.7012 15 11.0906H13.4707C13.3497 11.0906 13.2331 11.1323 13.1207 11.2158C12.9998 11.2992 12.9393 11.4059 12.9393 11.5357V11.9807C12.9393 12.1105 12.9998 12.2218 13.1207 12.3145C13.2331 12.3979 13.3497 12.4397 13.4707 12.4397H15C14.8704 12.8105 14.6501 13.1211 14.339 13.3715C14.028 13.6125 13.6694 13.7331 13.2633 13.7331C13.0127 13.7331 12.7881 13.6867 12.5894 13.594L10.4768 15.8748C10.399 15.9583 10.2997 16 10.1787 16C10.075 16 9.9843 15.9583 9.90654 15.8748L9.31036 15.2351C9.23259 15.1516 9.19371 15.0543 9.19371 14.943Z" clip-rule="evenodd" fill-rule="evenodd"/>&#xa;</g>&#xa;<defs>&#xa;<linearGradient gradientUnits="userSpaceOnUse" y2="13.1198" x2="14.4298" y1="2.27095" x1="2.26959" id="paint0_linear_963_662">&#xa;<stop stop-color="#00CEAC"/>&#xa;<stop stop-color="#07838F" offset="1"/>&#xa;</linearGradient>&#xa;<clipPath id="clip0_963_662">&#xa;<rect fill="white" height="16" width="16"/>&#xa;</clipPath>&#xa;</defs>&#xa;</svg>