<svg xmlns="http://www.w3.org/2000/svg" fill="none" viewBox="0 0 24 24" height="24" width="24">&#xa;<path fill="url(#paint0_linear_995_102)" d="M20.3949 14.6543C21.0038 14.6544 21.5417 14.8415 22.0082 15.2168C22.4747 15.5784 22.805 16.0517 22.9994 16.6357H20.7054C20.5242 16.6358 20.3494 16.6983 20.181 16.8232C19.9996 16.9484 19.9086 17.109 19.9086 17.3037V17.9707C19.9086 18.1654 19.9996 18.3326 20.181 18.4717C20.3494 18.5967 20.5241 18.6592 20.7054 18.6592H22.9994C22.805 19.2155 22.4748 19.6821 22.0082 20.0576C21.5417 20.4191 21.0038 20.5995 20.3949 20.5996C20.019 20.5996 19.6813 20.5297 19.3832 20.3906L16.2142 23.8125C16.0977 23.9373 15.949 23.9999 15.7679 24C15.6126 24 15.4763 23.9374 15.3597 23.8125L14.4652 22.8525C14.3486 22.7274 14.2904 22.581 14.2904 22.4141C14.2905 22.2334 14.3487 22.0735 14.4652 21.9346L17.7504 18.4512C17.6726 18.1871 17.6342 17.9157 17.6342 17.6377C17.6342 17.2345 17.7055 16.8518 17.848 16.4902C17.9906 16.1286 18.1914 15.815 18.4506 15.5508C18.6968 15.2727 18.9887 15.0572 19.3256 14.9043C19.6495 14.7375 20.0062 14.6543 20.3949 14.6543ZM10.1849 0C10.9267 5.2666e-06 11.6122 0.145969 12.2416 0.439453C12.8696 0.702106 13.4267 1.08286 13.9135 1.58008C14.3988 2.07721 14.769 2.64743 15.0267 3.29199C15.3119 3.93528 15.4554 4.63814 15.4554 5.39941C15.4554 6.18865 15.2977 6.92009 14.9838 7.59277C14.7099 8.24772 14.3173 8.84365 13.8265 9.34863H13.8256C14.0258 9.43712 14.2689 9.55412 14.5541 9.7002C14.8405 9.81816 15.1109 9.97767 15.3685 10.1826C15.6537 10.3876 15.8959 10.6073 16.0961 10.8418C16.2833 11.0435 16.3909 11.3097 16.3968 11.5879V11.7197C16.3968 11.8953 16.3256 12.0571 16.183 12.2031C15.9828 12.4068 15.7684 12.5088 15.5394 12.5088C15.3797 12.4748 15.2221 12.4309 15.0677 12.377C14.877 12.2749 14.7038 12.1417 14.5541 11.9834C14.2113 11.6604 13.7391 11.3984 13.14 11.1934C12.5535 10.9563 11.9278 10.8367 11.2972 10.8418H9.2406C8.4988 10.8418 7.79778 10.9882 7.14099 11.2803C6.51299 11.5738 5.95452 11.9821 5.46911 12.5088C4.97142 13.0246 4.57821 13.6366 4.31189 14.3086C4.05554 14.9827 3.9281 15.7133 3.9281 16.5039V17.7324H10.267C10.5248 17.7324 10.7391 17.835 10.9105 18.04C11.0059 18.1193 11.0821 18.22 11.1342 18.334C11.1862 18.4481 11.2122 18.5733 11.2103 18.6992C11.2124 18.8375 11.1867 18.9747 11.1351 19.1025C11.0835 19.2305 11.0074 19.3468 10.9105 19.4434C10.8267 19.53 10.7261 19.5981 10.6156 19.6436C10.505 19.689 10.3861 19.7104 10.267 19.707H2.98572C2.71931 19.7146 2.45938 19.621 2.25622 19.4443C2.08437 19.2366 1.99347 18.9714 2.00036 18.6992V16.5039C2.00036 14.8648 2.42952 13.4167 3.2865 12.1582C4.14352 10.8716 5.25706 9.94878 6.62829 9.39258C6.08962 8.90112 5.6523 8.30384 5.34216 7.63672C5.02848 6.93488 4.8676 6.1713 4.87146 5.39941C4.87146 4.63814 5.01398 3.93528 5.29919 3.29199C5.57587 2.66219 5.95308 2.08371 6.41443 1.58008C6.89979 1.08298 7.47021 0.702492 8.12829 0.438477C8.78508 0.146362 9.47056 0 10.1849 0ZM10.184 1.97461C9.26935 1.97461 8.46918 2.31159 7.78357 2.98438C7.46693 3.29642 7.21583 3.67171 7.04626 4.08691C6.87669 4.50218 6.79276 4.94932 6.79822 5.39941C6.79828 6.36422 7.12681 7.1833 7.78357 7.85742C8.46918 8.5302 9.26935 8.86523 10.184 8.86523V8.86719C11.097 8.86708 11.8841 8.52955 12.5394 7.85547C13.2249 7.18412 13.5677 6.36371 13.5677 5.39746C13.5677 4.46214 13.225 3.6571 12.5394 2.98438C12.2349 2.66022 11.8684 2.40316 11.4633 2.22949C11.0583 2.05596 10.6229 1.96928 10.184 1.97461Z"/>&#xa;<defs>&#xa;<linearGradient gradientUnits="userSpaceOnUse" y2="12.3759" x2="24.4392" y1="2.25763" x1="4.71397" id="paint0_linear_995_102">&#xa;<stop stop-color="#2395FF"/>&#xa;<stop stop-color="#0057D2" offset="1"/>&#xa;</linearGradient>&#xa;</defs>&#xa;</svg>