<svg xmlns="http://www.w3.org/2000/svg" fill="none" viewBox="0 0 16 16" height="16" width="16">&#xa;<path fill="url(#paint0_linear_958_378)" d="M9.36934 6.4666C9.17919 6.36921 9.01739 6.29149 8.88392 6.2325H8.88484C9.21198 5.89585 9.47379 5.49867 9.65638 5.06204C9.86572 4.61351 9.97085 4.12566 9.97085 3.59942C9.97085 3.09191 9.87487 2.62372 9.68472 2.19486C9.51286 1.76506 9.26604 1.3849 8.94243 1.05342C8.6179 0.721944 8.24676 0.468187 7.82807 0.293085C7.40848 0.0973829 6.9514 0 6.45684 0C5.98057 0 5.52349 0.0973829 5.08561 0.292149C4.64681 0.468187 4.26652 0.721944 3.94291 1.05342C3.63531 1.38922 3.38417 1.77493 3.19971 2.19486C3.00956 2.62372 2.91449 3.09191 2.91449 3.59942C2.91189 4.11407 3.0189 4.62311 3.22804 5.09106C3.43481 5.53589 3.72635 5.93385 4.08552 6.26153C3.17137 6.63233 2.42907 7.24753 1.85773 8.10525C1.28638 8.94424 1.00025 9.90964 1.00025 11.0024V12.4659C0.995602 12.6476 1.05646 12.8246 1.17119 12.9632C1.30667 13.081 1.47988 13.1433 1.65753 13.1383H6.51169C6.5911 13.1405 6.67012 13.126 6.74386 13.0957C6.8176 13.0654 6.8845 13.02 6.94043 12.9622C7.00503 12.8978 7.05612 12.8206 7.09054 12.7352C7.12497 12.6499 7.14201 12.5583 7.14063 12.4659C7.14191 12.382 7.12455 12.2988 7.08987 12.2228C7.05519 12.1467 7.00409 12.0797 6.94043 12.0268C6.82616 11.8901 6.68355 11.8217 6.51169 11.8217H2.28555V11.0024C2.28555 10.4752 2.37057 9.9883 2.54151 9.53884C2.71906 9.09086 2.98126 8.68322 3.31306 8.33934C3.63667 7.9882 4.00873 7.71572 4.42742 7.52002C4.8653 7.32525 5.33243 7.22787 5.82699 7.22787H7.19822C7.61863 7.22443 8.03576 7.30391 8.42684 7.46196C8.82633 7.59867 9.1408 7.77377 9.36934 7.98914C9.46919 8.09474 9.58493 8.18326 9.71215 8.25132C9.8151 8.28727 9.92012 8.31667 10.0266 8.33934C10.1793 8.33934 10.3219 8.27099 10.4554 8.13521C10.5504 8.03783 10.598 7.93015 10.598 7.8131V7.72508C10.594 7.5396 10.5226 7.36231 10.3978 7.22787C10.2643 7.07149 10.1025 6.92542 9.91235 6.78871C9.74049 6.652 9.5604 6.54525 9.36934 6.4666ZM8.02644 5.23714C7.58948 5.6866 7.06475 5.91133 6.45593 5.91133V5.91039C5.84618 5.91039 5.31323 5.6866 4.85615 5.23807C4.41827 4.78861 4.19888 4.24271 4.19888 3.59942C4.19524 3.29936 4.25169 3.00171 4.36474 2.72487C4.47778 2.44802 4.64503 2.19785 4.85615 1.98979C5.31323 1.54127 5.84618 1.31654 6.45593 1.31654C6.74872 1.31294 7.03912 1.37083 7.30923 1.48662C7.57934 1.60241 7.82343 1.77366 8.02644 1.98979C8.48352 2.43832 8.71206 2.97486 8.71206 3.59848C8.71206 4.24271 8.48352 4.78955 8.02644 5.23714ZM9.19372 14.943C9.19372 14.8225 9.2326 14.7159 9.31036 14.6231L11.5007 12.3006C11.4488 12.1244 11.4229 11.9436 11.4229 11.7582C11.4229 11.4893 11.4704 11.2343 11.5655 10.9933C11.6605 10.7522 11.7944 10.5436 11.9673 10.3674C12.1314 10.182 12.3258 10.0383 12.5505 9.93627C12.7665 9.82501 13.0041 9.76938 13.2633 9.76938C13.6694 9.76938 14.028 9.89455 14.339 10.1449C14.6501 10.386 14.8704 10.7012 15 11.0906H13.4707C13.3497 11.0906 13.2331 11.1323 13.1207 11.2158C12.9998 11.2992 12.9393 11.4058 12.9393 11.5356V11.9807C12.9393 12.1105 12.9998 12.2218 13.1207 12.3145C13.2331 12.3979 13.3497 12.4396 13.4707 12.4396H15C14.8704 12.8105 14.6501 13.1211 14.339 13.3715C14.028 13.6125 13.6694 13.7331 13.2633 13.7331C13.0127 13.7331 12.7881 13.6867 12.5894 13.594L10.4768 15.8748C10.399 15.9583 10.2997 16 10.1787 16C10.075 16 9.98431 15.9583 9.90654 15.8748L9.31036 15.2351C9.2326 15.1516 9.19372 15.0543 9.19372 14.943Z" clip-rule="evenodd" fill-rule="evenodd"/>&#xa;<defs>&#xa;<linearGradient gradientUnits="userSpaceOnUse" y2="16" x2="8" y1="0" x1="8" id="paint0_linear_958_378">&#xa;<stop stop-color="#5B738B"/>&#xa;<stop stop-color="#223548" offset="1"/>&#xa;</linearGradient>&#xa;</defs>&#xa;</svg>