<svg xmlns="http://www.w3.org/2000/svg" fill="none" viewBox="0 0 24 24" height="24" width="24">&#xa;<g clip-path="url(#clip0_1151_41)">&#xa;<path fill="url(#paint0_linear_1151_41)" d="M20.0931 8.58615C20.753 6.63646 21.6229 5.7666 23.5726 5.1067C24.1425 4.91173 24.1425 4.10186 23.5726 3.90689C21.6229 3.24699 20.753 2.37713 20.0931 0.427433C19.8981 -0.142478 19.1033 -0.142478 18.9083 0.427433C18.2484 2.37713 17.3785 3.24699 15.4288 3.90689C14.8589 4.10186 14.8589 4.91173 15.4288 5.1067C17.3785 5.7666 18.2484 6.63646 18.9083 8.58615C19.1033 9.15607 19.8981 9.15607 20.0931 8.58615Z"/>&#xa;<path fill="url(#paint1_linear_1151_41)" d="M9.32479 23.2239C10.5396 19.6544 12.1294 18.0647 15.6988 16.8499C16.7336 16.4899 16.7336 15.0052 15.6988 14.6602C12.1294 13.4454 10.5396 11.8557 9.32479 8.28621C8.97985 7.25137 7.49508 7.25137 7.15013 8.28621C5.93532 11.8557 4.34557 13.4454 0.776129 14.6602C-0.25871 15.0202 -0.25871 16.5049 0.776129 16.8499C4.34557 18.0647 5.93532 19.6544 7.15013 23.2239C7.49508 24.2587 8.97985 24.2587 9.32479 23.2239Z"/>&#xa;</g>&#xa;<defs>&#xa;<linearGradient gradientUnits="userSpaceOnUse" y2="24" x2="12" y1="0" x1="12" id="paint0_linear_1151_41">&#xa;<stop stop-color="#5B738B"/>&#xa;<stop stop-color="#223548" offset="1"/>&#xa;</linearGradient>&#xa;<linearGradient gradientUnits="userSpaceOnUse" y2="24" x2="12" y1="0" x1="12" id="paint1_linear_1151_41">&#xa;<stop stop-color="#5B738B"/>&#xa;<stop stop-color="#223548" offset="1"/>&#xa;</linearGradient>&#xa;<clipPath id="clip0_1151_41">&#xa;<rect fill="white" height="24" width="24"/>&#xa;</clipPath>&#xa;</defs>&#xa;</svg>