<svg xmlns="http://www.w3.org/2000/svg" fill="none" viewBox="0 0 16 16" height="16" width="16">&#xa;<g clip-path="url(#clip0_1151_21)">&#xa;<path fill="url(#paint0_linear_1151_21)" d="M13.3975 5.725C13.8375 4.425 14.4175 3.845 15.7175 3.405C16.0975 3.275 16.0975 2.735 15.7175 2.605C14.4175 2.165 13.8375 1.585 13.3975 0.285C13.2675 -0.095 12.7375 -0.095 12.6075 0.285C12.1675 1.585 11.5875 2.165 10.2875 2.605C9.9075 2.735 9.9075 3.275 10.2875 3.405C11.5875 3.845 12.1675 4.425 12.6075 5.725C12.7375 6.105 13.2675 6.105 13.3975 5.725Z"/>&#xa;<path fill="url(#paint1_linear_1151_21)" d="M6.2175 15.485C7.0275 13.105 8.0875 12.045 10.4675 11.235C11.1575 10.995 11.1575 10.005 10.4675 9.77501C8.0875 8.96501 7.0275 7.90501 6.2175 5.52501C5.9875 4.83501 4.9975 4.83501 4.7675 5.52501C3.9575 7.90501 2.8975 8.96501 0.5175 9.77501C-0.1725 10.015 -0.1725 11.005 0.5175 11.235C2.8975 12.045 3.9575 13.105 4.7675 15.485C4.9975 16.175 5.9875 16.175 6.2175 15.485Z"/>&#xa;</g>&#xa;<defs>&#xa;<linearGradient gradientUnits="userSpaceOnUse" y2="9.78925" x2="16.1984" y1="1.50532" x1="2.06817" id="paint0_linear_1151_21">&#xa;<stop stop-color="#2395FF"/>&#xa;<stop stop-color="#0057D2" offset="1"/>&#xa;</linearGradient>&#xa;<linearGradient gradientUnits="userSpaceOnUse" y2="9.78925" x2="16.1984" y1="1.50532" x1="2.06817" id="paint1_linear_1151_21">&#xa;<stop stop-color="#2395FF"/>&#xa;<stop stop-color="#0057D2" offset="1"/>&#xa;</linearGradient>&#xa;<clipPath id="clip0_1151_21">&#xa;<rect fill="white" height="16" width="16"/>&#xa;</clipPath>&#xa;</defs>&#xa;</svg>