<svg xmlns="http://www.w3.org/2000/svg" fill="none" viewBox="0 0 24 24" height="24" width="24">&#xa;<g clip-path="url(#clip0_995_14)">&#xa;<path fill="url(#paint0_linear_995_14)" d="M23.364 1.34697C22.98 1.14297 22.5 1.16697 22.14 1.40697C22.068 1.45497 15.18 6.00297 10.8 6.00297H4.8C2.112 6.00297 0 8.11497 0 10.803C0 13.491 2.112 15.603 4.8 15.603H5.256L8.532 22.143C8.7 22.491 9.024 22.731 9.408 22.791C9.468 22.791 9.54 22.791 9.6 22.791C9.912 22.791 10.224 22.671 10.452 22.443L12.852 20.043C13.152 19.743 13.272 19.311 13.164 18.903L12.372 15.759C16.656 16.575 22.068 20.151 22.14 20.199C22.5 20.439 22.98 20.463 23.364 20.259C23.76 20.043 24 19.635 24 19.191V2.40297C24 1.97097 23.76 1.56297 23.364 1.34697ZM9.924 19.587L7.068 13.875C6.876 13.467 6.456 13.203 6 13.203H4.8C3.432 13.203 2.4 12.171 2.4 10.803C2.4 9.43497 3.432 8.40297 4.8 8.40297H9.6V14.403C9.6 14.511 9.612 14.607 9.636 14.703L10.668 18.843L9.924 19.587ZM21.6 17.067C19.32 15.735 15.372 13.707 12 13.287V8.31897C15.372 7.89897 19.32 5.87097 21.6 4.55097V17.067Z"/>&#xa;</g>&#xa;<defs>&#xa;<linearGradient gradientUnits="userSpaceOnUse" y2="22.791" x2="12" y1="1.20898" x1="12" id="paint0_linear_995_14">&#xa;<stop stop-color="#5B738B"/>&#xa;<stop stop-color="#223548" offset="1"/>&#xa;</linearGradient>&#xa;<clipPath id="clip0_995_14">&#xa;<rect fill="white" height="24" width="24"/>&#xa;</clipPath>&#xa;</defs>&#xa;</svg>