<svg xmlns="http://www.w3.org/2000/svg" fill="none" viewBox="0 0 16 16" height="16" width="16">&#xa;<g clip-path="url(#clip0_958_374)">&#xa;<path fill="url(#paint0_linear_958_374)" d="M15.576 0.898023C15.32 0.762023 15 0.778023 14.76 0.938023C14.712 0.970023 10.12 4.00202 7.2 4.00202H3.2C1.408 4.00202 0 5.41002 0 7.20202C0 8.99402 1.408 10.402 3.2 10.402H3.504L5.688 14.762C5.8 14.994 6.016 15.154 6.272 15.194C6.312 15.194 6.36 15.194 6.4 15.194C6.608 15.194 6.816 15.114 6.968 14.962L8.568 13.362C8.768 13.162 8.848 12.874 8.776 12.602L8.248 10.506C11.104 11.05 14.712 13.434 14.76 13.466C15 13.626 15.32 13.642 15.576 13.506C15.84 13.362 16 13.09 16 12.794V1.60202C16 1.31402 15.84 1.04202 15.576 0.898023ZM6.616 13.058L4.712 9.25002C4.584 8.97802 4.304 8.80202 4 8.80202H3.2C2.288 8.80202 1.6 8.11402 1.6 7.20202C1.6 6.29002 2.288 5.60202 3.2 5.60202H6.4V9.60202C6.4 9.67402 6.408 9.73802 6.424 9.80202L7.112 12.562L6.616 13.058ZM14.4 11.378C12.88 10.49 10.248 9.13802 8 8.85802V5.54602C10.248 5.26602 12.88 3.91402 14.4 3.03402V11.378Z"/>&#xa;</g>&#xa;<defs>&#xa;<linearGradient gradientUnits="userSpaceOnUse" y2="15.194" x2="8" y1="0.80603" x1="8" id="paint0_linear_958_374">&#xa;<stop stop-color="#5B738B"/>&#xa;<stop stop-color="#223548" offset="1"/>&#xa;</linearGradient>&#xa;<clipPath id="clip0_958_374">&#xa;<rect fill="white" height="16" width="16"/>&#xa;</clipPath>&#xa;</defs>&#xa;</svg>