<svg xmlns="http://www.w3.org/2000/svg" fill="none" viewBox="0 0 24 24" height="24" width="24">&#xa;<g clip-path="url(#clip0_995_23)">&#xa;<path fill="url(#paint0_linear_995_23)" d="M19.252 14.4094C19.9134 14.4094 20.5275 14.5354 21.0944 14.7874C21.6929 15.0394 22.2125 15.3857 22.6535 15.8267C23.0945 16.2677 23.4409 16.7873 23.6929 17.3858C23.9449 17.9528 24.0709 18.5669 24.0709 19.2283C24.0709 19.8897 23.9449 20.5197 23.6929 21.118C23.4409 21.685 23.0945 22.1731 22.6535 22.5825C22.2125 23.0235 21.6929 23.37 21.0944 23.622C20.5275 23.8739 19.9134 24 19.252 24C18.5906 24 17.9606 23.8739 17.3622 23.622C16.7953 23.37 16.2914 23.0235 15.8504 22.5825C15.4094 22.1731 15.0631 21.685 14.811 21.118C14.5591 20.5197 14.4331 19.8897 14.4331 19.2283V18.614L8.05516 15.4961C7.07879 16.3779 5.96067 16.8189 4.70084 16.8189C4.03942 16.8189 3.4095 16.6928 2.81108 16.441C2.24415 16.1889 1.74022 15.8424 1.29927 15.4015C0.889827 14.9606 0.559119 14.4566 0.307151 13.8897C0.0551826 13.2913 -0.0708008 12.6614 -0.0708008 12C-0.0708008 11.3385 0.0551826 10.7244 0.307151 10.1574C0.559119 9.55903 0.889827 9.05508 1.29927 8.64564C1.74022 8.20469 2.24415 7.85825 2.81108 7.60628C3.4095 7.3543 4.03942 7.22832 4.70084 7.22832C5.36225 7.22832 5.97642 7.33856 6.54335 7.55903C7.14177 7.7795 7.64571 8.11021 8.05516 8.55115L14.4331 5.38581V4.81888C14.4331 4.15747 14.5591 3.5433 14.811 2.97637C15.0631 2.37795 15.4094 1.85827 15.8504 1.41732C16.2914 0.976374 16.7953 0.62992 17.3622 0.377952C17.9606 0.125983 18.5906 0 19.252 0C19.9134 0 20.5275 0.125983 21.0944 0.377952C21.6929 0.62992 22.2125 0.976374 22.6535 1.41732C23.0945 1.85827 23.4409 2.37795 23.6929 2.97637C23.9449 3.5433 24.0709 4.15747 24.0709 4.81888C24.0709 5.4803 23.9449 6.11022 23.6929 6.70864C23.4409 7.27557 23.0945 7.7795 22.6535 8.22045C22.2125 8.62989 21.6929 8.9606 21.0944 9.21257C20.5275 9.46454 19.9134 9.59052 19.252 9.59052C18.4016 9.59052 17.63 9.4173 16.9369 9.07084C16.2757 8.69289 15.7245 8.18896 15.2835 7.55903L9.37799 10.5826C9.53547 11.1181 9.61421 11.5905 9.61421 12C9.61421 12.4409 9.53547 12.9291 9.37799 13.4645L15.2835 16.441C15.7559 15.8424 16.3228 15.3543 16.9843 14.9763C17.6457 14.5984 18.4016 14.4094 19.252 14.4094ZM19.252 2.40944C18.5906 2.40944 18.0236 2.64566 17.5512 3.1181C17.0788 3.59054 16.8426 4.15747 16.8426 4.81888C16.8426 5.4803 17.0788 6.04722 17.5512 6.51966C18.0236 6.9921 18.5906 7.22832 19.252 7.22832C19.9134 7.22832 20.4803 6.9921 20.9528 6.51966C21.4252 6.04722 21.6613 5.4803 21.6613 4.81888C21.6613 4.15747 21.4252 3.59054 20.9528 3.1181C20.4803 2.64566 19.9134 2.40944 19.252 2.40944ZM4.84257 14.4094C5.50398 14.4094 6.07091 14.1732 6.54335 13.7007C7.01579 13.2283 7.25201 12.6614 7.25201 12C7.25201 11.3385 7.01579 10.7716 6.54335 10.2992C6.07091 9.82674 5.50398 9.59052 4.84257 9.59052C4.18115 9.59052 3.61423 9.82674 3.14179 10.2992C2.66935 10.7716 2.43313 11.3385 2.43313 12C2.43313 12.6614 2.66935 13.2283 3.14179 13.7007C3.61423 14.1732 4.18115 14.4094 4.84257 14.4094ZM19.252 21.6377C19.9134 21.6377 20.4803 21.4015 20.9528 20.9291C21.4252 20.4566 21.6613 19.8897 21.6613 19.2283C21.6613 18.5669 21.4252 17.9999 20.9528 17.5275C20.4803 17.0551 19.9134 16.8189 19.252 16.8189C18.5906 16.8189 18.0236 17.0551 17.5512 17.5275C17.0788 17.9999 16.8426 18.5669 16.8426 19.2283C16.8426 19.8897 17.0788 20.4566 17.5512 20.9291C18.0236 21.4015 18.5906 21.6377 19.252 21.6377Z"/>&#xa;</g>&#xa;<defs>&#xa;<linearGradient gradientUnits="userSpaceOnUse" y2="24" x2="12" y1="0" x1="12" id="paint0_linear_995_23">&#xa;<stop stop-color="#5B738B"/>&#xa;<stop stop-color="#223548" offset="1"/>&#xa;</linearGradient>&#xa;<clipPath id="clip0_995_23">&#xa;<rect fill="white" height="24" width="24"/>&#xa;</clipPath>&#xa;</defs>&#xa;</svg>