<svg xmlns="http://www.w3.org/2000/svg" fill="none" viewBox="0 0 24 24" height="24" width="24">&#xa;<path fill="url(#paint0_linear_995_208)" d="M20.3907 2C21.4212 2 22.2806 2.34424 22.9691 3.02972C23.6561 3.7152 23.9996 4.57131 23.9996 5.60103V19.399C24.0069 19.8746 23.9194 20.347 23.7423 20.7887C23.5651 21.2303 23.3018 21.6325 22.9676 21.9718C22.2806 22.6573 21.4227 23 20.3907 23H3.60931C2.57885 23 1.71938 22.6573 1.03091 21.9718C0.696998 21.6324 0.433965 21.2302 0.257072 20.7885C0.0801801 20.3468 -0.00704964 19.8745 0.000445055 19.399V5.60103C0.000445055 4.5728 0.345433 3.7152 1.03241 3.02822C1.71788 2.34424 2.57735 2 3.60782 2H20.3907ZM2.39136 6.77143H21.6087V5.60103C21.6087 4.79132 21.2037 4.38572 20.3907 4.38572H3.60931C3.28166 4.37974 2.9637 4.49672 2.71835 4.71349C2.50085 4.93051 2.39136 5.22685 2.39136 5.60103V6.76994V6.77143ZM21.6087 9.20355H2.39136V19.399C2.39136 19.7432 2.50085 20.0231 2.71835 20.2416C2.96392 20.4578 3.28186 20.5743 3.60931 20.5679H20.3907C21.2022 20.5679 21.6087 20.1787 21.6087 19.399V9.20205V9.20355Z"/>&#xa;<defs>&#xa;<linearGradient gradientUnits="userSpaceOnUse" y2="17.1432" x2="22.7549" y1="3.97543" x1="3.10178" id="paint0_linear_995_208">&#xa;<stop stop-color="#2395FF"/>&#xa;<stop stop-color="#0057D2" offset="1"/>&#xa;</linearGradient>&#xa;</defs>&#xa;</svg>