<svg xmlns="http://www.w3.org/2000/svg" fill="none" viewBox="0 0 16 16" height="16" width="16">&#xa;<path fill="url(#paint0_linear_958_401)" d="M13.5938 1C14.2808 1 14.8538 1.22949 15.3127 1.68648C15.7707 2.14347 15.9997 2.7142 15.9997 3.40068V12.5993C16.0046 12.9164 15.9463 13.2313 15.8282 13.5258C15.7101 13.8202 15.5345 14.0883 15.3117 14.3145C14.8538 14.7715 14.2818 15 13.5938 15H2.40621C1.71923 15 1.14626 14.7715 0.687272 14.3145C0.464665 14.0882 0.28931 13.8201 0.171382 13.5257C0.0534534 13.2312 -0.00469976 12.9164 0.000296703 12.5993V3.40068C0.000296703 2.7152 0.230288 2.14347 0.688272 1.68548C1.14526 1.22949 1.71823 1 2.40521 1H13.5938ZM1.59424 4.18096H14.4058V3.40068C14.4058 2.86088 14.1358 2.59048 13.5938 2.59048H2.40621C2.18777 2.5865 1.9758 2.66448 1.81223 2.80899C1.66724 2.95367 1.59424 3.15124 1.59424 3.40068V4.17996V4.18096ZM14.4058 5.80237H1.59424V12.5993C1.59424 12.8288 1.66724 13.0154 1.81223 13.1611C1.97595 13.3052 2.18791 13.3828 2.40621 13.3786H13.5938C14.1348 13.3786 14.4058 13.1192 14.4058 12.5993V5.80137V5.80237Z"/>&#xa;<defs>&#xa;<linearGradient gradientUnits="userSpaceOnUse" y2="15" x2="8" y1="1" x1="8" id="paint0_linear_958_401">&#xa;<stop stop-color="#5B738B"/>&#xa;<stop stop-color="#223548" offset="1"/>&#xa;</linearGradient>&#xa;</defs>&#xa;</svg>