<svg xmlns:xlink="http://www.w3.org/1999/xlink" xmlns="http://www.w3.org/2000/svg" viewBox="0 0 144.747 39.832" id="a"><defs><linearGradient gradientUnits="userSpaceOnUse" y2="39.832" x2="40.258" y1="0" x1="40.258" id="b"><stop stop-color="#00b8f1" offset="0"/><stop stop-color="#00b5ef" offset=".016"/><stop stop-color="#0d90d8" offset=".308"/><stop stop-color="#1675c8" offset=".578"/><stop stop-color="#1c64be" offset=".817"/><stop stop-color="#1e5fbb" offset="1"/></linearGradient></defs><polyline fill-rule="evenodd" fill="url(#b)" points="0 39.832 40.692 39.832 80.517 0 0 0 0 39.832"/><path fill-rule="evenodd" fill="#fff" d="m47.782,7.489l-7.925-.005v18.845l-6.924-18.845h-6.865l-5.912,15.759c-.63-3.973-4.74-5.345-7.974-6.374-2.135-.686-4.401-1.694-4.38-2.809.017-.915,1.215-1.765,3.589-1.637,1.595.084,3.001.213,5.8,1.563l2.753-4.795c-2.555-1.3-6.086-2.121-8.978-2.124h-.017c-3.374,0-6.185,1.093-7.928,2.894-1.214,1.258-1.869,2.856-1.896,4.623-.044,2.432.848,4.157,2.721,5.533,1.583,1.16,3.606,1.912,5.39,2.465,2.201.681,3.996,1.274,3.975,2.539-.016.459-.191.888-.521,1.236-.548.566-1.391.779-2.555.799-2.244.048-3.91-.303-6.562-1.87l-2.448,4.861c2.644,1.506,5.776,2.388,8.972,2.388l.411-.006c2.782-.05,5.026-.842,6.82-2.286.103-.081.196-.166.291-.25l-.795,2.123h7.2l1.208-3.674c1.265.433,2.704.671,4.232.671,1.487,0,2.889-.229,4.131-.635l1.164,3.637h11.742v-7.607h2.561c6.188,0,9.851-3.154,9.851-8.436,0-5.885-3.557-8.585-11.132-8.585Zm-18.317,16.124c-.925,0-1.792-.16-2.539-.443l2.512-7.926h.048l2.468,7.948c-.742.263-1.589.421-2.488.421Zm18.783-4.553h-1.746v-6.386h1.746c2.328,0,4.185.773,4.185,3.151,0,2.461-1.857,3.236-4.185,3.236"/><path fill="#002a86" d="m80.217,7.401h10.063c5.595,0,8.674,1.917,8.674,6.158,0,2.903-1.513,5.014-4.311,5.7,3.29.458,5.278,2.586,5.278,5.894,0,5.014-4.064,7.037-9.184,7.037h-10.521V7.401Zm13.969,6.826c0-2.164-1.496-2.973-4.24-2.973h-5.049v6.298h4.891c3.202,0,4.398-1.161,4.398-3.325Zm1.021,10.521c0-2.357-1.777-3.466-4.839-3.466h-5.471v7.055h5.506c2.815,0,4.804-.774,4.804-3.589Z"/><path fill="#002a86" d="m109.051,11.5h-7.583v-4.099h19.846v4.099h-7.565v20.69h-4.697V11.5Z"/><path fill="#002a86" d="m125.148,7.401h10.504c6.192,0,9.096,3.185,9.096,7.899,0,4.398-2.833,8.146-8.85,8.146h-6.07v8.744h-4.68V7.401Zm14.902,7.952c0-2.551-1.689-3.923-4.944-3.923h-5.278v8.04h5.419c3.272,0,4.804-1.583,4.804-4.117Z"/></svg>