<svg xmlns="http://www.w3.org/2000/svg" fill="none" viewBox="0 0 24 24" height="24" width="24">&#xa;<path fill="url(#paint0_linear_995_170)" d="M20.9041 13.0626C21.239 13.0626 21.4978 13.1677 21.6804 13.3777C21.8935 13.5577 22 13.8128 22 14.1429V22.9198C22 23.6399 21.6347 24 20.9041 24H3.14157C2.38052 24 2 23.6399 2 22.9198V9.77691C2 9.44683 2.10655 9.19178 2.31965 9.01174C2.53274 8.8017 2.80671 8.69667 3.14157 8.69667H7.47946V6.49119C7.47946 6.19113 7.61646 5.90607 7.89043 5.63601L10.9041 3.7456V2.12524C10.9041 1.79517 10.9955 1.52511 11.1781 1.31507C11.3912 1.10502 11.6652 1 12 1C12.7611 1 13.1416 1.37508 13.1416 2.12524V3.7456L15.8813 5.63601C16.1858 5.81605 16.3379 6.10111 16.3379 6.49119V13.0626H20.9041ZM16.3379 15.2681V17.4286H19.8082V15.2681H16.3379ZM14.1461 15.2681H9.67124V17.4286H14.1461V15.2681ZM14.1461 13.0626V10.8571H9.67124V13.0626H14.1461ZM9.67124 8.69667H14.1461V7.03131L11.9087 5.63601L9.67124 7.03131V8.69667ZM4.23746 13.0626H7.47946V10.8571H4.23746V13.0626ZM4.23746 15.2681V17.4286H7.47946V15.2681H4.23746ZM7.47946 21.8395V19.6341H4.23746V21.8395H7.47946ZM14.1461 21.8395V19.6341H9.67124V21.8395H14.1461ZM19.8082 21.8395V19.6341H16.3379V21.8395H19.8082Z"/>&#xa;<defs>&#xa;<linearGradient gradientUnits="userSpaceOnUse" y2="19.7516" x2="21.2814" y1="4.26449" x1="3.81369" id="paint0_linear_995_170">&#xa;<stop stop-color="#00CEAC"/>&#xa;<stop stop-color="#07838F" offset="1"/>&#xa;</linearGradient>&#xa;</defs>&#xa;</svg>