<svg xmlns="http://www.w3.org/2000/svg" fill="none" viewBox="0 0 16 16" height="16" width="16">&#xa;<path fill="url(#paint0_linear_958_417)" d="M14.2329 8.39139C14.4673 8.39139 14.6485 8.46445 14.7763 8.61057C14.9254 8.73581 15 8.91324 15 9.14286V15.2485C15 15.7495 14.7443 16 14.2329 16H1.7991C1.26637 16 1 15.7495 1 15.2485V6.10568C1 5.87606 1.07458 5.69863 1.22375 5.57339C1.37291 5.42727 1.5647 5.35421 1.7991 5.35421H4.83562V3.81996C4.83562 3.61122 4.93152 3.41292 5.1233 3.22505L7.2329 1.90998V0.782779C7.2329 0.553163 7.29682 0.365296 7.42468 0.219178C7.57384 0.0730597 7.76562 0 8.00002 0C8.53274 0 8.7991 0.260927 8.7991 0.782779V1.90998L10.7169 3.22505C10.93 3.35029 11.0365 3.5486 11.0365 3.81996V8.39139H14.2329ZM11.0365 9.92564V11.4286H13.4658V9.92564H11.0365ZM9.5023 9.92564H6.36987V11.4286H9.5023V9.92564ZM9.5023 8.39139V6.85714H6.36987V8.39139H9.5023ZM6.36987 5.35421H9.5023V4.19569L7.93609 3.22505L6.36987 4.19569V5.35421ZM2.56622 8.39139H4.83562V6.85714H2.56622V8.39139ZM2.56622 9.92564V11.4286H4.83562V9.92564H2.56622ZM4.83562 14.4971V12.9629H2.56622V14.4971H4.83562ZM9.5023 14.4971V12.9629H6.36987V14.4971H9.5023ZM13.4658 14.4971V12.9629H11.0365V14.4971H13.4658Z"/>&#xa;<defs>&#xa;<linearGradient gradientUnits="userSpaceOnUse" y2="16" x2="8" y1="0" x1="8" id="paint0_linear_958_417">&#xa;<stop stop-color="#5B738B"/>&#xa;<stop stop-color="#223548" offset="1"/>&#xa;</linearGradient>&#xa;</defs>&#xa;</svg>