<svg xmlns="http://www.w3.org/2000/svg" fill="none" viewBox="0 0 16 16" height="16" width="16">&#xa;<g clip-path="url(#clip0_963_691)">&#xa;<path fill="url(#paint0_linear_963_691)" d="M15.75 14.6534C15.917 14.8207 16 14.9981 16 15.1854C15.9989 15.2916 15.9762 15.3963 15.9332 15.4934C15.8902 15.5904 15.8278 15.6775 15.75 15.7495C15.6781 15.8275 15.5911 15.8899 15.4943 15.933C15.3975 15.976 15.2929 15.9988 15.187 16C15.0813 15.9987 14.9769 15.9758 14.8802 15.9328C14.7836 15.8897 14.6968 15.8273 14.625 15.7495L11.687 12.8058C11.042 13.3278 10.313 13.5673 9.5 13.5262C8.687 13.4841 7.98 13.1605 7.375 12.5553L3.531 8.73693C3.25122 8.44091 3.01942 8.10284 2.844 7.73499C2.68246 7.37959 2.58722 6.99757 2.563 6.6078C2.56216 6.21608 2.61464 5.82607 2.719 5.44856C2.844 5.07283 3.042 4.72916 3.313 4.41656L0.25 1.37667C0.172273 1.3048 0.110008 1.21779 0.0670204 1.12096C0.0240326 1.02414 0.00122677 0.919541 0 0.813576C0 0.606174 0.083 0.41781 0.25 0.250485C0.321844 0.172485 0.408849 0.110028 0.505667 0.066953C0.602485 0.0238775 0.707071 0.00109311 0.813 0C1.021 0 1.208 0.0831611 1.375 0.250485L4.406 3.28737C5.0171 2.77672 5.7997 2.51904 6.594 2.56697C7.406 2.60906 8.114 2.93268 8.719 3.53886L12.563 7.35826C12.854 7.67086 13.083 8.01553 13.25 8.39126C13.5823 9.09794 13.6271 9.90642 13.375 10.6456C13.2501 11.0208 13.0595 11.3706 12.812 11.6786L15.75 14.6534ZM4.656 5.29125C4.50528 5.43714 4.386 5.61243 4.30551 5.80629C4.22502 6.00015 4.18503 6.20849 4.188 6.41844C4.188 6.83625 4.344 7.20195 4.656 7.51456L6 8.89223L8.875 6.01165L7.531 4.63398C7.38548 4.48279 7.21057 4.36309 7.01708 4.28227C6.82359 4.20145 6.61561 4.16122 6.406 4.16407C5.99 4.16407 5.615 4.32137 5.281 4.63398L4.656 5.29125ZM8.5 11.366C8.6407 11.515 8.81034 11.6335 8.99849 11.7144C9.18663 11.7952 9.3893 11.8365 9.594 11.8359C10.031 11.8359 10.406 11.6786 10.719 11.365L11.375 10.7398C11.688 10.4052 11.844 10.0294 11.844 9.61263C11.844 9.17377 11.688 8.79805 11.375 8.48544L10 7.13883L7.125 10.0194L8.5 11.366Z"/>&#xa;</g>&#xa;<defs>&#xa;<linearGradient gradientUnits="userSpaceOnUse" y2="14.7481" x2="13.6882" y1="2.27095" x1="1.45096" id="paint0_linear_963_691">&#xa;<stop stop-color="#00CEAC"/>&#xa;<stop stop-color="#07838F" offset="1"/>&#xa;</linearGradient>&#xa;<clipPath id="clip0_963_691">&#xa;<rect fill="white" height="16" width="16"/>&#xa;</clipPath>&#xa;</defs>&#xa;</svg>