<svg xmlns="http://www.w3.org/2000/svg" fill="none" viewBox="0 0 16 16" height="16" width="16">&#xa;<path fill="url(#paint0_linear_963_515)" d="M3.65896 6.91164C3.96244 4.69992 5.78205 3 7.98141 3C9.58185 3 10.9798 3.90005 11.7399 5.24H11.8108C14.1244 5.24 16 7.20099 16 9.62C16 12.039 14.1244 14 11.8108 14H9.49405C9.4445 14 9.39511 13.9991 9.3459 13.9973C9.30161 13.9991 9.25714 14 9.21251 14H3.38982C1.51767 14 0 12.4132 0 10.4558C0 8.49842 1.51768 6.91164 3.38982 6.91164H3.65896ZM7.98141 4.67287C6.45328 4.67287 5.21448 5.96807 5.21448 7.56578C5.21448 7.61348 5.21558 7.66085 5.21774 7.70786C5.22827 7.93641 5.14878 8.15949 4.99779 8.32513C4.84681 8.49077 4.63751 8.58451 4.41866 8.58451H3.38982C2.40134 8.58451 1.60001 9.42232 1.60001 10.4558C1.60001 11.4893 2.40133 12.3271 3.38982 12.3271H9.21251C9.24325 12.3271 9.27374 12.3263 9.30397 12.3248C9.32887 12.3235 9.35382 12.3234 9.37873 12.3245C9.41691 12.3262 9.45536 12.3271 9.49405 12.3271H11.8108C13.2408 12.3271 14.4 11.1151 14.4 9.62C14.4 8.12489 13.2408 6.91287 11.8108 6.91287H11.2525C10.9343 6.91287 10.6464 6.71572 10.5192 6.41078C10.0919 5.38632 9.11546 4.67287 7.98141 4.67287Z" clip-rule="evenodd" fill-rule="evenodd"/>&#xa;<defs>&#xa;<linearGradient gradientUnits="userSpaceOnUse" y2="13.4074" x2="13.0592" y1="4.03475" x1="2.06785" id="paint0_linear_963_515">&#xa;<stop stop-color="#2395FF"/>&#xa;<stop stop-color="#0057D2" offset="1"/>&#xa;</linearGradient>&#xa;</defs>&#xa;</svg>