<svg xmlns="http://www.w3.org/2000/svg" fill="none" viewBox="0 0 24 24" height="24" width="24">&#xa;<path fill="url(#paint0_linear_995_206)" d="M5.48843 9.68966C5.94366 6.47261 8.67307 4 11.9721 4C14.3728 4 16.4697 5.30916 17.6098 7.25818H17.7161C21.1866 7.25818 24 10.1105 24 13.6291C24 17.1476 21.1866 20 17.7161 20H14.2411C14.1667 20 14.0927 19.9987 14.0188 19.9961C13.9524 19.9987 13.8857 20 13.8188 20H5.08473C2.27651 20 0 17.692 0 14.8448C0 11.9977 2.27652 9.68966 5.08474 9.68966H5.48843ZM11.9721 6.43326C9.67991 6.43326 7.82172 8.31719 7.82172 10.6411C7.82172 10.7105 7.82337 10.7794 7.82662 10.8478C7.8424 11.1802 7.72316 11.5047 7.49669 11.7456C7.27021 11.9866 6.95627 12.1229 6.628 12.1229H5.08474C3.602 12.1229 2.40001 13.3416 2.40001 14.8448C2.40001 16.3481 3.602 17.5667 5.08473 17.5667H13.8188C13.8649 17.5667 13.9106 17.5656 13.9559 17.5633C13.9933 17.5614 14.0307 17.5613 14.0681 17.5629C14.1254 17.5654 14.183 17.5667 14.2411 17.5667H17.7161C19.8611 17.5667 21.6 15.8038 21.6 13.6291C21.6 11.4544 19.8611 9.69144 17.7161 9.69144H16.8788C16.4015 9.69144 15.9696 9.40468 15.7788 8.96113C15.1379 7.47101 13.6732 6.43326 11.9721 6.43326Z" clip-rule="evenodd" fill-rule="evenodd"/>&#xa;<defs>&#xa;<linearGradient gradientUnits="userSpaceOnUse" y2="19.6261" x2="19.1596" y1="5.50509" x1="3.10178" id="paint0_linear_995_206">&#xa;<stop stop-color="#2395FF"/>&#xa;<stop stop-color="#0057D2" offset="1"/>&#xa;</linearGradient>&#xa;</defs>&#xa;</svg>