<svg xmlns="http://www.w3.org/2000/svg" fill="none" viewBox="0 0 24 24" height="24" width="24">&#xa;<path fill="url(#paint0_linear_995_184)" d="M23.7896 11.7812C24.0701 12.2604 24.0701 12.7396 23.7896 13.2188C23.5093 13.6979 23.073 13.9375 22.4809 13.9375H10.516C9.92404 13.9375 9.48781 13.6979 9.20739 13.2188C8.92696 12.7396 8.92696 12.2604 9.20739 11.7812L15.1898 1.76367C15.4704 1.25456 15.8909 1 16.4518 1C17.0437 1 17.4956 1.25456 17.8071 1.76367L23.7896 11.7812ZM15.0028 7.46875C15.0028 7.85807 15.1431 8.20248 15.4235 8.50195C15.704 8.77148 16.0623 8.90625 16.4984 8.90625C16.9347 8.90625 17.2931 8.77148 17.5735 8.50195C17.8539 8.20248 17.9941 7.85807 17.9941 7.46875V5.26758C17.9941 4.8483 17.8539 4.50391 17.5735 4.23438C17.2931 3.96484 16.9347 3.83008 16.4984 3.83008C16.0623 3.83008 15.704 3.96484 15.4235 4.23438C15.1431 4.50391 15.0028 4.8483 15.0028 5.26758V7.46875ZM16.4984 12.5C16.9347 12.5 17.2931 12.3652 17.5735 12.0957C17.8539 11.8262 17.9941 11.4818 17.9941 11.0625C17.9941 10.6432 17.8539 10.2988 17.5735 10.0293C17.2931 9.75977 16.9347 9.625 16.4984 9.625C16.0623 9.625 15.704 9.75977 15.4235 10.0293C15.1431 10.2988 15.0028 10.6432 15.0028 11.0625C15.0028 11.4818 15.1431 11.8262 15.4235 12.0957C15.704 12.3652 16.0623 12.5 16.4984 12.5ZM19.7702 17.082C20.1129 17.082 20.3933 17.2018 20.6114 17.4414C20.8607 17.651 20.9853 17.9205 20.9853 18.25V22.832C20.9853 23.1615 20.8607 23.431 20.6114 23.6406C20.3933 23.8803 20.1129 24 19.7702 24H19.2094C18.8666 24 18.5706 23.8803 18.3213 23.6406C18.1032 23.431 17.9941 23.1615 17.9941 22.832V21.8886H2.99123V22.832C2.99123 23.1615 2.8666 23.431 2.61733 23.6406C2.39922 23.8803 2.11879 24 1.77604 24H1.21519C0.872442 24 0.576436 23.8803 0.327166 23.6406C0.109055 23.431 0 23.1615 0 22.832V12.5L1.40214 8.72656C1.71372 7.94791 2.22784 7.31901 2.94449 6.83984C3.66115 6.33072 4.47126 6.07617 5.37487 6.07617H7.71177C8.05452 6.07617 8.33495 6.18099 8.55305 6.39062C8.77116 6.60026 8.88022 6.86979 8.88022 7.19922C8.88022 7.52865 8.77116 7.81315 8.55305 8.05273C8.33495 8.26236 8.05452 8.36719 7.71177 8.36719H5.37487C5.00097 8.36719 4.65822 8.47201 4.34663 8.68164C4.03505 8.89127 3.81693 9.1608 3.6923 9.49023L2.89776 11.6016H6.30963C6.65238 11.6016 6.93281 11.7213 7.15091 11.9609C7.36902 12.1706 7.47808 12.4401 7.47808 12.7695C7.47808 13.099 7.36902 13.3685 7.15091 13.5781C6.93281 13.7878 6.65238 13.8926 6.30963 13.8926H2.38364V19.5977H18.6017V18.25C18.6017 17.9205 18.7108 17.651 18.9288 17.4414C19.147 17.2018 19.4275 17.082 19.7702 17.082ZM5.98246 15.375C6.41869 15.375 6.77701 15.5098 7.05744 15.7792C7.33787 16.0489 7.47808 16.3932 7.47808 16.8125C7.47808 17.2018 7.33787 17.5462 7.05744 17.8458C6.77701 18.1152 6.41869 18.25 5.98246 18.25C5.57741 18.25 5.21907 18.1152 4.90749 17.8458C4.62706 17.5462 4.48685 17.2018 4.48685 16.8125C4.48685 16.3932 4.62706 16.0489 4.90749 15.7792C5.21907 15.5098 5.57741 15.375 5.98246 15.375ZM16.4984 16.8125C16.4984 17.2018 16.3583 17.5462 16.0779 17.8458C15.7974 18.1152 15.4391 18.25 15.0028 18.25C14.5667 18.25 14.2084 18.1152 13.9279 17.8458C13.6475 17.5462 13.5073 17.2018 13.5073 16.8125C13.5073 16.3932 13.6475 16.0489 13.9279 15.7792C14.2084 15.5098 14.5667 15.375 15.0028 15.375C15.4391 15.375 15.7974 15.5098 16.0779 15.7792C16.3583 16.0489 16.4984 16.3932 16.4984 16.8125Z"/>&#xa;<defs>&#xa;<linearGradient gradientUnits="userSpaceOnUse" y2="22.9478" x2="19.737" y1="4.26449" x1="2.17643" id="paint0_linear_995_184">&#xa;<stop stop-color="#00CEAC"/>&#xa;<stop stop-color="#07838F" offset="1"/>&#xa;</linearGradient>&#xa;</defs>&#xa;</svg>