<svg xmlns="http://www.w3.org/2000/svg" fill="none" viewBox="0 0 24 24" height="24" width="24">&#xa;<g clip-path="url(#clip0_1151_51)">&#xa;<path fill="url(#paint0_linear_1151_51)" d="M14.7481 11.6399C15.2881 10.0199 16.0231 9.29992 17.6432 8.74492C18.1233 8.59492 18.1233 7.91992 17.6432 7.75492C16.0231 7.21492 15.3031 6.47992 14.7481 4.85992C14.583 4.39492 13.923 4.39492 13.758 4.85992C13.218 6.47992 12.4829 7.19992 10.8628 7.75492C10.3828 7.90492 10.3828 8.57992 10.8628 8.74492C12.4829 9.28492 13.203 10.0199 13.758 11.6399C13.923 12.1049 14.583 12.1049 14.7481 11.6399Z"/>&#xa;<path fill="url(#paint1_linear_1151_51)" d="M11.0278 23.505C11.2528 23.82 11.6129 24 12.0029 24C12.3929 24 12.7529 23.82 12.9779 23.505L23.7786 8.505C24.0636 8.1 24.0786 7.545 23.7936 7.125L19.2933 0.525C19.0683 0.195 18.6933 0 18.3033 0H6.30254C5.94252 0 5.5825 0.165 5.35749 0.465L0.257183 7.065C-0.0728363 7.485 -0.087835 8.07 0.227184 8.505L11.0278 23.505ZM12.0029 20.745L2.70233 7.83L6.88758 2.4H17.6582L21.3334 7.785L12.0029 20.745Z" clip-rule="evenodd" fill-rule="evenodd"/>&#xa;</g>&#xa;<defs>&#xa;<linearGradient gradientUnits="userSpaceOnUse" y2="22.1221" x2="20.5322" y1="3.40642" x1="2.17643" id="paint0_linear_1151_51">&#xa;<stop stop-color="#00CEAC"/>&#xa;<stop stop-color="#07838F" offset="1"/>&#xa;</linearGradient>&#xa;<linearGradient gradientUnits="userSpaceOnUse" y2="22.1221" x2="20.5322" y1="3.40642" x1="2.17643" id="paint1_linear_1151_51">&#xa;<stop stop-color="#00CEAC"/>&#xa;<stop stop-color="#07838F" offset="1"/>&#xa;</linearGradient>&#xa;<clipPath id="clip0_1151_51">&#xa;<rect fill="white" height="24" width="24"/>&#xa;</clipPath>&#xa;</defs>&#xa;</svg>