<svg xmlns="http://www.w3.org/2000/svg" fill="none" viewBox="0 0 16 16" height="16" width="16">&#xa;<g clip-path="url(#clip0_1151_17)">&#xa;<path fill="url(#paint0_linear_1151_17)" d="M9.83145 7.75995C10.1914 6.67995 10.6814 6.19995 11.7614 5.82995C12.0814 5.72995 12.0814 5.27995 11.7614 5.16995C10.6814 4.80995 10.2014 4.31995 9.83145 3.23995C9.72145 2.92995 9.28144 2.92995 9.17144 3.23995C8.81144 4.31995 8.32144 4.79995 7.24144 5.16995C6.92144 5.26995 6.92144 5.71995 7.24144 5.82995C8.32144 6.18995 8.80144 6.67995 9.17144 7.75995C9.28144 8.06995 9.72145 8.06995 9.83145 7.75995Z"/>&#xa;<path fill="url(#paint1_linear_1151_17)" d="M7.35144 15.67C7.50144 15.88 7.74145 16 8.00145 16C8.26145 16 8.50145 15.88 8.65145 15.67L15.8514 5.67C16.0414 5.4 16.0514 5.03 15.8614 4.75L12.8614 0.35C12.7114 0.13 12.4614 0 12.2014 0H4.20144C3.96144 0 3.72144 0.11 3.57144 0.31L0.171445 4.71C-0.0485546 4.99 -0.0585531 5.38 0.151447 5.67L7.35144 15.67ZM8.00145 13.83L1.80144 5.22L4.59144 1.6H11.7714L14.2214 5.19L8.00145 13.83Z" clip-rule="evenodd" fill-rule="evenodd"/>&#xa;</g>&#xa;<defs>&#xa;<linearGradient gradientUnits="userSpaceOnUse" y2="16" x2="7.99952" y1="0" x1="7.99952" id="paint0_linear_1151_17">&#xa;<stop stop-color="#5B738B"/>&#xa;<stop stop-color="#223548" offset="1"/>&#xa;</linearGradient>&#xa;<linearGradient gradientUnits="userSpaceOnUse" y2="16" x2="7.99952" y1="0" x1="7.99952" id="paint1_linear_1151_17">&#xa;<stop stop-color="#5B738B"/>&#xa;<stop stop-color="#223548" offset="1"/>&#xa;</linearGradient>&#xa;<clipPath id="clip0_1151_17">&#xa;<rect fill="white" height="16" width="16"/>&#xa;</clipPath>&#xa;</defs>&#xa;</svg>