<svg xmlns="http://www.w3.org/2000/svg" fill="none" viewBox="0 0 16 16" height="16" width="16">&#xa;<circle stroke-width="0.285708" stroke="#D5DADD" fill="url(#paint0_linear_3890_21417)" r="7.85696" cy="7.99982" cx="7.99933"/>&#xa;<g clip-path="url(#clip0_3890_21417)">&#xa;<path fill="url(#paint1_linear_3890_21417)" d="M9.51198 7.96538C9.39368 8.0016 9.26982 8.03109 9.14501 8.05511C8.79606 8.12226 8.39945 8.15396 8.00727 8.15313C7.61498 8.15231 7.21775 8.11892 6.86732 8.05157C6.73825 8.02677 6.61053 7.99644 6.48889 7.95945L6.48967 8.46466C6.6139 8.51904 6.78336 8.56995 6.99408 8.61045C7.29608 8.66849 7.65053 8.69919 8.00868 8.69994C8.36694 8.70069 8.71954 8.67147 9.01809 8.61402C9.22682 8.57385 9.39211 8.52302 9.51151 8.46903L9.51198 7.96538Z"/>&#xa;<path fill="url(#paint2_linear_3890_21417)" d="M6.48635 6.97513L6.48728 7.50821C6.61173 7.56298 6.78201 7.61429 6.99408 7.65505C7.29608 7.71309 7.65053 7.74378 8.00868 7.74454C8.36694 7.74529 8.71954 7.71607 9.01809 7.65862C9.22795 7.61823 9.3939 7.56707 9.51344 7.51275V6.97165C9.48101 6.98474 9.44813 6.99704 9.41497 7.00862C9.03052 7.14287 8.52569 7.208 7.99391 7.208C7.46654 7.208 6.9666 7.14395 6.58502 7.01187C6.55179 7.00037 6.51884 6.98814 6.48635 6.97513Z"/>&#xa;<path fill="url(#paint3_linear_3890_21417)" d="M7.99391 6.5334C8.48158 6.5334 8.90479 6.4724 9.19351 6.37158C9.56128 6.24316 9.55636 6.1205 9.19351 5.99379C8.90479 5.89297 8.48158 5.83197 7.99391 5.83197C7.50624 5.83197 7.08755 5.89298 6.80265 5.99345C6.44954 6.11797 6.43577 6.24651 6.80474 6.37422C7.09136 6.47343 7.51039 6.5334 7.99391 6.5334Z"/>&#xa;<path fill="url(#paint4_linear_3890_21417)" d="M6.49166 9.34979L6.49128 8.93582C6.6122 8.97247 6.7391 9.00257 6.86732 9.02721C7.21775 9.09456 7.61498 9.12794 8.00727 9.12877C8.39945 9.12959 8.79606 9.0979 9.14501 9.03075C9.26999 9.0067 9.39403 8.97716 9.51249 8.94086C9.5126 8.96543 9.51272 9.03371 9.51285 9.1081C9.51302 9.20907 9.51322 9.32131 9.51344 9.35077C9.51297 9.40278 9.47433 9.51961 9.15548 9.6346C8.85838 9.74174 8.43764 9.79554 7.99412 9.79526C7.55313 9.79499 7.13705 9.74147 6.84396 9.63492C6.5292 9.52049 6.49166 9.40408 6.49166 9.34979Z"/>&#xa;<path fill="url(#paint5_linear_3890_21417)" d="M8.13449 3.21934L11.5884 4.21555H11.5874C11.8319 4.28111 11.9541 4.4436 11.9541 4.70397V8.19949C11.9541 8.74653 11.8643 9.24787 11.6841 9.70351C11.5035 10.1591 11.2787 10.5695 11.0087 10.9338C10.7387 11.2985 10.4459 11.6175 10.1307 11.8907C9.81559 12.1645 9.5164 12.3921 9.23363 12.5744C8.95087 12.7568 8.7128 12.8967 8.51988 12.9945C8.32696 13.0924 8.2175 13.1478 8.19196 13.1607C8.11488 13.187 8.05057 13.2 7.99904 13.2C7.9475 13.2 7.88319 13.1866 7.80612 13.1607C7.78012 13.1478 7.67112 13.0956 7.4782 13.0047C7.28528 12.9133 7.04721 12.7734 6.76444 12.5846C6.48167 12.3958 6.18249 12.1645 5.86734 11.8912C5.55219 11.6179 5.25939 11.2989 4.98939 10.9342C4.71894 10.57 4.49409 10.1601 4.31394 9.70397C4.13379 9.24833 4.04395 8.74699 4.04395 8.19995V4.70397C4.04395 4.4436 4.16617 4.28065 4.41063 4.21555L7.86449 3.21934C7.94157 3.19349 8.03142 3.19349 8.13449 3.21934ZM6.06989 5.64119C5.92658 5.7711 5.81466 5.9517 5.81154 6.17802L5.81857 9.34979C5.8188 9.85802 6.24012 10.133 6.61445 10.2691C7.01055 10.4131 7.51387 10.4696 7.99371 10.4699C8.47678 10.4702 8.98407 10.4134 9.38336 10.2694C9.75888 10.1339 10.1865 9.85984 10.1865 9.34979L10.1865 6.18269C10.1865 5.95289 10.0726 5.77034 9.92819 5.64039C9.78828 5.51446 9.60622 5.42353 9.41497 5.35675C9.03052 5.2225 8.52569 5.15737 7.99391 5.15737C7.46214 5.15737 6.96091 5.22249 6.57924 5.35709C6.38919 5.42411 6.20881 5.51526 6.06989 5.64119Z" clip-rule="evenodd" fill-rule="evenodd"/>&#xa;</g>&#xa;<defs>&#xa;<linearGradient gradientUnits="userSpaceOnUse" y2="14.7478" x2="13.6874" y1="2.2709" x1="1.45043" id="paint0_linear_3890_21417">&#xa;<stop stop-color="white"/>&#xa;<stop stop-color="#EAECEE" offset="1"/>&#xa;</linearGradient>&#xa;<linearGradient gradientUnits="userSpaceOnUse" y2="10.0876" x2="12.0441" y1="4.69539" x1="5.22972" id="paint1_linear_3890_21417">&#xa;<stop stop-color="#0195FF"/>&#xa;<stop stop-color="#1147E9" offset="0.991028"/>&#xa;</linearGradient>&#xa;<linearGradient gradientUnits="userSpaceOnUse" y2="10.0876" x2="12.0441" y1="4.69539" x1="5.22972" id="paint2_linear_3890_21417">&#xa;<stop stop-color="#0195FF"/>&#xa;<stop stop-color="#1147E9" offset="0.991028"/>&#xa;</linearGradient>&#xa;<linearGradient gradientUnits="userSpaceOnUse" y2="10.0876" x2="12.0441" y1="4.69539" x1="5.22972" id="paint3_linear_3890_21417">&#xa;<stop stop-color="#0195FF"/>&#xa;<stop stop-color="#1147E9" offset="0.991028"/>&#xa;</linearGradient>&#xa;<linearGradient gradientUnits="userSpaceOnUse" y2="10.0876" x2="12.0441" y1="4.69539" x1="5.22972" id="paint4_linear_3890_21417">&#xa;<stop stop-color="#0195FF"/>&#xa;<stop stop-color="#1147E9" offset="0.991028"/>&#xa;</linearGradient>&#xa;<linearGradient gradientUnits="userSpaceOnUse" y2="10.0876" x2="12.0441" y1="4.69539" x1="5.22972" id="paint5_linear_3890_21417">&#xa;<stop stop-color="#0195FF"/>&#xa;<stop stop-color="#1147E9" offset="0.991028"/>&#xa;</linearGradient>&#xa;<clipPath id="clip0_3890_21417">&#xa;<rect transform="translate(2.99902 3.19995)" fill="white" height="10" width="10"/>&#xa;</clipPath>&#xa;</defs>&#xa;</svg>