<svg xmlns="http://www.w3.org/2000/svg" fill="none" viewBox="0 0 16 16" height="16" width="16">&#xa;<path fill="url(#paint0_linear_963_697)" d="M14.6667 4.09375C14.8889 4.23958 15 4.42708 15 4.65625C15 4.71875 14.9899 4.77083 14.9697 4.8125V11.1875C14.9697 11.5 14.8384 11.7396 14.5758 11.9062L8.42424 15.875C8.28283 15.9583 8.13131 16 7.9697 16C7.78788 16 7.65657 15.9583 7.57576 15.875L1.39394 11.9062C1.27273 11.8229 1.17172 11.7083 1.09091 11.5625C1.0303 11.4167 1 11.2917 1 11.1875V4.8125C1 4.5 1.13131 4.26042 1.39394 4.09375L4.48485 2.09375C4.64646 2.03125 4.79798 2 4.93939 2C5.08081 2 5.21212 2.03125 5.33333 2.09375L11.5152 6.09375C11.6162 6.13542 11.697 6.22917 11.7576 6.375C11.8384 6.5 11.8788 6.61458 11.8788 6.71875V9.5C11.8788 10.0417 11.6263 10.3125 11.1212 10.3125C10.899 10.3125 10.7071 10.2396 10.5455 10.0938C10.404 9.94792 10.3333 9.75 10.3333 9.5V7.1875L4.93939 3.6875L2.63636 5.21875V10.7188L8.0303 14.2188L13.4242 10.7188V5.21875L7.63636 1.46875C7.39394 1.30208 7.27273 1.08333 7.27273 0.8125C7.27273 0.708333 7.31313 0.552083 7.39394 0.34375C7.57576 0.114583 7.80808 0 8.09091 0C8.25253 0 8.38384 0.0416667 8.48485 0.125L14.6667 4.09375ZM6.9697 10.2188C7.21212 10.3646 7.33333 10.5833 7.33333 10.875C7.33333 11.0417 7.29293 11.1979 7.21212 11.3438C7.05051 11.5729 6.81818 11.6875 6.51515 11.6875C6.37374 11.6875 6.24242 11.6562 6.12121 11.5938L4.57576 10.625C4.33333 10.4583 4.21212 10.25 4.21212 10C4.21212 9.83333 4.26263 9.66667 4.36364 9.5C4.54545 9.27083 4.76768 9.15625 5.0303 9.15625C5.19192 9.15625 5.32323 9.19792 5.42424 9.28125L6.9697 10.2188Z"/>&#xa;<defs>&#xa;<linearGradient gradientUnits="userSpaceOnUse" y2="13.1198" x2="14.4298" y1="2.27095" x1="2.26959" id="paint0_linear_963_697">&#xa;<stop stop-color="#00CEAC"/>&#xa;<stop stop-color="#07838F" offset="1"/>&#xa;</linearGradient>&#xa;</defs>&#xa;</svg>