<svg xmlns="http://www.w3.org/2000/svg" fill="none" viewBox="0 0 24 24" height="24" width="24">&#xa;<path fill="url(#paint0_linear_995_53)" d="M22.4762 6.14062C22.8254 6.35937 23 6.64063 23 6.98438C23 7.07813 22.9841 7.15625 22.9524 7.21875V16.7813C22.9524 17.25 22.746 17.6094 22.3333 17.8594L12.6667 23.8125C12.4444 23.9375 12.2063 24 11.9524 24C11.6667 24 11.4603 23.9375 11.3333 23.8125L1.61905 17.8594C1.42857 17.7344 1.26984 17.5625 1.14286 17.3437C1.04762 17.125 1 16.9375 1 16.7813V7.21875C1 6.75 1.20635 6.39062 1.61905 6.14062L6.47619 3.14063C6.73016 3.04688 6.96825 3 7.19048 3C7.4127 3 7.61905 3.04688 7.80952 3.14063L17.5238 9.14062C17.6825 9.20312 17.8095 9.34375 17.9048 9.5625C18.0317 9.75 18.0952 9.92187 18.0952 10.0781V14.25C18.0952 15.0625 17.6984 15.4687 16.9048 15.4687C16.5556 15.4687 16.254 15.3594 16 15.1406C15.7778 14.9219 15.6667 14.625 15.6667 14.25V10.7812L7.19048 5.53125L3.57143 7.82812V16.0781L12.0476 21.3281L20.5238 16.0781V7.82812L11.4286 2.20312C11.0476 1.95312 10.8571 1.625 10.8571 1.21875C10.8571 1.0625 10.9206 0.828125 11.0476 0.515625C11.3333 0.171875 11.6984 0 12.1429 0C12.3968 0 12.6032 0.0625 12.7619 0.1875L22.4762 6.14062ZM10.381 15.3281C10.7619 15.5469 10.9524 15.875 10.9524 16.3125C10.9524 16.5625 10.8889 16.7969 10.7619 17.0156C10.5079 17.3594 10.1429 17.5312 9.66667 17.5312C9.44444 17.5312 9.2381 17.4844 9.04762 17.3906L6.61905 15.9375C6.2381 15.6875 6.04762 15.375 6.04762 15C6.04762 14.75 6.12698 14.5 6.28571 14.25C6.57143 13.9062 6.92063 13.7344 7.33333 13.7344C7.5873 13.7344 7.79365 13.7969 7.95238 13.9219L10.381 15.3281Z"/>&#xa;<defs>&#xa;<linearGradient gradientUnits="userSpaceOnUse" y2="24" x2="12" y1="0" x1="12" id="paint0_linear_995_53">&#xa;<stop stop-color="#5B738B"/>&#xa;<stop stop-color="#223548" offset="1"/>&#xa;</linearGradient>&#xa;</defs>&#xa;</svg>