<svg xmlns="http://www.w3.org/2000/svg" fill="none" viewBox="0 0 16 16" height="16" width="16">&#xa;<path fill="url(#paint0_linear_963_652)" d="M15.3437 12.6452C15.7812 12.6452 16 12.871 16 13.3226C16 13.7742 15.7812 14 15.3437 14H0.656248C0.468749 14 0.312499 13.9462 0.187499 13.8388C0.0624998 13.7097 0 13.5377 0 13.3226C0 13.1075 0.0624998 12.9463 0.187499 12.8387C0.312499 12.7097 0.468749 12.6452 0.656248 12.6452H1.46875C1.46875 12.6021 1.45833 12.5699 1.4375 12.5484V12.5161C1.375 12.3226 1.34375 12.129 1.34375 11.9355V5.06452C1.34375 4.48387 1.53125 4 1.90624 3.6129C2.28124 3.20429 2.76041 3 3.34374 3H12.6562C13.2395 3 13.7187 3.20429 14.0937 3.6129C14.4687 4 14.6562 4.48387 14.6562 5.06452V11.9355C14.6562 12.1721 14.6145 12.4086 14.5312 12.6452H15.3437ZM2.65624 11.9355H13.3437V5.06452C13.3437 4.61291 13.1145 4.3871 12.6562 4.3871H3.34374C2.88541 4.3871 2.65624 4.61291 2.65624 5.06452V11.9355Z"/>&#xa;<defs>&#xa;<linearGradient gradientUnits="userSpaceOnUse" y2="16.1306" x2="9.2519" y1="4.56128" x1="1.45096" id="paint0_linear_963_652">&#xa;<stop stop-color="#00CEAC"/>&#xa;<stop stop-color="#07838F" offset="1"/>&#xa;</linearGradient>&#xa;</defs>&#xa;</svg>