<svg xmlns="http://www.w3.org/2000/svg" fill="none" viewBox="0 0 24 24" height="24" width="24">&#xa;<path fill="url(#paint0_linear_995_76)" d="M19.5442 20.8943C19.7794 21.1344 19.8971 21.4044 19.8971 21.7044C19.8971 22.0045 19.7794 22.2745 19.5442 22.5146C19.3088 22.7547 19.0441 22.8747 18.7499 22.8747C18.4559 22.8747 18.1912 22.7547 17.956 22.5146L14.6029 19.0488C14.4559 18.8989 14.3824 18.7789 14.3824 18.6887C13.7059 19.1689 12.9118 19.4089 12 19.4089C11.3824 19.4089 10.7941 19.2889 10.2353 19.0488C9.70588 18.8088 9.2353 18.4787 8.82353 18.0587C8.41176 17.6386 8.08824 17.1434 7.85294 16.5733C7.61764 16.0033 7.5 15.4031 7.5 14.773C7.5 14.1428 7.61764 13.5577 7.85294 13.0176C8.08824 12.4475 8.41176 11.9524 8.82353 11.5323C9.2353 11.1122 9.70588 10.7821 10.2353 10.542C10.7941 10.302 11.3824 10.182 12 10.182C12.6176 10.182 13.1912 10.302 13.7206 10.542C14.2794 10.7821 14.7647 11.1122 15.1765 11.5323C15.5883 11.9524 15.9117 12.4475 16.1471 13.0176C16.3824 13.5577 16.5 14.1428 16.5 14.773C16.5 15.7031 16.2793 16.5133 15.8383 17.2035C15.897 17.2035 15.9559 17.2334 16.0148 17.2935C16.0735 17.3235 16.1324 17.3685 16.1912 17.4284L19.5442 20.8943ZM12 17.1135C12.6176 17.1135 13.1471 16.8883 13.5882 16.4384C14.0294 15.9881 14.25 15.433 14.25 14.773C14.25 14.1428 14.0294 13.6027 13.5882 13.1526C13.1471 12.7025 12.6176 12.4775 12 12.4775C11.3824 12.4775 10.8529 12.7025 10.4118 13.1526C9.97059 13.6027 9.75 14.1428 9.75 14.773C9.75 15.433 9.97059 15.9881 10.4118 16.4384C10.8529 16.8883 11.3824 17.1135 12 17.1135ZM20.6911 1.36008C20.8971 1.57012 21 1.82518 21 2.12524V15.9432C21 16.2733 20.8971 16.5584 20.6911 16.7985C20.4853 17.0085 20.2206 17.1135 19.8971 17.1135C19.5736 17.1135 19.2942 17.0085 19.0588 16.7985C18.853 16.5584 18.7499 16.2733 18.7499 15.9432V3.29549H5.25V21.7044H13.1471C13.8823 21.7044 14.25 22.0795 14.25 22.8296C14.25 23.6098 13.8823 24 13.1471 24H4.10294C3.36765 24 3 23.6098 3 22.8296V2.12524C3 1.37508 3.36765 1 4.10294 1H19.8971C20.2206 1 20.4853 1.12003 20.6911 1.36008ZM8.60294 7.88648C7.86765 7.88648 7.5 7.51139 7.5 6.76123C7.5 5.98106 7.86765 5.59098 8.60294 5.59098H15.397C16.1324 5.59098 16.5 5.98106 16.5 6.76123C16.5 7.51139 16.1324 7.88648 15.397 7.88648H8.60294Z"/>&#xa;<defs>&#xa;<linearGradient gradientUnits="userSpaceOnUse" y2="24" x2="12" y1="1" x1="12" id="paint0_linear_995_76">&#xa;<stop stop-color="#5B738B"/>&#xa;<stop stop-color="#223548" offset="1"/>&#xa;</linearGradient>&#xa;</defs>&#xa;</svg>