<svg xmlns="http://www.w3.org/2000/svg" fill="none" viewBox="0 0 16 16" height="16" width="16">&#xa;<path fill="url(#paint0_linear_963_551)" d="M13.0295 13.9745C13.1863 14.1311 13.2648 14.3072 13.2648 14.5029C13.2648 14.6986 13.1863 14.8747 13.0295 15.0313C12.8726 15.1879 12.6961 15.2661 12.5 15.2661C12.3039 15.2661 12.1274 15.1879 11.9706 15.0313L9.73529 12.771C9.63725 12.6732 9.58824 12.5949 9.58824 12.5361C9.13725 12.8493 8.60784 13.0058 8 13.0058C7.58824 13.0058 7.19608 12.9275 6.82353 12.771C6.47059 12.6145 6.15687 12.3992 5.88235 12.1253C5.60784 11.8513 5.39216 11.5283 5.23529 11.1565C5.07843 10.7847 5 10.3933 5 9.98236C5 9.5714 5.07843 9.1898 5.23529 8.83755C5.39216 8.46573 5.60784 8.14284 5.88235 7.86886C6.15687 7.59489 6.47059 7.37963 6.82353 7.22307C7.19608 7.06651 7.58824 6.98824 8 6.98824C8.41176 6.98824 8.79412 7.06651 9.14706 7.22307C9.5196 7.37963 9.84313 7.59489 10.1176 7.86886C10.3922 8.14284 10.6078 8.46573 10.7647 8.83755C10.9216 9.1898 11 9.5714 11 9.98236C11 10.589 10.8529 11.1174 10.5589 11.5675C10.598 11.5675 10.6373 11.587 10.6765 11.6262C10.7157 11.6457 10.7549 11.6751 10.7942 11.7142L13.0295 13.9745ZM8 11.5088C8.41176 11.5088 8.76471 11.362 9.05882 11.0685C9.35294 10.7749 9.5 10.4129 9.5 9.98236C9.5 9.5714 9.35294 9.21915 9.05882 8.92561C8.76471 8.63207 8.41176 8.4853 8 8.4853C7.58824 8.4853 7.23529 8.63207 6.94118 8.92561C6.64706 9.21915 6.5 9.5714 6.5 9.98236C6.5 10.4129 6.64706 10.7749 6.94118 11.0685C7.23529 11.362 7.58824 11.5088 8 11.5088ZM13.7941 1.23483C13.9314 1.37182 14 1.53816 14 1.73385V10.7456C14 10.9609 13.9314 11.1468 13.7941 11.3033C13.6568 11.4403 13.4804 11.5088 13.2648 11.5088C13.049 11.5088 12.8628 11.4403 12.7059 11.3033C12.5687 11.1468 12.5 10.9609 12.5 10.7456V2.49706H3.5V14.5029H8.76471C9.2549 14.5029 9.5 14.7475 9.5 15.2367C9.5 15.7455 9.2549 16 8.76471 16H2.73529C2.2451 16 2 15.7455 2 15.2367V1.73385C2 1.24462 2.2451 1 2.73529 1H13.2648C13.4804 1 13.6568 1.07828 13.7941 1.23483ZM5.73529 5.49118C5.2451 5.49118 5 5.24656 5 4.75733C5 4.24852 5.2451 3.99412 5.73529 3.99412H10.2647C10.7549 3.99412 11 4.24852 11 4.75733C11 5.24656 10.7549 5.49118 10.2647 5.49118H5.73529Z"/>&#xa;<defs>&#xa;<linearGradient gradientUnits="userSpaceOnUse" y2="7.88462" x2="15.2216" y1="2.41102" x1="3.55089" id="paint0_linear_963_551">&#xa;<stop stop-color="#2395FF"/>&#xa;<stop stop-color="#0057D2" offset="1"/>&#xa;</linearGradient>&#xa;</defs>&#xa;</svg>