<svg xmlns="http://www.w3.org/2000/svg" fill="none" viewBox="0 0 24 24" height="24" width="24">&#xa;<path fill="url(#paint0_linear_995_119)" d="M12.0234 18.0097V19.9807H13.0093C13.6675 19.9807 13.9952 20.3262 13.9952 21.0142C13.9989 21.1446 13.9759 21.2744 13.9276 21.3956C13.8793 21.5167 13.8066 21.6267 13.7141 21.7188C13.5578 21.905 13.3234 21.9997 13.0093 21.9997H6.9979C6.86759 22.003 6.73798 21.9797 6.61703 21.9311C6.49607 21.8826 6.38634 21.8098 6.29456 21.7173C6.202 21.6255 6.12919 21.5158 6.0806 21.3949C6.03201 21.274 6.00867 21.1445 6.01203 21.0142C6.01203 20.7002 6.10671 20.4509 6.29456 20.2631C6.38634 20.1706 6.49607 20.0978 6.61703 20.0492C6.73798 20.0007 6.86759 19.9773 6.9979 19.9807H10.0036V18.0097H3.00633C2.60815 18.0178 2.2123 17.9473 1.84146 17.8021C1.47061 17.657 1.13207 17.4401 0.845226 17.164C0.569404 16.8773 0.352834 16.5391 0.207908 16.1687C0.0629818 15.7983 -0.00745607 15.4029 0.000624204 15.0053V5.00637C0.000624204 4.16061 0.28316 3.45606 0.846729 2.89272C1.12665 2.60445 1.46269 2.37655 1.83411 2.22308C2.20554 2.06961 2.60447 1.99382 3.00633 2.00039H19.0207C19.8668 2.00039 20.5701 2.29784 21.1337 2.89272C21.7288 3.45606 22.0264 4.16061 22.0264 5.00487V7.02388C22.0302 7.15427 22.0072 7.28405 21.9588 7.40522C21.9105 7.52639 21.8379 7.63639 21.7454 7.72843C21.6459 7.82406 21.5279 7.89842 21.3988 7.94697C21.2696 7.99553 21.1318 8.01726 20.9939 8.01085C20.8634 8.0144 20.7335 7.99118 20.6123 7.94261C20.491 7.89403 20.3811 7.82114 20.2891 7.72843C20.1964 7.63651 20.1234 7.52658 20.0748 7.4054C20.0262 7.28422 20.003 7.15438 20.0066 7.02388V5.00637C20.0066 4.34839 19.679 4.0194 19.0207 4.0194H3.00633C2.34808 4.0194 2.02046 4.34839 2.02046 5.00487V15.0053C2.02046 15.6617 2.34808 15.9907 3.00633 15.9907H13.0093C13.6675 15.9907 13.9952 16.3362 13.9952 17.0243C13.9987 17.1544 13.9756 17.2839 13.9273 17.4048C13.879 17.5257 13.8064 17.6355 13.7141 17.7273C13.5578 17.9151 13.3234 18.0097 13.0093 18.0097H12.0234ZM23.0138 9.98178C23.6705 9.98178 23.9996 10.3273 23.9996 11.0153V21.0142C24.0032 21.1447 23.98 21.2746 23.9314 21.3957C23.8828 21.5169 23.8099 21.6269 23.7171 21.7188C23.5608 21.905 23.3264 21.9997 23.0123 21.9997H17.0009C16.8706 22.003 16.741 21.9797 16.62 21.9311C16.499 21.8826 16.3893 21.8098 16.2975 21.7173C16.205 21.6255 16.1322 21.5158 16.0836 21.3949C16.035 21.274 16.0116 21.1445 16.015 21.0142V11.0153C16.015 10.7014 16.1097 10.452 16.2975 10.2642C16.3895 10.1715 16.4995 10.0986 16.6207 10.05C16.7419 10.0014 16.8718 9.97822 17.0024 9.98178H23.0138ZM18.0348 12.0008V18.9952H22.0264V12.0008H18.0348Z"/>&#xa;<defs>&#xa;<linearGradient gradientUnits="userSpaceOnUse" y2="23.1834" x2="17.1697" y1="4.83868" x1="2.17643" id="paint0_linear_995_119">&#xa;<stop stop-color="#00CEAC"/>&#xa;<stop stop-color="#07838F" offset="1"/>&#xa;</linearGradient>&#xa;</defs>&#xa;</svg>