<svg xmlns="http://www.w3.org/2000/svg" fill="none" viewBox="0 0 16 16" height="16" width="16">&#xa;<path fill="url(#paint0_linear_963_650)" d="M8.01562 12.4063V13.6874H8.67287C9.1117 13.6874 9.33011 13.912 9.33011 14.3592C9.33262 14.444 9.31728 14.5284 9.28506 14.6071C9.25284 14.6859 9.20441 14.7574 9.14276 14.8172C9.03856 14.9383 8.88226 14.9998 8.67287 14.9998H4.66526C4.5784 15.002 4.49199 14.9868 4.41135 14.9552C4.33072 14.9237 4.25756 14.8764 4.19638 14.8162C4.13467 14.7566 4.08612 14.6853 4.05373 14.6067C4.02134 14.5281 4.00578 14.4439 4.00802 14.3592C4.00802 14.1552 4.07114 13.9931 4.19638 13.871C4.25756 13.8109 4.33072 13.7636 4.41135 13.732C4.49199 13.7004 4.5784 13.6853 4.66526 13.6874H6.66907V12.4063H2.00422C1.73877 12.4116 1.47487 12.3657 1.22764 12.2714C0.980409 12.1771 0.754712 12.0361 0.563484 11.8566C0.379602 11.6703 0.235223 11.4504 0.138605 11.2096C0.0419879 10.9689 -0.00497071 10.7119 0.000416136 10.4534V3.95414C0.000416136 3.4044 0.188773 2.94644 0.564486 2.58027C0.751103 2.39289 0.975126 2.24476 1.22274 2.145C1.47036 2.04525 1.73632 1.99599 2.00422 2.00026H12.6805C13.2445 2.00026 13.7134 2.19359 14.0891 2.58027C14.4859 2.94644 14.6843 3.4044 14.6843 3.95316V5.26552C14.6868 5.35028 14.6714 5.43463 14.6392 5.51339C14.607 5.59216 14.5586 5.66365 14.4969 5.72348C14.4306 5.78564 14.352 5.83397 14.2658 5.86553C14.1797 5.8971 14.0879 5.91122 13.996 5.90705C13.9089 5.90936 13.8223 5.89427 13.7415 5.86269C13.6607 5.83112 13.5874 5.78374 13.5261 5.72348C13.4642 5.66373 13.4156 5.59228 13.3832 5.51351C13.3508 5.43475 13.3353 5.35035 13.3377 5.26552V3.95414C13.3377 3.52645 13.1193 3.31261 12.6805 3.31261H2.00422C1.56538 3.31261 1.34697 3.52645 1.34697 3.95316V10.4534C1.34697 10.8801 1.56538 11.094 2.00422 11.094H8.67287C9.1117 11.094 9.33011 11.3186 9.33011 11.7658C9.33248 11.8504 9.31708 11.9345 9.28486 12.0131C9.25264 12.0917 9.20429 12.163 9.14276 12.2228C9.03856 12.3448 8.88226 12.4063 8.67287 12.4063H8.01562ZM15.3425 7.18816C15.7803 7.18816 15.9998 7.41274 15.9998 7.85996V14.3592C16.0021 14.4441 15.9866 14.5285 15.9543 14.6072C15.9219 14.686 15.8732 14.7575 15.8114 14.8172C15.7072 14.9383 15.5509 14.9998 15.3415 14.9998H11.3339C11.247 15.002 11.1606 14.9868 11.08 14.9552C10.9994 14.9237 10.9262 14.8764 10.865 14.8162C10.8033 14.7566 10.7548 14.6853 10.7224 14.6067C10.69 14.5281 10.6744 14.4439 10.6767 14.3592V7.85996C10.6767 7.65588 10.7398 7.49379 10.865 7.37173C10.9263 7.31147 10.9996 7.26409 11.0805 7.23252C11.1613 7.20094 11.2479 7.18585 11.3349 7.18816H15.3425ZM12.0232 8.50051V13.0469H14.6843V8.50051H12.0232Z"/>&#xa;<defs>&#xa;<linearGradient gradientUnits="userSpaceOnUse" y2="16.0097" x2="11.1446" y1="3.84514" x1="1.45096" id="paint0_linear_963_650">&#xa;<stop stop-color="#00CEAC"/>&#xa;<stop stop-color="#07838F" offset="1"/>&#xa;</linearGradient>&#xa;</defs>&#xa;</svg>