<svg xmlns="http://www.w3.org/2000/svg" fill="none" viewBox="0 0 24 24" height="24" width="24">&#xa;<g clip-path="url(#clip0_995_142)">&#xa;<path fill="url(#paint0_linear_995_142)" d="M23.6243 0.376159C23.8753 0.627136 24 0.893142 24 1.17418V22.7778C24.0002 23.0911 23.8827 23.393 23.6709 23.6239C23.4514 23.8733 23.1539 23.9996 22.7781 23.9996H6.01165C5.63592 23.9996 5.33834 23.8733 5.12042 23.6239C4.90803 23.3932 4.79002 23.0913 4.78978 22.7778V8.40743C4.78978 8.09333 4.91603 7.8123 5.16551 7.56132L12.3524 0.376159C12.4564 0.254262 12.5864 0.157232 12.7328 0.0922108C12.8793 0.0271892 13.0384 -0.0041689 13.1986 0.000444337H22.7781C23.1238 0.000444337 23.4048 0.125182 23.6243 0.376159ZM21.6044 2.396H13.6675L13.1971 2.86489V6.01187C13.1971 6.67013 12.9626 7.2337 12.4937 7.70259C12.275 7.92937 12.0121 8.10891 11.7213 8.23014C11.4305 8.35136 11.118 8.4117 10.8029 8.40743H7.65583L7.18542 8.87632V21.604H21.6044V2.396ZM9.58106 13.197C9.58106 12.8529 9.69078 12.5718 9.9102 12.3524C10.1296 12.1015 10.4272 11.9767 10.8029 11.9767H17.9884C18.334 11.9767 18.6151 12.1015 18.8345 12.3524C19.084 12.5718 19.2102 12.8529 19.2102 13.197C19.2102 13.5427 19.084 13.8237 18.8345 14.0431C18.7234 14.1529 18.591 14.2387 18.4455 14.2953C18.3 14.3519 18.1444 14.3781 17.9884 14.3723H10.8029C9.98835 14.3723 9.58106 13.9815 9.58106 13.197ZM17.9884 16.8129C18.334 16.8129 18.6151 16.9392 18.8345 17.1886C18.9529 17.2853 19.0482 17.4073 19.1132 17.5457C19.1782 17.6841 19.2114 17.8353 19.2102 17.9881C19.2084 18.1471 19.1741 18.304 19.1095 18.4492C19.0449 18.5944 18.9513 18.725 18.8345 18.8328C18.7305 18.9546 18.6005 19.0517 18.4541 19.1167C18.3077 19.1817 18.1485 19.2131 17.9884 19.2085H10.8029C10.4272 19.2085 10.1296 19.0837 9.9102 18.8328C9.6987 18.6023 9.58127 18.3009 9.58106 17.9881C9.58106 17.674 9.69078 17.408 9.9102 17.1901C10.1296 16.9392 10.4272 16.8144 10.8029 16.8144L17.9884 16.8129ZM8.03156 0.376159C8.28255 0.627136 8.40729 0.90817 8.40729 1.22227C8.40729 1.5033 8.28255 1.76931 8.03156 2.01878L2.39564 7.6545V22.7778C2.39581 23.0911 2.27835 23.393 2.0665 23.6239C1.84708 23.8733 1.55101 23.9996 1.17528 23.9996C1.01514 24.0041 0.85602 23.9727 0.709603 23.9077C0.563186 23.8426 0.433184 23.7457 0.329138 23.6239C0.11729 23.393 -0.000171736 23.0911 1.88463e-07 22.7778V7.18561C1.88463e-07 6.84145 0.126245 6.56042 0.375728 6.341L6.34079 0.376159C6.44876 0.259163 6.57952 0.165481 6.72503 0.10087C6.87054 0.0362592 7.02772 0.00208394 7.18693 0.000444337C7.49953 0.000444337 7.78058 0.125182 8.03156 0.376159Z"/>&#xa;</g>&#xa;<defs>&#xa;<linearGradient gradientUnits="userSpaceOnUse" y2="22.1221" x2="20.5322" y1="3.40642" x1="2.17643" id="paint0_linear_995_142">&#xa;<stop stop-color="#00CEAC"/>&#xa;<stop stop-color="#07838F" offset="1"/>&#xa;</linearGradient>&#xa;<clipPath id="clip0_995_142">&#xa;<rect fill="white" height="24" width="24"/>&#xa;</clipPath>&#xa;</defs>&#xa;</svg>