<svg xmlns="http://www.w3.org/2000/svg" fill="none" viewBox="0 0 16 16" height="16" width="16">&#xa;<path fill="url(#paint0_linear_963_671)" d="M13.7934 0.219422C13.8621 0.293487 13.9158 0.381746 13.9513 0.478758C13.9867 0.575771 14.0031 0.679483 13.9995 0.783505V15.1852C13.9996 15.394 13.9261 15.5954 13.7934 15.7493C13.7284 15.8304 13.6471 15.895 13.5556 15.9383C13.4641 15.9817 13.3646 16.0027 13.2645 15.9997H2.73503C2.63489 16.0027 2.53542 15.9817 2.44389 15.9383C2.35237 15.895 2.27112 15.8304 2.20611 15.7493C2.07345 15.5954 1.99989 15.394 2 15.1852V5.57471C2 5.36531 2.0687 5.18797 2.20611 5.04168L6.70569 0.219422C6.85025 0.0781923 7.03934 -0.000114489 7.23555 1.2564e-07H13.2645C13.48 1.2564e-07 13.656 0.0731406 13.7934 0.219422ZM12.4993 1.59707H7.55836L7.23555 1.91067V3.97664C7.23555 4.41548 7.08779 4.7912 6.79321 5.1038C6.65637 5.25487 6.49191 5.37449 6.30998 5.45531C6.12805 5.53612 5.93249 5.57642 5.73538 5.57371H3.79287L3.49923 5.91737V14.4037H12.4984V1.59607L12.4993 1.59707ZM4.99941 8.7989C4.99941 8.25586 5.2441 7.98434 5.73538 7.98434H10.2641C10.7545 7.98434 10.9992 8.25486 10.9992 8.7989C10.9992 9.3199 10.7545 9.5804 10.2651 9.5804H5.73443C5.2441 9.5804 4.99941 9.3199 4.99941 8.7989ZM10.2641 11.1775C10.4806 11.1775 10.6566 11.2616 10.794 11.428C10.9268 11.5818 11.0005 11.7831 11.0005 11.992C11.0005 12.201 10.9268 12.4023 10.794 12.5561C10.7243 12.629 10.6414 12.686 10.5502 12.7236C10.4591 12.7611 10.3618 12.7785 10.2641 12.7745H5.73538C5.63767 12.7783 5.54027 12.7608 5.44915 12.7231C5.35803 12.6854 5.27512 12.6282 5.20552 12.5551C5.07324 12.4014 4.99987 12.2005 4.99987 11.992C4.99987 11.7836 5.07324 11.5827 5.20552 11.429C5.27063 11.3477 5.35203 11.283 5.44372 11.2397C5.53542 11.1963 5.63508 11.1754 5.73538 11.1785L10.2641 11.1775Z"/>&#xa;<defs>&#xa;<linearGradient gradientUnits="userSpaceOnUse" y2="11.3036" x2="14.9001" y1="2.27095" x1="3.08822" id="paint0_linear_963_671">&#xa;<stop stop-color="#00CEAC"/>&#xa;<stop stop-color="#07838F" offset="1"/>&#xa;</linearGradient>&#xa;</defs>&#xa;</svg>