<svg xmlns="http://www.w3.org/2000/svg" fill="none" viewBox="0 0 16 16" height="16" width="16">&#xa;<g clip-path="url(#clip0_958_389)">&#xa;<path fill="url(#paint0_linear_958_389)" d="M15.7495 0.250772C15.9168 0.418091 16 0.595428 16 0.782784V15.1852C16.0001 15.394 15.9218 15.5953 15.7806 15.7492C15.6343 15.9156 15.4359 15.9997 15.1854 15.9997H4.00777C3.75728 15.9997 3.5589 15.9156 3.41361 15.7492C3.27202 15.5955 3.19335 15.3942 3.19319 15.1852V5.60495C3.19319 5.39555 3.27735 5.2082 3.44367 5.04088L8.23496 0.250772C8.30427 0.169508 8.39093 0.104822 8.48855 0.0614739C8.58618 0.0181262 8.69228 -0.00277926 8.79905 0.000296224H15.1854C15.4159 0.000296224 15.6032 0.0834543 15.7495 0.250772ZM14.4029 1.59733H9.11165L8.79805 1.90993V4.00792C8.79805 4.44675 8.64174 4.82246 8.32914 5.13506C8.18333 5.28624 8.00809 5.40594 7.81422 5.48676C7.62035 5.56758 7.41198 5.6078 7.20195 5.60495H5.10389L4.79028 5.91755V14.4027H14.4029V1.59733ZM6.38738 8.79802C6.38738 8.56859 6.46052 8.38123 6.6068 8.23495C6.75308 8.06763 6.95147 7.98448 7.20195 7.98448H11.9922C12.2227 7.98448 12.41 8.06763 12.5563 8.23495C12.7227 8.38123 12.8068 8.56859 12.8068 8.79802C12.8068 9.02846 12.7227 9.21582 12.5563 9.3621C12.4823 9.43524 12.394 9.49244 12.297 9.53017C12.2 9.56791 12.0963 9.58538 11.9922 9.58151H7.20195C6.6589 9.58151 6.38738 9.32102 6.38738 8.79802ZM11.9922 11.2086C12.2227 11.2086 12.41 11.2928 12.5563 11.4591C12.6353 11.5235 12.6988 11.6049 12.7421 11.6971C12.7855 11.7894 12.8076 11.8902 12.8068 11.9921C12.8056 12.0981 12.7827 12.2027 12.7397 12.2995C12.6966 12.3963 12.6342 12.4833 12.5563 12.5552C12.487 12.6364 12.4004 12.7011 12.3027 12.7445C12.2051 12.7878 12.099 12.8087 11.9922 12.8056H7.20195C6.95147 12.8056 6.75308 12.7225 6.6068 12.5552C6.4658 12.4015 6.38751 12.2006 6.38738 11.9921C6.38738 11.7827 6.46052 11.6054 6.6068 11.4601C6.75308 11.2928 6.95147 11.2096 7.20195 11.2096L11.9922 11.2086ZM5.35437 0.250772C5.5217 0.418091 5.60486 0.605447 5.60486 0.814845C5.60486 1.0022 5.5217 1.17954 5.35437 1.34585L1.59709 5.103V15.1852C1.59721 15.394 1.5189 15.5953 1.37767 15.7492C1.23139 15.9156 1.034 15.9997 0.783518 15.9997C0.676758 16.0027 0.57068 15.9818 0.473069 15.9384C0.375457 15.8951 0.28879 15.8304 0.219425 15.7492C0.0781936 15.5953 -0.000114491 15.394 1.25642e-07 15.1852V4.7904C1.25642e-07 4.56097 0.0841632 4.37361 0.250485 4.22733L4.22719 0.250772C4.29917 0.172775 4.38635 0.110321 4.48335 0.0672467C4.58036 0.0241728 4.68515 0.00138929 4.79128 0.000296224C4.99969 0.000296224 5.18705 0.0834543 5.35437 0.250772Z"/>&#xa;</g>&#xa;<defs>&#xa;<linearGradient gradientUnits="userSpaceOnUse" y2="16" x2="8" y1="0" x1="8" id="paint0_linear_958_389">&#xa;<stop stop-color="#5B738B"/>&#xa;<stop stop-color="#223548" offset="1"/>&#xa;</linearGradient>&#xa;<clipPath id="clip0_958_389">&#xa;<rect fill="white" height="16" width="16"/>&#xa;</clipPath>&#xa;</defs>&#xa;</svg>