<svg xmlns="http://www.w3.org/2000/svg" fill="none" viewBox="0 0 24 24" height="24" width="24">&#xa;<path fill="url(#paint0_linear_995_111)" d="M19.7245 1.3017C19.8161 1.40355 19.8878 1.5249 19.935 1.65829C19.9823 1.79168 20.0042 1.93429 19.9993 2.07732V21.8796C19.9995 22.1668 19.9014 22.4436 19.7245 22.6552C19.6378 22.7668 19.5295 22.8556 19.4075 22.9152C19.2855 22.9748 19.1528 23.0037 19.0193 22.9996H4.98004C4.84653 23.0037 4.71389 22.9748 4.59186 22.9152C4.46982 22.8556 4.36149 22.7668 4.27481 22.6552C4.09793 22.4436 3.99986 22.1668 4 21.8796V8.66522C4 8.3773 4.0916 8.13345 4.27481 7.93232L10.2743 1.3017C10.467 1.10751 10.7191 0.999843 10.9807 1H19.0193C19.3067 1 19.5413 1.10057 19.7245 1.3017ZM17.9991 3.19597H11.4111L10.9807 3.62717V6.46788C10.9807 7.07129 10.7837 7.5879 10.391 8.01773C10.2085 8.22544 9.98921 8.38993 9.74664 8.50105C9.50406 8.61217 9.24333 8.66757 8.9805 8.66385H6.39049L5.99898 9.13638V20.805H17.9979V3.19459L17.9991 3.19597ZM7.99921 13.0985C7.99921 12.3518 8.32547 11.9785 8.9805 11.9785H15.0188C15.6726 11.9785 15.9989 12.3504 15.9989 13.0985C15.9989 13.8149 15.6726 14.1731 15.0201 14.1731H8.97925C8.32547 14.1731 7.99921 13.8149 7.99921 13.0985ZM15.0188 16.369C15.3075 16.369 15.5421 16.4847 15.7253 16.7134C15.9024 16.925 16.0007 17.2018 16.0007 17.489C16.0007 17.7763 15.9024 18.0531 15.7253 18.2647C15.6324 18.3649 15.5218 18.4433 15.4003 18.4949C15.2788 18.5466 15.149 18.5704 15.0188 18.565H8.9805C8.85023 18.5702 8.72036 18.5462 8.59886 18.4943C8.47737 18.4424 8.36683 18.3638 8.27402 18.2633C8.09766 18.0519 7.99983 17.7757 7.99983 17.489C7.99983 17.2024 8.09766 16.9262 8.27402 16.7148C8.36084 16.6031 8.46937 16.5141 8.59163 16.4545C8.7139 16.3949 8.84678 16.3662 8.9805 16.3704L15.0188 16.369Z"/>&#xa;<defs>&#xa;<linearGradient gradientUnits="userSpaceOnUse" y2="9.91849" x2="22.1314" y1="3.06949" x1="6.06785" id="paint0_linear_995_111">&#xa;<stop stop-color="#2395FF"/>&#xa;<stop stop-color="#0057D2" offset="1"/>&#xa;</linearGradient>&#xa;</defs>&#xa;</svg>