<svg xmlns="http://www.w3.org/2000/svg" fill="none" viewBox="0 0 16 16" height="16" width="16">&#xa;<circle stroke-width="0.285708" stroke="#D5DADD" fill="url(#paint0_linear_3514_40225)" r="7.85696" cy="7.99884" cx="7.99689"/>&#xa;<g clip-path="url(#clip0_3514_40225)">&#xa;<path fill="url(#paint1_linear_3514_40225)" d="M7.51751 3.8584C6.19163 3.8584 5.24959 4.93905 5.09264 6.06727C4.66614 6.09268 4.28954 6.25317 3.99704 6.52274C3.60135 6.88742 3.39697 7.41675 3.39697 7.97496C3.39697 8.49373 3.55414 8.98408 3.90698 9.34662C4.2622 9.7116 4.76651 9.89649 5.36032 9.89649H6.49003V9.21725C6.49003 8.56092 7.01897 8.01965 7.68276 8.01965C8.20097 8.01965 8.65602 8.3547 8.81593 8.84352L8.84113 8.92058L8.86441 8.84787C9.02147 8.35714 9.47668 8.01965 9.99591 8.01965C10.6329 8.01965 11.1453 8.51987 11.1823 9.14095C11.5195 8.75616 11.7303 8.23796 11.7303 7.61625C11.7303 6.3812 10.8488 5.43208 9.78746 5.3317C9.36203 4.45085 8.57231 3.8584 7.51751 3.8584Z"/>&#xa;<path fill="url(#paint2_linear_3514_40225)" d="M11.8277 12.4658C11.6812 12.6148 11.5364 12.8458 11.683 12.9948C11.8295 13.1438 11.9957 13.1543 12.1422 13.0052L13.267 11.8612C13.4135 11.7122 13.4135 11.4708 13.267 11.3218L12.1422 10.1777C11.9957 10.0287 11.8235 9.96664 11.677 10.1157C11.4938 10.2587 11.7489 10.5681 11.8954 10.7171L12.3153 11.2184L10.0029 11.2208L10.0028 11.5175C10.0026 11.7222 10.1672 11.888 10.3701 11.8878L12.3567 11.8857L11.8277 12.4658Z"/>&#xa;<path fill="url(#paint3_linear_3514_40225)" d="M7.15747 9.24887C7.15747 8.93155 7.41251 8.67432 7.72711 8.67432C7.97295 8.67432 8.19105 8.83338 8.26807 9.06884L8.73527 10.497C8.76127 10.5757 8.79184 10.6859 8.82701 10.8278C8.86217 10.9697 8.88511 11.0637 8.89581 11.11C8.90804 11.0637 8.9325 10.9712 8.96919 10.8324C9.00742 10.6921 9.03952 10.5841 9.06551 10.5086L9.52616 9.06937C9.60153 8.8339 9.81886 8.67432 10.0642 8.67432C10.3764 8.67432 10.6296 8.92962 10.6296 9.24456V11.2202L10.0029 11.2208L10.0035 9.95808C10.0035 9.79153 10.0073 9.63424 10.0149 9.48621C10.0241 9.33817 10.0204 9.27931 10.0287 9.25259C10.0272 9.25413 10.0119 9.3081 9.98284 9.4145C9.96755 9.46539 9.93545 9.57488 9.88652 9.74296C9.83913 9.91104 9.80167 10.0352 9.77415 10.1154L9.25634 11.6703C9.20398 11.8275 9.05793 11.9334 8.89351 11.9334C8.72909 11.9334 8.58304 11.8275 8.53069 11.6703L8.01288 10.1154C7.98077 10.0213 7.93491 9.87403 7.87528 9.67357C7.81718 9.47156 7.77667 9.33123 7.75373 9.25259L7.75832 9.31967C7.75985 9.34434 7.76444 9.43146 7.77208 9.58104C7.77972 9.72908 7.78355 9.85476 7.78355 9.95808V11.6177C7.78355 11.7921 7.6434 11.9334 7.47051 11.9334C7.29762 11.9334 7.15747 11.7921 7.15747 11.6177V9.24887Z"/>&#xa;</g>&#xa;<defs>&#xa;<linearGradient gradientUnits="userSpaceOnUse" y2="14.7468" x2="13.6849" y1="2.26992" x1="1.44799" id="paint0_linear_3514_40225">&#xa;<stop stop-color="white"/>&#xa;<stop stop-color="#EAECEE" offset="1"/>&#xa;</linearGradient>&#xa;<linearGradient gradientUnits="userSpaceOnUse" y2="10.3074" x2="8.66327" y1="4.76136" x1="4.64618" id="paint1_linear_3514_40225">&#xa;<stop stop-color="#0195FF"/>&#xa;<stop stop-color="#1147E9" offset="0.991028"/>&#xa;</linearGradient>&#xa;<linearGradient gradientUnits="userSpaceOnUse" y2="13.455" x2="11.0096" y1="9.32719" x1="8.07697" id="paint2_linear_3514_40225">&#xa;<stop stop-color="#1348FF"/>&#xa;<stop stop-color="#06238D" offset="1"/>&#xa;</linearGradient>&#xa;<linearGradient gradientUnits="userSpaceOnUse" y2="13.455" x2="11.0096" y1="9.32719" x1="8.07697" id="paint3_linear_3514_40225">&#xa;<stop stop-color="#1348FF"/>&#xa;<stop stop-color="#06238D" offset="1"/>&#xa;</linearGradient>&#xa;<clipPath id="clip0_3514_40225">&#xa;<rect transform="translate(3.39697 3.79907)" fill="white" height="10.0002" width="10"/>&#xa;</clipPath>&#xa;</defs>&#xa;</svg>