<svg xmlns="http://www.w3.org/2000/svg" fill="none" viewBox="0 0 24 24" height="24" width="24">&#xa;<path fill="url(#paint0_linear_995_144)" d="M11.0841 0.0139074C8.02623 0.328479 5.54614 1.47408 3.50289 3.51176C1.60524 5.40858 0.454448 7.75613 0.0598884 10.5262C-0.0199628 11.0803 -0.0199628 12.9301 0.0598884 13.4841C0.454448 16.2543 1.60524 18.6018 3.50289 20.4986C5.40053 22.3954 7.7491 23.5457 10.5204 23.9401C11.0747 24.02 12.9253 24.02 13.4796 23.9401C16.2509 23.5457 18.5995 22.3954 20.4971 20.4986C22.3948 18.6018 23.5456 16.2543 23.9401 13.4841C24.02 12.9301 24.02 11.0803 23.9401 10.5262C23.5456 7.75613 22.3948 5.40858 20.4971 3.51176C18.6464 1.66189 16.3448 0.511588 13.691 0.103114C13.2166 0.0326878 11.4927 -0.0283485 11.0841 0.0139074ZM13.5313 2.5164C17.6319 3.19249 20.793 6.36168 21.4976 10.5028C21.6385 11.3338 21.6385 12.6766 21.4976 13.5076C20.793 17.6581 17.6553 20.7944 13.5031 21.4987C12.6717 21.6395 11.3283 21.6395 10.4969 21.4987C6.34465 20.7944 3.20697 17.6581 2.5024 13.5076C2.36148 12.6766 2.36148 11.3338 2.5024 10.5028C2.84999 8.451 3.77062 6.66217 5.21264 5.22077C6.80497 3.62444 8.82004 2.67603 11.131 2.42719C11.69 2.36615 12.8831 2.4131 13.5313 2.5164Z"/>&#xa;<path fill="url(#paint1_linear_995_144)" d="M8.02153 7.66223C7.44378 7.81716 7.05862 8.13643 6.80027 8.66228L6.62178 9.01911V14.9866L6.77209 15.3012C7.03043 15.8458 7.45317 16.1979 8.04032 16.3482C8.44427 16.4515 15.5557 16.4515 15.9597 16.3482C16.5468 16.1979 16.9696 15.8458 17.2279 15.3012L17.3782 14.9866V9.01911L17.1997 8.66228C16.9367 8.12704 16.5515 7.81716 15.9597 7.66223C15.5698 7.55893 8.3973 7.56363 8.02153 7.66223ZM14.2311 9.48392C14.1795 9.52149 13.6393 9.85014 13.0287 10.2164L11.9248 10.8831L10.774 10.1694C10.1446 9.77972 9.61855 9.45106 9.60916 9.44167C9.59976 9.43228 10.6519 9.42289 11.9577 9.42289C13.9493 9.42289 14.3063 9.43228 14.2311 9.48392ZM15.5933 14.5265C15.5604 14.6157 8.43957 14.6157 8.40669 14.5265C8.3926 14.4983 8.3879 13.6485 8.3926 12.6484L8.40669 10.8267L9.76886 11.6765C11.3283 12.6484 11.5397 12.7376 12.1221 12.6954C12.5824 12.6625 12.714 12.5968 14.2781 11.6155L15.5933 10.7939L15.6074 12.6296C15.6121 13.6438 15.6074 14.4983 15.5933 14.5265Z"/>&#xa;<defs>&#xa;<linearGradient gradientUnits="userSpaceOnUse" y2="22.1221" x2="20.5322" y1="3.40642" x1="2.17643" id="paint0_linear_995_144">&#xa;<stop stop-color="#00CEAC"/>&#xa;<stop stop-color="#07838F" offset="1"/>&#xa;</linearGradient>&#xa;<linearGradient gradientUnits="userSpaceOnUse" y2="22.1221" x2="20.5322" y1="3.40642" x1="2.17643" id="paint1_linear_995_144">&#xa;<stop stop-color="#00CEAC"/>&#xa;<stop stop-color="#07838F" offset="1"/>&#xa;</linearGradient>&#xa;</defs>&#xa;</svg>