<svg xmlns="http://www.w3.org/2000/svg" fill="none" viewBox="0 0 16 16" height="16" width="16">&#xa;<path fill="url(#paint0_linear_963_507)" d="M7.38937 0.00927159C5.35082 0.218986 3.69743 0.982722 2.33526 2.34117C1.07016 3.60572 0.302965 5.17075 0.0399256 7.01749C-0.0133085 7.38684 -0.0133085 8.62008 0.0399256 8.98943C0.302965 10.8362 1.07016 12.4012 2.33526 13.6658C3.60035 14.9303 5.16606 15.6972 7.0136 15.9601C7.38311 16.0133 8.61689 16.0133 8.9864 15.9601C10.8339 15.6972 12.3996 14.9303 13.6647 13.6658C14.9298 12.4012 15.697 10.8362 15.9601 8.98943C16.0133 8.62008 16.0133 7.38684 15.9601 7.01749C15.697 5.17075 14.9298 3.60572 13.6647 2.34117C12.431 1.10792 10.8966 0.341059 9.12731 0.0687429C8.81104 0.0217919 7.66181 -0.018899 7.38937 0.00927159ZM9.02084 1.6776C11.7546 2.12833 13.862 4.24112 14.3317 7.00184C14.4257 7.55586 14.4257 8.45106 14.3317 9.00508C13.862 11.7721 11.7702 13.8629 9.00206 14.3325C8.44779 14.4264 7.55221 14.4264 6.99795 14.3325C4.22977 13.8629 2.13798 11.7721 1.66827 9.00508C1.57432 8.45106 1.57432 7.55586 1.66827 7.00184C1.89999 5.634 2.51375 4.44145 3.4751 3.48052C4.53665 2.41629 5.88003 1.78402 7.42069 1.61813C7.79333 1.57743 8.58871 1.60874 9.02084 1.6776Z"/>&#xa;<path fill="url(#paint1_linear_963_507)" d="M5.34769 5.10815C4.96252 5.21144 4.70574 5.42429 4.53352 5.77485L4.41452 6.01274V9.99105L4.51473 10.2008C4.68696 10.5639 4.96878 10.7986 5.36021 10.8988C5.62951 10.9676 10.3705 10.9676 10.6398 10.8988C11.0312 10.7986 11.313 10.5639 11.4853 10.2008L11.5855 9.99105V6.01274L11.4665 5.77485C11.2911 5.41803 11.0343 5.21144 10.6398 5.10815C10.3799 5.03929 5.5982 5.04242 5.34769 5.10815ZM9.48742 6.32262C9.45298 6.34766 9.09287 6.56676 8.68578 6.81091L7.9499 7.25538L7.1827 6.77961C6.76309 6.51981 6.41237 6.30071 6.40611 6.29445C6.39984 6.28819 7.10128 6.28193 7.97182 6.28193C9.29954 6.28193 9.53753 6.28819 9.48742 6.32262ZM10.3955 9.68431C10.3736 9.74378 5.62638 9.74378 5.60446 9.68431C5.59507 9.66553 5.59194 9.09898 5.59507 8.43228L5.60446 7.21781L6.51257 7.78436C7.55221 8.43228 7.69312 8.49175 8.08142 8.46358C8.3883 8.44167 8.47598 8.39785 9.51874 7.74367L10.3955 7.1959L10.4049 8.41976C10.4081 9.09585 10.4049 9.66553 10.3955 9.68431Z"/>&#xa;<defs>&#xa;<linearGradient gradientUnits="userSpaceOnUse" y2="9.78772" x2="16.1959" y1="1.50509" x1="2.06785" id="paint0_linear_963_507">&#xa;<stop stop-color="#2395FF"/>&#xa;<stop stop-color="#0057D2" offset="1"/>&#xa;</linearGradient>&#xa;<linearGradient gradientUnits="userSpaceOnUse" y2="9.78772" x2="16.1959" y1="1.50509" x1="2.06785" id="paint1_linear_963_507">&#xa;<stop stop-color="#2395FF"/>&#xa;<stop stop-color="#0057D2" offset="1"/>&#xa;</linearGradient>&#xa;</defs>&#xa;</svg>