<svg xmlns="http://www.w3.org/2000/svg" fill="none" viewBox="0 0 16 16" height="16" width="16">&#xa;<g clip-path="url(#clip0_963_705)">&#xa;<mask height="16" width="16" y="0" x="0" maskUnits="userSpaceOnUse" style="mask-type:luminance" id="mask0_963_705">&#xa;<path fill="white" d="M16 0H0V16H16V0Z"/>&#xa;</mask>&#xa;<g mask="url(#mask0_963_705)">&#xa;<path fill="url(#paint0_linear_963_705)" d="M15.712 7.384L11.912 4.232C11.672 4.032 11.344 3.992 11.064 4.12C10.784 4.248 10.608 4.536 10.608 4.848V6.296L8.12 4.232C7.88 4.032 7.552 3.992 7.272 4.12C6.992 4.248 6.816 4.536 6.816 4.848V7.2H5.192V0.8C5.192 0.36 4.832 0 4.392 0H0.8C0.36 0 0 0.36 0 0.8V15.2C0 15.64 0.36 16 0.8 16H15.2C15.64 16 16 15.64 16 15.2V8C16 7.76 15.896 7.536 15.712 7.384ZM3.576 14.4H1.6V12.4H3.576V14.4ZM3.576 10.8H1.6V8.8H3.576V10.8ZM3.576 7.2H1.6V5.328H3.576V7.2ZM3.576 3.728H1.6V1.6H3.576V3.728ZM14.392 14.4H5.176V12.4H6.232C6.672 12.4 7.032 12.04 7.032 11.6C7.032 11.16 6.672 10.8 6.232 10.8H5.176V8.8H7.6C8.04 8.8 8.4 8.44 8.4 8V6.552L10.888 8.616C11.128 8.816 11.456 8.856 11.736 8.728C12.016 8.6 12.192 8.312 12.192 8V6.552L14.392 8.376V14.4ZM9.04004 12.6C9.59232 12.6 10.04 12.1523 10.04 11.6C10.04 11.0477 9.59232 10.6 9.04004 10.6C8.48775 10.6 8.04004 11.0477 8.04004 11.6C8.04004 12.1523 8.48775 12.6 9.04004 12.6ZM13 11.6C13 12.1523 12.5523 12.6 12 12.6C11.4477 12.6 11 12.1523 11 11.6C11 11.0477 11.4477 10.6 12 10.6C12.5523 10.6 13 11.0477 13 11.6Z" clip-rule="evenodd" fill-rule="evenodd"/>&#xa;</g>&#xa;</g>&#xa;<defs>&#xa;<linearGradient gradientUnits="userSpaceOnUse" y2="14.7481" x2="13.6882" y1="2.27095" x1="1.45096" id="paint0_linear_963_705">&#xa;<stop stop-color="#00CEAC"/>&#xa;<stop stop-color="#07838F" offset="1"/>&#xa;</linearGradient>&#xa;<clipPath id="clip0_963_705">&#xa;<rect fill="white" height="16" width="16"/>&#xa;</clipPath>&#xa;</defs>&#xa;</svg>