<svg xmlns="http://www.w3.org/2000/svg" fill="none" viewBox="0 0 24 24" height="24" width="24">&#xa;<g clip-path="url(#clip0_995_228)">&#xa;<mask height="24" width="24" y="0" x="0" maskUnits="userSpaceOnUse" style="mask-type:luminance" id="mask0_995_228">&#xa;<path fill="white" d="M24 0H0V24H24V0Z"/>&#xa;</mask>&#xa;<g mask="url(#mask0_995_228)">&#xa;<path fill="url(#paint0_linear_995_228)" d="M23.568 11.076L17.868 6.348C17.508 6.048 17.016 5.988 16.596 6.18C16.176 6.372 15.912 6.804 15.912 7.272V9.444L12.18 6.348C11.82 6.048 11.328 5.988 10.908 6.18C10.488 6.372 10.224 6.804 10.224 7.272V10.8H7.788V1.2C7.788 0.54 7.248 0 6.588 0H1.2C0.54 0 0 0.54 0 1.2V22.8C0 23.46 0.54 24 1.2 24H22.8C23.46 24 24 23.46 24 22.8V12C24 11.64 23.844 11.304 23.568 11.076ZM5.364 21.6H2.4V18.6H5.364V21.6ZM5.364 16.2H2.4V13.2H5.364V16.2ZM5.364 10.8H2.4V7.992H5.364V10.8ZM5.364 5.592H2.4V2.4H5.364V5.592ZM21.588 21.6H7.764V18.6H9.348C10.008 18.6 10.548 18.06 10.548 17.4C10.548 16.74 10.008 16.2 9.348 16.2H7.764V13.2H11.4C12.06 13.2 12.6 12.66 12.6 12V9.828L16.332 12.924C16.692 13.224 17.184 13.284 17.604 13.092C18.024 12.9 18.288 12.468 18.288 12V9.828L21.588 12.564V21.6ZM13.5601 18.9C14.3885 18.9 15.06 18.2285 15.06 17.4C15.06 16.5716 14.3885 15.9 13.5601 15.9C12.7316 15.9 12.0601 16.5716 12.0601 17.4C12.0601 18.2285 12.7316 18.9 13.5601 18.9ZM19.5 17.4C19.5 18.2285 18.8284 18.9 18 18.9C17.1716 18.9 16.5 18.2285 16.5 17.4C16.5 16.5716 17.1716 15.9 18 15.9C18.8284 15.9 19.5 16.5716 19.5 17.4Z" clip-rule="evenodd" fill-rule="evenodd"/>&#xa;</g>&#xa;</g>&#xa;<defs>&#xa;<linearGradient gradientUnits="userSpaceOnUse" y2="14.6816" x2="24.2938" y1="2.25763" x1="3.10178" id="paint0_linear_995_228">&#xa;<stop stop-color="#2395FF"/>&#xa;<stop stop-color="#0057D2" offset="1"/>&#xa;</linearGradient>&#xa;<clipPath id="clip0_995_228">&#xa;<rect fill="white" height="24" width="24"/>&#xa;</clipPath>&#xa;</defs>&#xa;</svg>