<svg xmlns="http://www.w3.org/2000/svg" fill="none" viewBox="0 0 16 16" height="16" width="16">&#xa;<path fill="url(#paint0_linear_963_480)" d="M7.80939 1.00892C7.63611 1.0529 1.37999 3.79165 1.28879 3.8591C1.23103 3.90309 1.14288 4.01744 1.0912 4.11128L1 4.28428V8.50677V12.7322L1.076 12.8759C1.11856 12.955 1.20063 13.0606 1.26447 13.1105C1.33743 13.172 2.47131 13.6793 4.57493 14.5912C8.01002 16.0808 7.94923 16.0574 8.2289 15.9636C8.45081 15.8902 14.5458 13.2395 14.6704 13.1632C14.7982 13.0841 14.9258 12.917 14.9684 12.7732C15.014 12.6266 15.0079 4.38104 14.9653 4.22857C14.9197 4.07608 14.7799 3.88842 14.6552 3.81805C14.6036 3.7858 13.1353 3.14069 11.3965 2.38709C8.52985 1.14087 8.21673 1.01185 8.05259 1.00305C7.95226 0.997186 7.84283 1.00012 7.80939 1.00892ZM10.1562 3.50136C11.3327 4.01157 12.2841 4.43969 12.2719 4.45142C12.2355 4.48661 8.05866 6.29876 8.00698 6.30169C7.96442 6.30463 3.76631 4.49247 3.71464 4.45142C3.6964 4.43676 7.92187 2.58062 7.98874 2.57476C8.00394 2.57182 8.97975 2.98821 10.1562 3.50136ZM4.92148 6.63304L7.21661 7.63002V10.8468C7.21661 12.6178 7.20749 14.0664 7.19533 14.0664C7.18621 14.0664 6.13744 13.6148 4.8698 13.0665L2.56555 12.0636V8.84106C2.56555 6.80897 2.57771 5.6214 2.59595 5.62726C2.61115 5.6302 3.65688 6.08471 4.92148 6.63304ZM13.4484 8.84106V12.0607L11.1624 13.0548C9.90388 13.6001 8.84904 14.0517 8.82168 14.0605C8.77 14.0722 8.76696 13.9139 8.77304 10.8526L8.78216 7.63295L11.0924 6.62717C12.3631 6.0759 13.412 5.62434 13.4271 5.6214C13.4393 5.6214 13.4484 7.06996 13.4484 8.84106Z"/>&#xa;<defs>&#xa;<linearGradient gradientUnits="userSpaceOnUse" y2="9.40577" x2="15.5928" y1="2.41102" x1="2.80937" id="paint0_linear_963_480">&#xa;<stop stop-color="#2395FF"/>&#xa;<stop stop-color="#0057D2" offset="1"/>&#xa;</linearGradient>&#xa;</defs>&#xa;</svg>