<svg xmlns="http://www.w3.org/2000/svg" fill="none" viewBox="0 0 24 24" height="24" width="24">&#xa;<path fill="url(#paint0_linear_995_4)" d="M11.7277 1.01308C11.4802 1.07759 2.54285 5.09443 2.41256 5.19334C2.33005 5.25786 2.20411 5.42558 2.13028 5.56321L2 5.81695V12.0099V18.2072L2.10857 18.418C2.16937 18.534 2.28662 18.6889 2.37782 18.762C2.48204 18.8523 4.10187 19.5964 7.10704 20.9338C12.0143 23.1186 11.9275 23.0842 12.327 22.9465C12.644 22.839 21.3511 18.9512 21.5292 18.8394C21.7117 18.7234 21.894 18.4782 21.9549 18.2674C22.02 18.0524 22.0112 5.95886 21.9504 5.73523C21.8853 5.51159 21.6855 5.23635 21.5075 5.13313C21.4337 5.08583 19.3361 4.13968 16.8521 3.0344C12.7569 1.20661 12.3096 1.01738 12.0751 1.00448C11.9318 0.995873 11.7755 1.00017 11.7277 1.01308ZM15.0803 4.66866C16.761 5.41697 18.1201 6.04488 18.1028 6.06208C18.0507 6.11369 12.0838 8.77151 12.01 8.77582C11.9492 8.78012 5.95187 6.1223 5.87805 6.06208C5.852 6.04058 11.8884 3.31824 11.9839 3.30965C12.0056 3.30534 13.3996 3.91604 15.0803 4.66866ZM7.60211 9.2618L10.8809 10.724V15.4419C10.8809 18.0394 10.8678 20.1641 10.8505 20.1641C10.8374 20.1641 9.33921 19.5018 7.52829 18.6975L4.2365 17.2267V12.5002C4.2365 9.51983 4.25387 7.77806 4.27993 7.78665C4.30164 7.79096 5.79554 8.45757 7.60211 9.2618ZM19.7835 12.5002V17.2224L16.5178 18.6803C14.7198 19.4802 13.2129 20.1425 13.1738 20.1554C13.1 20.1726 13.0957 19.9404 13.1043 15.4504L13.1174 10.7283L16.4178 9.25319C18.233 8.44466 19.7314 7.78236 19.753 7.77806C19.7704 7.77806 19.7835 9.9026 19.7835 12.5002Z"/>&#xa;<defs>&#xa;<linearGradient gradientUnits="userSpaceOnUse" y2="23" x2="12" y1="1" x1="12" id="paint0_linear_995_4">&#xa;<stop stop-color="#5B738B"/>&#xa;<stop stop-color="#223548" offset="1"/>&#xa;</linearGradient>&#xa;</defs>&#xa;</svg>