<svg xmlns="http://www.w3.org/2000/svg" fill="none" viewBox="0 0 16 17" height="17" width="16">&#xa;<path fill="url(#paint0_linear_724_12)" d="M14.3335 5.83494C14.5835 6.08494 14.7814 6.37661 14.9272 6.70994C15.0939 7.02244 15.1772 7.36619 15.1772 7.74119V14.4287C15.1772 15.137 14.9376 15.7204 14.4585 16.1787C13.9793 16.6579 13.3855 16.8975 12.6772 16.8975H2.77094C2.08344 16.8975 1.50011 16.6579 1.02094 16.1787C0.541768 15.7204 0.302185 15.137 0.302185 14.4287V7.74119C0.302185 6.94952 0.583435 6.31411 1.14594 5.83494L6.08344 1.55369C6.58344 1.13702 7.14594 0.928688 7.77094 0.928688C8.39594 0.928688 8.93761 1.13702 9.39594 1.55369L14.3335 5.83494ZM8.98969 10.3037H6.48969V15.2725H8.98969V10.3037ZM13.4272 7.74119C13.4272 7.47036 13.3439 7.25161 13.1772 7.08494L8.23969 2.80369C7.88552 2.53286 7.52094 2.53286 7.14594 2.80369L2.20844 7.08494C2.04177 7.25161 1.95844 7.47036 1.95844 7.74119V14.4287C1.95844 14.6787 2.03136 14.887 2.17719 15.0537C2.34386 15.1995 2.54177 15.2725 2.77094 15.2725H4.83344V10.3037C4.83344 9.84536 4.98969 9.45994 5.30219 9.14744C5.63552 8.81411 6.03136 8.64744 6.48969 8.64744H8.98969C9.44802 8.64744 9.83349 8.81411 10.1459 9.14744C10.4585 9.45994 10.6147 9.84536 10.6147 10.3037V15.2725H12.6772C12.9272 15.2725 13.1251 15.1995 13.2709 15.0537C13.4376 14.887 13.5209 14.6787 13.5209 14.4287L13.4272 7.74119Z"/>&#xa;<defs>&#xa;<linearGradient gradientUnits="userSpaceOnUse" y2="9.8549" x2="15.8193" y1="2.43084" x1="2.22464" id="paint0_linear_724_12">&#xa;<stop stop-color="#2395FF"/>&#xa;<stop stop-color="#0057D2" offset="1"/>&#xa;</linearGradient>&#xa;</defs>&#xa;</svg>