<svg xmlns="http://www.w3.org/2000/svg" fill="none" viewBox="0 0 49 49" height="49" width="49">&#xa;<circle stroke-width="0.857143" stroke="#D5DADD" fill="url(#paint0_linear_2622_20475)" r="23.5714" cy="24.0349" cx="24.5"/>&#xa;<path fill="url(#paint1_radial_2622_20475)" d="M24.3931 12.2371C20.1107 12.2371 17.0681 15.7231 16.5611 19.3625C15.1836 19.4444 13.9672 19.9621 13.0225 20.8317C11.7445 22.0081 11.0844 23.7156 11.0844 25.5163C11.0844 27.1897 11.592 28.7715 12.7316 29.9409C13.5861 30.8178 14.7077 31.3724 16.017 31.5984C16.1376 31.3535 16.2735 31.1168 16.4252 30.8892L16.441 30.8655L16.4548 30.8461C16.7069 30.4901 16.9948 30.166 17.3169 29.8761C17.1831 29.4317 17.118 28.9645 17.118 28.4835C17.118 27.8549 17.2386 27.2413 17.4849 26.6592C17.72 26.1033 18.0513 25.6001 18.4824 25.1691C18.918 24.7334 19.425 24.3916 19.9926 24.1515C20.5747 23.9052 21.1882 23.7846 21.8168 23.7846C22.0759 23.7846 22.3324 23.8051 22.5853 23.8464C22.9065 23.6179 23.2522 23.4251 23.6204 23.2693C24.2851 22.9881 24.9863 22.8497 25.7089 22.8497C26.4316 22.8497 27.1327 22.9881 27.7975 23.2693C28.4436 23.5427 29.0176 23.9326 29.5043 24.4365C30.0082 24.9232 30.3981 25.4972 30.6715 26.1433C30.9527 26.8081 31.0911 27.5093 31.0911 28.2319C31.0911 28.9252 30.9637 29.5988 30.705 30.2395C31.1969 30.6288 31.6346 31.0877 32.0152 31.6127C35.2792 31.0426 37.9999 28.368 37.9999 24.3591C37.9999 20.3751 35.1526 17.3135 31.7247 16.9897C30.3507 14.1483 27.8 12.2371 24.3931 12.2371Z" clip-rule="evenodd" fill-rule="evenodd"/>&#xa;<path fill="url(#paint2_radial_2622_20475)" d="M28.3368 30.8078C29.3082 31.1894 30.0974 31.8138 30.7045 32.6811C31.3116 33.5484 31.6152 34.5285 31.6152 35.6213V37.1044C31.6152 37.3125 31.5371 37.486 31.381 37.6247C31.2422 37.7635 31.0774 37.8329 30.8866 37.8329H29.4036C29.1954 37.8329 29.0133 37.7635 28.8572 37.6247C28.7184 37.486 28.649 37.3125 28.649 37.1044C28.649 36.8962 28.7184 36.7227 28.8572 36.584C29.0133 36.4279 29.1954 36.3498 29.4036 36.3498H30.1321V35.6213C30.1321 35.1182 30.0367 34.6412 29.8459 34.1902C29.6551 33.7392 29.3862 33.349 29.0393 33.0194C28.7097 32.6725 28.3195 32.4036 27.8685 32.2128C27.4348 32.022 26.9578 31.9266 26.4375 31.9266H24.9804C24.46 31.9266 23.9744 32.022 23.5234 32.2128C23.0897 32.4036 22.6994 32.6725 22.3525 33.0194C22.023 33.349 21.7628 33.7392 21.572 34.1902C21.3812 34.6412 21.2858 35.1182 21.2858 35.6213V36.3498H22.0143C22.2224 36.3498 22.3959 36.4279 22.5347 36.584C22.6734 36.7227 22.7428 36.8962 22.7428 37.1044C22.7428 37.3125 22.6734 37.486 22.5347 37.6247C22.3959 37.7635 22.2224 37.8329 22.0143 37.8329H20.5312C20.3404 37.8329 20.167 37.7635 20.0109 37.6247C19.8721 37.486 19.8027 37.3125 19.8027 37.1044L19.8027 36.0502H17.8234C17.6328 36.0502 17.4616 35.9795 17.3146 35.8488L17.3075 35.8425C17.1681 35.7031 17.0998 35.5271 17.0998 35.3265V34.1827C17.0998 33.7392 17.1621 33.321 17.2881 32.9291L17.2892 32.9259C17.4272 32.5256 17.6071 32.1586 17.8293 31.8253L17.8318 31.8215C18.0678 31.4883 18.3458 31.1964 18.6652 30.9461C18.9242 30.7324 19.2059 30.555 19.5101 30.414C19.0398 29.8885 18.8055 29.2419 18.8055 28.4835C18.8055 28.0745 18.8832 27.6851 19.039 27.3167C19.1939 26.9507 19.406 26.632 19.6756 26.3623C19.9579 26.0801 20.283 25.8609 20.6501 25.7056C21.0184 25.5498 21.4078 25.4721 21.8168 25.4721C22.2259 25.4721 22.6152 25.5498 22.9836 25.7056L23.0008 25.713C23.0271 25.6849 23.0538 25.6573 23.081 25.63C23.428 25.2831 23.8269 25.0142 24.2779 24.8234C24.7289 24.6326 25.2059 24.5372 25.7089 24.5372C26.212 24.5372 26.689 24.6326 27.14 24.8234C27.5909 25.0142 27.9812 25.2831 28.3108 25.63C28.6577 25.9596 28.9266 26.3499 29.1174 26.8009C29.3082 27.2519 29.4036 27.7289 29.4036 28.2319C29.4036 28.7349 29.3082 29.212 29.1174 29.663C28.9266 30.0966 28.6664 30.4782 28.3368 30.8078ZM20.0369 34.0601C19.9822 34.2301 19.9372 34.4043 19.9017 34.5827H18.5672V34.1827C18.5672 33.8157 18.6367 33.4693 18.7752 33.142C18.9146 32.8124 19.1039 32.529 19.3426 32.2903C19.5962 32.0367 19.8803 31.8412 20.1953 31.7024C20.5216 31.5645 20.8743 31.4949 21.2549 31.4949H21.8708C21.8315 31.5254 21.7926 31.5566 21.7541 31.5884C21.3551 31.9006 21.0082 32.2648 20.7134 32.6811C20.4358 33.0974 20.2103 33.5571 20.0369 34.0601ZM25.7089 26.0203C25.1018 26.0203 24.5815 26.2371 24.1478 26.6708C23.7142 27.1044 23.4973 27.6248 23.4973 28.2319C23.4973 28.839 23.7142 29.3594 24.1478 29.793C24.5815 30.2267 25.1018 30.4435 25.7089 30.4435C26.316 30.4435 26.8364 30.2267 27.27 29.793C27.7037 29.3594 27.9205 28.839 27.9205 28.2319C27.9205 27.6248 27.7037 27.1044 27.27 26.6708C26.8364 26.2371 26.316 26.0203 25.7089 26.0203ZM22.0143 28.2319C22.0143 28.8596 22.1436 29.4211 22.4023 29.9163C22.2223 29.9906 22.0275 30.0274 21.8168 30.0274C21.392 30.0274 21.0317 29.8776 20.7272 29.5731C20.4228 29.2687 20.2729 28.9083 20.2729 28.4835C20.2729 28.0587 20.4228 27.6983 20.7272 27.3939C21.0317 27.0894 21.392 26.9396 21.8168 26.9396C21.9605 26.9396 22.0969 26.9567 22.2262 26.9912C22.0849 27.3855 22.0143 27.7991 22.0143 28.2319Z" clip-rule="evenodd" fill-rule="evenodd"/>&#xa;<defs>&#xa;<linearGradient gradientUnits="userSpaceOnUse" y2="44.2792" x2="41.5645" y1="6.84775" x1="4.85287" id="paint0_linear_2622_20475">&#xa;<stop stop-color="white"/>&#xa;<stop stop-color="#EAECEE" offset="1"/>&#xa;</linearGradient>&#xa;<radialGradient gradientTransform="translate(15.2583 15.9954) rotate(43.8779) scale(25.8524 48.8117)" gradientUnits="userSpaceOnUse" r="1" cy="0" cx="0" id="paint1_radial_2622_20475">&#xa;<stop stop-color="#0195FF"/>&#xa;<stop stop-color="#1147E9" offset="1"/>&#xa;</radialGradient>&#xa;<radialGradient gradientTransform="translate(15.2522 16.0876) rotate(43.5602) scale(25.8727 23.5471)" gradientUnits="userSpaceOnUse" r="1" cy="0" cx="0" id="paint2_radial_2622_20475">&#xa;<stop stop-color="#1348FF"/>&#xa;<stop stop-color="#06238D" offset="1"/>&#xa;</radialGradient>&#xa;</defs>&#xa;</svg>