<svg xmlns="http://www.w3.org/2000/svg" fill="none" viewBox="0 0 49 49" height="49" width="49">&#xa;<g clip-path="url(#clip0_2622_3654)">&#xa;<circle stroke-width="0.857143" stroke="#D5DADD" fill="url(#paint0_linear_2622_3654)" r="23.5714" cy="24.0349" cx="24.5"/>&#xa;<g clip-path="url(#clip1_2622_3654)">&#xa;<path fill="url(#paint1_radial_2622_3654)" d="M23.5995 13.9849C20.5155 13.9849 18.2071 16.9758 18.4204 19.8089C18.4516 20.224 18.2896 20.6303 17.9813 20.91C17.673 21.1897 17.253 21.3116 16.8428 21.2402C15.5567 21.0166 14.6224 21.3613 14.0056 21.929C13.3677 22.5161 12.95 23.4541 12.95 24.6044C12.95 25.7405 13.2881 26.5767 13.8206 27.1231C14.3458 27.6621 15.2074 28.0704 16.5604 28.0704H19.7584C20.504 28.0704 21.1084 28.6748 21.1084 29.4204C21.1084 30.166 20.504 30.7704 19.7584 30.7704H16.5604C14.6429 30.7704 13.0242 30.1745 11.8869 29.0074C10.7568 27.8478 10.25 26.276 10.25 24.6044C10.25 22.8082 10.9083 21.1102 12.177 19.9424C13.1319 19.0636 14.3679 18.5453 15.7715 18.4791C16.2442 14.8152 19.2978 11.2849 23.5995 11.2849C26.989 11.2849 29.531 13.1786 30.9082 16.0078C33.4164 16.0283 35.7549 17.495 36.5464 20.3314C36.7468 21.0496 36.3271 21.7942 35.609 21.9946C34.8909 22.1951 34.1462 21.7754 33.9458 21.0572C33.4559 19.3017 31.9617 18.491 30.2508 18.7543C29.6179 18.8517 29.0037 18.491 28.7803 17.8909C27.858 15.4134 26.0326 13.9849 23.5995 13.9849Z" clip-rule="evenodd" fill-rule="evenodd"/>&#xa;<path fill="url(#paint2_radial_2622_3654)" d="M25.4995 24.0727H26.1502V24.7849H26.8609V22.6582H26.1502V23.3605H25.4995V22.6582H24.7889V24.7849H25.4995V24.0727ZM27.796 24.7849H28.5072V23.3636H29.1332V22.6582H27.17V23.3636H27.796V24.7849ZM30.6296 24.4869L30.1402 23.7305V24.7849H29.4448V22.6582H30.186L30.6422 23.4051L31.0974 22.6582H31.8391V24.7849H31.1311V23.7305L30.6422 24.4869H30.6296ZM33.8589 24.0816H32.8591V22.6582H32.1479V24.7849H33.8589V24.0816ZM24.7657 37.0181L23.7491 25.6172H34.924L33.9059 37.0166L29.3298 38.2849L24.7657 37.0181ZM26.6026 29.0163L26.8733 32.0528H29.3322H29.3395H30.6894L30.5616 33.4815L29.3322 33.8132L28.1038 33.4825L28.0249 32.6037H27.4289H26.9185L27.073 34.3335L29.3311 34.9601L29.3359 34.9585L31.5919 34.3335L31.6082 34.1475L31.8673 31.247L31.8941 30.9511H31.5971H29.3395H29.3322H27.8814L27.7805 29.8226H29.3359H29.3395H31.9945H31.9982L32.0203 29.575L32.0707 29.0163L32.097 28.7209H29.3395H29.3359H26.5763L26.6026 29.0163Z" clip-rule="evenodd" fill-rule="evenodd"/>&#xa;</g>&#xa;</g>&#xa;<defs>&#xa;<linearGradient gradientUnits="userSpaceOnUse" y2="44.2792" x2="41.5645" y1="6.84775" x1="4.85287" id="paint0_linear_2622_3654">&#xa;<stop stop-color="white"/>&#xa;<stop stop-color="#EAECEE" offset="1"/>&#xa;</linearGradient>&#xa;<radialGradient gradientTransform="translate(14.3356 14.146) rotate(36.7907) scale(22.7775 41.284)" gradientUnits="userSpaceOnUse" r="1" cy="0" cx="0" id="paint1_radial_2622_3654">&#xa;<stop stop-color="#0195FF"/>&#xa;<stop stop-color="#1147E9" offset="1"/>&#xa;</radialGradient>&#xa;<radialGradient gradientTransform="translate(25.4796 25.009) rotate(54.4309) scale(13.3821 11.5397)" gradientUnits="userSpaceOnUse" r="1" cy="0" cx="0" id="paint2_radial_2622_3654">&#xa;<stop stop-color="#1348FF"/>&#xa;<stop stop-color="#06238D" offset="1"/>&#xa;</radialGradient>&#xa;<clipPath id="clip0_2622_3654">&#xa;<rect transform="translate(0.5 0.0349121)" fill="white" height="48" width="48"/>&#xa;</clipPath>&#xa;<clipPath id="clip1_2622_3654">&#xa;<rect transform="translate(10.25 11.2849)" fill="white" height="27" width="27"/>&#xa;</clipPath>&#xa;</defs>&#xa;</svg>