<svg xmlns="http://www.w3.org/2000/svg" fill="none" viewBox="0 0 24 24" height="24" width="24">&#xa;<g clip-path="url(#clip0_1153_19)">&#xa;<path fill="url(#paint0_linear_1153_19)" d="M0.00428566 22.6286C0.00428566 23.3829 0.621317 24 1.37547 24H22.6288C23.383 24 24 23.3829 24 22.6286C24 21.8743 23.383 21.2571 22.6288 21.2571H1.37547C0.621317 21.2571 0.00428566 21.8743 0.00428566 22.6286Z"/>&#xa;<path fill="url(#paint1_linear_1153_19)" d="M13.3733 18.8571H22.6288C23.383 18.8571 24 18.24 24 17.4857C24 16.7314 23.383 16.1143 22.6288 16.1143H13.3733C12.6192 16.1143 12.0021 16.7314 12.0021 17.4857C12.0021 18.24 12.6192 18.8571 13.3733 18.8571Z"/>&#xa;<path fill="url(#paint2_linear_1153_19)" d="M13.3733 13.7143H22.6288C23.383 13.7143 24 13.0971 24 12.3429C24 11.5886 23.383 10.9714 22.6288 10.9714H13.3733C12.6192 10.9714 12.0021 11.5886 12.0021 12.3429C12.0021 13.0971 12.6192 13.7143 13.3733 13.7143Z"/>&#xa;<path fill="url(#paint3_linear_1153_19)" d="M13.3733 7.88571H22.6288C23.383 7.88571 24 7.26857 24 6.51429C24 5.76 23.383 5.14286 22.6288 5.14286H13.3733C12.6192 5.14286 12.0021 5.76 12.0021 6.51429C12.0021 7.26857 12.6192 7.88571 13.3733 7.88571Z"/>&#xa;<path fill="url(#paint4_linear_1153_19)" d="M1.37547 2.74286H22.6288C23.383 2.74286 24 2.12571 24 1.37143C24 0.617143 23.383 0 22.6288 0H1.37547C0.621317 0 0.00428566 0.617143 0.00428566 1.37143C0.00428566 2.12571 0.621317 2.74286 1.37547 2.74286Z"/>&#xa;<path fill="url(#paint5_linear_1153_19)" d="M0.3985 17.4342C0.672737 17.6914 1.03267 17.8285 1.37547 17.8285L1.35833 17.8628C1.71826 17.8628 2.06106 17.7428 2.3353 17.4685L6.44885 13.3542C6.70595 13.0971 6.84306 12.7542 6.84306 12.3771C6.84306 11.9999 6.70595 11.6571 6.44885 11.3999L2.3353 7.28564C1.80396 6.75421 0.929834 6.75421 0.3985 7.28564C-0.132833 7.81707 -0.132833 8.69135 0.3985 9.22278L3.53508 12.3599L0.3985 15.4971C-0.132833 16.0285 -0.132833 16.9028 0.3985 17.4342Z"/>&#xa;</g>&#xa;<defs>&#xa;<linearGradient gradientUnits="userSpaceOnUse" y2="24" x2="12" y1="0" x1="12" id="paint0_linear_1153_19">&#xa;<stop stop-color="#5B738B"/>&#xa;<stop stop-color="#223548" offset="1"/>&#xa;</linearGradient>&#xa;<linearGradient gradientUnits="userSpaceOnUse" y2="24" x2="12" y1="0" x1="12" id="paint1_linear_1153_19">&#xa;<stop stop-color="#5B738B"/>&#xa;<stop stop-color="#223548" offset="1"/>&#xa;</linearGradient>&#xa;<linearGradient gradientUnits="userSpaceOnUse" y2="24" x2="12" y1="0" x1="12" id="paint2_linear_1153_19">&#xa;<stop stop-color="#5B738B"/>&#xa;<stop stop-color="#223548" offset="1"/>&#xa;</linearGradient>&#xa;<linearGradient gradientUnits="userSpaceOnUse" y2="24" x2="12" y1="0" x1="12" id="paint3_linear_1153_19">&#xa;<stop stop-color="#5B738B"/>&#xa;<stop stop-color="#223548" offset="1"/>&#xa;</linearGradient>&#xa;<linearGradient gradientUnits="userSpaceOnUse" y2="24" x2="12" y1="0" x1="12" id="paint4_linear_1153_19">&#xa;<stop stop-color="#5B738B"/>&#xa;<stop stop-color="#223548" offset="1"/>&#xa;</linearGradient>&#xa;<linearGradient gradientUnits="userSpaceOnUse" y2="24" x2="12" y1="0" x1="12" id="paint5_linear_1153_19">&#xa;<stop stop-color="#5B738B"/>&#xa;<stop stop-color="#223548" offset="1"/>&#xa;</linearGradient>&#xa;<clipPath id="clip0_1153_19">&#xa;<rect fill="white" height="24" width="24"/>&#xa;</clipPath>&#xa;</defs>&#xa;</svg>