<svg xmlns="http://www.w3.org/2000/svg" fill="none" viewBox="0 0 16 16" height="16" width="16">&#xa;<g clip-path="url(#clip0_1153_16)">&#xa;<path fill="url(#paint0_linear_1153_16)" d="M0.00285711 15.0857C0.00285711 15.5886 0.414211 16 0.916979 16H15.0859C15.5886 16 16 15.5886 16 15.0857C16 14.5829 15.5886 14.1714 15.0859 14.1714H0.916979C0.414211 14.1714 0.00285711 14.5829 0.00285711 15.0857Z"/>&#xa;<path fill="url(#paint1_linear_1153_16)" d="M8.91555 12.5714H15.0859C15.5886 12.5714 16 12.16 16 11.6571C16 11.1543 15.5886 10.7429 15.0859 10.7429H8.91555C8.41278 10.7429 8.00143 11.1543 8.00143 11.6571C8.00143 12.16 8.41278 12.5714 8.91555 12.5714Z"/>&#xa;<path fill="url(#paint2_linear_1153_16)" d="M8.91555 9.14286H15.0859C15.5886 9.14286 16 8.73143 16 8.22857C16 7.72571 15.5886 7.31429 15.0859 7.31429H8.91555C8.41278 7.31429 8.00143 7.72571 8.00143 8.22857C8.00143 8.73143 8.41278 9.14286 8.91555 9.14286Z"/>&#xa;<path fill="url(#paint3_linear_1153_16)" d="M8.91555 5.25714H15.0859C15.5886 5.25714 16 4.84571 16 4.34286C16 3.84 15.5886 3.42857 15.0859 3.42857H8.91555C8.41278 3.42857 8.00143 3.84 8.00143 4.34286C8.00143 4.84571 8.41278 5.25714 8.91555 5.25714Z"/>&#xa;<path fill="url(#paint4_linear_1153_16)" d="M0.916979 1.82857H15.0859C15.5886 1.82857 16 1.41714 16 0.914286C16 0.411428 15.5886 0 15.0859 0H0.916979C0.414211 0 0.00285711 0.411428 0.00285711 0.914286C0.00285711 1.41714 0.414211 1.82857 0.916979 1.82857Z"/>&#xa;<path fill="url(#paint5_linear_1153_16)" d="M0.265667 11.6228C0.448491 11.7942 0.688448 11.8857 0.916979 11.8857L0.905552 11.9085C1.14551 11.9085 1.37404 11.8285 1.55686 11.6457L4.29924 8.90281C4.47063 8.73138 4.56204 8.50281 4.56204 8.25138C4.56204 7.99995 4.47063 7.77138 4.29924 7.59995L1.55686 4.85709C1.20264 4.50281 0.619889 4.50281 0.265667 4.85709C-0.0885556 5.21138 -0.0885556 5.79424 0.265667 6.14852L2.35672 8.23995L0.265667 10.3314C-0.0885556 10.6857 -0.0885556 11.2685 0.265667 11.6228Z"/>&#xa;</g>&#xa;<defs>&#xa;<linearGradient gradientUnits="userSpaceOnUse" y2="14.7481" x2="13.6882" y1="2.27095" x1="1.45096" id="paint0_linear_1153_16">&#xa;<stop stop-color="#00CEAC"/>&#xa;<stop stop-color="#07838F" offset="1"/>&#xa;</linearGradient>&#xa;<linearGradient gradientUnits="userSpaceOnUse" y2="14.7481" x2="13.6882" y1="2.27095" x1="1.45096" id="paint1_linear_1153_16">&#xa;<stop stop-color="#00CEAC"/>&#xa;<stop stop-color="#07838F" offset="1"/>&#xa;</linearGradient>&#xa;<linearGradient gradientUnits="userSpaceOnUse" y2="14.7481" x2="13.6882" y1="2.27095" x1="1.45096" id="paint2_linear_1153_16">&#xa;<stop stop-color="#00CEAC"/>&#xa;<stop stop-color="#07838F" offset="1"/>&#xa;</linearGradient>&#xa;<linearGradient gradientUnits="userSpaceOnUse" y2="14.7481" x2="13.6882" y1="2.27095" x1="1.45096" id="paint3_linear_1153_16">&#xa;<stop stop-color="#00CEAC"/>&#xa;<stop stop-color="#07838F" offset="1"/>&#xa;</linearGradient>&#xa;<linearGradient gradientUnits="userSpaceOnUse" y2="14.7481" x2="13.6882" y1="2.27095" x1="1.45096" id="paint4_linear_1153_16">&#xa;<stop stop-color="#00CEAC"/>&#xa;<stop stop-color="#07838F" offset="1"/>&#xa;</linearGradient>&#xa;<linearGradient gradientUnits="userSpaceOnUse" y2="14.7481" x2="13.6882" y1="2.27095" x1="1.45096" id="paint5_linear_1153_16">&#xa;<stop stop-color="#00CEAC"/>&#xa;<stop stop-color="#07838F" offset="1"/>&#xa;</linearGradient>&#xa;<clipPath id="clip0_1153_16">&#xa;<rect fill="white" height="16" width="16"/>&#xa;</clipPath>&#xa;</defs>&#xa;</svg>