<svg xmlns="http://www.w3.org/2000/svg" fill="none" viewBox="0 0 16 16" height="16" width="16">&#xa;<g clip-path="url(#clip0_963_681)">&#xa;<path fill="url(#paint0_linear_963_681)" d="M8.99998 7.81295C9.00467 7.68028 8.98216 7.54805 8.93384 7.4244C8.88552 7.30075 8.8124 7.1883 8.71899 7.09397C8.62465 7.00056 8.5122 6.92744 8.38855 6.87912C8.2649 6.8308 8.13267 6.80829 8 6.81298C7.86733 6.80829 7.7351 6.8308 7.61145 6.87912C7.4878 6.92744 7.37535 7.00056 7.28101 7.09397C7.1876 7.1883 7.11448 7.30075 7.06616 7.4244C7.01784 7.54805 6.99533 7.68028 7.00002 7.81295V11.8129C7.00002 12.0829 7.09401 12.3229 7.28101 12.5318C7.37543 12.6251 7.48792 12.698 7.61156 12.7462C7.73521 12.7943 7.8674 12.8167 8 12.8118C8.1326 12.8167 8.26479 12.7943 8.38843 12.7462C8.51208 12.698 8.62457 12.6251 8.71899 12.5318C8.90598 12.3229 8.99998 12.0839 8.99998 11.8119V7.81195V7.81295ZM8 0.000131818C9.10398 0.000131818 10.135 0.209127 11.0939 0.625118C12.0729 1.04211 12.9269 1.6151 13.6559 2.34408C14.3892 3.07925 14.9729 3.94963 15.3749 4.90702C15.7919 5.865 15.9999 6.89697 15.9999 7.99995C16.0061 9.07324 15.7934 10.1365 15.3749 11.1249C14.9673 12.0701 14.384 12.9293 13.6559 13.6568C12.9209 14.3896 12.0509 14.973 11.0939 15.3748C10.1171 15.7952 9.06348 16.008 8 15.9998C6.92671 16.0059 5.86342 15.7933 4.87505 15.3748C2.96754 14.553 1.44688 13.0324 0.62512 11.1249C0.206616 10.1365 -0.00604262 9.07324 0.000130648 7.99995C0.000130648 6.89597 0.208127 5.865 0.62512 4.90702C1.04211 3.92704 1.6151 3.07306 2.34409 2.34408C3.07135 1.61608 3.93021 1.03277 4.87505 0.625118C5.8634 0.206589 6.9267 -0.00606943 8 0.000131818ZM8 5.56301C8.33299 5.56301 8.61499 5.44801 8.84399 5.21901C9.07298 4.98902 9.18798 4.70902 9.18798 4.37503C9.18798 4.04204 9.07298 3.76105 8.84399 3.53205C8.7389 3.4121 8.60899 3.31644 8.46325 3.25169C8.31752 3.18694 8.15945 3.15465 8 3.15706C7.84055 3.15465 7.68248 3.18694 7.53675 3.25169C7.39101 3.31644 7.2611 3.4121 7.15601 3.53205C6.92702 3.76105 6.81302 4.04204 6.81302 4.37503C6.81302 4.70902 6.92702 4.99002 7.15601 5.21901C7.38601 5.44901 7.66601 5.56301 8 5.56301Z"/>&#xa;</g>&#xa;<defs>&#xa;<linearGradient gradientUnits="userSpaceOnUse" y2="14.7481" x2="13.6882" y1="2.27095" x1="1.45096" id="paint0_linear_963_681">&#xa;<stop stop-color="#00CEAC"/>&#xa;<stop stop-color="#07838F" offset="1"/>&#xa;</linearGradient>&#xa;<clipPath id="clip0_963_681">&#xa;<rect fill="white" height="16" width="16"/>&#xa;</clipPath>&#xa;</defs>&#xa;</svg>