<svg xmlns="http://www.w3.org/2000/svg" fill="none" viewBox="0 0 24 24" height="24" width="24">&#xa;<g clip-path="url(#clip0_995_37)">&#xa;<path fill="url(#paint0_linear_995_37)" d="M13.5 11.7194C13.507 11.5204 13.4732 11.3221 13.4008 11.1366C13.3283 10.9511 13.2186 10.7825 13.0785 10.641C12.937 10.5008 12.7683 10.3912 12.5828 10.3187C12.3974 10.2462 12.199 10.2124 12 10.2195C11.801 10.2124 11.6026 10.2462 11.4172 10.3187C11.2317 10.3912 11.063 10.5008 10.9215 10.641C10.7814 10.7825 10.6717 10.9511 10.5992 11.1366C10.5268 11.3221 10.493 11.5204 10.5 11.7194V17.7193C10.5 18.1243 10.641 18.4843 10.9215 18.7978C11.0631 18.9376 11.2319 19.047 11.4173 19.1192C11.6028 19.1915 11.8011 19.225 12 19.2178C12.1989 19.225 12.3972 19.1915 12.5827 19.1192C12.7681 19.047 12.9369 18.9376 13.0785 18.7978C13.359 18.4843 13.5 18.1258 13.5 17.7178V11.7179V11.7194ZM12 0.000197727C13.656 0.000197727 15.2024 0.313691 16.6409 0.937677C18.1094 1.56316 19.3904 2.42264 20.4839 3.51612C21.5838 4.61887 22.4594 5.92444 23.0623 7.36053C23.6878 8.7975 23.9998 10.3455 23.9998 11.9999C24.0091 13.6099 23.6901 15.2048 23.0623 16.6873C22.451 18.1051 21.576 19.3939 20.4839 20.4852C19.3814 21.5844 18.0764 22.4596 16.6409 23.0622C15.1756 23.6928 13.5952 24.012 12 23.9997C10.3901 24.0089 8.79513 23.6899 7.31258 23.0622C4.45131 21.8296 2.17031 19.5486 0.937681 16.6873C0.309924 15.2048 -0.00906393 13.6099 0.000195972 11.9999C0.000195972 10.344 0.312191 8.7975 0.937681 7.36053C1.56317 5.89056 2.42266 4.60959 3.51614 3.51612C4.60703 2.42412 5.89532 1.54915 7.31258 0.937677C8.7951 0.309883 10.3901 -0.00910414 12 0.000197727ZM12 8.34451C12.4995 8.34451 12.9225 8.17201 13.266 7.82852C13.6095 7.48353 13.782 7.06354 13.782 6.56255C13.782 6.06306 13.6095 5.64157 13.266 5.29808C13.1083 5.11816 12.9135 4.97466 12.6949 4.87754C12.4763 4.78041 12.2392 4.73198 12 4.73559C11.7608 4.73198 11.5237 4.78041 11.3051 4.87754C11.0865 4.97466 10.8917 5.11816 10.734 5.29808C10.3905 5.64157 10.2195 6.06306 10.2195 6.56255C10.2195 7.06354 10.3905 7.48503 10.734 7.82852C11.079 8.17351 11.499 8.34451 12 8.34451Z"/>&#xa;</g>&#xa;<defs>&#xa;<linearGradient gradientUnits="userSpaceOnUse" y2="24" x2="12" y1="0" x1="12" id="paint0_linear_995_37">&#xa;<stop stop-color="#5B738B"/>&#xa;<stop stop-color="#223548" offset="1"/>&#xa;</linearGradient>&#xa;<clipPath id="clip0_995_37">&#xa;<rect fill="white" height="24" width="24"/>&#xa;</clipPath>&#xa;</defs>&#xa;</svg>