<svg xmlns="http://www.w3.org/2000/svg" fill="none" viewBox="0 0 16 16" height="16" width="16">&#xa;<g clip-path="url(#clip0_963_553)">&#xa;<path fill="url(#paint0_linear_963_553)" d="M3.1875 0.78125C3.1875 0.552083 3.26042 0.364583 3.40625 0.21875C3.57292 0.0729167 3.77083 0 4 0H15.1875C15.4167 0 15.6042 0.0729167 15.75 0.21875C15.9167 0.364583 16 0.552083 16 0.78125V12C16 12.2292 15.9167 12.4167 15.75 12.5625C15.6042 12.7083 15.4167 12.7812 15.1875 12.7812H4C3.77083 12.7812 3.57292 12.7083 3.40625 12.5625C3.26042 12.4167 3.1875 12.2292 3.1875 12V0.78125ZM4.78125 11.1875H14.375V1.59375H4.78125V11.1875ZM9.03125 4.5625C8.76042 4.29167 8.69792 4 8.84375 3.6875C8.96875 3.35417 9.21875 3.1875 9.59375 3.1875H12C12.2083 3.1875 12.3854 3.26042 12.5312 3.40625C12.6979 3.55208 12.7812 3.73958 12.7812 3.96875V6.375C12.7812 6.75 12.6146 7 12.2812 7.125C11.9688 7.27083 11.6771 7.20833 11.4062 6.9375L10.7812 6.3125L7.75 9.34375C7.58333 9.51042 7.39583 9.59375 7.1875 9.59375C6.97917 9.59375 6.79167 9.51042 6.625 9.34375C6.45833 9.17708 6.375 8.98958 6.375 8.78125C6.375 8.57292 6.45833 8.38542 6.625 8.21875L9.65625 5.1875L9.03125 4.5625ZM1.59375 14.4062H15.1875C15.4167 14.4062 15.6042 14.4792 15.75 14.625C15.9167 14.7708 16 14.9583 16 15.1875C16 15.4167 15.9167 15.6146 15.75 15.7812C15.6042 15.9271 15.4167 16 15.1875 16H0.8125C0.583333 16 0.385417 15.9271 0.21875 15.7812C0.0729167 15.6146 0 15.4167 0 15.1875V0.8125C0 0.583333 0.0729167 0.395833 0.21875 0.25C0.385417 0.0833333 0.583333 0 0.8125 0C1.04167 0 1.22917 0.0833333 1.375 0.25C1.52083 0.395833 1.59375 0.583333 1.59375 0.8125V14.4062Z"/>&#xa;</g>&#xa;<defs>&#xa;<linearGradient gradientUnits="userSpaceOnUse" y2="9.78772" x2="16.1959" y1="1.50509" x1="2.06785" id="paint0_linear_963_553">&#xa;<stop stop-color="#2395FF"/>&#xa;<stop stop-color="#0057D2" offset="1"/>&#xa;</linearGradient>&#xa;<clipPath id="clip0_963_553">&#xa;<rect fill="white" height="16" width="16"/>&#xa;</clipPath>&#xa;</defs>&#xa;</svg>