<svg xmlns="http://www.w3.org/2000/svg" fill="none" viewBox="0 0 24 24" height="24" width="24">&#xa;<g clip-path="url(#clip0_995_244)">&#xa;<path fill="url(#paint0_linear_995_244)" d="M4.78125 1.17188C4.78125 0.828125 4.89063 0.546875 5.10938 0.328125C5.35938 0.109375 5.65625 0 6 0H22.7812C23.125 0 23.4063 0.109375 23.625 0.328125C23.875 0.546875 24 0.828125 24 1.17188V18C24 18.3438 23.875 18.625 23.625 18.8438C23.4063 19.0625 23.125 19.1718 22.7812 19.1718H6C5.65625 19.1718 5.35938 19.0625 5.10938 18.8438C4.89063 18.625 4.78125 18.3438 4.78125 18V1.17188ZM7.17188 16.7812H21.5625V2.39062H7.17188V16.7812ZM13.5469 6.84375C13.1406 6.4375 13.0469 6 13.2656 5.53125C13.4531 5.03125 13.8281 4.78125 14.3906 4.78125H18C18.3125 4.78125 18.5781 4.89063 18.7968 5.10938C19.0469 5.32812 19.1718 5.60937 19.1718 5.95312V9.5625C19.1718 10.125 18.9219 10.5 18.4218 10.6875C17.9532 10.9062 17.5156 10.8125 17.1093 10.4062L16.1718 9.46875L11.625 14.0156C11.375 14.2656 11.0937 14.3906 10.7812 14.3906C10.4688 14.3906 10.1875 14.2656 9.9375 14.0156C9.6875 13.7656 9.5625 13.4844 9.5625 13.1719C9.5625 12.8594 9.6875 12.5781 9.9375 12.3281L14.4844 7.78125L13.5469 6.84375ZM2.39062 21.6093H22.7812C23.125 21.6093 23.4063 21.7188 23.625 21.9375C23.875 22.1562 24 22.4375 24 22.7812C24 23.125 23.875 23.4219 23.625 23.6718C23.4063 23.8906 23.125 24 22.7812 24H1.21875C0.875 24 0.578125 23.8906 0.328125 23.6718C0.109375 23.4219 0 23.125 0 22.7812V1.21875C0 0.875 0.109375 0.59375 0.328125 0.375C0.578125 0.125 0.875 0 1.21875 0C1.56251 0 1.84376 0.125 2.0625 0.375C2.28124 0.59375 2.39062 0.875 2.39062 1.21875V21.6093Z"/>&#xa;</g>&#xa;<defs>&#xa;<linearGradient gradientUnits="userSpaceOnUse" y2="14.6816" x2="24.2938" y1="2.25763" x1="3.10178" id="paint0_linear_995_244">&#xa;<stop stop-color="#2395FF"/>&#xa;<stop stop-color="#0057D2" offset="1"/>&#xa;</linearGradient>&#xa;<clipPath id="clip0_995_244">&#xa;<rect fill="white" height="24" width="24"/>&#xa;</clipPath>&#xa;</defs>&#xa;</svg>