<svg xmlns="http://www.w3.org/2000/svg" fill="none" viewBox="0 0 16 16" height="16" width="16">&#xa;<g clip-path="url(#clip0_958_427)">&#xa;<path fill="url(#paint0_linear_958_427)" d="M15.7495 12.2425C15.9168 12.4098 16 12.5972 16 12.8066V15.1864C16 15.7285 15.7295 16 15.1854 16H12.8068C12.7007 15.9988 12.5959 15.976 12.4989 15.933C12.4019 15.8899 12.3148 15.8275 12.2427 15.7495L11.6786 15.1864H10.3962C10.1769 15.1906 9.96415 15.1123 9.80001 14.9669C9.72704 14.8928 9.67002 14.8045 9.63246 14.7075C9.5949 14.6104 9.57758 14.5068 9.58158 14.4028V13.5892H8.79907C8.5802 13.5932 8.36781 13.5149 8.20392 13.3697C8.13095 13.2958 8.07385 13.2076 8.03612 13.1108C7.99839 13.014 7.98082 12.9105 7.98449 12.8066V11.992H7.20198C6.65893 11.992 6.3874 11.7215 6.3874 11.1784V9.92586L6.0748 9.58117H4.79031C4.14406 9.58117 3.52787 9.45592 2.94374 9.20542C2.37086 8.96271 1.85006 8.61197 1.40977 8.17236C0.969469 7.73222 0.618066 7.21137 0.37477 6.63829C0.124778 6.05452 -0.00276156 5.42565 4.53434e-05 4.7906C4.53434e-05 4.12227 0.125288 3.50704 0.375772 2.94291C0.618471 2.37 0.969186 1.84917 1.40877 1.40885C1.84965 0.96902 2.37115 0.618272 2.94474 0.375783C3.5281 0.125565 4.15657 -0.00232148 4.79132 3.18995e-05C5.45861 3.18995e-05 6.0738 0.125282 6.63789 0.375783C7.22302 0.626283 7.73401 0.96997 8.17286 1.40784C8.6107 1.84672 8.95437 2.35874 9.20485 2.94291C9.45534 3.50704 9.58158 4.12227 9.58158 4.7906V6.07317L15.7495 12.2425ZM14.4029 13.1192L8.23498 6.95092C8.1571 6.87905 8.09471 6.79203 8.05164 6.6952C8.00857 6.59837 7.98572 6.49377 7.98449 6.38779V4.7906C7.98449 4.35173 7.90133 3.94491 7.73401 3.56916C7.57386 3.18311 7.33968 2.83215 7.04467 2.5361C6.74894 2.24118 6.39835 2.00699 6.01268 1.84672C5.62753 1.67768 5.2109 1.5923 4.79031 1.59622C4.35247 1.59622 3.93466 1.68039 3.53789 1.84672C3.16412 2.0125 2.82438 2.24626 2.53595 2.5361C2.24439 2.82768 2.01494 3.17237 1.84762 3.56916C1.6803 3.94491 1.59714 4.35173 1.59714 4.7906C1.59714 5.22848 1.6803 5.64631 1.84762 6.04311C2.01494 6.41886 2.24439 6.75252 2.53695 7.04511C2.82852 7.33669 3.16216 7.56615 3.53889 7.73348C3.93466 7.90082 4.35247 7.98398 4.79132 7.98398H6.3874C6.59681 7.98398 6.78417 8.06815 6.95149 8.23448L7.76507 9.04911C7.83593 9.11798 7.89195 9.20063 7.92968 9.29196C7.96742 9.38328 7.98607 9.48137 7.98449 9.58017V10.3948H8.79907C9.32008 10.3948 9.58058 10.6553 9.58058 11.1764V11.991H10.3952C10.6256 11.991 10.813 12.0641 10.9592 12.2104C11.1256 12.3567 11.2097 12.5551 11.2097 12.8056V13.5882H11.9922C12.2007 13.5882 12.389 13.6713 12.5563 13.8387L13.1194 14.4028H14.4029V13.1192ZM4.79031 3.19341C5.22916 3.19341 5.60489 3.34972 5.91749 3.66335C6.2311 3.97598 6.3884 4.35173 6.3884 4.7906C6.3884 5.22848 6.2311 5.60423 5.91749 5.91786C5.77169 6.06905 5.59645 6.18876 5.40258 6.26959C5.20871 6.35041 5.00033 6.39064 4.79031 6.38779C4.35247 6.38779 3.97674 6.23048 3.66313 5.91685C3.51243 5.77098 3.39317 5.59581 3.3127 5.40212C3.23224 5.20843 3.19226 5.00032 3.19523 4.7906C3.19523 4.35173 3.35153 3.97598 3.66514 3.66335C3.81082 3.51228 3.98591 3.39264 4.17959 3.31182C4.37328 3.231 4.58146 3.1907 4.79132 3.19341H4.79031Z"/>&#xa;</g>&#xa;<defs>&#xa;<linearGradient gradientUnits="userSpaceOnUse" y2="16" x2="8" y1="0" x1="8" id="paint0_linear_958_427">&#xa;<stop stop-color="#5B738B"/>&#xa;<stop stop-color="#223548" offset="1"/>&#xa;</linearGradient>&#xa;<clipPath id="clip0_958_427">&#xa;<rect fill="white" height="16" width="16"/>&#xa;</clipPath>&#xa;</defs>&#xa;</svg>