<svg xmlns="http://www.w3.org/2000/svg" fill="none" viewBox="0 0 24 24" height="24" width="24">&#xa;<g clip-path="url(#clip0_995_156)">&#xa;<path fill="url(#paint0_linear_995_156)" d="M10.8969 18.4215C11.0196 18.2983 11.1661 18.2015 11.3277 18.137C11.4892 18.0725 11.6623 18.0417 11.8362 18.0465C12.2119 18.0465 12.4944 18.219 12.6823 18.5625C12.9317 18.813 13.058 19.11 13.058 19.4535C13.058 19.797 12.9317 20.094 12.6823 20.3445L10.8954 22.0785C10.2832 22.6941 9.54718 23.1731 8.73588 23.484C7.95291 23.829 7.15492 24 6.34039 24C5.51448 23.9975 4.69834 23.8217 3.9449 23.484C3.19349 23.172 2.5052 22.704 1.87852 22.0785C1.26964 21.479 0.790395 20.7612 0.470382 19.9695C0.161279 19.21 0.00157779 18.3982 0 17.5785C0 16.7655 0.156293 15.969 0.470382 15.1875C0.782968 14.4075 1.25185 13.7025 1.87852 13.0785L5.44771 9.5625C6.07439 8.937 6.77921 8.4675 7.56068 8.1555C8.33155 7.8212 9.16228 7.64618 10.0028 7.641C10.8173 7.641 11.6153 7.812 12.3982 8.1555C13.1812 8.469 13.871 8.937 14.4646 9.5625C14.7156 9.813 14.8403 10.11 14.8403 10.4535C14.8403 10.797 14.7156 11.094 14.4646 11.343C14.3494 11.4631 14.2107 11.5583 14.0572 11.6228C13.9037 11.6873 13.7385 11.7197 13.5719 11.718C13.4056 11.7195 13.2408 11.687 13.0875 11.6225C12.9342 11.558 12.7958 11.4629 12.6808 11.343C11.9594 10.563 11.0833 10.173 10.0508 10.173C9.01691 10.173 8.12423 10.563 7.37282 11.343L3.80664 14.859C3.02517 15.579 2.63444 16.4535 2.63444 17.484C2.63444 18.516 3.02517 19.422 3.80664 20.2035C4.52799 20.9535 5.40413 21.3285 6.43657 21.3285C7.47051 21.3285 8.36318 20.9535 9.11459 20.2035L10.8954 18.42L10.8969 18.4215ZM22.0749 1.9215C22.7001 2.5155 23.1704 3.2025 23.483 3.984C23.8287 4.7655 24 5.562 24 6.375C24 7.188 23.8272 7.9845 23.483 8.766C23.1704 9.516 22.7016 10.203 22.0749 10.8285L18.5523 14.343C17.8941 15 17.1742 15.483 16.3912 15.798C15.6153 16.1089 14.7867 16.2678 13.9507 16.266C13.1294 16.2645 12.3161 16.1051 11.5552 15.7965C10.7817 15.4684 10.0916 14.9718 9.53538 14.343C9.41857 14.2354 9.325 14.1051 9.26039 13.9602C9.19579 13.8152 9.16152 13.6586 9.15967 13.5C9.15967 13.155 9.28441 12.8595 9.53538 12.609C9.64335 12.4922 9.7741 12.3987 9.9196 12.3342C10.0651 12.2697 10.2223 12.2356 10.3815 12.234C10.7256 12.234 11.0232 12.36 11.2726 12.609C11.6183 12.984 12.024 13.266 12.4944 13.4535C13.412 13.8297 14.4412 13.8297 15.3588 13.4535C15.8292 13.266 16.2515 12.984 16.6272 12.609L20.1964 9.0465C20.9478 8.328 21.3235 7.4535 21.3235 6.4215C21.3235 5.391 20.9478 4.485 20.1964 3.7035C19.475 2.9535 18.5989 2.5785 17.5664 2.5785C16.5325 2.5785 15.6248 2.9535 14.8418 3.7035L13.0595 5.484C12.9443 5.60408 12.8056 5.69931 12.6521 5.7638C12.4985 5.8283 12.3334 5.8607 12.1668 5.859C12.0002 5.8607 11.8351 5.8283 11.6816 5.7638C11.528 5.69931 11.3894 5.60408 11.2741 5.484C11.1538 5.369 11.0584 5.2306 10.9938 5.07735C10.9292 4.9241 10.8967 4.75926 10.8984 4.593C10.8984 4.2495 11.0247 3.9525 11.2741 3.7035L13.0595 1.92C13.6847 1.296 14.3895 0.8265 15.1724 0.5145C15.9429 0.180393 16.7731 0.00538006 17.613 0C18.4276 0 19.2255 0.1725 20.0085 0.516C20.79 0.828 21.4798 1.296 22.0749 1.9215Z"/>&#xa;</g>&#xa;<defs>&#xa;<linearGradient gradientUnits="userSpaceOnUse" y2="22.1221" x2="20.5322" y1="3.40642" x1="2.17643" id="paint0_linear_995_156">&#xa;<stop stop-color="#00CEAC"/>&#xa;<stop stop-color="#07838F" offset="1"/>&#xa;</linearGradient>&#xa;<clipPath id="clip0_995_156">&#xa;<rect fill="white" height="24" width="24"/>&#xa;</clipPath>&#xa;</defs>&#xa;</svg>