<svg xmlns="http://www.w3.org/2000/svg" fill="none" viewBox="0 0 16 16" height="16" width="16">&#xa;<path fill="url(#paint0_linear_958_395)" d="M11.5528 6.38738C12.2526 6.38738 12.8344 6.62784 13.3012 7.10777C13.7671 7.56666 14 8.12975 14 8.79905V13.5883C14 14.2777 13.7671 14.8518 13.3012 15.3117C12.8344 15.7706 12.2526 16 11.5528 16H3.44723C2.74845 16 2.16564 15.7696 1.69979 15.3107C1.23292 14.8518 1 14.2787 1 13.5893V8.79905C1 8.13075 1.23394 7.56666 1.69979 7.10777C2.16564 6.62684 2.74744 6.38738 3.44723 6.38738V4.00777C3.44723 3.44467 3.55301 2.92266 3.76559 2.44273C3.97715 1.94176 4.26399 1.51393 4.62303 1.15925C4.98412 0.803557 5.40724 0.522011 5.89445 0.313608C6.38268 0.104202 6.91159 0 7.48423 0C8.05688 0 8.58579 0.104202 9.07402 0.313608C9.58258 0.522011 10.0169 0.804559 10.3759 1.15925C10.737 1.51393 11.0228 1.94076 11.2354 2.44173C11.447 2.92266 11.5528 3.44367 11.5528 4.00777V6.38738ZM5.06854 6.38738H9.93146V4.00777C9.93146 3.31943 9.69854 2.74532 9.23269 2.28643C8.76582 1.82654 8.18402 1.59609 7.48423 1.59609C6.80581 1.59609 6.23316 1.82654 5.76731 2.28543C5.30146 2.74432 5.06854 3.31743 5.06854 4.00676V6.38738ZM12.3797 8.79905C12.3828 8.69228 12.3616 8.58618 12.3176 8.48856C12.2736 8.39093 12.2079 8.30427 12.1254 8.23496C12.0502 8.16181 11.9606 8.10461 11.8621 8.06687C11.7637 8.02914 11.6584 8.01166 11.5528 8.01553H3.44723C2.89696 8.01553 2.62131 8.27604 2.62131 8.79905V13.5883C2.62131 14.1314 2.89594 14.4029 3.44723 14.4029H11.5528C11.7867 14.4029 11.9769 14.3298 12.1254 14.1845C12.2943 14.0382 12.3797 13.8398 12.3797 13.5893V8.79905ZM7.48423 9.61162C7.95008 9.61162 8.33151 9.76793 8.62851 10.0815C8.94687 10.3731 9.10555 10.7488 9.10555 11.2087C9.10555 11.6466 8.94687 12.0223 8.62851 12.3359C8.33151 12.6485 7.95008 12.8058 7.48423 12.8058C7.03873 12.8058 6.6573 12.6485 6.33996 12.3349C6.1866 12.1892 6.06516 12.0141 5.98312 11.8204C5.90107 11.6268 5.86017 11.4186 5.86292 11.2087C5.86292 10.7488 6.02261 10.3731 6.33996 10.0815C6.48797 9.93034 6.66588 9.81064 6.86268 9.72982C7.05949 9.649 7.27103 9.60877 7.48423 9.61162Z"/>&#xa;<defs>&#xa;<linearGradient gradientUnits="userSpaceOnUse" y2="16" x2="7.5" y1="0" x1="7.5" id="paint0_linear_958_395">&#xa;<stop stop-color="#5B738B"/>&#xa;<stop stop-color="#223548" offset="1"/>&#xa;</linearGradient>&#xa;</defs>&#xa;</svg>