<svg xmlns="http://www.w3.org/2000/svg" fill="none" viewBox="0 0 24 24" height="24" width="24">&#xa;<path fill="url(#paint0_linear_995_35)" d="M17.6115 9.78264C18.5805 9.78264 19.386 10.1133 20.0325 10.7732C20.6775 11.4042 21 12.1784 21 13.0987V19.684C21 20.6318 20.6775 21.4212 20.0325 22.0535C19.386 22.6845 18.5805 23 17.6115 23H6.38847C5.42094 23 4.61396 22.6831 3.96894 22.0522C3.32251 21.4212 3 20.6332 3 19.6853V13.0987C3 12.1798 3.32392 11.4042 3.96894 10.7732C4.61396 10.1119 5.41953 9.78264 6.38847 9.78264V6.51068C6.38847 5.73643 6.53493 5.01866 6.82928 4.35876C7.12221 3.66992 7.51936 3.08166 8.01651 2.59396C8.51647 2.10489 9.10234 1.71777 9.77693 1.43121C10.4529 1.14328 11.1853 1 11.9782 1C12.7711 1 13.5034 1.14328 14.1794 1.43121C14.8836 1.71777 15.4849 2.10627 15.9821 2.59396C16.482 3.08166 16.8778 3.66855 17.1721 4.35738C17.4651 5.01866 17.6115 5.73505 17.6115 6.51068V9.78264ZM8.63336 9.78264H15.3666V6.51068C15.3666 5.56422 15.0441 4.77481 14.3991 4.14384C13.7527 3.51149 12.9471 3.19463 11.9782 3.19463C11.0388 3.19463 10.2459 3.51149 9.60089 4.14246C8.95587 4.77344 8.63336 5.56146 8.63336 6.5093V9.78264ZM18.7565 13.0987C18.7608 12.9519 18.7315 12.806 18.6705 12.6718C18.6096 12.5375 18.5187 12.4184 18.4044 12.3231C18.3003 12.2225 18.1763 12.1438 18.0399 12.0919C17.9035 12.0401 17.7577 12.016 17.6115 12.0214H6.38847C5.62656 12.0214 5.24489 12.3795 5.24489 13.0987V19.684C5.24489 20.4306 5.62515 20.804 6.38847 20.804H17.6115C17.9355 20.804 18.1988 20.7034 18.4044 20.5037C18.6382 20.3025 18.7565 20.0297 18.7565 19.6853V13.0987ZM11.9782 14.216C12.6232 14.216 13.1513 14.4309 13.5626 14.8621C14.0034 15.263 14.2231 15.7796 14.2231 16.412C14.2231 17.014 14.0034 17.5307 13.5626 17.9619C13.1513 18.3917 12.6232 18.608 11.9782 18.608C11.3613 18.608 10.8332 18.3917 10.3938 17.9605C10.1814 17.7602 10.0133 17.5194 9.8997 17.2531C9.7861 16.9868 9.72946 16.7005 9.73328 16.412C9.73328 15.7796 9.95439 15.263 10.3938 14.8621C10.5987 14.6542 10.8451 14.4896 11.1176 14.3785C11.3901 14.2674 11.683 14.2121 11.9782 14.216Z"/>&#xa;<defs>&#xa;<linearGradient gradientUnits="userSpaceOnUse" y2="23" x2="12" y1="1" x1="12" id="paint0_linear_995_35">&#xa;<stop stop-color="#5B738B"/>&#xa;<stop stop-color="#223548" offset="1"/>&#xa;</linearGradient>&#xa;</defs>&#xa;</svg>