<svg xmlns="http://www.w3.org/2000/svg" fill="none" viewBox="0 0 16 16" height="16" width="16">&#xa;<path fill="url(#paint0_linear_963_703)" d="M11.9922 3.96297V4.33334L13.8708 5.62964L14.7163 5.04322C14.8624 4.94033 15.0189 4.8889 15.1859 4.8889C15.4364 4.8889 15.6347 4.9712 15.7808 5.13581C15.927 5.30041 16 5.47532 16 5.6605C16 5.90742 15.8956 6.10288 15.6869 6.24692L14.3406 7.17285C14.1944 7.27572 14.0379 7.32717 13.8708 7.32717C13.7038 7.32717 13.5369 7.27572 13.3699 7.17285L11.8669 6.12347C11.7417 6.39095 11.5225 6.5247 11.2094 6.5247C11.0006 6.5247 10.8232 6.46297 10.6771 6.33952C10.531 6.19548 10.4475 6.02058 10.4266 5.81482L5.47945 6.37038L8.61057 11.2469H11.9922C12.6602 11.2469 13.2238 11.4836 13.683 11.9568C14.1631 12.4095 14.4031 12.965 14.4031 13.6235C14.4031 14.2819 14.1631 14.8374 13.683 15.2902C13.2238 15.7634 12.6602 16 11.9922 16H2.41096C1.74298 16 1.16895 15.7634 0.688845 15.2902C0.229616 14.8374 0 14.2819 0 13.6235C0 13.109 0.146118 12.6564 0.438356 12.2655C0.730594 11.8539 1.11676 11.5658 1.59687 11.4013V6.86421C1.11676 6.59671 0.730594 6.22634 0.438356 5.7531C0.146118 5.27984 0 4.74486 0 4.14816C0 3.71606 0.0834961 3.31482 0.250489 2.94445C0.417482 2.5535 0.647097 2.21399 0.939335 1.92593C1.23158 1.63786 1.56556 1.41152 1.94129 1.24691C2.3379 1.0823 2.75538 1 3.19374 1C3.65297 1 4.07045 1.09259 4.44618 1.27778C4.84279 1.44238 5.18721 1.66873 5.47945 1.9568L10.4266 2.51235C10.4475 2.30658 10.531 2.14198 10.6771 2.01852C10.8232 1.87448 11.0006 1.80247 11.2094 1.80247C11.5225 1.80247 11.7417 1.93621 11.8669 2.20371L13.3699 1.15432C13.5369 1.05144 13.7038 1 13.8708 1C14.0379 1 14.1944 1.05144 14.3406 1.15432L15.6869 2.08025C15.8956 2.22428 16 2.41976 16 2.66667C16 2.85186 15.927 3.02675 15.7808 3.19136C15.6347 3.33539 15.4364 3.40741 15.1859 3.40741C14.9772 3.40741 14.8206 3.36626 14.7163 3.28396L13.8708 2.66667L11.9922 3.96297ZM3.19374 2.57408C2.75538 2.57408 2.37965 2.7284 2.06654 3.03704C1.75342 3.34569 1.59687 3.71606 1.59687 4.14816C1.59687 4.60083 1.75342 4.98149 2.06654 5.29013C2.37965 5.57819 2.75538 5.72223 3.19374 5.72223C3.63209 5.72223 4.00783 5.57819 4.32094 5.29013C4.63405 4.98149 4.79061 4.60083 4.79061 4.14816C4.79061 3.71606 4.63405 3.34569 4.32094 3.03704C4.00783 2.7284 3.63209 2.57408 3.19374 2.57408ZM2.41096 12.821C2.18134 12.821 1.98304 12.9033 1.81605 13.0679C1.66993 13.2119 1.59687 13.3971 1.59687 13.6235C1.59687 13.8498 1.66993 14.0452 1.81605 14.2099C1.98304 14.3539 2.18134 14.426 2.41096 14.426H11.9922C12.2218 14.426 12.4097 14.3539 12.5558 14.2099C12.7228 14.0452 12.8063 13.8498 12.8063 13.6235C12.8063 13.3971 12.7228 13.2119 12.5558 13.0679C12.4097 12.9033 12.2218 12.821 11.9922 12.821H2.41096ZM6.70059 11.2469L4.10176 7.17285C3.78865 7.27572 3.48598 7.32717 3.19374 7.32717V11.2469H6.70059ZM10.3953 4.11729L6.35616 3.65433C6.37704 3.73663 6.38748 3.81893 6.38748 3.90124C6.38748 3.98354 6.38748 4.06584 6.38748 4.14816C6.38748 4.25103 6.38748 4.34362 6.38748 4.42593C6.38748 4.50823 6.37704 4.59054 6.35616 4.67285L10.3953 4.20988V4.11729Z"/>&#xa;<defs>&#xa;<linearGradient gradientUnits="userSpaceOnUse" y2="15.5647" x2="12.8852" y1="3.12901" x1="1.45096" id="paint0_linear_963_703">&#xa;<stop stop-color="#00CEAC"/>&#xa;<stop stop-color="#07838F" offset="1"/>&#xa;</linearGradient>&#xa;</defs>&#xa;</svg>