<svg xmlns="http://www.w3.org/2000/svg" fill="none" viewBox="0 0 24 24" height="24" width="24">&#xa;<path fill="url(#paint0_linear_995_59)" d="M17.9883 5.54322V6.11112L20.8063 8.09878L22.0744 7.1996C22.2936 7.04185 22.5283 6.96297 22.7789 6.96297C23.1546 6.96297 23.452 7.08917 23.6712 7.34158C23.8904 7.59397 24 7.86215 24 8.1461C24 8.5247 23.8434 8.82442 23.5303 9.04528L21.5108 10.465C21.2916 10.6228 21.0568 10.7017 20.8063 10.7017C20.5557 10.7017 20.3053 10.6228 20.0548 10.465L17.8004 8.85598C17.6125 9.26613 17.2837 9.47121 16.8142 9.47121C16.501 9.47121 16.2348 9.37656 16.0157 9.18726C15.7965 8.9664 15.6712 8.69823 15.6399 8.38273L8.21918 9.23458L12.9159 16.7119H17.9883C18.9903 16.7119 19.8357 17.0748 20.5245 17.8005C21.2447 18.4945 21.6046 19.3464 21.6046 20.356C21.6046 21.3655 21.2447 22.2174 20.5245 22.9116C19.8357 23.6371 18.9903 24 17.9883 24H3.61644C2.61448 24 1.75343 23.6371 1.03327 22.9116C0.344423 22.2174 0 21.3655 0 20.356C0 19.5672 0.219178 18.8731 0.657534 18.2737C1.09589 17.6427 1.67514 17.2009 2.3953 16.9486V9.99179C1.67514 9.58162 1.09589 9.01372 0.657534 8.28808C0.219178 7.56242 0 6.74211 0 5.82717C0 5.16462 0.125244 4.54939 0.375734 3.98149C0.626224 3.38203 0.970645 2.86145 1.409 2.41976C1.84736 1.97805 2.34834 1.631 2.91194 1.3786C3.50684 1.1262 4.13307 1 4.79061 1C5.47945 1 6.10568 1.14198 6.66928 1.42593C7.26418 1.67832 7.78082 2.02538 8.21918 2.46709L15.6399 3.31894C15.6712 3.00343 15.7965 2.75104 16.0157 2.56174C16.2348 2.34088 16.501 2.23046 16.8142 2.23046C17.2837 2.23046 17.6125 2.43553 17.8004 2.84569L20.0548 1.23663C20.3053 1.07887 20.5557 1 20.8063 1C21.0568 1 21.2916 1.07887 21.5108 1.23663L23.5303 2.65639C23.8434 2.87723 24 3.17696 24 3.55556C24 3.83952 23.8904 4.10769 23.6712 4.36009C23.452 4.58094 23.1546 4.69137 22.7789 4.69137C22.4658 4.69137 22.2309 4.62826 22.0744 4.50207L20.8063 3.55556L17.9883 5.54322ZM4.79061 3.41359C4.13307 3.41359 3.56947 3.65021 3.0998 4.12347C2.63014 4.59672 2.3953 5.16462 2.3953 5.82717C2.3953 6.52127 2.63014 7.10495 3.0998 7.5782C3.56947 8.01989 4.13307 8.24075 4.79061 8.24075C5.44814 8.24075 6.01174 8.01989 6.48141 7.5782C6.95108 7.10495 7.18591 6.52127 7.18591 5.82717C7.18591 5.16462 6.95108 4.59672 6.48141 4.12347C6.01174 3.65021 5.44814 3.41359 4.79061 3.41359ZM3.61644 19.1256C3.27201 19.1256 2.97457 19.2517 2.72407 19.5042C2.5049 19.725 2.3953 20.0089 2.3953 20.356C2.3953 20.703 2.5049 21.0027 2.72407 21.2551C2.97457 21.4759 3.27201 21.5865 3.61644 21.5865H17.9883C18.3327 21.5865 18.6145 21.4759 18.8337 21.2551C19.0842 21.0027 19.2094 20.703 19.2094 20.356C19.2094 20.0089 19.0842 19.725 18.8337 19.5042C18.6145 19.2517 18.3327 19.1256 17.9883 19.1256H3.61644ZM10.0509 16.7119L6.15264 10.465C5.68297 10.6228 5.22897 10.7017 4.79061 10.7017V16.7119H10.0509ZM15.5929 5.77985L9.53425 5.06997C9.56555 5.19616 9.58121 5.32236 9.58121 5.44857C9.58121 5.57477 9.58121 5.70096 9.58121 5.82717C9.58121 5.98491 9.58121 6.12689 9.58121 6.2531C9.58121 6.37929 9.56555 6.50549 9.53425 6.6317L15.5929 5.92182V5.77985Z"/>&#xa;<defs>&#xa;<linearGradient gradientUnits="userSpaceOnUse" y2="24" x2="12" y1="1" x1="12" id="paint0_linear_995_59">&#xa;<stop stop-color="#5B738B"/>&#xa;<stop stop-color="#223548" offset="1"/>&#xa;</linearGradient>&#xa;</defs>&#xa;</svg>