<svg xmlns="http://www.w3.org/2000/svg" fill="none" viewBox="0 0 16 16" height="16" width="16">&#xa;<path fill="url(#paint0_linear_963_501)" d="M13.5938 2C14.2812 2 14.8542 2.23958 15.3125 2.71875C15.7708 3.17708 16 3.73958 16 4.40625V11.5938C16 12.2812 15.7708 12.8542 15.3125 13.3125C14.8542 13.7708 14.2812 14 13.5938 14H2.40625C1.71875 14 1.14583 13.7708 0.6875 13.3125C0.229167 12.8542 0 12.2812 0 11.5938V4.40625C0 3.73958 0.229167 3.17708 0.6875 2.71875C1.14583 2.23958 1.71875 2 2.40625 2H13.5938ZM2.46875 3.625C2.26042 3.625 2.13542 3.64583 2.09375 3.6875L7.59375 7.125C7.73958 7.20833 7.89583 7.25 8.0625 7.25C8.22917 7.25 8.36458 7.20833 8.46875 7.125L14 3.6875C13.9583 3.64583 13.8958 3.625 13.8125 3.625C13.7292 3.625 13.6562 3.625 13.5938 3.625H2.46875ZM13.5938 12.4062C14.1354 12.4062 14.4062 12.1354 14.4062 11.5938V5.375L9.28125 8.5625C8.88542 8.8125 8.45833 8.9375 8 8.9375C7.5625 8.9375 7.13542 8.8125 6.71875 8.5625L1.59375 5.375V11.5938C1.59375 12.1354 1.86458 12.4062 2.40625 12.4062H13.5938Z"/>&#xa;<defs>&#xa;<linearGradient gradientUnits="userSpaceOnUse" y2="12.3399" x2="13.8516" y1="3.12882" x1="2.06785" id="paint0_linear_963_501">&#xa;<stop stop-color="#2395FF"/>&#xa;<stop stop-color="#0057D2" offset="1"/>&#xa;</linearGradient>&#xa;</defs>&#xa;</svg>