<svg xmlns="http://www.w3.org/2000/svg" fill="none" viewBox="0 0 16 16" height="16" width="16">&#xa;<path fill="url(#paint0_linear_963_486)" d="M4.41842 0C3.08276 0 2 1.07452 2 2.4V13.6C2 14.9255 3.08276 16 4.41842 16H11.5817C12.9172 16 14 14.9255 14 13.6V2.4C14 1.07452 12.9172 0 11.5817 0H4.41842ZM3.61229 2.4C3.61229 1.95817 3.97321 1.6 4.41842 1.6H5.92009V2.47297C5.92009 2.9148 6.28101 3.27297 6.72623 3.27297H9.27363C9.71885 3.27297 10.0798 2.9148 10.0798 2.47297V1.6H11.5817C12.0269 1.6 12.3878 1.95817 12.3878 2.4V13.6C12.3878 14.0418 12.0269 14.4 11.5817 14.4H4.41842C3.9732 14.4 3.61229 14.0418 3.61229 13.6V2.4Z" clip-rule="evenodd" fill-rule="evenodd"/>&#xa;<defs>&#xa;<linearGradient gradientUnits="userSpaceOnUse" y2="6.75113" x2="15.4821" y1="1.50509" x1="3.55089" id="paint0_linear_963_486">&#xa;<stop stop-color="#2395FF"/>&#xa;<stop stop-color="#0057D2" offset="1"/>&#xa;</linearGradient>&#xa;</defs>&#xa;</svg>