<svg xmlns="http://www.w3.org/2000/svg" fill="none" viewBox="0 0 24 24" height="24" width="24">&#xa;<path fill="url(#paint0_linear_995_125)" d="M21.7518 7.3733C22.1215 7.74902 22.4144 8.18787 22.6303 8.68834C22.8758 9.15876 23 9.67576 23 10.2393V20.2893C23 21.3534 22.6451 22.2311 21.9352 22.9194C21.2283 23.6408 20.3498 24 19.3028 24H4.64991C3.63391 24 2.77171 23.6393 2.06184 22.9194C1.35346 22.2311 1 21.3534 1 20.2893V10.2378C1 9.04904 1.41409 8.09319 2.24671 7.3733L9.55095 0.939335C10.2435 0.330971 11.129 -0.00261586 12.0444 1.54486e-05C12.9687 1.54486e-05 13.7702 0.312621 14.4476 0.939335L21.7518 7.3733ZM13.8486 14.0898H10.1514V21.5578H13.8486V14.0898ZM20.4119 10.2378C20.4119 9.83206 20.2877 9.50142 20.0422 9.25194L12.7394 2.81797C12.2159 2.41219 11.6761 2.41219 11.1215 2.81797L3.82173 9.25194C3.57475 9.50292 3.452 9.83206 3.452 10.2393V20.2893C3.452 20.665 3.55996 20.9776 3.77588 21.2286C4.01741 21.446 4.33032 21.5634 4.65286 21.5578H7.70382V14.0898C7.70382 13.4015 7.93453 12.8213 8.39594 12.3524C8.88989 11.8505 9.47553 11.601 10.1529 11.601H13.8501C14.5274 11.601 15.0983 11.8505 15.5597 12.3524C16.0226 12.8213 16.2533 13.4015 16.2533 14.0898V21.5578H19.3042C19.674 21.5578 19.9653 21.4481 20.1812 21.2286C20.3027 21.106 20.3981 20.9594 20.4617 20.7979C20.5253 20.6363 20.5557 20.4632 20.551 20.2893L20.4119 10.2378Z"/>&#xa;<defs>&#xa;<linearGradient gradientUnits="userSpaceOnUse" y2="20.5266" x2="21.3125" y1="3.40642" x1="2.99506" id="paint0_linear_995_125">&#xa;<stop stop-color="#00CEAC"/>&#xa;<stop stop-color="#07838F" offset="1"/>&#xa;</linearGradient>&#xa;</defs>&#xa;</svg>