<svg xmlns="http://www.w3.org/2000/svg" fill="none" viewBox="0 0 16 16" height="16" width="16">&#xa;<g clip-path="url(#clip0_959_445)">&#xa;<path fill="url(#paint0_linear_959_445)" d="M8.01559 0C9.12193 0 10.1552 0.208741 11.1154 0.626223C12.0965 1.04371 12.9523 1.61774 13.6829 2.34834C14.4135 3.07893 14.9875 3.93477 15.405 4.91585C15.8225 5.87606 16.0312 6.90932 16.0312 8.01566C16.0312 8.45401 15.9478 8.8715 15.7808 9.2681C15.6137 9.64384 15.3842 9.97782 15.0919 10.2701C14.7996 10.5623 14.4553 10.7919 14.0586 10.9589C13.6829 11.1259 13.2759 11.2094 12.8375 11.2094H9.61246C9.09061 11.2094 8.82968 11.4807 8.82968 12.0235C8.82968 12.5453 9.09061 12.8062 9.61246 12.8062C9.86295 12.8062 10.103 12.8898 10.3326 13.0567C10.6039 13.2237 10.7397 13.4324 10.7397 13.6829C10.7814 13.9334 10.771 14.1631 10.7084 14.3719C10.6457 14.5596 10.5517 14.7371 10.4265 14.9041C10.197 15.2172 9.87339 15.4781 9.45591 15.6868C9.0593 15.8956 8.55832 16 7.95297 16C6.86752 16 5.84468 15.7912 4.88448 15.3738C3.92427 14.9563 3.07887 14.3823 2.34828 13.6517C1.63856 12.921 1.07496 12.0757 0.657473 11.1155C0.239991 10.1344 0.03125 9.10111 0.03125 8.01566C0.03125 6.90932 0.239991 5.87606 0.657473 4.91585C1.07496 3.93477 1.64899 3.07893 2.37959 2.34834C3.11018 1.61774 3.95558 1.04371 4.91579 0.626223C5.89688 0.208741 6.93014 0 8.01559 0ZM12.8375 9.61252C13.2759 9.61252 13.6516 9.45597 13.9647 9.14286C14.2778 8.82975 14.4343 8.45401 14.4343 8.01566C14.4343 7.13894 14.2674 6.31441 13.9334 5.54207C13.5994 4.76974 13.1402 4.09132 12.5557 3.50685C11.9712 2.92238 11.2824 2.46314 10.4892 2.12916C9.71684 1.79518 8.89231 1.62818 8.01559 1.62818C7.13888 1.62818 6.31435 1.79518 5.54201 2.12916C4.76967 2.46314 4.09126 2.92238 3.50679 3.50685C2.92232 4.09132 2.46308 4.76974 2.1291 5.54207C1.79511 6.31441 1.62812 7.13894 1.62812 8.01566C1.62812 8.89237 1.79511 9.7169 2.1291 10.4893C2.46308 11.2616 2.92232 11.94 3.50679 12.5245C4.09126 13.1089 4.76967 13.5682 5.54201 13.9022C6.31435 14.2361 7.13888 14.4031 8.01559 14.4031C8.32871 14.4031 8.56876 14.3509 8.73575 14.2466C8.29739 14.0796 7.9321 13.7977 7.63986 13.4012C7.3685 13.0046 7.23282 12.5453 7.23282 12.0235C7.23282 11.3764 7.46243 10.8128 7.92166 10.3327C8.38089 9.85257 8.94449 9.61252 9.61246 9.61252H12.8375ZM12.0234 6.01174C12.3574 6.01174 12.6392 6.12655 12.8689 6.35616C13.0984 6.58578 13.2132 6.86758 13.2132 7.20157C13.2132 7.55643 13.0984 7.84866 12.8689 8.07828C12.6392 8.3079 12.3574 8.4227 12.0234 8.4227C11.6895 8.4227 11.4076 8.3079 11.178 8.07828C10.9484 7.84866 10.8336 7.55643 10.8336 7.20157C10.8336 6.86758 10.9484 6.58578 11.178 6.35616C11.4076 6.12655 11.6895 6.01174 12.0234 6.01174ZM10.0195 3.22505C10.3535 3.22505 10.6353 3.33985 10.865 3.56947C11.0945 3.79909 11.2093 4.08089 11.2093 4.41487C11.2093 4.74886 11.0945 5.03066 10.865 5.26027C10.6353 5.48989 10.3535 5.6047 10.0195 5.6047C9.68553 5.6047 9.40373 5.48989 9.17411 5.26027C8.94449 5.03066 8.82968 4.74886 8.82968 4.41487C8.82968 4.08089 8.94449 3.79909 9.17411 3.56947C9.40373 3.33985 9.68553 3.22505 10.0195 3.22505ZM6.01168 3.22505C6.36654 3.22505 6.65877 3.33985 6.88839 3.56947C7.11801 3.79909 7.23282 4.08089 7.23282 4.41487C7.23282 4.74886 7.11801 5.03066 6.88839 5.26027C6.65877 5.48989 6.36654 5.6047 6.01168 5.6047C5.6777 5.6047 5.3959 5.48989 5.16628 5.26027C4.93666 5.03066 4.82186 4.74886 4.82186 4.41487C4.82186 4.08089 4.93666 3.79909 5.16628 3.56947C5.3959 3.33985 5.6777 3.22505 6.01168 3.22505ZM4.03908 6.01174C4.37306 6.01174 4.65486 6.12655 4.88448 6.35616C5.1141 6.58578 5.2289 6.86758 5.2289 7.20157C5.2289 7.55643 5.1141 7.84866 4.88448 8.07828C4.65486 8.3079 4.37306 8.4227 4.03908 8.4227C3.68421 8.4227 3.39198 8.3079 3.16237 8.07828C2.93275 7.84866 2.81794 7.55643 2.81794 7.20157C2.81794 6.86758 2.93275 6.58578 3.16237 6.35616C3.39198 6.12655 3.68421 6.01174 4.03908 6.01174Z"/>&#xa;</g>&#xa;<defs>&#xa;<linearGradient gradientUnits="userSpaceOnUse" y2="16" x2="8.03125" y1="0" x1="8.03125" id="paint0_linear_959_445">&#xa;<stop stop-color="#5B738B"/>&#xa;<stop stop-color="#223548" offset="1"/>&#xa;</linearGradient>&#xa;<clipPath id="clip0_959_445">&#xa;<rect fill="white" height="16" width="16"/>&#xa;</clipPath>&#xa;</defs>&#xa;</svg>