<svg xmlns="http://www.w3.org/2000/svg" fill="none" viewBox="0 0 24 24" height="24" width="24">&#xa;<g clip-path="url(#clip0_995_196)">&#xa;<path fill="url(#paint0_linear_995_196)" d="M12.0234 0C13.6829 0 15.2328 0.313111 16.6732 0.939335C18.1447 1.56556 19.4285 2.42661 20.5243 3.5225C21.6202 4.6184 22.4813 5.90215 23.1075 7.37378C23.7338 8.81409 24.0469 10.364 24.0469 12.0235C24.0469 12.681 23.9217 13.3072 23.6711 13.9022C23.4206 14.4658 23.0763 14.9667 22.6379 15.4051C22.1995 15.8435 21.6829 16.1878 21.0879 16.4384C20.5243 16.6889 19.9138 16.8141 19.2563 16.8141H14.4187C13.6359 16.8141 13.2445 17.2211 13.2445 18.0352C13.2445 18.818 13.6359 19.2093 14.4187 19.2093C14.7944 19.2093 15.1545 19.3347 15.4989 19.5851C15.9059 19.8356 16.1096 20.1487 16.1096 20.5244C16.1721 20.9001 16.1565 21.2446 16.0625 21.5578C15.9686 21.8395 15.8276 22.1056 15.6398 22.3562C15.2954 22.8258 14.8101 23.2172 14.1839 23.5303C13.589 23.8435 12.8375 24.0001 11.9295 24.0001C10.3013 24.0001 8.76703 23.6869 7.32672 23.0607C5.88641 22.4345 4.61831 21.5734 3.52241 20.4775C2.45784 19.3816 1.61244 18.1135 0.98621 16.6733C0.359986 15.2016 0.046875 13.6517 0.046875 12.0235C0.046875 10.364 0.359986 8.81409 0.98621 7.37378C1.61244 5.90215 2.47348 4.6184 3.56938 3.5225C4.66528 2.42661 5.93338 1.56556 7.37368 0.939335C8.84531 0.313111 10.3952 0 12.0234 0ZM19.2563 14.4188C19.9138 14.4188 20.4774 14.184 20.9471 13.7143C21.4167 13.2446 21.6515 12.681 21.6515 12.0235C21.6515 10.7084 21.4011 9.47162 20.9 8.31311C20.3991 7.1546 19.7103 6.13698 18.8335 5.26027C17.9568 4.38357 16.9236 3.69471 15.7338 3.19374C14.5753 2.69276 13.3385 2.44227 12.0234 2.44227C10.7083 2.44227 9.47153 2.69276 8.31302 3.19374C7.15451 3.69471 6.13689 4.38357 5.26018 5.26027C4.38347 6.13698 3.69462 7.1546 3.19365 8.31311C2.69267 9.47162 2.44218 10.7084 2.44218 12.0235C2.44218 13.3386 2.69267 14.5753 3.19365 15.7339C3.69462 16.8924 4.38347 17.91 5.26018 18.7867C6.13689 19.6634 7.15451 20.3523 8.31302 20.8532C9.47153 21.3542 10.7083 21.6047 12.0234 21.6047C12.4931 21.6047 12.8531 21.5264 13.1036 21.3699C12.4461 21.1194 11.8982 20.6966 11.4598 20.1018C11.0528 19.5069 10.8492 18.818 10.8492 18.0352C10.8492 17.0646 11.1937 16.2192 11.8825 15.499C12.5713 14.7789 13.4167 14.4188 14.4187 14.4188H19.2563ZM18.0351 9.01761C18.5361 9.01761 18.9588 9.18982 19.3033 9.53425C19.6476 9.87867 19.8199 10.3014 19.8199 10.8023C19.8199 11.3346 19.6476 11.773 19.3033 12.1174C18.9588 12.4618 18.5361 12.6341 18.0351 12.6341C17.5342 12.6341 17.1114 12.4618 16.767 12.1174C16.4226 11.773 16.2504 11.3346 16.2504 10.8023C16.2504 10.3014 16.4226 9.87867 16.767 9.53425C17.1114 9.18982 17.5342 9.01761 18.0351 9.01761ZM15.0293 4.83757C15.5302 4.83757 15.953 5.00978 16.2974 5.35421C16.6418 5.69864 16.814 6.12134 16.814 6.62231C16.814 7.12328 16.6418 7.54598 16.2974 7.89041C15.953 8.23484 15.5302 8.40705 15.0293 8.40705C14.5283 8.40705 14.1056 8.23484 13.7612 7.89041C13.4167 7.54598 13.2445 7.12328 13.2445 6.62231C13.2445 6.12134 13.4167 5.69864 13.7612 5.35421C14.1056 5.00978 14.5283 4.83757 15.0293 4.83757ZM9.01752 4.83757C9.54982 4.83757 9.98816 5.00978 10.3326 5.35421C10.677 5.69864 10.8492 6.12134 10.8492 6.62231C10.8492 7.12328 10.677 7.54598 10.3326 7.89041C9.98816 8.23484 9.54982 8.40705 9.01752 8.40705C8.51655 8.40705 8.09385 8.23484 7.74942 7.89041C7.40499 7.54598 7.23278 7.12328 7.23278 6.62231C7.23278 6.12134 7.40499 5.69864 7.74942 5.35421C8.09385 5.00978 8.51655 4.83757 9.01752 4.83757ZM6.05862 9.01761C6.55959 9.01761 6.98229 9.18982 7.32672 9.53425C7.67115 9.87867 7.84335 10.3014 7.84335 10.8023C7.84335 11.3346 7.67115 11.773 7.32672 12.1174C6.98229 12.4618 6.55959 12.6341 6.05862 12.6341C5.52632 12.6341 5.08798 12.4618 4.74355 12.1174C4.39912 11.773 4.22691 11.3346 4.22691 10.8023C4.22691 10.3014 4.39912 9.87867 4.74355 9.53425C5.08798 9.18982 5.52632 9.01761 6.05862 9.01761Z"/>&#xa;</g>&#xa;<defs>&#xa;<linearGradient gradientUnits="userSpaceOnUse" y2="22.1222" x2="20.5792" y1="3.40643" x1="2.22331" id="paint0_linear_995_196">&#xa;<stop stop-color="#00CEAC"/>&#xa;<stop stop-color="#07838F" offset="1"/>&#xa;</linearGradient>&#xa;<clipPath id="clip0_995_196">&#xa;<rect fill="white" height="24" width="24"/>&#xa;</clipPath>&#xa;</defs>&#xa;</svg>