<svg xmlns="http://www.w3.org/2000/svg" fill="none" viewBox="0 0 16 16" height="16" width="16">&#xa;<g clip-path="url(#clip0_963_713)">&#xa;<path fill="url(#paint0_linear_963_713)" d="M9.52743 12.707L12.7246 4.52233L8.1207 9.15816L9.52743 12.707ZM11.4776 3.27545L3.29303 6.47257L6.84185 7.87931L11.4776 3.27545ZM15.7299 0.270157C16.0069 0.547241 16.0709 0.866948 15.9217 1.22929L10.3587 15.4245C10.2094 15.8082 9.93239 16 9.52743 16C9.14377 16 8.87734 15.8188 8.72814 15.4565L6.39425 9.60575L0.543511 7.27185C0.18117 7.12266 0 6.85623 0 6.47257C0 6.06761 0.191827 5.79052 0.575482 5.64132L14.7707 0.07833C15.133 -0.0708698 15.4527 -0.00692733 15.7299 0.270157Z"/>&#xa;</g>&#xa;<defs>&#xa;<linearGradient gradientUnits="userSpaceOnUse" y2="14.7481" x2="13.6882" y1="2.27095" x1="1.45096" id="paint0_linear_963_713">&#xa;<stop stop-color="#00CEAC"/>&#xa;<stop stop-color="#07838F" offset="1"/>&#xa;</linearGradient>&#xa;<clipPath id="clip0_963_713">&#xa;<rect fill="white" height="16" width="16"/>&#xa;</clipPath>&#xa;</defs>&#xa;</svg>