<svg xmlns="http://www.w3.org/2000/svg" fill="none" viewBox="0 0 24 24" height="24" width="24">&#xa;<g clip-path="url(#clip0_995_182)">&#xa;<path fill="url(#paint0_linear_995_182)" d="M14.2911 19.0605L19.0869 6.78349L12.181 13.7372L14.2911 19.0605ZM17.2165 4.91318L4.93955 9.70886L10.2628 11.819L17.2165 4.91318ZM23.5948 0.405236C24.0104 0.820861 24.1063 1.30042 23.8825 1.84394L15.5381 23.1368C15.3142 23.7123 14.8986 24 14.2911 24C13.7157 24 13.316 23.7282 13.0922 23.1848L9.59137 14.4086L0.815266 10.9078C0.271755 10.684 0 10.2843 0 9.70886C0 9.10141 0.287741 8.68577 0.863223 8.46198L22.1561 0.117495C22.6995 -0.106305 23.1791 -0.010391 23.5948 0.405236Z"/>&#xa;</g>&#xa;<defs>&#xa;<linearGradient gradientUnits="userSpaceOnUse" y2="22.1221" x2="20.5322" y1="3.40642" x1="2.17643" id="paint0_linear_995_182">&#xa;<stop stop-color="#00CEAC"/>&#xa;<stop stop-color="#07838F" offset="1"/>&#xa;</linearGradient>&#xa;<clipPath id="clip0_995_182">&#xa;<rect fill="white" height="24" width="24"/>&#xa;</clipPath>&#xa;</defs>&#xa;</svg>