<svg xmlns="http://www.w3.org/2000/svg" fill="none" viewBox="0 0 16 16" height="16" width="16">&#xa;<path fill="url(#paint0_linear_959_443)" d="M13.2666 1C13.7555 1 14 1.24462 14 1.73385V6.22503C14 6.73384 13.7555 6.98824 13.2666 6.98824C12.758 6.98824 12.5036 6.73384 12.5036 6.22503V2.49706H7.54523L7.25183 2.7906V4.72797C7.25183 5.13893 7.10513 5.49118 6.81174 5.78472C6.51834 6.07826 6.16626 6.22503 5.7555 6.22503H3.81907L3.52567 6.54793V14.5029H5.7555C5.97066 14.5029 6.1467 14.5714 6.28362 14.7084C6.4401 14.8454 6.51834 15.0215 6.51834 15.2367C6.51834 15.452 6.4401 15.6281 6.28362 15.7652C6.1467 15.9217 5.97066 16 5.7555 16H2.76284C2.54767 16 2.36186 15.9217 2.20538 15.7652C2.06846 15.6281 2 15.452 2 15.2367V6.22503C2 6.04891 2.07824 5.88257 2.23472 5.72601L6.72372 1.20548C6.86063 1.06849 7.03667 1 7.25183 1H13.2666ZM13.2666 10.9511C13.4816 11.0685 13.6577 11.2445 13.7946 11.4794C13.9316 11.7142 14 11.9687 14 12.2427V14.5029C14 14.9139 13.8533 15.2661 13.5599 15.5596C13.2666 15.8532 12.9145 16 12.5036 16H9.511C9.10024 16 8.74817 15.8532 8.45477 15.5596C8.16137 15.2661 8.01467 14.9139 8.01467 14.5029V12.2427C8.01467 11.9687 8.08313 11.7142 8.22005 11.4794C8.35697 11.2445 8.533 11.0685 8.74817 10.9511V9.98236C8.74817 9.35614 8.96333 8.82776 9.39364 8.39724C9.84352 7.96671 10.3814 7.75145 11.0073 7.75145C11.6333 7.75145 12.1614 7.96671 12.5917 8.39724C13.0416 8.82776 13.2666 9.35614 13.2666 9.98236V10.9511ZM10.2445 10.7456H11.7702V9.98236C11.7702 9.76709 11.692 9.59097 11.5355 9.45399C11.3986 9.317 11.2225 9.24851 11.0073 9.24851C10.7921 9.24851 10.6063 9.317 10.4499 9.45399C10.3129 9.59097 10.2445 9.76709 10.2445 9.98236V10.7456ZM12.5036 12.2427H9.511V14.5029H12.5036V12.2427Z"/>&#xa;<defs>&#xa;<linearGradient gradientUnits="userSpaceOnUse" y2="16" x2="8" y1="1" x1="8" id="paint0_linear_959_443">&#xa;<stop stop-color="#5B738B"/>&#xa;<stop stop-color="#223548" offset="1"/>&#xa;</linearGradient>&#xa;</defs>&#xa;</svg>