<svg xmlns="http://www.w3.org/2000/svg" fill="none" viewBox="0 0 24 24" height="24" width="24">&#xa;<path fill="url(#paint0_linear_995_82)" d="M19.8998 1C20.6333 1 21 1.37508 21 2.12524V9.01172C21 9.79189 20.6333 10.182 19.8998 10.182C19.1369 10.182 18.7554 9.79189 18.7554 9.01172V3.29549H11.3178L10.8778 3.74559V6.71623C10.8778 7.34636 10.6577 7.88648 10.2176 8.33657C9.77751 8.78667 9.24939 9.01172 8.63325 9.01172H5.72861L5.28851 9.50682V21.7044H8.63325C8.95599 21.7044 9.22005 21.8094 9.42543 22.0196C9.66015 22.2296 9.77751 22.4996 9.77751 22.8296C9.77751 23.1597 9.66015 23.4298 9.42543 23.6399C9.22005 23.8799 8.95599 24 8.63325 24H4.14425C3.82151 24 3.54279 23.8799 3.30807 23.6399C3.10269 23.4298 3 23.1597 3 22.8296V9.01172C3 8.74166 3.11735 8.48661 3.35208 8.24655L10.0856 1.31507C10.2909 1.10502 10.555 1 10.8778 1H19.8998ZM19.8998 16.2583C20.2225 16.4384 20.4865 16.7083 20.6919 17.0684C20.8973 17.4284 21 17.8186 21 18.2388V21.7044C21 22.3346 20.78 22.8747 20.3398 23.3248C19.8998 23.7749 19.3717 24 18.7554 24H14.2665C13.6504 24 13.1222 23.7749 12.6822 23.3248C12.2421 22.8747 12.022 22.3346 12.022 21.7044V18.2388C12.022 17.8186 12.1247 17.4284 12.3301 17.0684C12.5354 16.7083 12.7995 16.4384 13.1222 16.2583V14.773C13.1222 13.8127 13.445 13.0026 14.0905 12.3424C14.7653 11.6823 15.5721 11.3522 16.511 11.3522C17.4499 11.3522 18.2421 11.6823 18.8875 12.3424C19.5624 13.0026 19.8998 13.8127 19.8998 14.773V16.2583ZM15.3667 15.9432H17.6553V14.773C17.6553 14.4429 17.5379 14.1728 17.3032 13.9628C17.0978 13.7527 16.8338 13.6477 16.511 13.6477C16.1882 13.6477 15.9095 13.7527 15.6749 13.9628C15.4694 14.1728 15.3667 14.4429 15.3667 14.773V15.9432ZM18.7554 18.2388H14.2665V21.7044H18.7554V18.2388Z"/>&#xa;<defs>&#xa;<linearGradient gradientUnits="userSpaceOnUse" y2="24" x2="12" y1="1" x1="12" id="paint0_linear_995_82">&#xa;<stop stop-color="#5B738B"/>&#xa;<stop stop-color="#223548" offset="1"/>&#xa;</linearGradient>&#xa;</defs>&#xa;</svg>