<svg xmlns="http://www.w3.org/2000/svg" fill="none" viewBox="0 0 16 16" height="16" width="16">&#xa;<path fill="url(#paint0_linear_963_549)" d="M8.01593 3.15542C8.97265 3.15542 9.87622 3.32159 10.7267 3.65395C11.577 3.98631 12.3212 4.44574 12.959 5.03225C13.5968 5.59921 14.0965 6.27369 14.4578 7.0557C14.8193 7.83771 15 8.67838 15 9.57769C15 10.477 14.8193 11.3177 14.4578 12.0997C14.0965 12.8817 13.5968 13.5659 12.959 14.1525C12.3212 14.7194 11.577 15.169 10.7267 15.5014C9.87622 15.8338 8.97265 16 8.01593 16C7.03796 16 6.12376 15.8338 5.27334 15.5014C4.42293 15.169 3.67881 14.7194 3.041 14.1525C2.42445 13.5659 1.93546 12.8817 1.57403 12.0997C1.21261 11.3177 1.0319 10.477 1.0319 9.57769C1.0319 9.36263 1.09568 9.19646 1.22324 9.07915C1.37206 8.94231 1.56341 8.87388 1.79728 8.87388C2.03113 8.87388 2.21184 8.94231 2.3394 9.07915C2.48823 9.19646 2.56265 9.36263 2.56265 9.57769C2.56265 10.2815 2.70083 10.9364 2.97722 11.5425C3.27487 12.1486 3.66819 12.6764 4.15718 13.126C4.64616 13.5757 5.22019 13.9276 5.87927 14.1817C6.53834 14.4359 7.25056 14.563 8.01593 14.563C8.7813 14.563 9.49353 14.4359 10.1526 14.1817C10.8117 13.9276 11.3857 13.5757 11.8747 13.126C12.3636 12.6764 12.7463 12.1486 13.0228 11.5425C13.2991 10.9364 13.4373 10.2815 13.4373 9.57769C13.4373 8.87388 13.2991 8.21894 13.0228 7.61288C12.7463 7.00683 12.3636 6.47897 11.8747 6.02931C11.3857 5.57965 10.8117 5.22775 10.1526 4.97359C9.49353 4.71944 8.7813 4.59236 8.01593 4.59236H3.64693L4.66743 5.50145C4.8375 5.65786 4.92255 5.83381 4.92255 6.02931C4.92255 6.20526 4.8375 6.37144 4.66743 6.52784C4.306 6.8211 3.94457 6.8211 3.58315 6.52784L1.25512 4.38709C1.08505 4.23068 1 4.06451 1 3.88855C1 3.69305 1.08505 3.5171 1.25512 3.3607L3.58315 1.21994C3.94457 0.926686 4.306 0.926686 4.66743 1.21994C4.8375 1.37635 4.92255 1.5523 4.92255 1.7478C4.92255 1.92375 4.8375 2.08993 4.66743 2.24633L3.64693 3.15542H8.01593ZM7.69702 12.3049C7.59073 12.3636 7.46317 12.4124 7.31434 12.4516C7.16552 12.4711 7.03796 12.4418 6.93165 12.3636C6.80409 12.2854 6.68716 12.1975 6.58086 12.0997C6.49582 12.0019 6.4533 11.8748 6.4533 11.7184V7.43693C6.4533 7.14368 6.61274 6.92862 6.93165 6.79177C7.03796 6.71357 7.16552 6.69402 7.31434 6.73312C7.48442 6.75267 7.61199 6.80155 7.69702 6.87975L10.7904 9.0205C10.8755 9.0987 10.9498 9.18668 11.0136 9.28443C11.0774 9.38219 11.1093 9.4799 11.1093 9.57769C11.1093 9.67547 11.0774 9.78301 11.0136 9.90031C10.9498 9.998 10.8755 10.086 10.7904 10.1642L7.69702 12.3049Z"/>&#xa;<defs>&#xa;<linearGradient gradientUnits="userSpaceOnUse" y2="9.40577" x2="15.5928" y1="2.41102" x1="2.80937" id="paint0_linear_963_549">&#xa;<stop stop-color="#2395FF"/>&#xa;<stop stop-color="#0057D2" offset="1"/>&#xa;</linearGradient>&#xa;</defs>&#xa;</svg>