<svg xmlns="http://www.w3.org/2000/svg" fill="none" viewBox="0 0 24 24" height="24" width="24">&#xa;<path fill="url(#paint0_linear_995_74)" d="M12.025 3.44867C13.5284 3.44867 14.9483 3.71455 16.2848 4.24632C17.6211 4.77809 18.7904 5.51318 19.7927 6.45159C20.795 7.35873 21.5801 8.43791 22.148 9.68912C22.716 10.9403 23 12.2854 23 13.7243C23 15.1631 22.716 16.5083 22.148 17.7595C21.5801 19.0106 20.795 20.1055 19.7927 21.0439C18.7904 21.9511 17.6211 22.6705 16.2848 23.2023C14.9483 23.7341 13.5284 24 12.025 24C10.4882 24 9.05163 23.7341 7.71525 23.2023C6.37889 22.6705 5.20956 21.9511 4.20728 21.0439C3.23843 20.1055 2.47001 19.0106 1.90205 17.7595C1.3341 16.5083 1.05013 15.1631 1.05013 13.7243C1.05013 13.3802 1.15036 13.1143 1.35081 12.9266C1.58467 12.7077 1.88535 12.5982 2.25286 12.5982C2.62035 12.5982 2.90432 12.7077 3.10478 12.9266C3.33865 13.1143 3.45559 13.3802 3.45559 13.7243C3.45559 14.8504 3.67274 15.8983 4.10705 16.8681C4.57479 17.8377 5.19286 18.6823 5.96128 19.4016C6.72968 20.1211 7.63173 20.6842 8.66742 21.0908C9.7031 21.4975 10.8223 21.7008 12.025 21.7008C13.2278 21.7008 14.347 21.4975 15.3827 21.0908C16.4183 20.6842 17.3204 20.1211 18.0888 19.4016C18.8572 18.6823 19.4585 17.8377 19.8929 16.8681C20.3272 15.8983 20.5443 14.8504 20.5443 13.7243C20.5443 12.5982 20.3272 11.5503 19.8929 10.5806C19.4585 9.61092 18.8572 8.76635 18.0888 8.0469C17.3204 7.32744 16.4183 6.76439 15.3827 6.35775C14.347 5.95111 13.2278 5.74778 12.025 5.74778H5.15946L6.7631 7.20232C7.03036 7.45257 7.16401 7.7341 7.16401 8.0469C7.16401 8.32842 7.03036 8.5943 6.7631 8.84455C6.19514 9.31375 5.62718 9.31375 5.05923 8.84455L1.40091 5.41934C1.13365 5.16909 1 4.90321 1 4.62169C1 4.30889 1.13365 4.02736 1.40091 3.77711L5.05923 0.351905C5.62718 -0.117302 6.19514 -0.117302 6.7631 0.351905C7.03036 0.602154 7.16401 0.883678 7.16401 1.19648C7.16401 1.478 7.03036 1.74388 6.7631 1.99413L5.15946 3.44867H12.025ZM11.5239 18.0878C11.3569 18.1818 11.1564 18.2599 10.9225 18.3225C10.6887 18.3538 10.4882 18.3069 10.3212 18.1818C10.1207 18.0566 9.93696 17.9159 9.76993 17.7595C9.63628 17.603 9.56947 17.3997 9.56947 17.1494V10.2991C9.56947 9.82988 9.82003 9.48579 10.3212 9.26683C10.4882 9.14172 10.6887 9.11043 10.9225 9.17299C11.1898 9.20427 11.3903 9.28248 11.5239 9.4076L16.385 12.8328C16.5186 12.9579 16.6355 13.0987 16.7357 13.2551C16.8359 13.4115 16.8861 13.5678 16.8861 13.7243C16.8861 13.8807 16.8359 14.0528 16.7357 14.2405C16.6355 14.3968 16.5186 14.5376 16.385 14.6627L11.5239 18.0878Z"/>&#xa;<defs>&#xa;<linearGradient gradientUnits="userSpaceOnUse" y2="24" x2="12" y1="0" x1="12" id="paint0_linear_995_74">&#xa;<stop stop-color="#5B738B"/>&#xa;<stop stop-color="#223548" offset="1"/>&#xa;</linearGradient>&#xa;</defs>&#xa;</svg>