<svg xmlns:xlink="http://www.w3.org/1999/xlink" xmlns="http://www.w3.org/2000/svg" viewBox="0 0 229.427 39.832" id="a"><defs><linearGradient gradientUnits="userSpaceOnUse" y2="39.832" x2="40.258" y1="0" x1="40.258" id="b"><stop stop-color="#00b8f1" offset="0"/><stop stop-color="#00b5ef" offset=".016"/><stop stop-color="#0d90d8" offset=".308"/><stop stop-color="#1675c8" offset=".578"/><stop stop-color="#1c64be" offset=".817"/><stop stop-color="#1e5fbb" offset="1"/></linearGradient></defs><polyline fill-rule="evenodd" fill="url(#b)" points="0 39.832 40.692 39.832 80.517 0 0 0 0 39.832"/><path fill-rule="evenodd" fill="#fff" d="m47.782,7.489l-7.925-.005v18.845l-6.924-18.845h-6.865l-5.912,15.759c-.63-3.973-4.74-5.345-7.974-6.374-2.135-.686-4.401-1.694-4.38-2.809.017-.915,1.215-1.765,3.589-1.637,1.595.084,3.001.213,5.8,1.563l2.753-4.795c-2.555-1.3-6.086-2.121-8.978-2.124h-.017c-3.374,0-6.185,1.093-7.928,2.894-1.214,1.258-1.869,2.856-1.896,4.623-.044,2.432.848,4.157,2.721,5.533,1.583,1.16,3.606,1.912,5.39,2.465,2.201.681,3.996,1.274,3.975,2.539-.016.459-.191.888-.521,1.236-.548.566-1.391.779-2.555.799-2.244.048-3.91-.303-6.562-1.87l-2.448,4.861c2.644,1.506,5.776,2.388,8.972,2.388l.411-.006c2.782-.05,5.026-.842,6.82-2.286.103-.081.196-.166.291-.25l-.795,2.123h7.2l1.208-3.674c1.265.433,2.704.671,4.232.671,1.487,0,2.889-.229,4.131-.635l1.164,3.637h11.742v-7.607h2.561c6.188,0,9.851-3.154,9.851-8.436,0-5.885-3.557-8.585-11.132-8.585Zm-18.317,16.124c-.925,0-1.792-.16-2.539-.443l2.512-7.926h.048l2.468,7.948c-.742.263-1.589.421-2.488.421Zm18.783-4.553h-1.746v-6.386h1.746c2.328,0,4.185.773,4.185,3.151,0,2.461-1.857,3.236-4.185,3.236"/><path fill="#002a86" d="m78.605,28.39l2.991-3.008c1.513,1.97,3.624,3.29,7.107,3.29,2.85,0,5.014-.95,5.014-3.272,0-2.445-2.498-3.149-5.876-3.976-3.888-.933-8.111-2.217-8.111-7.389,0-4.874,3.994-7.002,9.131-7.002,4.046,0,6.967,1.337,8.885,3.572l-2.903,2.903c-1.53-1.742-3.431-2.692-6.14-2.692-3.061,0-4.381,1.267-4.381,2.956,0,2.234,2.27,2.833,5.401,3.625,4.17.985,8.604,2.164,8.604,7.653,0,4.451-3.325,7.495-9.711,7.495-4.68,0-7.987-1.566-10.011-4.152Z"/><path fill="#002a86" d="m109.94,6.275h3.87l-10.854,27.041h-3.871l10.855-27.041Z"/><path fill="#002a86" d="m123.456,27.299h-11.365v-3.677l10.819-16.221h4.715v16.256h3.308v3.642h-3.308v4.891h-4.169v-4.891Zm0-3.642v-8.04c0-.985,0-2.182.07-3.22-.335.616-.897,1.478-1.267,2.076l-5.067,7.6c-.299.44-.792,1.179-1.091,1.583h7.354Z"/><path fill="#002a86" d="m134.124,7.401h4.68v9.817h10.979V7.401h4.697v24.789h-4.697v-10.662h-10.979v10.662h-4.68V7.401Z"/><path fill="#002a86" d="m165.85,7.401h5.472l9.096,24.789h-4.803l-2.023-6.035h-10.116l-2.023,6.035h-4.68l9.078-24.789Zm6.475,14.972l-2.533-7.565c-.423-1.231-1.003-2.903-1.268-3.818-.264.915-.809,2.586-1.231,3.818l-2.533,7.565h7.565Z"/><path fill="#002a86" d="m182.693,7.401h5.507l11.207,19.546c-.088-1.003-.158-3.255-.158-5.454V7.401h4.24v24.789h-5.647l-11.066-19.3c.088,1.003.158,3.237.158,5.454v13.846h-4.24V7.401Z"/><path fill="#002a86" d="m214.859,7.401h5.472l9.096,24.789h-4.803l-2.023-6.035h-10.116l-2.023,6.035h-4.68l9.078-24.789Zm6.475,14.972l-2.533-7.565c-.423-1.231-1.003-2.903-1.268-3.818-.264.915-.809,2.586-1.231,3.818l-2.533,7.565h7.565Z"/></svg>