<svg xmlns:xlink="http://www.w3.org/1999/xlink" xmlns="http://www.w3.org/2000/svg" viewBox="0 0 216.282 40.037" id="a"><defs><linearGradient gradientUnits="userSpaceOnUse" y2="39.832" x2="40.258" y1="0" x1="40.258" id="b"><stop stop-color="#00b8f1" offset="0"/><stop stop-color="#00b5ef" offset=".016"/><stop stop-color="#0d90d8" offset=".308"/><stop stop-color="#1675c8" offset=".578"/><stop stop-color="#1c64be" offset=".817"/><stop stop-color="#1e5fbb" offset="1"/></linearGradient></defs><polyline fill-rule="evenodd" fill="url(#b)" points="0 39.832 40.692 39.832 80.517 0 0 0 0 39.832"/><path fill-rule="evenodd" fill="#fff" d="m47.782,7.489l-7.925-.005v18.845l-6.924-18.845h-6.865l-5.912,15.759c-.63-3.973-4.74-5.345-7.974-6.374-2.135-.686-4.401-1.694-4.38-2.809.017-.915,1.215-1.765,3.589-1.637,1.595.084,3.001.213,5.8,1.563l2.753-4.795c-2.555-1.3-6.086-2.121-8.978-2.124h-.017c-3.374,0-6.185,1.093-7.928,2.894-1.214,1.258-1.869,2.856-1.896,4.623-.044,2.432.848,4.157,2.721,5.533,1.583,1.16,3.606,1.912,5.39,2.465,2.201.681,3.996,1.274,3.975,2.539-.016.459-.191.888-.521,1.236-.548.566-1.391.779-2.555.799-2.244.048-3.91-.303-6.562-1.87l-2.448,4.861c2.644,1.506,5.776,2.388,8.972,2.388l.411-.006c2.782-.05,5.026-.842,6.82-2.286.103-.081.196-.166.291-.25l-.795,2.123h7.2l1.208-3.674c1.265.433,2.704.671,4.232.671,1.487,0,2.889-.229,4.131-.635l1.164,3.637h11.742v-7.607h2.561c6.188,0,9.851-3.154,9.851-8.436,0-5.885-3.557-8.585-11.132-8.585Zm-18.317,16.124c-.925,0-1.792-.16-2.539-.443l2.512-7.926h.048l2.468,7.948c-.742.263-1.589.421-2.488.421Zm18.783-4.553h-1.746v-6.386h1.746c2.328,0,4.185.773,4.185,3.151,0,2.461-1.857,3.236-4.185,3.236"/><path fill="#002a86" d="m77.605,28.39l2.991-3.008c1.513,1.97,3.624,3.29,7.107,3.29,2.85,0,5.014-.95,5.014-3.272,0-2.445-2.498-3.149-5.876-3.976-3.888-.933-8.111-2.217-8.111-7.389,0-4.874,3.994-7.002,9.131-7.002,4.046,0,6.967,1.337,8.885,3.572l-2.903,2.903c-1.53-1.742-3.431-2.692-6.14-2.692-3.061,0-4.381,1.267-4.381,2.956,0,2.234,2.27,2.833,5.401,3.625,4.17.985,8.604,2.164,8.604,7.653,0,4.451-3.325,7.495-9.711,7.495-4.68,0-7.987-1.566-10.011-4.152Z"/><path fill="#002a86" d="m100.745,7.577c0-1.548,1.108-2.621,2.656-2.621s2.674,1.073,2.674,2.621-1.126,2.604-2.674,2.604-2.656-1.056-2.656-2.604Zm.439,5.366h4.451v19.247h-4.451V12.943Z"/><path fill="#002a86" d="m108.95,35.251c0-2.023,1.442-3.466,3.554-4.029-1.372-.51-2.234-1.354-2.234-2.815,0-1.583,1.003-2.797,2.832-3.483-2.076-1.108-3.185-3.079-3.185-5.612,0-3.659,2.411-6.738,7.864-6.738,2.006,0,3.572.405,4.769,1.073.615-2.234,1.864-3.677,4.31-3.677h.616v3.87h-.651c-1.706,0-2.498.211-3.131.651,1.319,1.231,1.917,2.956,1.917,4.82,0,3.571-2.516,6.633-7.899,6.633-1.249,0-2.357-.158-3.325-.475-.264.299-.439.651-.439,1.056,0,1.319,1.495,1.513,4.873,1.689,4.839.229,8.779.933,8.779,5.489,0,4.187-3.079,6.333-9.817,6.333-6.333,0-8.831-1.953-8.831-4.786Zm9.061,1.583c3.466,0,5.137-.721,5.137-2.656,0-1.636-1.407-1.971-4.961-2.129-1.479-.088-2.886-.176-4.1-.405-.668.563-1.108,1.319-1.108,2.357,0,1.953,1.302,2.833,5.032,2.833Zm3.29-17.523c0-2.234-1.303-3.624-3.484-3.624-2.234,0-3.589,1.39-3.589,3.624,0,2.34,1.426,3.519,3.466,3.519,2.217,0,3.607-1.407,3.607-3.519Z"/><path fill="#002a86" d="m129.825,12.943h4.311v4.046h.07c.88-2.199,2.639-4.416,6.316-4.416,4.134,0,5.981,2.815,5.981,6.914v12.703h-4.451v-11.629c0-2.586-.897-4.152-3.483-4.152-2.657,0-4.293,1.759-4.293,4.997v10.785h-4.451V12.943Z"/><path fill="#002a86" d="m149.82,26.948c0-4.135,3.377-6.07,8.375-6.07h3.483v-1.108c0-2.322-1.126-3.589-3.466-3.589-2.182,0-3.713.932-4.909,2.445l-2.656-2.639c1.776-1.935,4.188-3.413,8.04-3.413,4.891,0,7.425,2.551,7.425,7.213v12.403h-4.293v-3.571h-.105c-1.179,2.691-3.114,3.923-6.141,3.923-3.36,0-5.752-2.006-5.752-5.595Zm7.336,2.164c2.867,0,4.521-2.164,4.521-4.434v-1.25h-2.728c-2.551,0-4.697.687-4.697,3.097,0,1.601,1.091,2.586,2.903,2.586Z"/><path fill="#002a86" d="m167.88,12.943h4.75l3.466,11.242c.388,1.267.88,3.026,1.161,4.152.265-1.126.827-2.885,1.214-4.152l3.607-11.242h4.732l-6.861,19.247h-5.454l-6.615-19.247Z"/><path fill="#002a86" d="m188.526,7.577c0-1.548,1.108-2.621,2.656-2.621s2.674,1.073,2.674,2.621-1.126,2.604-2.674,2.604-2.656-1.056-2.656-2.604Zm.439,5.366h4.451v19.247h-4.451V12.943Z"/><path fill="#002a86" d="m196.683,22.567c0-6.07,4.047-9.993,9.8-9.993s9.799,3.923,9.799,9.993-4.046,9.976-9.799,9.976-9.8-3.906-9.8-9.976Zm14.937,0c0-4.152-2.146-6.369-5.137-6.369s-5.138,2.217-5.138,6.369,2.146,6.369,5.138,6.369,5.137-2.234,5.137-6.369Z"/></svg>