<svg xmlns="http://www.w3.org/2000/svg" fill="none" viewBox="0 0 16 16" height="16" width="16">&#xa;<circle stroke-width="0.285708" stroke="#D5DADD" fill="url(#paint0_linear_3890_21474)" r="7.85696" cy="7.99884" cx="7.99591"/>&#xa;<g clip-path="url(#clip0_3890_21474)">&#xa;<path fill="url(#paint1_linear_3890_21474)" d="M12.466 6.49177C12.6867 6.40768 12.918 6.5233 13.0021 6.73352C13.0861 6.94375 12.9546 7.39982 12.7234 7.48391L12.6603 7.50493C11.7879 7.83078 10.8734 7.96134 9.94846 7.96134L6.04882 7.99895C5.12386 7.99895 4.20934 7.83078 3.33694 7.50493L3.27387 7.48391C3.06365 7.39982 2.97469 6.94375 3.05877 6.73352C3.14286 6.5233 3.38461 6.40768 3.59483 6.49177L3.65789 6.51279C4.03629 6.65995 4.42519 6.76506 4.81409 6.83864L5.36065 4.831C5.58138 4.05317 6.28561 3.50659 7.09495 3.50659H8.96588C9.77522 3.50659 10.49 4.05317 10.7002 4.831L11.2467 6.83864C11.6462 6.76506 12.0245 6.64943 12.4029 6.51279L12.466 6.49177Z"/>&#xa;<path fill="url(#paint2_linear_3890_21474)" d="M4.69629 10.1803C4.69629 9.34014 5.37944 8.65698 6.21956 8.65698C6.82998 8.65698 7.35866 9.01548 7.59973 9.53678C7.88868 9.48133 8.17794 9.48141 8.46688 9.537C8.71568 9.01693 9.23391 8.65698 9.84591 8.65698C10.6856 8.65698 11.3695 9.33983 11.3587 10.1809C11.3583 11.0207 10.6753 11.7035 9.8354 11.7035C9.1261 11.7035 8.52449 11.2051 8.35849 10.5489C8.14536 10.4907 7.91849 10.4905 7.69653 10.5494C7.53048 11.2156 6.92824 11.7035 6.21956 11.7035C5.37944 11.7035 4.69629 11.0204 4.69629 10.1803ZM5.72468 10.1908C5.72468 9.90725 5.95492 9.68538 6.23007 9.68538C6.51358 9.68538 6.73546 9.91562 6.73546 10.1908C6.73546 10.4659 6.51358 10.6962 6.23007 10.6962C5.94656 10.6962 5.72468 10.4659 5.72468 10.1908ZM9.84591 9.68538C9.57077 9.68538 9.34052 9.90725 9.34052 10.1908C9.34052 10.4659 9.5624 10.6962 9.84591 10.6962C10.1294 10.6962 10.3513 10.4659 10.3513 10.1908C10.3513 9.91562 10.1294 9.68538 9.84591 9.68538Z" clip-rule="evenodd" fill-rule="evenodd"/>&#xa;</g>&#xa;<defs>&#xa;<linearGradient gradientUnits="userSpaceOnUse" y2="14.7468" x2="13.6839" y1="2.26992" x1="1.44702" id="paint0_linear_3890_21474">&#xa;<stop stop-color="white"/>&#xa;<stop stop-color="#EAECEE" offset="1"/>&#xa;</linearGradient>&#xa;<linearGradient gradientUnits="userSpaceOnUse" y2="9.4137" x2="6.87743" y1="4.1784" x1="4.52642" id="paint1_linear_3890_21474">&#xa;<stop stop-color="#0195FF"/>&#xa;<stop stop-color="#1147E9" offset="0.991028"/>&#xa;</linearGradient>&#xa;<linearGradient gradientUnits="userSpaceOnUse" y2="12.6372" x2="7.28945" y1="9.10519" x1="5.6813" id="paint2_linear_3890_21474">&#xa;<stop stop-color="#1348FF"/>&#xa;<stop stop-color="#06238D" offset="1"/>&#xa;</linearGradient>&#xa;<clipPath id="clip0_3890_21474">&#xa;<rect transform="translate(2.99609 2.99902)" fill="white" height="9.99997" width="9.99995"/>&#xa;</clipPath>&#xa;</defs>&#xa;</svg>