<svg xmlns:xlink="http://www.w3.org/1999/xlink" xmlns="http://www.w3.org/2000/svg" viewBox="0 0 162.68 39.832" id="a"><defs><linearGradient gradientUnits="userSpaceOnUse" y2="39.832" x2="40.258" y1="0" x1="40.258" id="b"><stop stop-color="#00b8f1" offset="0"/><stop stop-color="#00b5ef" offset=".016"/><stop stop-color="#0d90d8" offset=".308"/><stop stop-color="#1675c8" offset=".578"/><stop stop-color="#1c64be" offset=".817"/><stop stop-color="#1e5fbb" offset="1"/></linearGradient></defs><polyline fill-rule="evenodd" fill="url(#b)" points="0 39.832 40.692 39.832 80.517 0 0 0 0 39.832"/><path fill-rule="evenodd" fill="#fff" d="m47.782,7.489l-7.925-.005v18.845l-6.924-18.845h-6.865l-5.912,15.759c-.63-3.973-4.74-5.345-7.974-6.374-2.135-.686-4.401-1.694-4.38-2.809.017-.915,1.215-1.765,3.589-1.637,1.595.084,3.001.213,5.8,1.563l2.753-4.795c-2.555-1.3-6.086-2.121-8.978-2.124h-.017c-3.374,0-6.185,1.093-7.928,2.894-1.214,1.258-1.869,2.856-1.896,4.623-.044,2.432.848,4.157,2.721,5.533,1.583,1.16,3.606,1.912,5.39,2.465,2.201.681,3.996,1.274,3.975,2.539-.016.459-.191.888-.521,1.236-.548.566-1.391.779-2.555.799-2.244.048-3.91-.303-6.562-1.87l-2.448,4.861c2.644,1.506,5.776,2.388,8.972,2.388l.411-.006c2.782-.05,5.026-.842,6.82-2.286.103-.081.196-.166.291-.25l-.795,2.123h7.2l1.208-3.674c1.265.433,2.704.671,4.232.671,1.487,0,2.889-.229,4.131-.635l1.164,3.637h11.742v-7.607h2.561c6.188,0,9.851-3.154,9.851-8.436,0-5.885-3.557-8.585-11.132-8.585Zm-18.317,16.124c-.925,0-1.792-.16-2.539-.443l2.512-7.926h.048l2.468,7.948c-.742.263-1.589.421-2.488.421Zm18.783-4.553h-1.746v-6.386h1.746c2.328,0,4.185.773,4.185,3.151,0,2.461-1.857,3.236-4.185,3.236"/><path fill="#002a86" d="m86.997,7.401h5.472l9.096,24.789h-4.803l-2.023-6.035h-10.116l-2.023,6.035h-4.68l9.078-24.789Zm6.475,14.972l-2.533-7.565c-.423-1.231-1.003-2.903-1.268-3.818-.264.915-.809,2.586-1.231,3.818l-2.534,7.565h7.565Z"/><path fill="#002a86" d="m103.342,12.943h4.311v4.134h.07c.651-3.079,2.094-4.504,4.504-4.504.704,0,1.302.123,1.653.247v4.169c-.475-.123-1.179-.229-1.847-.229-3.167,0-4.24,2.181-4.24,5.753v9.676h-4.451V12.943Z"/><path fill="#002a86" d="m115.907,7.577c0-1.548,1.108-2.621,2.656-2.621s2.674,1.073,2.674,2.621-1.126,2.604-2.674,2.604-2.656-1.056-2.656-2.604Zm.439,5.366h4.451v19.247h-4.451V12.943Z"/><path fill="#002a86" d="m129.64,28.232h-.053v3.958h-4.311V5.958h4.451v10.803h.088c.915-2.182,3.062-4.188,6.791-4.188,4.997,0,8.005,3.994,8.005,9.993,0,6.193-3.272,9.976-8.163,9.976-4.064,0-5.876-2.094-6.809-4.311Zm10.31-5.665c0-4.152-2.146-6.369-5.137-6.369s-5.12,2.217-5.12,6.369,2.129,6.369,5.12,6.369,5.137-2.234,5.137-6.369Z"/><path fill="#002a86" d="m146.389,26.948c0-4.135,3.378-6.07,8.375-6.07h3.483v-1.108c0-2.322-1.126-3.589-3.466-3.589-2.182,0-3.713.932-4.909,2.445l-2.656-2.639c1.776-1.935,4.187-3.413,8.04-3.413,4.891,0,7.425,2.551,7.425,7.213v12.403h-4.293v-3.571h-.105c-1.179,2.691-3.114,3.923-6.141,3.923-3.36,0-5.752-2.006-5.752-5.595Zm7.336,2.164c2.867,0,4.521-2.164,4.521-4.434v-1.25h-2.728c-2.551,0-4.697.687-4.697,3.097,0,1.601,1.091,2.586,2.903,2.586Z"/></svg>