<svg xmlns:xlink="http://www.w3.org/1999/xlink" xmlns="http://www.w3.org/2000/svg" viewBox="0 0 430.847 39.832" id="a"><defs><linearGradient gradientUnits="userSpaceOnUse" y2="39.832" x2="40.258" y1="0" x1="40.258" id="b"><stop stop-color="#00b8f1" offset="0"/><stop stop-color="#00b5ef" offset=".016"/><stop stop-color="#0d90d8" offset=".308"/><stop stop-color="#1675c8" offset=".578"/><stop stop-color="#1c64be" offset=".817"/><stop stop-color="#1e5fbb" offset="1"/></linearGradient></defs><polyline fill-rule="evenodd" fill="url(#b)" points="0 39.832 40.692 39.832 80.517 0 0 0 0 39.832"/><path fill-rule="evenodd" fill="#fff" d="m47.782,7.489l-7.925-.005v18.845l-6.924-18.845h-6.865l-5.912,15.759c-.63-3.973-4.74-5.345-7.974-6.374-2.135-.686-4.401-1.694-4.38-2.809.017-.915,1.215-1.765,3.589-1.637,1.595.084,3.001.213,5.8,1.563l2.753-4.795c-2.555-1.3-6.086-2.121-8.978-2.124h-.017c-3.374,0-6.185,1.093-7.928,2.894-1.214,1.258-1.869,2.856-1.896,4.623-.044,2.432.848,4.157,2.721,5.533,1.583,1.16,3.606,1.912,5.39,2.465,2.201.681,3.996,1.274,3.975,2.539-.016.459-.191.888-.521,1.236-.548.566-1.391.779-2.555.799-2.244.048-3.91-.303-6.562-1.87l-2.448,4.861c2.644,1.506,5.776,2.388,8.972,2.388l.411-.006c2.782-.05,5.026-.842,6.82-2.286.103-.081.196-.166.291-.25l-.795,2.123h7.2l1.208-3.674c1.265.433,2.704.671,4.232.671,1.487,0,2.889-.229,4.131-.635l1.164,3.637h11.742v-7.607h2.561c6.188,0,9.851-3.154,9.851-8.436,0-5.885-3.557-8.585-11.132-8.585Zm-18.317,16.124c-.925,0-1.792-.16-2.539-.443l2.512-7.926h.048l2.468,7.948c-.742.263-1.589.421-2.488.421Zm18.783-4.553h-1.746v-6.386h1.746c2.328,0,4.185.773,4.185,3.151,0,2.461-1.857,3.236-4.185,3.236"/><path fill="#002a86" d="m79.133,19.787c0-8.673,5.56-12.755,12.614-12.755,4.293,0,7.495,1.496,9.747,4.082l-3.149,3.149c-1.425-1.847-3.448-3.079-6.58-3.079-4.891,0-7.793,2.991-7.793,8.603s2.903,8.621,7.793,8.621c3.132,0,5.155-1.231,6.58-3.079l3.149,3.149c-2.234,2.569-5.472,4.064-9.747,4.064-7.055,0-12.614-4.064-12.614-12.755Z"/><path fill="#002a86" d="m103.79,25.628v-12.685h4.469v11.629c0,2.569.88,4.152,3.466,4.152,2.656,0,4.311-1.777,4.311-5.014v-10.767h4.434v19.247h-4.293v-4.064h-.088c-.88,2.217-2.621,4.416-6.316,4.416-4.116,0-5.981-2.815-5.981-6.915Z"/><path fill="#002a86" d="m122.989,29.569l2.675-2.674c1.53,1.689,3.185,2.217,5.207,2.217,1.953,0,3.484-.563,3.484-2.146,0-1.742-1.637-2.217-4.398-2.938-2.974-.774-6.07-2.023-6.07-5.824,0-3.571,2.745-5.63,7.302-5.63,2.973,0,5.419.915,7.143,2.622l-2.604,2.604c-1.302-1.337-2.903-1.83-4.469-1.83-1.848,0-3.062.633-3.062,2.041,0,1.425,1.566,1.882,4.17,2.568,3.044.774,6.315,1.83,6.315,6.07,0,3.73-3.008,5.894-7.74,5.894-3.36,0-6.088-.95-7.953-2.974Z"/><path fill="#002a86" d="m142.549,27.387v-10.996h-2.814v-2.041l6.422-6.404h.844v4.997h4.169v3.448h-4.169v10.134c0,1.689.546,2.146,2.059,2.146.757,0,1.478-.123,2.111-.299v3.818c-.774.193-1.917.317-3.043.317-3.87,0-5.577-1.425-5.577-5.12Z"/><path fill="#002a86" d="m152.87,22.567c0-6.07,4.047-9.993,9.8-9.993s9.799,3.923,9.799,9.993-4.046,9.976-9.799,9.976-9.8-3.906-9.8-9.976Zm14.937,0c0-4.152-2.146-6.369-5.137-6.369s-5.138,2.217-5.138,6.369,2.146,6.369,5.138,6.369,5.137-2.234,5.137-6.369Z"/><path fill="#002a86" d="m175.75,12.961h4.311v4.046h.07c.897-2.78,2.814-4.434,5.683-4.434,2.656,0,4.539,1.373,5.208,4.434h.105c.915-3.061,3.149-4.434,5.894-4.434,3.765,0,5.612,2.252,5.612,6.844v12.773h-4.451v-11.717c0-2.533-.739-4.064-2.974-4.064-2.34,0-3.8,1.724-3.8,4.926v10.855h-4.434v-11.717c0-2.533-.757-4.064-2.991-4.064-2.357,0-3.782,1.724-3.782,4.926v10.855h-4.451V12.961Z"/><path fill="#002a86" d="m205.754,22.567c0-6.703,4.416-9.993,9.659-9.993,6.438,0,8.726,4.715,8.726,9.395,0,.563-.035,1.144-.07,1.689h-13.617c.316,3.659,2.217,5.401,5.56,5.401,2.164,0,3.606-.633,4.908-2.146l2.587,2.586c-1.795,2.023-3.994,3.044-7.706,3.044-6.176,0-10.046-3.537-10.046-9.976Zm13.951-1.671c-.246-3.396-1.899-4.891-4.398-4.891-2.463,0-4.345,1.496-4.785,4.891h9.184Z"/><path fill="#002a86" d="m227.421,12.943h4.311v4.134h.07c.651-3.079,2.094-4.504,4.504-4.504.704,0,1.302.123,1.653.247v4.169c-.475-.123-1.179-.229-1.847-.229-3.167,0-4.24,2.181-4.24,5.753v9.676h-4.451V12.943Z"/><path fill="#002a86" d="m249.029,7.401h16.907v4.029h-12.228v6.14h11.172v3.941h-11.172v6.65h12.949v4.029h-17.629V7.401Z"/><path fill="#002a86" d="m277.192,24.959l-4.433,7.231h-4.892l6.598-9.747-6.281-9.5h4.997l4.152,6.949,4.134-6.949h4.856l-6.281,9.483,6.615,9.764h-5.032l-4.434-7.231Z"/><path fill="#002a86" d="m289.059,12.943h4.311v3.958h.053c.933-2.217,2.744-4.328,6.809-4.328,4.891,0,8.163,3.8,8.163,9.993,0,6-3.008,9.976-8.005,9.976-3.729,0-5.876-1.988-6.791-4.17h-.088v11.313h-4.451V12.943Zm14.673,9.624c0-4.152-2.146-6.369-5.137-6.369s-5.12,2.217-5.12,6.369,2.129,6.369,5.12,6.369,5.137-2.234,5.137-6.369Z"/><path fill="#002a86" d="m310.514,22.567c0-6.703,4.416-9.993,9.659-9.993,6.438,0,8.726,4.715,8.726,9.395,0,.563-.035,1.144-.07,1.689h-13.617c.316,3.659,2.217,5.401,5.56,5.401,2.164,0,3.606-.633,4.908-2.146l2.587,2.586c-1.795,2.023-3.994,3.044-7.706,3.044-6.176,0-10.046-3.537-10.046-9.976Zm13.951-1.671c-.246-3.396-1.899-4.891-4.398-4.891-2.463,0-4.345,1.496-4.785,4.891h9.184Z"/><path fill="#002a86" d="m332.181,12.943h4.311v4.134h.07c.651-3.079,2.094-4.504,4.504-4.504.704,0,1.302.123,1.653.247v4.169c-.475-.123-1.179-.229-1.847-.229-3.167,0-4.24,2.181-4.24,5.753v9.676h-4.451V12.943Z"/><path fill="#002a86" d="m345.106,7.577c0-1.548,1.108-2.621,2.656-2.621s2.674,1.073,2.674,2.621-1.126,2.604-2.674,2.604-2.656-1.056-2.656-2.604Zm.439,5.366h4.451v19.247h-4.451V12.943Z"/><path fill="#002a86" d="m353.083,22.567c0-6.703,4.416-9.993,9.659-9.993,6.438,0,8.726,4.715,8.726,9.395,0,.563-.035,1.144-.07,1.689h-13.617c.316,3.659,2.217,5.401,5.56,5.401,2.164,0,3.606-.633,4.908-2.146l2.587,2.586c-1.795,2.023-3.994,3.044-7.706,3.044-6.176,0-10.046-3.537-10.046-9.976Zm13.951-1.671c-.246-3.396-1.899-4.891-4.398-4.891-2.463,0-4.345,1.496-4.785,4.891h9.184Z"/><path fill="#002a86" d="m374.569,12.943h4.311v4.046h.07c.88-2.199,2.639-4.416,6.316-4.416,4.134,0,5.981,2.815,5.981,6.914v12.703h-4.451v-11.629c0-2.586-.897-4.152-3.483-4.152-2.657,0-4.293,1.759-4.293,4.997v10.785h-4.451V12.943Z"/><path fill="#002a86" d="m394.191,22.567c0-6.404,4.012-9.993,9.694-9.993,3.642,0,6.157,1.443,7.688,3.519l-2.85,2.516c-1.108-1.548-2.586-2.41-4.645-2.41-3.114,0-5.226,2.111-5.226,6.369s2.111,6.369,5.226,6.369c2.041,0,3.519-.879,4.645-2.428l2.85,2.533c-1.53,2.076-4.046,3.501-7.688,3.501-5.683,0-9.694-3.589-9.694-9.976Z"/><path fill="#002a86" d="m412.463,22.567c0-6.703,4.416-9.993,9.659-9.993,6.438,0,8.726,4.715,8.726,9.395,0,.563-.035,1.144-.07,1.689h-13.617c.316,3.659,2.217,5.401,5.56,5.401,2.164,0,3.606-.633,4.908-2.146l2.587,2.586c-1.795,2.023-3.994,3.044-7.706,3.044-6.176,0-10.046-3.537-10.046-9.976Zm13.951-1.671c-.246-3.396-1.899-4.891-4.398-4.891-2.463,0-4.345,1.496-4.785,4.891h9.184Z"/></svg>