<svg xmlns="http://www.w3.org/2000/svg" fill="none" viewBox="0 0 16 16" height="16" width="16">&#xa;<circle stroke-width="0.285708" stroke="#D5DADD" fill="url(#paint0_linear_3890_21416)" r="7.85696" cy="7.99982" cx="7.99982"/>&#xa;<g clip-path="url(#clip0_3890_21416)">&#xa;<path fill="url(#paint1_linear_3890_21416)" d="M10.479 6.7456C10.4335 5.99268 10.0388 5.24241 9.17717 4.97724C8.9028 4.91262 8.73278 4.63781 8.7974 4.36345C8.86203 4.08908 9.13684 3.91905 9.4112 3.98368C10.2297 4.03383 11.4904 5.16304 11.9007 6.56714C11.9609 6.5873 12.0207 6.61113 12.0796 6.63872C12.9093 7.02715 13.267 8.01461 12.8785 8.84427C12.4901 9.67393 11.5026 10.0316 10.673 9.64319C9.84332 9.25476 9.48563 8.2673 9.87406 7.43764C10.0117 7.14361 10.2246 6.90887 10.479 6.7456ZM11.1058 8.71874C11.4249 8.86814 11.8047 8.73056 11.9541 8.41146C12.1035 8.09236 11.9659 7.71257 11.6468 7.56317C11.3277 7.41378 10.9479 7.55135 10.7985 7.87045C10.6491 8.18955 10.7867 8.56934 11.1058 8.71874Z" clip-rule="evenodd" fill-rule="evenodd"/>&#xa;<path fill="url(#paint2_linear_3890_21416)" d="M7.90115 10.683C8.57234 11.0272 9.41904 11.0694 10.0859 10.4628C10.2813 10.2596 10.6043 10.2532 10.8076 10.4485C11.0108 10.6438 11.0172 10.9669 10.8219 11.1701C10.362 11.8491 8.7483 12.3592 7.33091 11.9975C7.28289 12.0391 7.23198 12.0783 7.17823 12.115C6.4215 12.6313 5.38949 12.4364 4.87318 11.6797C4.35687 10.923 4.55176 9.89096 5.30849 9.37464C6.06522 8.85833 7.09722 9.05322 7.61354 9.80995C7.79652 10.0781 7.89017 10.3809 7.90115 10.683ZM5.88379 10.2178C5.59274 10.4164 5.51778 10.8133 5.71637 11.1044C5.91495 11.3954 6.31187 11.4704 6.60292 11.2718C6.89397 11.0732 6.96893 10.6763 6.77035 10.3853C6.57177 10.0942 6.17484 10.0192 5.88379 10.2178Z" clip-rule="evenodd" fill-rule="evenodd"/>&#xa;<path fill="url(#paint3_linear_3890_21416)" d="M5.73997 6.338C5.12472 6.77437 4.69618 7.50587 4.92616 8.37753C5.01622 8.64463 4.87269 8.93417 4.60559 9.02422C4.33849 9.11428 4.04896 8.97075 3.95891 8.70365C3.56914 7.98218 3.862 6.31526 4.83747 5.22518C4.82276 5.16336 4.81143 5.10004 4.80373 5.03542C4.69529 4.12577 5.34479 3.30044 6.25444 3.192C7.16409 3.08356 7.98941 3.73306 8.09785 4.64271C8.2063 5.55236 7.55679 6.37768 6.64714 6.48613C6.32478 6.52456 6.013 6.4678 5.73997 6.338ZM7.08428 4.76354C7.04257 4.41368 6.72513 4.16387 6.37527 4.20558C6.02541 4.24729 5.7756 4.56472 5.81731 4.91458C5.85901 5.26445 6.17645 5.51426 6.52631 5.47255C6.87617 5.43084 7.12598 5.11341 7.08428 4.76354Z" clip-rule="evenodd" fill-rule="evenodd"/>&#xa;</g>&#xa;<defs>&#xa;<linearGradient gradientUnits="userSpaceOnUse" y2="14.7478" x2="13.6878" y1="2.2709" x1="1.45092" id="paint0_linear_3890_21416">&#xa;<stop stop-color="white"/>&#xa;<stop stop-color="#EAECEE" offset="1"/>&#xa;</linearGradient>&#xa;<linearGradient gradientUnits="userSpaceOnUse" y2="7.67668" x2="13.3061" y1="4.84467" x1="9.42" id="paint1_linear_3890_21416">&#xa;<stop stop-color="#00BBFF"/>&#xa;<stop stop-color="#008BFF" offset="1"/>&#xa;</linearGradient>&#xa;<linearGradient gradientUnits="userSpaceOnUse" y2="13.2398" x2="7.44231" y1="9.58209" x1="5.54084" id="paint2_linear_3890_21416">&#xa;<stop stop-color="#0195FF"/>&#xa;<stop stop-color="#1147E9" offset="0.991028"/>&#xa;</linearGradient>&#xa;<linearGradient gradientUnits="userSpaceOnUse" y2="6.94451" x2="8.35746" y1="4.04392" x1="4.43033" id="paint3_linear_3890_21416">&#xa;<stop stop-color="#1348FF"/>&#xa;<stop stop-color="#06238D" offset="1"/>&#xa;</linearGradient>&#xa;<clipPath id="clip0_3890_21416">&#xa;<rect transform="matrix(-1 0 0 1 13.3999 2.80005)" fill="white" height="10" width="10"/>&#xa;</clipPath>&#xa;</defs>&#xa;</svg>