<svg xmlns="http://www.w3.org/2000/svg" fill="none" viewBox="0 0 49 49" height="49" width="49">&#xa;<g clip-path="url(#clip0_2622_4156)">&#xa;<circle stroke-width="0.857143" stroke="#D5DADD" fill="url(#paint0_linear_2622_4156)" r="23.5714" cy="24.0349" cx="24.5"/>&#xa;<g clip-path="url(#clip1_2622_4156)">&#xa;<path stroke-linecap="round" stroke-width="2.3625" stroke="url(#paint1_radial_2622_4156)" d="M18.7718 15.8024C17.7938 16.4842 16.943 17.3358 16.2621 18.3145M32.738 18.3145C32.0571 17.3358 31.2063 16.4842 30.2282 15.8024M16.2621 29.7553C16.943 30.734 17.7938 31.5856 18.7718 32.2674M30.2283 32.2674C31.2063 31.5856 32.0571 30.734 32.738 29.7553"/>&#xa;<path fill="url(#paint2_radial_2622_4156)" d="M11.0844 24.0626C11.0844 22.2037 12.6003 20.6965 14.47 20.6965C16.3397 20.6965 17.8556 22.2037 17.8556 24.0626C17.8556 25.9216 16.3397 27.4288 14.47 27.4288C12.6003 27.4288 11.0844 25.9216 11.0844 24.0626ZM14.47 22.94C13.847 22.94 13.3417 23.4424 13.3417 24.0618C13.3417 24.6812 13.847 25.1836 14.47 25.1836C15.0929 25.1836 15.5982 24.6812 15.5982 24.0618C15.5982 23.4424 15.0929 22.94 14.47 22.94Z"/>&#xa;<path fill="url(#paint3_radial_2622_4156)" d="M31.1443 24.0626C31.1443 22.2037 32.6602 20.6965 34.5299 20.6965C36.3996 20.6965 37.9156 22.2037 37.9156 24.0626C37.9156 25.9216 36.3996 27.4288 34.5299 27.4288C32.6602 27.4288 31.1443 25.9216 31.1443 24.0626ZM34.5299 22.94C33.907 22.94 33.4017 23.4424 33.4017 24.0618C33.4017 24.6812 33.907 25.1836 34.5299 25.1836C35.1529 25.1836 35.6582 24.6812 35.6582 24.0618C35.6582 23.4424 35.1529 22.94 34.5299 22.94Z"/>&#xa;<path fill="url(#paint4_radial_2622_4156)" d="M24.5106 10.6404C26.3803 10.6404 27.8962 12.1476 27.8962 14.0065C27.8962 15.8655 26.3803 17.3727 24.5106 17.3727C22.6409 17.3727 21.125 15.8655 21.125 14.0065C21.125 12.1476 22.6409 10.6404 24.5106 10.6404ZM25.6397 14.0065C25.6397 13.3872 25.1344 12.8848 24.5115 12.8848C23.8885 12.8848 23.3832 13.3872 23.3832 14.0065C23.3832 14.6259 23.8885 15.1283 24.5115 15.1283C25.1344 15.1283 25.6397 14.6259 25.6397 14.0065Z"/>&#xa;<path fill="url(#paint5_radial_2622_4156)" d="M24.5106 30.6972C26.3803 30.6972 27.8962 32.2044 27.8962 34.0633C27.8962 35.9223 26.3803 37.4295 24.5106 37.4295C22.6409 37.4295 21.125 35.9223 21.125 34.0633C21.125 32.2044 22.6409 30.6972 24.5106 30.6972ZM25.6397 34.0633C25.6397 33.444 25.1344 32.9416 24.5115 32.9416C23.8885 32.9416 23.3832 33.444 23.3832 34.0633C23.3832 34.6827 23.8885 35.1851 24.5115 35.1851C25.1344 35.1851 25.6397 34.6827 25.6397 34.0633Z"/>&#xa;<path fill="url(#paint6_radial_2622_4156)" d="M27.7302 20.4954C28.0002 20.2158 28.3038 20.0759 28.6413 20.0759C28.9787 20.0759 29.2824 20.2158 29.5523 20.4954C29.7885 20.7401 29.9066 21.0373 29.9066 21.3868C29.9066 21.7364 29.7885 22.051 29.5523 22.3307L24.4404 27.6267C24.2042 27.8714 23.9005 27.9938 23.5293 27.9938C23.1582 27.9938 22.8545 27.8714 22.6183 27.6267L20.0876 25.0049C19.8177 24.7253 19.6827 24.4106 19.6827 24.0611C19.6827 23.7115 19.8177 23.3969 20.0876 23.1172C20.3576 22.8376 20.6613 22.6977 20.9987 22.6977C21.3361 22.6977 21.6229 22.8376 21.8591 23.1172L23.5293 24.8476L27.7302 20.4954Z"/>&#xa;</g>&#xa;</g>&#xa;<defs>&#xa;<linearGradient gradientUnits="userSpaceOnUse" y2="44.2792" x2="41.5645" y1="6.84775" x1="4.85287" id="paint0_linear_2622_4156">&#xa;<stop stop-color="white"/>&#xa;<stop stop-color="#EAECEE" offset="1"/>&#xa;</linearGradient>&#xa;<radialGradient gradientTransform="translate(18.8841 18.2735) rotate(44.981) scale(16.312 19.7969)" gradientUnits="userSpaceOnUse" r="1" cy="0" cx="0" id="paint1_radial_2622_4156">&#xa;<stop stop-color="#00BBFF"/>&#xa;<stop stop-color="#008BFF" offset="1"/>&#xa;</radialGradient>&#xa;<radialGradient gradientTransform="translate(12.1344 21.685) rotate(45.1526) scale(6.64763 12.5608)" gradientUnits="userSpaceOnUse" r="1" cy="0" cx="0" id="paint2_radial_2622_4156">&#xa;<stop stop-color="#0195FF"/>&#xa;<stop stop-color="#1147E9" offset="1"/>&#xa;</radialGradient>&#xa;<radialGradient gradientTransform="translate(32.1943 21.685) rotate(45.1526) scale(6.64763 12.5608)" gradientUnits="userSpaceOnUse" r="1" cy="0" cx="0" id="paint3_radial_2622_4156">&#xa;<stop stop-color="#0195FF"/>&#xa;<stop stop-color="#1147E9" offset="1"/>&#xa;</radialGradient>&#xa;<radialGradient gradientTransform="translate(26.902 11.6844) rotate(135.484) scale(6.64806 12.56)" gradientUnits="userSpaceOnUse" r="1" cy="0" cx="0" id="paint4_radial_2622_4156">&#xa;<stop stop-color="#0195FF"/>&#xa;<stop stop-color="#1147E9" offset="1"/>&#xa;</radialGradient>&#xa;<radialGradient gradientTransform="translate(26.902 31.7412) rotate(135.484) scale(6.64806 12.56)" gradientUnits="userSpaceOnUse" r="1" cy="0" cx="0" id="paint5_radial_2622_4156">&#xa;<stop stop-color="#0195FF"/>&#xa;<stop stop-color="#1147E9" offset="1"/>&#xa;</radialGradient>&#xa;<radialGradient gradientTransform="translate(21.2659 21.267) rotate(37.7559) scale(9.00762 7.94728)" gradientUnits="userSpaceOnUse" r="1" cy="0" cx="0" id="paint6_radial_2622_4156">&#xa;<stop stop-color="#1348FF"/>&#xa;<stop stop-color="#06238D" offset="1"/>&#xa;</radialGradient>&#xa;<clipPath id="clip0_2622_4156">&#xa;<rect transform="translate(0.5 0.0349121)" fill="white" height="48" width="48"/>&#xa;</clipPath>&#xa;<clipPath id="clip1_2622_4156">&#xa;<rect transform="translate(11 10.5349)" fill="white" height="27" width="27"/>&#xa;</clipPath>&#xa;</defs>&#xa;</svg>