<svg xmlns="http://www.w3.org/2000/svg" fill="none" viewBox="0 0 16 16" height="16" width="16">&#xa;<circle stroke-width="0.285708" stroke="#D5DADD" fill="url(#paint0_linear_3890_21481)" r="7.85696" cy="7.99835" cx="7.99933"/>&#xa;<g clip-path="url(#clip0_3890_21481)">&#xa;<path fill="url(#paint1_linear_3890_21481)" d="M7.28546 3.41089H7.91268C8.12773 3.41089 8.32486 3.48257 8.50407 3.62594C8.67132 3.75735 8.77288 3.93059 8.80872 4.14564L8.93416 4.73702L9.24979 4.92786L8.96601 5.13928H8.72101C8.16872 5.13928 7.72101 5.58699 7.72101 6.13927C7.72101 6.15089 7.72121 6.16246 7.7216 6.17399C7.68402 6.17178 7.64617 6.17067 7.60803 6.17067C7.35714 6.17067 7.1182 6.21846 6.89121 6.31404C6.66421 6.40962 6.46709 6.54103 6.29983 6.70829C6.13257 6.87555 6.00115 7.06671 5.90557 7.28176C5.80999 7.50875 5.76221 7.74769 5.76221 7.99858C5.76221 8.24947 5.80999 8.48244 5.90557 8.69749C6.00115 8.92449 6.13257 9.12161 6.29983 9.28887C6.46709 9.45613 6.66421 9.58755 6.89121 9.68313C7.1182 9.7787 7.35714 9.82649 7.60803 9.82649C7.64825 9.82649 7.68816 9.82527 7.72777 9.82281C7.72331 9.86115 7.72101 9.90014 7.72101 9.93968C7.72101 10.492 8.16872 10.9397 8.72101 10.9397H8.96601L9.18919 11.1059L8.93416 11.2601L8.80872 11.8515C8.76093 12.0666 8.6534 12.2398 8.48615 12.3712C8.31889 12.5146 8.12773 12.5863 7.91268 12.5863H7.28546C7.07041 12.5863 6.87926 12.5146 6.712 12.3712C6.54474 12.2398 6.43722 12.0666 6.38943 11.8515L6.28191 11.2601L5.4934 10.7942L4.95578 11.0093C4.8602 11.057 4.7467 11.0809 4.61529 11.0809C4.44803 11.0809 4.29271 11.0391 4.14935 10.9555C3.99404 10.8719 3.87457 10.7464 3.79094 10.5792L3.46836 9.9161C3.39668 9.79663 3.36084 9.65923 3.36084 9.50392C3.36084 9.20524 3.48628 8.9663 3.73717 8.78709L4.16727 8.46452V7.53265L3.73717 7.22799C3.48628 7.03684 3.36084 6.79192 3.36084 6.49325C3.36084 6.34988 3.39668 6.21249 3.46836 6.08107L3.79094 5.41801C3.87457 5.25075 3.99404 5.1253 4.14935 5.04167C4.29271 4.95804 4.44803 4.91623 4.61529 4.91623C4.73476 4.91623 4.84825 4.93415 4.95578 4.96999L5.4934 5.20296L6.28191 4.73702L6.38943 4.14564C6.43722 3.93059 6.54474 3.75735 6.712 3.62594C6.87926 3.48257 7.07041 3.41089 7.28546 3.41089Z"/>&#xa;<path fill="url(#paint2_linear_3890_21481)" d="M10.6775 5.07377C10.8346 4.59962 11.2816 4.25757 11.8085 4.25757C12.4664 4.25757 12.9997 4.79091 12.9997 5.44881C12.9997 6.10672 12.4664 6.64005 11.8085 6.64005C11.2816 6.64005 10.8346 6.29797 10.6774 5.82377H10.3995L9.58922 6.42744C9.51369 6.4837 9.42203 6.51409 9.32785 6.51409H8.77202C8.56492 6.51409 8.39702 6.3462 8.39702 6.13909C8.39702 5.93199 8.56492 5.76409 8.77202 5.76409H9.22424L10.0345 5.16043C10.1101 5.10417 10.2017 5.07377 10.2959 5.07377H10.6775ZM11.3672 5.44881C11.3672 5.20512 11.5648 5.00757 11.8085 5.00757C12.0522 5.00757 12.2497 5.20512 12.2497 5.44881C12.2497 5.6925 12.0522 5.89006 11.8085 5.89006C11.5648 5.89006 11.3672 5.6925 11.3672 5.44881Z" clip-rule="evenodd" fill-rule="evenodd"/>&#xa;<path fill="url(#paint3_linear_3890_21481)" d="M10.6774 11.0051C10.8346 11.4793 11.2816 11.8213 11.8085 11.8213C12.4664 11.8213 12.9997 11.288 12.9997 10.6301C12.9997 9.97217 12.4664 9.43883 11.8085 9.43883C11.2816 9.43883 10.8345 9.78092 10.6774 10.2551H10.3995L9.58921 9.65145C9.51369 9.59518 9.42202 9.56479 9.32784 9.56479H8.77201C8.56491 9.56479 8.39702 9.73268 8.39702 9.93979C8.39702 10.1469 8.56491 10.3148 8.77201 10.3148H9.22423L10.0345 10.9185C10.1101 10.9747 10.2017 11.0051 10.2959 11.0051H10.6774ZM11.3672 10.6301C11.3672 10.8738 11.5648 11.0713 11.8085 11.0713C12.0521 11.0713 12.2497 10.8738 12.2497 10.6301C12.2497 10.3864 12.0521 10.1888 11.8085 10.1888C11.5648 10.1888 11.3672 10.3864 11.3672 10.6301Z" clip-rule="evenodd" fill-rule="evenodd"/>&#xa;<path fill="url(#paint4_linear_3890_21481)" d="M10.3541 6.8482C9.82718 6.8482 9.38019 7.19025 9.22304 7.6644H7.80713C7.60002 7.6644 7.43213 7.8323 7.43213 8.0394C7.43213 8.24651 7.60002 8.4144 7.80713 8.4144H9.22302C9.38014 8.8886 9.82715 9.23068 10.3541 9.23068C11.012 9.23068 11.5453 8.69735 11.5453 8.03944C11.5453 7.38154 11.012 6.8482 10.3541 6.8482ZM10.3541 7.5982C10.1104 7.5982 9.91281 7.79575 9.91281 8.03944C9.91281 8.28313 10.1104 8.48069 10.3541 8.48069C10.5977 8.48069 10.7953 8.28313 10.7953 8.03944C10.7953 7.79575 10.5977 7.5982 10.3541 7.5982Z" clip-rule="evenodd" fill-rule="evenodd"/>&#xa;</g>&#xa;<defs>&#xa;<linearGradient gradientUnits="userSpaceOnUse" y2="14.7463" x2="13.6874" y1="2.26943" x1="1.45043" id="paint0_linear_3890_21481">&#xa;<stop stop-color="white"/>&#xa;<stop stop-color="#EAECEE" offset="1"/>&#xa;</linearGradient>&#xa;<linearGradient gradientUnits="userSpaceOnUse" y2="8.53361" x2="10.0853" y1="4.78301" x1="4.24362" id="paint1_linear_3890_21481">&#xa;<stop stop-color="#0195FF"/>&#xa;<stop stop-color="#1147E9" offset="0.991028"/>&#xa;</linearGradient>&#xa;<linearGradient gradientUnits="userSpaceOnUse" y2="9.11159" x2="13.316" y1="5.37036" x1="8.25526" id="paint2_linear_3890_21481">&#xa;<stop stop-color="#1348FF"/>&#xa;<stop stop-color="#06238D" offset="1"/>&#xa;</linearGradient>&#xa;<linearGradient gradientUnits="userSpaceOnUse" y2="9.11159" x2="13.316" y1="5.37036" x1="8.25526" id="paint3_linear_3890_21481">&#xa;<stop stop-color="#1348FF"/>&#xa;<stop stop-color="#06238D" offset="1"/>&#xa;</linearGradient>&#xa;<linearGradient gradientUnits="userSpaceOnUse" y2="9.11159" x2="13.316" y1="5.37036" x1="8.25526" id="paint4_linear_3890_21481">&#xa;<stop stop-color="#1348FF"/>&#xa;<stop stop-color="#06238D" offset="1"/>&#xa;</linearGradient>&#xa;<clipPath id="clip0_3890_21481">&#xa;<rect transform="matrix(-1 0 0 1 12.9995 2.99854)" fill="white" height="9.99997" width="9.99997"/>&#xa;</clipPath>&#xa;</defs>&#xa;</svg>