<svg xmlns="http://www.w3.org/2000/svg" fill="none" viewBox="-0.00006298016357422775 0.6049365620727539 23.997526244140627 23.997526244140627" height="23.997526244140627" width="23.997526244140627">&#xa;<circle stroke-width="0.428526" stroke="#D5DADD" fill="url(#paint0_linear_7023_11226)" r="11.7845" cy="12.6037" cx="11.9987"/>&#xa;<mask height="11" width="12" y="7" x="6" maskUnits="userSpaceOnUse" style="mask-type:luminance" id="mask0_7023_11226">&#xa;<path fill="white" d="M9.56625 8.88954C10.0722 7.99945 10.9717 7.40918 12.0023 7.40918C13.0329 7.40918 13.923 7.99945 14.4383 8.88954L17.6333 14.4456C18.2516 15.5043 17.8862 16.8722 16.8181 17.4906C15.7594 18.109 14.3915 17.7436 13.7825 16.6755L13.0235 15.345C12.8455 15.0077 12.7987 14.6329 12.8643 14.1457L13.1641 12.4686C13.2203 12.1969 12.8549 12.0657 12.7237 12.3093L11.843 13.8647L10.2221 16.6848C9.60373 17.7436 8.25454 18.1183 7.18644 17.5C6.11833 16.8722 5.74356 15.5137 6.36194 14.4456L9.56625 8.88954Z"/>&#xa;</mask>&#xa;<g mask="url(#mask0_7023_11226)">&#xa;<g filter="url(#filter0_d_7023_11226)">&#xa;<g filter="url(#filter1_d_7023_11226)">&#xa;<path fill="url(#paint1_radial_7023_11226)" d="M20.7907 12.834C20.1349 14.3799 17.1835 13.4336 18.8794 17.3125C17.8675 18.8772 16.3403 19.9453 14.8881 19.9453C12.3115 19.9453 5.16269 17.2469 7.88916 13.6772C10.6156 10.1169 14.101 6.44409 16.6776 6.44409C19.2542 6.44409 21.456 11.288 20.8001 12.834H20.7907Z"/>&#xa;</g>&#xa;<g filter="url(#filter2_d_7023_11226)">&#xa;<path fill="url(#paint2_radial_7023_11226)" d="M15.113 12.2057C14.3166 14.0795 11.6182 12.9177 13.3234 16.806C12.3115 18.3707 10.7843 19.4388 9.33209 19.4388C6.75552 19.4388 -0.393283 16.7404 2.33319 13.1707C5.05967 9.601 8.5357 5.92822 11.1123 5.92822C13.6888 5.92822 15.9094 10.3318 15.113 12.2057Z"/>&#xa;</g>&#xa;<g filter="url(#filter3_d_7023_11226)">&#xa;<path fill="url(#paint3_radial_7023_11226)" d="M9.688 19.6829C7.87972 20.6854 5.60297 20.0389 4.59108 18.2306C3.59793 16.4224 4.24442 14.1362 6.0527 13.1337C7.15828 11.6908 9.58494 11.0631 11.1871 12.684C12.7893 14.3049 12.0303 18.3806 9.688 19.6735V19.6829Z"/>&#xa;</g>&#xa;</g>&#xa;</g>&#xa;<defs>&#xa;<filter color-interpolation-filters="sRGB" filterUnits="userSpaceOnUse" height="17.6896" width="22.6568" y="4.19671" x="-0.00818884" id="filter0_d_7023_11226">&#xa;<feFlood result="BackgroundImageFix" flood-opacity="0"/>&#xa;<feColorMatrix result="hardAlpha" values="0 0 0 0 0 0 0 0 0 0 0 0 0 0 0 0 0 0 127 0" type="matrix" in="SourceAlpha"/>&#xa;<feOffset/>&#xa;<feGaussianBlur stdDeviation="0.865758"/>&#xa;<feColorMatrix values="0 0 0 0 0 0 0 0 0 0 0 0 0 0 0 0 0 0 0.6 0" type="matrix"/>&#xa;<feBlend result="effect1_dropShadow_7023_11226" in2="BackgroundImageFix" mode="normal"/>&#xa;<feBlend result="shape" in2="effect1_dropShadow_7023_11226" in="SourceGraphic" mode="normal"/>&#xa;</filter>&#xa;<filter color-interpolation-filters="sRGB" filterUnits="userSpaceOnUse" height="16.9643" width="17.1008" y="4.71258" x="5.54778" id="filter1_d_7023_11226">&#xa;<feFlood result="BackgroundImageFix" flood-opacity="0"/>&#xa;<feColorMatrix result="hardAlpha" values="0 0 0 0 0 0 0 0 0 0 0 0 0 0 0 0 0 0 127 0" type="matrix" in="SourceAlpha"/>&#xa;<feOffset/>&#xa;<feGaussianBlur stdDeviation="0.865758"/>&#xa;<feColorMatrix values="0 0 0 0 0 0 0 0 0 0 0 0 0 0 0 0 0 0 0.5 0" type="matrix"/>&#xa;<feBlend result="effect1_dropShadow_7023_11226" in2="BackgroundImageFix" mode="normal"/>&#xa;<feBlend result="shape" in2="effect1_dropShadow_7023_11226" in="SourceGraphic" mode="normal"/>&#xa;</filter>&#xa;<filter color-interpolation-filters="sRGB" filterUnits="userSpaceOnUse" height="16.9735" width="17.017" y="4.19671" x="-0.00818884" id="filter2_d_7023_11226">&#xa;<feFlood result="BackgroundImageFix" flood-opacity="0"/>&#xa;<feColorMatrix result="hardAlpha" values="0 0 0 0 0 0 0 0 0 0 0 0 0 0 0 0 0 0 127 0" type="matrix" in="SourceAlpha"/>&#xa;<feOffset/>&#xa;<feGaussianBlur stdDeviation="0.865758"/>&#xa;<feColorMatrix values="0 0 0 0 0 0 0 0 0 0 0 0 0 0 0 0 0 0 0.5 0" type="matrix"/>&#xa;<feBlend result="effect1_dropShadow_7023_11226" in2="BackgroundImageFix" mode="normal"/>&#xa;<feBlend result="shape" in2="effect1_dropShadow_7023_11226" in="SourceGraphic" mode="normal"/>&#xa;</filter>&#xa;<filter color-interpolation-filters="sRGB" filterUnits="userSpaceOnUse" height="11.8925" width="11.3731" y="9.99383" x="2.39415" id="filter3_d_7023_11226">&#xa;<feFlood result="BackgroundImageFix" flood-opacity="0"/>&#xa;<feColorMatrix result="hardAlpha" values="0 0 0 0 0 0 0 0 0 0 0 0 0 0 0 0 0 0 127 0" type="matrix" in="SourceAlpha"/>&#xa;<feOffset/>&#xa;<feGaussianBlur stdDeviation="0.865758"/>&#xa;<feColorMatrix values="0 0 0 0 0 0 0 0 0 0 0 0 0 0 0 0 0 0 0.5 0" type="matrix"/>&#xa;<feBlend result="effect1_dropShadow_7023_11226" in2="BackgroundImageFix" mode="normal"/>&#xa;<feBlend result="shape" in2="effect1_dropShadow_7023_11226" in="SourceGraphic" mode="normal"/>&#xa;</filter>&#xa;<linearGradient gradientUnits="userSpaceOnUse" y2="22.7248" x2="20.53" y1="4.01104" x1="2.1762" id="paint0_linear_7023_11226">&#xa;<stop stop-color="white"/>&#xa;<stop stop-color="#EAECEE" offset="1"/>&#xa;</linearGradient>&#xa;<radialGradient gradientTransform="translate(10.4966 10.0513) rotate(51.04) scale(14.3163 13.8198)" gradientUnits="userSpaceOnUse" r="1" cy="0" cx="0" id="paint1_radial_7023_11226">&#xa;<stop stop-color="#0052F1"/>&#xa;<stop stop-color="#002984" offset="1"/>&#xa;</radialGradient>&#xa;<radialGradient gradientTransform="translate(4.97123 4.63369) rotate(50.06) scale(20.3971 37.7022)" gradientUnits="userSpaceOnUse" r="1" cy="0" cx="0" id="paint2_radial_7023_11226">&#xa;<stop stop-color="#0099F4"/>&#xa;<stop stop-color="#004FDC" offset="1"/>&#xa;</radialGradient>&#xa;<radialGradient gradientTransform="translate(8.62626 10.4993) rotate(108.45) scale(11.2432 15.5812)" gradientUnits="userSpaceOnUse" r="1" cy="0" cx="0" id="paint3_radial_7023_11226">&#xa;<stop stop-color="#00BDF7"/>&#xa;<stop stop-color="#008FF3" offset="1"/>&#xa;</radialGradient>&#xa;</defs>&#xa;</svg>