<svg xmlns="http://www.w3.org/2000/svg" fill="none" viewBox="0 0 16 16" height="16" width="16">&#xa;<circle stroke-width="0.285708" stroke="#D5DADD" fill="url(#paint0_linear_3890_21473)" r="7.85696" cy="7.99884" cx="7.9964"/>&#xa;<g clip-path="url(#clip0_3890_21473)">&#xa;<path fill="url(#paint1_linear_3890_21473)" d="M5.11565 5.375C5.11565 4.67035 5.68689 4.09912 6.39154 4.09912C7.09619 4.09912 7.66742 4.67035 7.66742 5.375C7.66742 6.07965 7.09619 6.65088 6.39154 6.65088C5.68689 6.65088 5.11565 6.07965 5.11565 5.375ZM6.39154 3.09912C5.1346 3.09912 4.11566 4.11807 4.11566 5.375C4.11566 5.96328 4.33885 6.49942 4.70518 6.90337C4.20985 7.10117 3.82111 7.40044 3.52673 7.75398C2.97927 8.41149 2.79639 9.21 2.79639 9.75968V9.76414L2.79647 9.7686L3.29639 9.75968L2.79647 9.7686L2.79647 9.76862L2.79647 9.76872L2.79648 9.76911L2.7965 9.77066L2.79661 9.7768L2.79702 9.80033L2.7985 9.88604C2.79973 9.95792 2.80136 10.0559 2.80299 10.1604C2.80628 10.3715 2.80946 10.603 2.80946 10.7035C2.80946 10.8361 2.86214 10.9632 2.95591 11.057C3.04968 11.1508 3.17685 11.2035 3.30946 11.2035H6.34296C6.6191 11.2035 6.84296 10.9796 6.84296 10.7035C6.84296 10.4273 6.6191 10.2035 6.34296 10.2035H3.80376L3.80286 10.1448C3.80122 10.0397 3.79958 9.94121 3.79835 9.86903L3.79687 9.78286L3.79645 9.75913L3.79639 9.75556C3.79736 9.39203 3.92659 8.83658 4.29522 8.39385C4.6458 7.9728 5.25217 7.605 6.32128 7.65141C6.33974 7.65221 6.35801 7.652 6.37604 7.65083C6.3812 7.65087 6.38637 7.65088 6.39154 7.65088C7.64847 7.65088 8.66741 6.63194 8.66741 5.375C8.66741 4.11807 7.64847 3.09912 6.39154 3.09912Z" clip-rule="evenodd" fill-rule="evenodd"/>&#xa;<path fill="url(#paint2_linear_3890_21473)" d="M8.79638 8.09912C8.2441 8.09912 7.79639 8.54684 7.79639 9.09912V12.0991C7.79639 12.6514 8.2441 13.0991 8.79638 13.0991H11.7964C12.3487 13.0991 12.7964 12.6514 12.7964 12.0991V9.09912C12.7964 8.54684 12.3487 8.09912 11.7964 8.09912H8.79638ZM8.82899 9.82081C9.05172 9.82081 9.23229 9.64027 9.23229 9.41751C9.23229 9.19476 9.05172 9.01421 8.82899 9.01421C8.60627 9.01421 8.4257 9.19476 8.4257 9.41751C8.4257 9.64027 8.60627 9.82081 8.82899 9.82081ZM10.2214 9.05737C10.0225 9.05737 9.86125 9.21863 9.86125 9.41751C9.86125 9.6164 10.0225 9.77765 10.2214 9.77765H11.807C12.0059 9.77765 12.1671 9.6164 12.1671 9.41751C12.1671 9.21863 12.0059 9.05737 11.807 9.05737H10.2214ZM8.82899 11.0024C9.05172 11.0024 9.23229 10.8219 9.23229 10.5991C9.23229 10.3764 9.05172 10.1958 8.82899 10.1958C8.60627 10.1958 8.4257 10.3764 8.4257 10.5991C8.4257 10.8219 8.60627 11.0024 8.82899 11.0024ZM10.2214 10.239C10.0225 10.239 9.86125 10.4002 9.86125 10.5991C9.86125 10.798 10.0225 10.9593 10.2214 10.9593H11.807C12.0059 10.9593 12.1671 10.798 12.1671 10.5991C12.1671 10.4002 12.0059 10.239 11.807 10.239H10.2214ZM9.23229 11.7807C9.23229 12.0035 9.05172 12.184 8.82899 12.184C8.60627 12.184 8.4257 12.0035 8.4257 11.7807C8.4257 11.558 8.60627 11.3774 8.82899 11.3774C9.05172 11.3774 9.23229 11.558 9.23229 11.7807ZM9.86125 11.7807C9.86125 11.5818 10.0225 11.4206 10.2214 11.4206H11.807C12.0059 11.4206 12.1671 11.5818 12.1671 11.7807C12.1671 11.9796 12.0059 12.1409 11.807 12.1409H10.2214C10.0225 12.1409 9.86125 11.9796 9.86125 11.7807Z" clip-rule="evenodd" fill-rule="evenodd"/>&#xa;<path fill="url(#paint3_linear_3890_21473)" d="M11.9805 4.72275C12.0805 4.61917 12.193 4.56738 12.318 4.56738C12.4429 4.56738 12.5554 4.61917 12.6554 4.72275C12.7429 4.81338 12.7866 4.92343 12.7866 5.0529C12.7866 5.18237 12.7429 5.2989 12.6554 5.40247L10.7621 7.36396C10.6746 7.45459 10.5621 7.49991 10.4247 7.49991C10.2872 7.49991 10.1747 7.45459 10.0872 7.36396L9.14996 6.39293C9.04999 6.28935 9 6.17283 9 6.04336C9 5.91388 9.04999 5.79736 9.14996 5.69378C9.24994 5.59021 9.36241 5.53842 9.48738 5.53842C9.61235 5.53842 9.71858 5.59021 9.80606 5.69378L10.4247 6.33467L11.9805 4.72275Z"/>&#xa;</g>&#xa;<defs>&#xa;<linearGradient gradientUnits="userSpaceOnUse" y2="14.7468" x2="13.6844" y1="2.26992" x1="1.4475" id="paint0_linear_3890_21473">&#xa;<stop stop-color="white"/>&#xa;<stop stop-color="#EAECEE" offset="1"/>&#xa;</linearGradient>&#xa;<linearGradient gradientUnits="userSpaceOnUse" y2="8.219" x2="9.06908" y1="4.31108" x1="3.67648" id="paint1_linear_3890_21473">&#xa;<stop stop-color="#0195FF"/>&#xa;<stop stop-color="#1147E9" offset="0.991028"/>&#xa;</linearGradient>&#xa;<linearGradient gradientUnits="userSpaceOnUse" y2="12.3478" x2="12.0456" y1="8.84928" x1="8.54468" id="paint2_linear_3890_21473">&#xa;<stop stop-color="#00BBFF"/>&#xa;<stop stop-color="#008BFF" offset="1"/>&#xa;</linearGradient>&#xa;<linearGradient gradientUnits="userSpaceOnUse" y2="7.57287" x2="11.5447" y1="4.99882" x1="9.55982" id="paint3_linear_3890_21473">&#xa;<stop stop-color="#1348FF"/>&#xa;<stop stop-color="#06238D" offset="1"/>&#xa;</linearGradient>&#xa;<clipPath id="clip0_3890_21473">&#xa;<rect transform="translate(2.79639 3.09912)" fill="white" height="9.99998" width="9.99997"/>&#xa;</clipPath>&#xa;</defs>&#xa;</svg>