<svg xmlns="http://www.w3.org/2000/svg" fill="none" viewBox="0 0 16 16" height="16" width="16">&#xa;<circle stroke-width="0.285708" stroke="#D5DADD" fill="url(#paint0_linear_3890_21427)" r="7.85696" cy="7.99982" cx="7.99591"/>&#xa;<g clip-path="url(#clip0_3890_21427)">&#xa;<path fill="url(#paint1_linear_3890_21427)" d="M7.55219 6.98493C7.39614 6.98493 7.31812 7.0532 7.31812 7.18974C7.31812 7.32629 7.39614 7.39456 7.55219 7.39456H8.02035C8.35846 7.39456 8.63805 7.49697 8.85912 7.70179C9.0932 7.89523 9.21024 8.13987 9.21024 8.43572C9.21024 8.7088 9.12571 8.94207 8.95665 9.13551C8.7876 9.31757 8.56002 9.43135 8.27393 9.47687V9.8865C8.27393 10.171 8.11138 10.3132 7.78627 10.3132C7.64322 10.3132 7.52619 10.2734 7.43516 10.1937C7.35713 10.1141 7.31812 10.0117 7.31812 9.8865V9.47687H6.84996C6.70692 9.47687 6.58988 9.44273 6.49885 9.37446C6.40782 9.29481 6.3623 9.1924 6.3623 9.06723C6.3623 8.78277 6.52486 8.64053 6.84996 8.64053H8.02035C8.1894 8.64053 8.27393 8.57226 8.27393 8.43572C8.27393 8.29917 8.1894 8.2309 8.02035 8.2309H7.55219C7.21408 8.2309 6.92799 8.13418 6.69391 7.94074C6.47284 7.73592 6.3623 7.48559 6.3623 7.18974C6.3623 6.92803 6.44683 6.70046 6.61589 6.50702C6.79795 6.31358 7.03202 6.19411 7.31812 6.14859V5.73896C7.31812 5.61379 7.35713 5.51707 7.43516 5.4488C7.52619 5.36915 7.64322 5.32932 7.78627 5.32932C7.92932 5.32932 8.04636 5.36915 8.13739 5.4488C8.22842 5.51707 8.27393 5.61379 8.27393 5.73896V6.14859H8.74208C9.05419 6.14859 9.21024 6.29082 9.21024 6.57529C9.21024 6.70046 9.16472 6.80287 9.07369 6.88252C8.99567 6.95079 8.88513 6.98493 8.74208 6.98493H7.55219Z"/>&#xa;<path fill="url(#paint2_linear_3890_21427)" d="M10.8817 7.16482C10.9989 7.25597 11.116 7.30154 11.2332 7.30154C11.3504 7.30154 11.4676 7.25597 11.5848 7.16482L12.6395 6.0906C12.7436 5.98643 12.7957 5.86925 12.7957 5.73904C12.7957 5.59581 12.7436 5.47211 12.6395 5.36794C12.5483 5.2768 12.4311 5.23123 12.2879 5.23123C12.1577 5.23123 12.0405 5.28331 11.9364 5.38748L11.741 5.60232L11.741 4.90723C11.741 4.41244 11.5718 3.99577 11.2332 3.65723C10.8817 3.31869 10.465 3.14942 9.98324 3.14942L8.77774 3.14941C8.63451 3.14941 8.51733 3.19499 8.42618 3.28613C8.33503 3.3903 8.28946 3.514 8.28946 3.65723C8.28946 3.80046 8.33503 3.91764 8.42618 4.00879C8.51733 4.09993 8.63451 4.14551 8.77774 4.14551L9.98324 4.14551C10.1916 4.14551 10.3674 4.21713 10.5106 4.36036C10.6538 4.50359 10.7254 4.68588 10.7254 4.90723L10.7254 5.60232L10.5301 5.38748C10.4259 5.28331 10.3088 5.23123 10.1785 5.23123C10.0353 5.23123 9.91162 5.28331 9.80745 5.38748C9.71631 5.50466 9.67073 5.61534 9.67073 5.71951C9.67073 5.87576 9.72282 5.99946 9.82698 6.0906L10.8817 7.16482Z"/>&#xa;<path fill="url(#paint3_linear_3890_21427)" d="M11.2334 8.30685C11.3766 8.30685 11.4938 8.35893 11.5849 8.4631C11.6891 8.55424 11.7412 8.67143 11.7412 8.81466L11.7412 11.3058C11.7412 11.6183 11.6305 11.8852 11.4092 12.1066C11.1878 12.3279 10.9209 12.4386 10.6084 12.4386L8.80635 12.4386C8.66312 12.4386 8.53942 12.393 8.43525 12.3019C8.34411 12.1977 8.29854 12.074 8.29854 11.9308C8.29854 11.7876 8.34411 11.6704 8.43525 11.5792C8.53942 11.4881 8.66312 11.4425 8.80635 11.4425L10.6084 11.4425C10.6995 11.4425 10.7451 11.397 10.7451 11.3058L10.7451 8.81466C10.7451 8.67143 10.7907 8.55424 10.8818 8.4631C10.973 8.35893 11.0901 8.30685 11.2334 8.30685Z"/>&#xa;<path fill="url(#paint4_linear_3890_21427)" d="M4.38916 8.29836C4.50635 8.29836 4.62353 8.34393 4.74072 8.43508L5.79541 9.50929C5.89957 9.60044 5.95166 9.72414 5.95166 9.88039C5.95166 9.98455 5.90608 10.0952 5.81494 10.2124C5.71077 10.3166 5.58707 10.3687 5.44385 10.3687C5.31364 10.3687 5.19645 10.3166 5.09228 10.2124L4.89697 9.99758L4.89697 10.6927C4.89697 10.914 4.96858 11.0963 5.11181 11.2395C5.25504 11.3828 5.43082 11.4544 5.63916 11.4544L6.80776 11.4544C6.95099 11.4544 7.06818 11.5 7.15932 11.5911C7.25047 11.6823 7.29604 11.7994 7.29604 11.9427C7.29604 12.0859 7.25047 12.2096 7.15932 12.3138C7.06818 12.4049 6.95099 12.4505 6.80776 12.4505L5.63916 12.4505C5.15739 12.4505 4.74072 12.2812 4.38916 11.9427C4.05061 11.6041 3.88134 11.1875 3.88134 10.6927L3.88135 9.99758L3.68603 10.2124C3.58187 10.3166 3.46468 10.3687 3.33447 10.3687C3.19124 10.3687 3.07406 10.3231 2.98291 10.2319C2.87874 10.1278 2.82666 10.0041 2.82666 9.86086C2.82666 9.73065 2.87874 9.61346 2.98291 9.50929L4.0376 8.43508C4.15478 8.34393 4.27197 8.29836 4.38916 8.29836Z"/>&#xa;<path fill="url(#paint5_linear_3890_21427)" d="M6.54792 4.1501C6.48432 4.1501 6.43246 4.18089 6.39354 4.21694C6.32545 4.28 6.30945 4.37732 6.30945 4.47012V4.96133C6.30945 5.17353 6.23367 5.35541 6.0821 5.50697C5.93053 5.65854 5.7436 5.73432 5.5213 5.73432H5.14424C5.0701 5.73432 4.99928 5.76506 4.94864 5.81921C4.90226 5.86882 4.87645 5.9342 4.87645 6.00211V6.78935C4.87645 7.06509 4.65292 7.28861 4.37719 7.28861C4.10146 7.28861 3.87793 7.06509 3.87793 6.78935V5.52996C3.87793 5.41881 3.9133 5.32787 3.98403 5.25714L5.80928 3.27067C5.89011 3.18983 5.98105 3.14941 6.0821 3.14941H6.78574C7.06207 3.14941 7.28608 3.37343 7.28608 3.64976C7.28608 3.92609 7.06205 4.1501 6.78572 4.1501H6.54792Z"/>&#xa;</g>&#xa;<defs>&#xa;<linearGradient gradientUnits="userSpaceOnUse" y2="14.7478" x2="13.6839" y1="2.2709" x1="1.44702" id="paint0_linear_3890_21427">&#xa;<stop stop-color="white"/>&#xa;<stop stop-color="#EAECEE" offset="1"/>&#xa;</linearGradient>&#xa;<linearGradient gradientUnits="userSpaceOnUse" y2="7.7909" x2="9.79492" y1="6.06258" x1="6.78335" id="paint1_linear_3890_21427">&#xa;<stop stop-color="#1348FF"/>&#xa;<stop stop-color="#06238D" offset="1"/>&#xa;</linearGradient>&#xa;<linearGradient gradientUnits="userSpaceOnUse" y2="11.5061" x2="10.8178" y1="4.54033" x1="4.32107" id="paint2_linear_3890_21427">&#xa;<stop stop-color="#0195FF"/>&#xa;<stop stop-color="#1147E9" offset="0.991028"/>&#xa;</linearGradient>&#xa;<linearGradient gradientUnits="userSpaceOnUse" y2="11.5061" x2="10.8178" y1="4.54033" x1="4.32107" id="paint3_linear_3890_21427">&#xa;<stop stop-color="#0195FF"/>&#xa;<stop stop-color="#1147E9" offset="0.991028"/>&#xa;</linearGradient>&#xa;<linearGradient gradientUnits="userSpaceOnUse" y2="11.5061" x2="10.8178" y1="4.54033" x1="4.32107" id="paint4_linear_3890_21427">&#xa;<stop stop-color="#0195FF"/>&#xa;<stop stop-color="#1147E9" offset="0.991028"/>&#xa;</linearGradient>&#xa;<linearGradient gradientUnits="userSpaceOnUse" y2="11.5061" x2="10.8178" y1="4.54033" x1="4.32107" id="paint5_linear_3890_21427">&#xa;<stop stop-color="#0195FF"/>&#xa;<stop stop-color="#1147E9" offset="0.991028"/>&#xa;</linearGradient>&#xa;<clipPath id="clip0_3890_21427">&#xa;<rect transform="translate(2.7959 2.80005)" fill="white" height="10" width="9.99999"/>&#xa;</clipPath>&#xa;</defs>&#xa;</svg>