<svg xmlns="http://www.w3.org/2000/svg" fill="none" viewBox="0 0 24 24" height="24" width="24">&#xa;<path fill="url(#paint0_linear_995_33)" d="M12.8134 24H11.1851C10.627 24 10.1164 23.8125 9.65205 23.4375C9.22377 23.1046 8.94 22.6176 8.86023 22.0785L8.53427 20.532L6.53535 19.3125L5.13923 19.9215C4.85294 20.0117 4.55508 20.0593 4.25512 20.0625C3.822 20.0625 3.40227 19.953 2.99892 19.734C2.61456 19.5013 2.30739 19.1588 2.1163 18.75L1.23219 17.016C1.08816 16.6908 1.00925 16.34 1 15.984C1 15.1725 1.32596 14.5155 1.97639 14.016L3.04655 13.2195V10.7805L1.93025 9.9375C1.30959 9.468 1 8.8275 1 8.016C1 7.7025 1.0774 7.359 1.23219 6.984L2.1163 5.25C2.3336 4.812 2.62682 4.485 2.99892 4.266C3.40227 4.047 3.822 3.9375 4.25512 3.9375C4.59746 3.9375 4.89067 4.0005 5.13923 4.125L6.53535 4.6875L8.53427 3.468L8.86023 1.923C8.98376 1.359 9.26209 0.906 9.69819 0.5625C10.1313 0.1875 10.6284 0 11.1866 0H12.8134C13.3716 0 13.8687 0.1875 14.3018 0.5625C14.7364 0.9075 15.0162 1.359 15.1398 1.9215L15.4181 3.4695L17.4647 4.6875L18.8608 4.125C19.1078 4.0005 19.4025 3.9375 19.7449 3.9375C20.178 3.9375 20.5814 4.047 20.9535 4.266C21.3553 4.485 21.6679 4.812 21.8837 5.25L22.7217 6.984C22.9062 7.2975 23 7.656 23 8.0625C23 8.8425 22.674 9.4695 22.0236 9.9375L20.9073 10.782V13.2195L22.0236 14.0145C22.674 14.5155 23 15.156 23 15.9375C23 16.3125 22.9062 16.6725 22.7202 17.016L21.8837 18.75C21.6664 19.188 21.3568 19.515 20.9535 19.734C20.5814 19.953 20.1795 20.0625 19.7434 20.0625C19.4338 20.0625 19.1391 20.016 18.8608 19.9215L17.4647 19.3125L15.4181 20.532L15.1398 22.077C15.0147 22.641 14.7364 23.094 14.3018 23.4375C13.8687 23.8125 13.3716 24 12.8134 24ZM6.53386 16.9215C6.93722 16.9215 7.34057 17.0475 7.74393 17.2965L9.79047 18.516C10.4111 18.891 10.7669 19.407 10.8606 20.0625L11.1851 21.609H12.8134L13.0932 20.0625C13.248 19.3755 13.6201 18.8595 14.2095 18.516L16.2099 17.2965C16.6032 17.0582 17.052 16.9288 17.5108 16.9215C17.6671 16.9215 17.8055 16.9365 17.9305 16.968C18.0541 16.9995 18.194 17.0475 18.3488 17.109L19.7449 17.6715L20.5814 15.9375L19.5112 15.141C18.8608 14.64 18.5348 14.001 18.5348 13.2195V10.7805C18.5348 10.0005 18.8608 9.36 19.5112 8.8605L20.5814 8.0625L19.7434 6.3285L18.3488 6.9375C18.0636 7.03239 17.765 7.08001 17.4647 7.0785C16.969 7.0785 16.5508 6.969 16.2084 6.75L14.2095 5.484C13.9242 5.32212 13.6768 5.1002 13.4842 4.83334C13.2915 4.56648 13.1582 4.26094 13.0932 3.9375L12.8134 2.391H11.1851L10.8606 3.9375C10.7669 4.5945 10.4111 5.109 9.79047 5.484L7.79007 6.75C7.44923 6.969 7.03099 7.0785 6.53535 7.0785C6.25553 7.0785 5.94594 7.0305 5.6051 6.9375L4.20898 6.3285L3.37102 8.0625L4.48731 8.859C5.13923 9.36 5.46519 9.999 5.46519 10.782V13.2195C5.46519 13.9995 5.13923 14.64 4.4888 15.1395L3.37251 15.9375L4.25512 17.6715L5.65124 17.109C5.89832 16.9845 6.19302 16.9215 6.53535 16.9215H6.53386ZM11.9769 16.7805C11.325 16.7805 10.7058 16.656 10.1164 16.4055C9.5613 16.1578 9.05662 15.8084 8.62804 15.375C8.1975 14.9432 7.85027 14.4346 7.60402 13.875C7.35604 13.2816 7.22947 12.6439 7.23192 12C7.23192 11.343 7.35695 10.734 7.60402 10.1715C7.85258 9.5775 8.19342 9.0615 8.62804 8.625C9.06116 8.187 9.55828 7.845 10.1164 7.593C10.7058 7.344 11.325 7.218 11.9769 7.218C12.6274 7.218 13.248 7.344 13.8374 7.593C14.4268 7.8435 14.9388 8.187 15.372 8.625C15.8066 9.063 16.1459 9.5775 16.396 10.1715C16.6431 10.734 16.7681 11.3445 16.7681 12C16.7681 12.657 16.6431 13.281 16.396 13.875C16.1497 14.4346 15.8025 14.9432 15.372 15.375C14.9374 15.813 14.4268 16.155 13.8374 16.407C13.248 16.656 12.6274 16.7805 11.9769 16.7805ZM11.9769 9.6105C11.325 9.6105 10.7669 9.843 10.3025 10.3125C10.0779 10.5308 9.90007 10.7931 9.78001 11.0834C9.65995 11.3736 9.60019 11.6856 9.60442 12C9.60442 12.657 9.83661 13.2195 10.3025 13.6875C10.7669 14.157 11.325 14.391 11.9769 14.391C12.6586 14.391 13.2331 14.157 13.6975 13.6875C14.1634 13.218 14.3956 12.6555 14.3956 12C14.3956 11.343 14.1634 10.7805 13.6975 10.3125C13.4736 10.083 13.2054 9.90225 12.9095 9.78125C12.6136 9.66026 12.2962 9.60314 11.9769 9.6105Z"/>&#xa;<defs>&#xa;<linearGradient gradientUnits="userSpaceOnUse" y2="24" x2="12" y1="0" x1="12" id="paint0_linear_995_33">&#xa;<stop stop-color="#5B738B"/>&#xa;<stop stop-color="#223548" offset="1"/>&#xa;</linearGradient>&#xa;</defs>&#xa;</svg>