<svg xmlns="http://www.w3.org/2000/svg" fill="none" viewBox="0 0 16 16" height="16" width="16">&#xa;<path fill="url(#paint0_linear_963_677)" d="M8.51762 16H7.48143C7.12624 16 6.80137 15.8828 6.50585 15.6484C6.23331 15.4404 6.05273 15.136 6.00196 14.7991L5.79453 13.8325L4.5225 13.0703L3.63406 13.4509C3.45187 13.5073 3.26232 13.537 3.07144 13.5391C2.79582 13.5391 2.52872 13.4706 2.27204 13.3337C2.02745 13.1883 1.83197 12.9743 1.71037 12.7188L1.14776 11.635C1.0561 11.4317 1.00589 11.2125 1 10.99C1 10.4828 1.20743 10.0722 1.62134 9.76L2.30235 9.26219V7.73781L1.59198 7.21094C1.19701 6.9175 1 6.51719 1 6.01C1 5.81406 1.04925 5.59938 1.14776 5.365L1.71037 4.28125C1.84866 4.0075 2.03525 3.80313 2.27204 3.66625C2.52872 3.52938 2.79582 3.46094 3.07144 3.46094C3.28929 3.46094 3.47588 3.50031 3.63406 3.57812L4.5225 3.92969L5.79453 3.1675L6.00196 2.20187C6.08058 1.84937 6.2577 1.56625 6.53521 1.35156C6.81084 1.11719 7.12719 1 7.48238 1H8.51762C8.87281 1 9.18916 1.11719 9.46479 1.35156C9.74136 1.56719 9.91942 1.84938 9.99804 2.20094L10.1752 3.16844L11.4775 3.92969L12.3659 3.57812C12.5232 3.50031 12.7107 3.46094 12.9286 3.46094C13.2042 3.46094 13.4609 3.52938 13.6977 3.66625C13.9534 3.80313 14.1523 4.0075 14.2896 4.28125L14.8229 5.365C14.9403 5.56094 15 5.785 15 6.03906C15 6.52656 14.7926 6.91844 14.3787 7.21094L13.6683 7.73875V9.26219L14.3787 9.75906C14.7926 10.0722 15 10.4725 15 10.9609C15 11.1953 14.9403 11.4203 14.8219 11.635L14.2896 12.7188C14.1513 12.9925 13.9543 13.1969 13.6977 13.3337C13.4609 13.4706 13.2051 13.5391 12.9276 13.5391C12.7306 13.5391 12.5431 13.51 12.3659 13.4509L11.4775 13.0703L10.1752 13.8325L9.99804 14.7981C9.91848 15.1506 9.74136 15.4338 9.46479 15.6484C9.18916 15.8828 8.87281 16 8.51762 16ZM4.52155 11.5759C4.77823 11.5759 5.03491 11.6547 5.29159 11.8103L6.59394 12.5725C6.9889 12.8069 7.21528 13.1294 7.27495 13.5391L7.48143 14.5056H8.51762L8.69569 13.5391C8.7942 13.1097 9.03099 12.7872 9.40606 12.5725L10.679 11.8103C10.9293 11.6614 11.2149 11.5805 11.5069 11.5759C11.6063 11.5759 11.6944 11.5853 11.774 11.605C11.8526 11.6247 11.9416 11.6547 12.0401 11.6931L12.9286 12.0447L13.4609 10.9609L12.7799 10.4631C12.3659 10.15 12.1585 9.75062 12.1585 9.26219V7.73781C12.1585 7.25031 12.3659 6.85 12.7799 6.53781L13.4609 6.03906L12.9276 4.95531L12.0401 5.33594C11.8586 5.39524 11.6686 5.42501 11.4775 5.42406C11.1621 5.42406 10.8959 5.35563 10.6781 5.21875L9.40606 4.4275C9.22448 4.32632 9.06705 4.18762 8.94447 4.02084C8.82189 3.85405 8.73704 3.66309 8.69569 3.46094L8.51762 2.49437H7.48143L7.27495 3.46094C7.21528 3.87156 6.9889 4.19313 6.59394 4.4275L5.32095 5.21875C5.10405 5.35563 4.8379 5.42406 4.5225 5.42406C4.34443 5.42406 4.14742 5.39406 3.93052 5.33594L3.04208 4.95531L2.50883 6.03906L3.2192 6.53688C3.63406 6.85 3.84149 7.24938 3.84149 7.73875V9.26219C3.84149 9.74969 3.63406 10.15 3.22015 10.4622L2.50978 10.9609L3.07144 12.0447L3.95988 11.6931C4.11711 11.6153 4.30465 11.5759 4.5225 11.5759H4.52155ZM7.98532 11.4878C7.57046 11.4878 7.17644 11.41 6.80137 11.2534C6.4481 11.0986 6.12694 10.8802 5.8542 10.6094C5.58023 10.3395 5.35926 10.0216 5.20256 9.67188C5.04475 9.301 4.96421 8.90242 4.96577 8.5C4.96577 8.08938 5.04533 7.70875 5.20256 7.35719C5.36073 6.98594 5.57763 6.66344 5.8542 6.39062C6.12983 6.11688 6.44618 5.90312 6.80137 5.74563C7.17644 5.59 7.57046 5.51125 7.98532 5.51125C8.39923 5.51125 8.7942 5.59 9.16927 5.74563C9.54435 5.90219 9.87017 6.11688 10.1458 6.39062C10.4224 6.66437 10.6383 6.98594 10.7974 7.35719C10.9547 7.70875 11.0342 8.09031 11.0342 8.5C11.0342 8.91062 10.9547 9.30062 10.7974 9.67188C10.6407 10.0216 10.4198 10.3395 10.1458 10.6094C9.86922 10.8831 9.54435 11.0969 9.16927 11.2544C8.7942 11.41 8.39923 11.4878 7.98532 11.4878ZM7.98532 7.00656C7.57046 7.00656 7.21528 7.15188 6.91976 7.44531C6.77684 7.58174 6.66368 7.74571 6.58728 7.92711C6.51088 8.10851 6.47285 8.30349 6.47554 8.5C6.47554 8.91062 6.6233 9.26219 6.91976 9.55469C7.21528 9.84813 7.57046 9.99438 7.98532 9.99438C8.41912 9.99438 8.78472 9.84813 9.08024 9.55469C9.3767 9.26125 9.52446 8.90969 9.52446 8.5C9.52446 8.08938 9.3767 7.73781 9.08024 7.44531C8.93774 7.3019 8.76707 7.1889 8.57876 7.11328C8.39045 7.03766 8.18849 7.00196 7.98532 7.00656Z"/>&#xa;<defs>&#xa;<linearGradient gradientUnits="userSpaceOnUse" y2="14.0352" x2="13.73" y1="3.12901" x1="2.26959" id="paint0_linear_963_677">&#xa;<stop stop-color="#00CEAC"/>&#xa;<stop stop-color="#07838F" offset="1"/>&#xa;</linearGradient>&#xa;</defs>&#xa;</svg>