<svg xmlns="http://www.w3.org/2000/svg" fill="none" viewBox="0 0 16 16" height="16" width="16">&#xa;<circle stroke-width="0.285708" stroke="#D5DADD" fill="url(#paint0_linear_3890_21475)" r="7.85696" cy="7.99884" cx="7.99591"/>&#xa;<g clip-path="url(#clip0_3890_21475)">&#xa;<path fill="url(#paint1_linear_3890_21475)" d="M6.16183 3.61216C6.34633 3.4261 6.34633 3.12468 6.16183 2.93862C5.97732 2.75256 5.67842 2.75256 5.49391 2.93862L4.07735 4.36712C3.89284 4.55318 3.89284 4.8546 4.07735 5.04066L5.49391 6.46916C5.67842 6.65523 5.97732 6.65523 6.16183 6.46916C6.34633 6.2831 6.34633 5.98169 6.16183 5.79562L5.55176 5.18042H8.18864C10.0139 5.18042 11.4938 6.67249 11.4938 8.51347C11.4938 10.3541 10.0139 11.8465 8.18864 11.8465C6.36339 11.8465 4.88343 10.3545 4.88343 8.51347C4.88343 8.25063 4.67201 8.03743 4.41136 8.03743C4.15071 8.03743 3.93929 8.25063 3.93929 8.51347C3.93929 10.8801 5.84209 12.799 8.18899 12.799C10.5359 12.799 12.4387 10.8801 12.4387 8.51347C12.4387 6.1468 10.5359 4.22797 8.18899 4.22797H5.55116L6.16183 3.61216Z"/>&#xa;<path fill="url(#paint2_linear_3890_21475)" d="M9.7981 7.2207C9.65696 7.2207 9.52993 7.27716 9.41702 7.39007L7.6598 9.14729L6.96115 8.44864C6.86235 8.33573 6.74238 8.27927 6.60124 8.27927C6.46009 8.27927 6.33307 8.33573 6.22015 8.44864C6.10724 8.56155 6.05078 8.68858 6.05078 8.82972C6.05078 8.97087 6.10724 9.09789 6.22015 9.21081L7.27872 10.2694C7.37752 10.3682 7.50454 10.4176 7.6598 10.4176C7.81506 10.4176 7.94209 10.3682 8.04088 10.2694L10.1792 8.13107C10.278 8.01816 10.3274 7.89113 10.3274 7.74999C10.3274 7.60884 10.278 7.48887 10.1792 7.39007C10.0663 7.27716 9.93925 7.2207 9.7981 7.2207Z"/>&#xa;</g>&#xa;<defs>&#xa;<linearGradient gradientUnits="userSpaceOnUse" y2="14.7468" x2="13.6839" y1="2.26992" x1="1.44702" id="paint0_linear_3890_21475">&#xa;<stop stop-color="white"/>&#xa;<stop stop-color="#EAECEE" offset="1"/>&#xa;</linearGradient>&#xa;<linearGradient gradientUnits="userSpaceOnUse" y2="10.1706" x2="12.1239" y1="4.2945" x1="5.21311" id="paint1_linear_3890_21475">&#xa;<stop stop-color="#0195FF"/>&#xa;<stop stop-color="#1147E9" offset="0.991028"/>&#xa;</linearGradient>&#xa;<linearGradient gradientUnits="userSpaceOnUse" y2="10.5705" x2="8.82626" y1="7.69103" x1="6.68305" id="paint2_linear_3890_21475">&#xa;<stop stop-color="#1348FF"/>&#xa;<stop stop-color="#06238D" offset="1"/>&#xa;</linearGradient>&#xa;<clipPath id="clip0_3890_21475">&#xa;<rect transform="translate(3.19629 2.79907)" fill="white" height="9.99998" width="9.99997"/>&#xa;</clipPath>&#xa;</defs>&#xa;</svg>