<svg xmlns="http://www.w3.org/2000/svg" fill="none" viewBox="0 0 17 17" height="17" width="17">&#xa;<path fill="url(#paint0_linear_2_28798)" d="M0.213867 8.55273C0.213867 7.4694 0.422201 6.45898 0.838867 5.52148C1.25553 4.56315 1.81803 3.72982 2.52637 3.02148C3.2347 2.31315 4.06803 1.75065 5.02637 1.33398C5.9847 0.917318 7.00553 0.708984 8.08887 0.708984C9.1722 0.708984 10.1826 0.917318 11.1201 1.33398C12.0785 1.75065 12.9118 2.31315 13.6201 3.02148C14.3285 3.72982 14.891 4.56315 15.3076 5.52148C15.7243 6.45898 15.9326 7.4694 15.9326 8.55273C15.9326 9.63607 15.7243 10.6569 15.3076 11.6152C14.891 12.5736 14.3285 13.4069 13.6201 14.1152C12.9118 14.8236 12.0785 15.3861 11.1201 15.8027C10.1826 16.2194 9.1722 16.4277 8.08887 16.4277C7.00553 16.4277 5.9847 16.2194 5.02637 15.8027C4.06803 15.3861 3.2347 14.8236 2.52637 14.1152C1.81803 13.4069 1.25553 12.5736 0.838867 11.6152C0.422201 10.6569 0.213867 9.63607 0.213867 8.55273ZM9.65137 10.9277C10.318 10.9277 10.9326 11.084 11.4951 11.3965C12.0576 11.6882 12.516 12.0944 12.8701 12.6152C13.3493 12.0736 13.7139 11.459 13.9639 10.7715C14.2347 10.084 14.3701 9.3444 14.3701 8.55273C14.3701 7.67773 14.2035 6.86523 13.8701 6.11523C13.5368 5.3444 13.0889 4.67773 12.5264 4.11523C11.9639 3.55273 11.2972 3.10482 10.5264 2.77148C9.77637 2.43815 8.96387 2.27148 8.08887 2.27148C7.21387 2.27148 6.39095 2.43815 5.62012 2.77148C4.87012 3.10482 4.20345 3.55273 3.62012 4.11523C3.05762 4.67773 2.6097 5.3444 2.27637 6.11523C1.94303 6.86523 1.77637 7.67773 1.77637 8.55273C1.77637 9.3444 1.90137 10.084 2.15137 10.7715C2.4222 11.459 2.7972 12.0736 3.27637 12.6152C3.63053 12.0944 4.08887 11.6882 4.65137 11.3965C5.21387 11.084 5.82845 10.9277 6.49512 10.9277H9.65137ZM11.2139 6.99023C11.2139 7.42773 11.1305 7.8444 10.9639 8.24023C10.7972 8.61523 10.568 8.94857 10.2764 9.24023C10.0055 9.51107 9.68262 9.72982 9.30762 9.89648C8.93262 10.0632 8.52637 10.1465 8.08887 10.1465C7.65137 10.1465 7.2347 10.0632 6.83887 9.89648C6.46387 9.72982 6.13053 9.51107 5.83887 9.24023C5.56803 8.94857 5.34928 8.61523 5.18262 8.24023C5.01595 7.8444 4.93262 7.42773 4.93262 6.99023C4.93262 6.55273 5.01595 6.14648 5.18262 5.77148C5.34928 5.39648 5.56803 5.06315 5.83887 4.77148C6.13053 4.47982 6.46387 4.25065 6.83887 4.08398C7.2347 3.91732 7.65137 3.83398 8.08887 3.83398C8.52637 3.83398 8.93262 3.91732 9.30762 4.08398C9.68262 4.25065 10.0055 4.47982 10.2764 4.77148C10.568 5.06315 10.7972 5.39648 10.9639 5.77148C11.1305 6.14648 11.2139 6.55273 11.2139 6.99023ZM9.65137 6.99023C9.65137 6.55273 9.49512 6.18815 9.18262 5.89648C8.87012 5.58398 8.50553 5.42773 8.08887 5.42773C7.65137 5.42773 7.27637 5.58398 6.96387 5.89648C6.65137 6.18815 6.49512 6.55273 6.49512 6.99023C6.49512 7.42773 6.65137 7.80273 6.96387 8.11523C7.27637 8.4069 7.65137 8.55273 8.08887 8.55273C8.50553 8.55273 8.87012 8.4069 9.18262 8.11523C9.49512 7.80273 9.65137 7.42773 9.65137 6.99023ZM4.46387 13.709C4.96387 14.0632 5.51595 14.3444 6.12012 14.5527C6.74512 14.7611 7.40137 14.8652 8.08887 14.8652C8.75553 14.8652 9.39095 14.7611 9.99512 14.5527C10.6201 14.3444 11.1826 14.0632 11.6826 13.709C11.4743 13.334 11.1826 13.0423 10.8076 12.834C10.4535 12.6048 10.068 12.4902 9.65137 12.4902H6.49512C6.07845 12.4902 5.68262 12.6048 5.30762 12.834C4.95345 13.0423 4.6722 13.334 4.46387 13.709Z"/>&#xa;<defs>&#xa;<linearGradient gradientUnits="userSpaceOnUse" y2="16.4277" x2="8.07324" y1="0.708984" x1="8.07324" id="paint0_linear_2_28798">&#xa;<stop stop-color="#5B738B"/>&#xa;<stop stop-color="#223548" offset="1"/>&#xa;</linearGradient>&#xa;</defs>&#xa;</svg>