<svg xmlns="http://www.w3.org/2000/svg" fill="none" viewBox="0 0 49 49" height="49" width="49">&#xa;<circle stroke-width="0.857143" stroke="#D5DADD" fill="url(#paint0_linear_2622_2907)" r="23.5714" cy="24.0349" cx="24.5"/>&#xa;<g clip-path="url(#clip0_2622_2907)">&#xa;<path fill="url(#paint1_radial_2622_2907)" d="M26.0761 13.5478C26.0761 12.8022 26.6805 12.1978 27.4261 12.1978H31.5934C34.2029 12.1978 36.3184 14.3132 36.3184 16.9228V20.5117C36.3184 21.2573 35.714 21.8617 34.9684 21.8617C34.2228 21.8617 33.6184 21.2573 33.6184 20.5117V16.9228C33.6184 15.8044 32.7118 14.8978 31.5934 14.8978H27.4261C26.6805 14.8978 26.0761 14.2934 26.0761 13.5478ZM14.0304 25.4778C14.776 25.4778 15.3804 26.0822 15.3804 26.8278V31.1339C15.3804 32.2523 16.287 33.1589 17.4054 33.1589H21.9892C22.7347 33.1589 23.3392 33.7633 23.3392 34.5089C23.3392 35.2545 22.7347 35.8589 21.9892 35.8589H17.4054C14.7959 35.8589 12.6804 33.7434 12.6804 31.1339V26.8278C12.6804 26.0822 13.2848 25.4778 14.0304 25.4778Z" clip-rule="evenodd" fill-rule="evenodd"/>&#xa;<path fill="url(#paint2_radial_2622_2907)" d="M37.5781 34.6566C37.8594 34.9378 38 35.2367 38 35.5531C38 35.9046 37.8594 36.221 37.5781 36.5023C37.2969 36.7835 36.9805 36.9242 36.6289 36.9242C36.3125 36.9242 36.0137 36.7835 35.7324 36.5023L31.9883 32.7581C30.8984 33.7074 29.668 34.1644 28.2969 34.1292C26.9258 34.0589 25.7305 33.514 24.7109 32.4945L23.498 31.2816C23.2168 31.0003 23.0762 30.7015 23.0762 30.3851C23.0762 30.0335 23.2168 29.7171 23.498 29.4359L30.3535 22.5804C30.6348 22.2992 30.9512 22.1585 31.3027 22.1585C31.6543 22.1585 31.9707 22.2992 32.252 22.5804L33.4648 23.7933C34.4844 24.8128 35.0117 25.9906 35.0469 27.3265C35.1172 28.6273 34.7129 29.805 33.834 30.8597L37.5781 34.6566Z" clip-rule="evenodd" fill-rule="evenodd"/>&#xa;<path fill="url(#paint3_radial_2622_2907)" d="M23.7323 25.9386C23.4511 26.2198 23.1347 26.3605 22.7831 26.3605C22.4667 26.3605 22.1679 26.2198 21.8866 25.9386L19.4608 23.5128L18.4061 24.5675C18.1249 24.8487 17.8085 24.9894 17.4569 24.9894C17.0702 24.9894 16.7538 24.8487 16.5077 24.5675L15.2948 23.4073C14.2753 22.3878 13.7303 21.2276 13.66 19.9269C13.5897 18.5909 13.9589 17.378 14.7675 16.2882L11.4219 12.8552C11.1406 12.574 11 12.2576 11 11.906C11 11.5544 11.1406 11.238 11.4219 10.9568C11.7031 10.6755 12.002 10.5349 12.3184 10.5349C12.6699 10.5349 12.9863 10.6755 13.2676 10.9568L16.6132 14.3898C17.703 13.5108 18.9335 13.1065 20.3046 13.1769C21.6757 13.2472 22.871 13.7921 23.8905 14.8116L25.1034 16.0245C25.3495 16.2706 25.4726 16.587 25.4726 16.9737C25.4726 17.3253 25.3495 17.6241 25.1034 17.8702L23.996 18.9776L26.4218 21.3507C26.7031 21.6319 26.8437 21.9483 26.8437 22.2999C26.8437 22.6515 26.7031 22.9679 26.4218 23.2491C26.1406 23.5304 25.8241 23.671 25.4726 23.671C25.121 23.671 24.8046 23.5304 24.5234 23.2491L22.1503 20.8233L21.3065 21.6671L22.5194 22.8536L23.7323 24.0401C24.0136 24.3214 24.1542 24.6378 24.1542 24.9894C24.1542 25.3409 24.0136 25.6573 23.7323 25.9386Z"/>&#xa;</g>&#xa;<defs>&#xa;<linearGradient gradientUnits="userSpaceOnUse" y2="44.2792" x2="41.5645" y1="6.84775" x1="4.85287" id="paint0_linear_2622_2907">&#xa;<stop stop-color="white"/>&#xa;<stop stop-color="#EAECEE" offset="1"/>&#xa;</linearGradient>&#xa;<radialGradient gradientTransform="translate(16.346 15.6719) rotate(45.3461) scale(23.2856 43.9958)" gradientUnits="userSpaceOnUse" r="1" cy="0" cx="0" id="paint1_radial_2622_2907">&#xa;<stop stop-color="#0195FF"/>&#xa;<stop stop-color="#1147E9" offset="1"/>&#xa;</radialGradient>&#xa;<radialGradient gradientTransform="translate(25.4512 24.3746) rotate(44.6947) scale(14.7021 17.8421)" gradientUnits="userSpaceOnUse" r="1" cy="0" cx="0" id="paint2_radial_2622_2907">&#xa;<stop stop-color="#00BBFF"/>&#xa;<stop stop-color="#008BFF" offset="1"/>&#xa;</radialGradient>&#xa;<radialGradient gradientTransform="translate(13.4534 12.9156) rotate(44.9672) scale(15.5987 14.2145)" gradientUnits="userSpaceOnUse" r="1" cy="0" cx="0" id="paint3_radial_2622_2907">&#xa;<stop stop-color="#1348FF"/>&#xa;<stop stop-color="#06238D" offset="1"/>&#xa;</radialGradient>&#xa;<clipPath id="clip0_2622_2907">&#xa;<rect transform="translate(11 10.5349)" fill="white" height="27" width="27"/>&#xa;</clipPath>&#xa;</defs>&#xa;</svg>