<svg xmlns="http://www.w3.org/2000/svg" fill="none" viewBox="0 0 24 24" height="24" width="24">&#xa;<g clip-path="url(#clip0_995_80)">&#xa;<path fill="url(#paint0_linear_995_80)" d="M22.263 15.6066C22.5129 15.7005 22.6848 15.8567 22.7786 16.0755C22.9035 16.263 22.9661 16.4817 22.9661 16.7316C22.9661 16.8567 22.9349 17.013 22.8723 17.2005C21.8723 19.3254 20.4036 20.9973 18.4661 22.2161C16.5599 23.4348 14.4192 24.0441 12.0442 24.0441C10.1692 24.0441 8.3879 23.6067 6.7004 22.7316C5.04414 21.888 3.62227 20.7005 2.43476 19.1691V21.3255C2.43476 21.6692 2.32538 21.966 2.10663 22.2161C1.88789 22.4348 1.60664 22.5441 1.26288 22.5441C0.919131 22.5441 0.622256 22.4348 0.372254 22.2161C0.153504 21.966 0.0441284 21.6692 0.0441284 21.3255V16.6848C0.0441284 16.341 0.153504 16.0598 0.372254 15.8411C0.622256 15.6224 0.919131 15.513 1.26288 15.513H5.85665C6.2004 15.513 6.48165 15.6224 6.7004 15.8411C6.9504 16.0598 7.0754 16.341 7.0754 16.6848C7.0754 17.0286 6.9504 17.3255 6.7004 17.5755C6.48165 17.7942 6.2004 17.9036 5.85665 17.9036H4.54414C5.4504 19.0911 6.55977 20.013 7.87228 20.6691C9.21603 21.3255 10.6067 21.6536 12.0442 21.6536C13.9192 21.6536 15.6224 21.1692 17.1536 20.2005C18.7161 19.2005 19.8879 17.8566 20.6691 16.1691C20.8254 15.888 21.0599 15.6848 21.3723 15.5598C21.6848 15.4349 21.9816 15.4505 22.263 15.6066ZM22.8255 1.59101C23.1692 1.59101 23.4504 1.716 23.6691 1.96601C23.9192 2.18476 24.0441 2.46601 24.0441 2.80976V7.4504C24.0441 7.79416 23.9192 8.07541 23.6691 8.29415C23.4504 8.5129 23.1692 8.62228 22.8255 8.62228H18.2316C17.888 8.62228 17.5911 8.5129 17.3411 8.29415C17.1224 8.07541 17.013 7.79416 17.013 7.4504C17.013 7.10665 17.1224 6.82539 17.3411 6.60665C17.5911 6.35664 17.888 6.23165 18.2316 6.23165H19.5441C18.6066 5.04414 17.4816 4.12227 16.1691 3.46601C14.8567 2.80976 13.4817 2.48164 12.0442 2.48164C10.1379 2.48164 8.41915 2.96602 6.8879 3.93477C5.35665 4.90351 4.20039 6.23165 3.41914 7.91915C3.32539 8.16916 3.16913 8.35666 2.95039 8.48165C2.76289 8.57541 2.55976 8.62228 2.34101 8.62228C2.091 8.62228 1.91913 8.59103 1.82538 8.52853C1.57538 8.43478 1.38788 8.29415 1.26288 8.10665C1.16913 7.88791 1.12226 7.66915 1.12226 7.4504C1.12226 7.29415 1.15351 7.12228 1.21601 6.93477C2.21602 4.80976 3.66914 3.13789 5.5754 1.91913C7.51291 0.669131 9.66916 0.0441284 12.0442 0.0441284C13.9192 0.0441284 15.6848 0.48163 17.3411 1.35663C19.0286 2.23163 20.466 3.43477 21.6536 4.96602V2.80976C21.6536 2.46601 21.7629 2.18476 21.9816 1.96601C22.2005 1.716 22.4817 1.59101 22.8255 1.59101Z"/>&#xa;</g>&#xa;<defs>&#xa;<linearGradient gradientUnits="userSpaceOnUse" y2="24.0441" x2="12.0441" y1="0.0441284" x1="12.0441" id="paint0_linear_995_80">&#xa;<stop stop-color="#5B738B"/>&#xa;<stop stop-color="#223548" offset="1"/>&#xa;</linearGradient>&#xa;<clipPath id="clip0_995_80">&#xa;<rect fill="white" height="24" width="24"/>&#xa;</clipPath>&#xa;</defs>&#xa;</svg>