<svg xmlns="http://www.w3.org/2000/svg" fill="none" viewBox="0 0 16 16" height="16" width="16">&#xa;<g clip-path="url(#clip0_963_723)">&#xa;<path fill="url(#paint0_linear_963_723)" d="M14.842 10.4044C15.0086 10.467 15.1232 10.5711 15.1857 10.717C15.269 10.842 15.3107 10.9878 15.3107 11.1544C15.3107 11.2378 15.2899 11.342 15.2482 11.467C14.5815 12.8836 13.6024 13.9982 12.3107 14.8107C11.0399 15.6232 9.61278 16.0294 8.02944 16.0294C6.77944 16.0294 5.59194 15.7378 4.46693 15.1544C3.36276 14.592 2.41485 13.8003 1.62317 12.7794V14.217C1.62317 14.4461 1.55025 14.644 1.40442 14.8107C1.25859 14.9565 1.07109 15.0294 0.841921 15.0294C0.612754 15.0294 0.414837 14.9565 0.24817 14.8107C0.102336 14.644 0.0294189 14.4461 0.0294189 14.217V11.1232C0.0294189 10.894 0.102336 10.7065 0.24817 10.5607C0.414837 10.4149 0.612754 10.342 0.841921 10.342H3.90443C4.1336 10.342 4.3211 10.4149 4.46693 10.5607C4.6336 10.7065 4.71693 10.894 4.71693 11.1232C4.71693 11.3524 4.6336 11.5503 4.46693 11.717C4.3211 11.8628 4.1336 11.9357 3.90443 11.9357H3.02943C3.6336 12.7274 4.37318 13.342 5.24819 13.7794C6.14402 14.217 7.07111 14.4357 8.02944 14.4357C9.27945 14.4357 10.4149 14.1128 11.4357 13.467C12.4774 12.8003 13.2586 11.9044 13.7794 10.7794C13.8836 10.592 14.0399 10.4565 14.2482 10.3732C14.4565 10.2899 14.6544 10.3003 14.842 10.4044ZM15.217 1.06067C15.4461 1.06067 15.6336 1.144 15.7794 1.31067C15.9461 1.4565 16.0294 1.644 16.0294 1.87317V4.96693C16.0294 5.19611 15.9461 5.38361 15.7794 5.52944C15.6336 5.67527 15.4461 5.74819 15.217 5.74819H12.1544C11.9253 5.74819 11.7274 5.67527 11.5607 5.52944C11.4149 5.38361 11.342 5.19611 11.342 4.96693C11.342 4.73776 11.4149 4.55026 11.5607 4.40443C11.7274 4.23776 11.9253 4.15443 12.1544 4.15443H13.0294C12.4044 3.36276 11.6544 2.74818 10.7794 2.31068C9.90445 1.87317 8.98778 1.65442 8.02944 1.65442C6.75861 1.65442 5.61277 1.97734 4.59193 2.62318C3.5711 3.26901 2.80026 4.15443 2.27943 5.27944C2.21693 5.44611 2.11276 5.57111 1.96692 5.65444C1.84192 5.71694 1.7065 5.74819 1.56067 5.74819C1.394 5.74819 1.27942 5.72736 1.21692 5.68569C1.05025 5.62319 0.925255 5.52944 0.841921 5.40444C0.779421 5.25861 0.748171 5.11276 0.748171 4.96693C0.748171 4.86276 0.769004 4.74818 0.810671 4.62318C1.47734 3.20651 2.4461 2.09193 3.71693 1.27942C5.0086 0.446087 6.44611 0.0294189 8.02944 0.0294189C9.27945 0.0294189 10.4565 0.321087 11.5607 0.904422C12.6857 1.48775 13.644 2.28985 14.4357 3.31068V1.87317C14.4357 1.644 14.5086 1.4565 14.6544 1.31067C14.8003 1.144 14.9878 1.06067 15.217 1.06067Z"/>&#xa;</g>&#xa;<defs>&#xa;<linearGradient gradientUnits="userSpaceOnUse" y2="14.7775" x2="13.7176" y1="2.30037" x1="1.48037" id="paint0_linear_963_723">&#xa;<stop stop-color="#00CEAC"/>&#xa;<stop stop-color="#07838F" offset="1"/>&#xa;</linearGradient>&#xa;<clipPath id="clip0_963_723">&#xa;<rect fill="white" height="16" width="16"/>&#xa;</clipPath>&#xa;</defs>&#xa;</svg>