<svg xmlns="http://www.w3.org/2000/svg" fill="none" viewBox="0 0 24 24" height="24" width="24">&#xa;<g clip-path="url(#clip0_995_129)">&#xa;<path fill="url(#paint0_linear_995_129)" d="M19.0689 11.7423C20.5287 12.5452 21.7578 13.7096 22.6384 15.1239C23.5461 16.5636 24 18.1913 24 20.0083V22.685C24 23.5612 23.5461 24 22.6384 24H6.66992C6.26263 24 5.9335 23.8753 5.68251 23.6243C5.43303 23.4049 5.30678 23.0922 5.30678 22.685V21.3233H1.31505C0.43885 21.3233 0 20.8845 0 20.0083V17.3316C0 16.0151 0.360699 14.8263 1.08059 13.7607C1.76849 12.7246 2.72692 11.8967 3.85196 11.3666C3.45457 10.9139 3.15111 10.3867 2.95923 9.81562C2.77401 9.23901 2.67871 8.6373 2.67669 8.03167C2.67669 7.28022 2.81796 6.59189 3.10051 5.96518C3.38155 5.30691 3.75728 4.74332 4.22769 4.27442C4.71485 3.78317 5.28791 3.38534 5.91847 3.10065C6.57116 2.81999 7.2745 2.67625 7.98497 2.67834C8.2044 2.67834 8.40729 2.69337 8.59515 2.72343C8.78302 2.72343 8.98591 2.75649 9.20534 2.81811C9.7908 1.95007 10.5817 1.24019 11.5078 0.751619C12.4801 0.250317 13.5595 -0.00754507 14.6534 0.000168078C15.5927 0.000168078 16.4704 0.173002 17.2835 0.517166C18.0981 0.862833 18.8014 1.34677 19.3966 1.97348C19.9917 2.56863 20.4621 3.27198 20.8063 4.08656C21.152 4.86807 21.3233 5.73073 21.3233 6.67004C21.3264 7.65746 21.1183 8.63412 20.7131 9.53457C20.3514 10.3925 19.7873 11.15 19.0689 11.7423ZM14.6519 2.67684C13.5247 2.67684 12.5704 3.06759 11.7873 3.8521C11.0359 4.60356 10.6602 5.54287 10.6602 6.67004C10.6602 7.79722 11.0359 8.75156 11.7873 9.53457C12.5689 10.286 13.5247 10.6618 14.6519 10.6618C15.7791 10.6618 16.7184 10.286 17.4698 9.53457C18.2529 8.75307 18.6436 7.79722 18.6436 6.67004C18.6436 5.54287 18.2529 4.60356 17.4714 3.8521C16.7199 3.06909 15.7791 2.67684 14.6519 2.67684ZM7.8437 5.35651C7.1223 5.35651 6.49709 5.62252 5.96506 6.15455C5.46459 6.65502 5.2136 7.28173 5.2136 8.03318C5.2136 8.75457 5.46459 9.37978 5.96506 9.9118C6.49709 10.4123 7.1223 10.6633 7.8437 10.6633H9.34661C8.92645 10.1064 8.59397 9.48861 8.3607 8.83122C8.11485 8.13759 7.98782 7.40745 7.98497 6.67155V6.01027C8.01004 5.78732 8.05686 5.56735 8.12474 5.3535H7.8437V5.35651ZM2.67669 18.6948H5.44806C5.7306 16.5336 6.62183 14.7496 8.12474 13.3399H6.67143C5.54424 13.3399 4.58839 13.7307 3.80537 14.5137C3.05392 15.2651 2.67819 16.206 2.67819 17.3331L2.67669 18.6948ZM21.3233 20.0098C21.3337 19.1219 21.1576 18.2418 20.8063 17.4263C20.4782 16.6371 19.9993 15.9193 19.3966 15.3132C18.801 14.6863 18.0814 14.1903 17.2835 13.8569C16.4507 13.5086 15.556 13.3328 14.6534 13.3399C13.7141 13.3399 12.8379 13.5128 12.0233 13.8569C11.2418 14.2026 10.5354 14.6865 9.9102 15.3132C9.30744 15.9193 8.8286 16.637 8.50047 17.4263C8.14975 18.2419 7.97413 19.122 7.98497 20.0098V21.3248H21.3233V20.0098Z"/>&#xa;</g>&#xa;<defs>&#xa;<linearGradient gradientUnits="userSpaceOnUse" y2="22.1221" x2="20.5322" y1="3.40642" x1="2.17643" id="paint0_linear_995_129">&#xa;<stop stop-color="#00CEAC"/>&#xa;<stop stop-color="#07838F" offset="1"/>&#xa;</linearGradient>&#xa;<clipPath id="clip0_995_129">&#xa;<rect fill="white" height="24" width="24"/>&#xa;</clipPath>&#xa;</defs>&#xa;</svg>