<svg xmlns="http://www.w3.org/2000/svg" fill="none" viewBox="0 0 16 16" height="16" width="16">&#xa;<path fill="url(#paint0_linear_963_561)" d="M15.1875 11C15.4167 11 15.6042 11.0833 15.75 11.25C15.9167 11.3958 16 11.5833 16 11.8125V14.1875C16 14.4167 15.9167 14.6146 15.75 14.7812C15.6042 14.9271 15.4167 15 15.1875 15H12.8125C12.5833 15 12.3854 14.9271 12.2188 14.7812C12.0729 14.6146 12 14.4167 12 14.1875V11.8125C12 11.5833 12.0729 11.3958 12.2188 11.25C12.3854 11.0833 12.5833 11 12.8125 11H13.4062V9.8125C13.4062 9.66667 13.3333 9.59375 13.1875 9.59375H8.8125V11H9.1875C9.41667 11 9.60417 11.0833 9.75 11.25C9.91667 11.3958 10 11.5833 10 11.8125V14.1875C10 14.4167 9.91667 14.6146 9.75 14.7812C9.60417 14.9271 9.41667 15 9.1875 15H6.8125C6.58333 15 6.38542 14.9271 6.21875 14.7812C6.07292 14.6146 6 14.4167 6 14.1875V11.8125C6 11.5833 6.07292 11.3958 6.21875 11.25C6.38542 11.0833 6.58333 11 6.8125 11H7.1875V9.59375H2.8125C2.66667 9.59375 2.59375 9.66667 2.59375 9.8125V11H3.1875C3.41667 11 3.60417 11.0833 3.75 11.25C3.91667 11.3958 4 11.5833 4 11.8125V14.1875C4 14.4167 3.91667 14.6146 3.75 14.7812C3.60417 14.9271 3.41667 15 3.1875 15H0.8125C0.583333 15 0.385417 14.9271 0.21875 14.7812C0.0729167 14.6146 0 14.4167 0 14.1875V11.8125C0 11.5833 0.0729167 11.3958 0.21875 11.25C0.385417 11.0833 0.583333 11 0.8125 11H1V9.8125C1 9.3125 1.17708 8.88542 1.53125 8.53125C1.88542 8.17708 2.3125 8 2.8125 8H7.1875V6H4.8125C4.58333 6 4.38542 5.92708 4.21875 5.78125C4.07292 5.61458 4 5.41667 4 5.1875V1.8125C4 1.58333 4.07292 1.39583 4.21875 1.25C4.38542 1.08333 4.58333 1 4.8125 1H11.1875C11.4167 1 11.6042 1.08333 11.75 1.25C11.9167 1.39583 12 1.58333 12 1.8125V5.1875C12 5.41667 11.9167 5.61458 11.75 5.78125C11.6042 5.92708 11.4167 6 11.1875 6H8.8125V8H13.1875C13.6875 8 14.1146 8.17708 14.4688 8.53125C14.8229 8.88542 15 9.3125 15 9.8125V11H15.1875ZM5.59375 4.40625H10.4062V2.59375H5.59375V4.40625ZM2.40625 12.5938H1.59375V13.4062H2.40625V12.5938ZM8.40625 12.5938H7.59375V13.4062H8.40625V12.5938ZM14.4062 12.5938H13.5938V13.4062H14.4062V12.5938Z"/>&#xa;<defs>&#xa;<linearGradient gradientUnits="userSpaceOnUse" y2="11.0955" x2="15.17" y1="2.31695" x1="2.06785" id="paint0_linear_963_561">&#xa;<stop stop-color="#2395FF"/>&#xa;<stop stop-color="#0057D2" offset="1"/>&#xa;</linearGradient>&#xa;</defs>&#xa;</svg>