<svg xmlns="http://www.w3.org/2000/svg" fill="none" viewBox="0 0 24 24" height="24" width="24">&#xa;<path fill="url(#paint0_linear_995_86)" d="M22.7812 17C23.125 17 23.4062 17.125 23.625 17.375C23.875 17.5938 24 17.875 24 18.2188V21.7812C24 22.125 23.875 22.4219 23.625 22.6719C23.4062 22.8906 23.125 23 22.7812 23H19.2188C18.875 23 18.5781 22.8906 18.3281 22.6719C18.1094 22.4219 18 22.125 18 21.7812V18.2188C18 17.875 18.1094 17.5938 18.3281 17.375C18.5781 17.125 18.875 17 19.2188 17H20.1094V15.2188C20.1094 15 20 14.8906 19.7812 14.8906H13.2188V17H13.7812C14.125 17 14.4062 17.125 14.625 17.375C14.875 17.5938 15 17.875 15 18.2188V21.7812C15 22.125 14.875 22.4219 14.625 22.6719C14.4062 22.8906 14.125 23 13.7812 23H10.2188C9.875 23 9.57812 22.8906 9.32812 22.6719C9.10938 22.4219 9 22.125 9 21.7812V18.2188C9 17.875 9.10938 17.5938 9.32812 17.375C9.57812 17.125 9.875 17 10.2188 17H10.7812V14.8906H4.21875C4 14.8906 3.89062 15 3.89062 15.2188V17H4.78125C5.125 17 5.40625 17.125 5.625 17.375C5.875 17.5938 6 17.875 6 18.2188V21.7812C6 22.125 5.875 22.4219 5.625 22.6719C5.40625 22.8906 5.125 23 4.78125 23H1.21875C0.875 23 0.578125 22.8906 0.328125 22.6719C0.109375 22.4219 0 22.125 0 21.7812V18.2188C0 17.875 0.109375 17.5938 0.328125 17.375C0.578125 17.125 0.875 17 1.21875 17H1.5V15.2188C1.5 14.4688 1.76562 13.8281 2.29688 13.2969C2.82812 12.7656 3.46875 12.5 4.21875 12.5H10.7812V9.5H7.21875C6.875 9.5 6.57812 9.39062 6.32812 9.17188C6.10938 8.92188 6 8.625 6 8.28125V3.21875C6 2.875 6.10938 2.59375 6.32812 2.375C6.57812 2.125 6.875 2 7.21875 2H16.7812C17.125 2 17.4062 2.125 17.625 2.375C17.875 2.59375 18 2.875 18 3.21875V8.28125C18 8.625 17.875 8.92188 17.625 9.17188C17.4062 9.39062 17.125 9.5 16.7812 9.5H13.2188V12.5H19.7812C20.5312 12.5 21.1719 12.7656 21.7031 13.2969C22.2344 13.8281 22.5 14.4688 22.5 15.2188V17H22.7812ZM8.39062 7.10938H15.6094V4.39062H8.39062V7.10938ZM3.60938 19.3906H2.39062V20.6094H3.60938V19.3906ZM12.6094 19.3906H11.3906V20.6094H12.6094V19.3906ZM21.6094 19.3906H20.3906V20.6094H21.6094V19.3906Z"/>&#xa;<defs>&#xa;<linearGradient gradientUnits="userSpaceOnUse" y2="23" x2="12" y1="2" x1="12" id="paint0_linear_995_86">&#xa;<stop stop-color="#5B738B"/>&#xa;<stop stop-color="#223548" offset="1"/>&#xa;</linearGradient>&#xa;</defs>&#xa;</svg>