<svg xmlns="http://www.w3.org/2000/svg" fill="none" viewBox="0 0 16 16" height="16" width="16">&#xa;<g clip-path="url(#clip0_958_415)">&#xa;<path fill="url(#paint0_linear_958_415)" d="M0 7.9841C0 6.88138 0.212061 5.85288 0.636183 4.89861C1.0603 3.92313 1.63287 3.07488 2.35388 2.35388C3.07488 1.63287 3.92313 1.0603 4.89861 0.636183C5.87409 0.212061 6.91319 0 8.0159 0C9.11862 0 10.1471 0.212061 11.1014 0.636183C12.0769 1.0603 12.9251 1.63287 13.6461 2.35388C14.3671 3.07488 14.9397 3.92313 15.3638 4.89861C15.7879 5.85288 16 6.88138 16 7.9841C16 9.08681 15.7879 10.1259 15.3638 11.1014C14.9397 12.0769 14.3671 12.9251 13.6461 13.6461C12.9251 14.3671 12.0769 14.9397 11.1014 15.3638C10.1471 15.7879 9.11862 16 8.0159 16C6.91319 16 5.87409 15.7879 4.89861 15.3638C3.92313 14.9397 3.07488 14.3671 2.35388 13.6461C1.63287 12.9251 1.0603 12.0769 0.636183 11.1014C0.212061 10.1259 0 9.08681 0 7.9841ZM9.60636 10.4016C10.285 10.4016 10.9105 10.5606 11.4831 10.8787C12.0557 11.1756 12.5222 11.5891 12.8827 12.1193C13.3704 11.5679 13.7416 10.9423 13.996 10.2425C14.2717 9.54274 14.4095 8.78993 14.4095 7.9841C14.4095 7.09344 14.2399 6.2664 13.9006 5.50298C13.5613 4.71836 13.1054 4.03976 12.5328 3.4672C11.9602 2.89463 11.2816 2.4387 10.497 2.0994C9.7336 1.76011 8.90656 1.59046 8.0159 1.59046C7.12525 1.59046 6.28761 1.76011 5.50298 2.0994C4.73956 2.4387 4.06097 2.89463 3.4672 3.4672C2.89463 4.03976 2.4387 4.71836 2.0994 5.50298C1.76011 6.2664 1.59046 7.09344 1.59046 7.9841C1.59046 8.78993 1.71769 9.54274 1.97217 10.2425C2.24785 10.9423 2.62956 11.5679 3.1173 12.1193C3.4778 11.5891 3.94433 11.1756 4.5169 10.8787C5.08946 10.5606 5.71504 10.4016 6.39364 10.4016H9.60636ZM11.1968 6.39364C11.1968 6.83897 11.112 7.26309 10.9423 7.666C10.7727 8.04771 10.5394 8.38701 10.2425 8.6839C9.96686 8.95958 9.63817 9.18224 9.25646 9.35189C8.87475 9.52154 8.46123 9.60636 8.0159 9.60636C7.57058 9.60636 7.14645 9.52154 6.74354 9.35189C6.36183 9.18224 6.02253 8.95958 5.72565 8.6839C5.44997 8.38701 5.2273 8.04771 5.05765 7.666C4.88801 7.26309 4.80318 6.83897 4.80318 6.39364C4.80318 5.94831 4.88801 5.53479 5.05765 5.15308C5.2273 4.77137 5.44997 4.43207 5.72565 4.13519C6.02253 3.8383 6.36183 3.60504 6.74354 3.43539C7.14645 3.26574 7.57058 3.18091 8.0159 3.18091C8.46123 3.18091 8.87475 3.26574 9.25646 3.43539C9.63817 3.60504 9.96686 3.8383 10.2425 4.13519C10.5394 4.43207 10.7727 4.77137 10.9423 5.15308C11.112 5.53479 11.1968 5.94831 11.1968 6.39364ZM9.60636 6.39364C9.60636 5.94831 9.44732 5.5772 9.12922 5.28032C8.81113 4.96223 8.44003 4.80318 8.0159 4.80318C7.57058 4.80318 7.18887 4.96223 6.87078 5.28032C6.55268 5.5772 6.39364 5.94831 6.39364 6.39364C6.39364 6.83897 6.55268 7.22068 6.87078 7.53877C7.18887 7.83565 7.57058 7.9841 8.0159 7.9841C8.44003 7.9841 8.81113 7.83565 9.12922 7.53877C9.44732 7.22068 9.60636 6.83897 9.60636 6.39364ZM4.32604 13.2326C4.83499 13.5931 5.39695 13.8794 6.01193 14.0915C6.64811 14.3035 7.3161 14.4095 8.0159 14.4095C8.6945 14.4095 9.34128 14.3035 9.95626 14.0915C10.5924 13.8794 11.165 13.5931 11.674 13.2326C11.4619 12.8509 11.165 12.554 10.7833 12.3419C10.4228 12.1087 10.0305 11.992 9.60636 11.992H6.39364C5.96952 11.992 5.5666 12.1087 5.18489 12.3419C4.82439 12.554 4.5381 12.8509 4.32604 13.2326Z"/>&#xa;</g>&#xa;<defs>&#xa;<linearGradient gradientUnits="userSpaceOnUse" y2="16" x2="8" y1="0" x1="8" id="paint0_linear_958_415">&#xa;<stop stop-color="#5B738B"/>&#xa;<stop stop-color="#223548" offset="1"/>&#xa;</linearGradient>&#xa;<clipPath id="clip0_958_415">&#xa;<rect fill="white" height="16" width="16"/>&#xa;</clipPath>&#xa;</defs>&#xa;</svg>