<svg xmlns="http://www.w3.org/2000/svg" fill="none" viewBox="0 0 24 24" height="24" width="24">&#xa;<g clip-path="url(#clip0_995_55)">&#xa;<path fill="url(#paint0_linear_995_55)" d="M0 11.9761C0 10.3221 0.318091 8.77932 0.954274 7.34791C1.59046 5.88469 2.4493 4.61233 3.53082 3.53082C4.61233 2.4493 5.88469 1.59046 7.34791 0.954274C8.81113 0.318091 10.3698 0 12.0239 0C13.6779 0 15.2207 0.318091 16.6521 0.954274C18.1153 1.59046 19.3877 2.4493 20.4692 3.53082C21.5507 4.61233 22.4095 5.88469 23.0457 7.34791C23.6819 8.77932 24 10.3221 24 11.9761C24 13.6302 23.6819 15.1889 23.0457 16.6521C22.4095 18.1153 21.5507 19.3877 20.4692 20.4692C19.3877 21.5507 18.1153 22.4095 16.6521 23.0457C15.2207 23.6819 13.6779 24 12.0239 24C10.3698 24 8.81113 23.6819 7.34791 23.0457C5.88469 22.4095 4.61233 21.5507 3.53082 20.4692C2.4493 19.3877 1.59046 18.1153 0.954274 16.6521C0.318091 15.1889 0 13.6302 0 11.9761ZM14.4095 15.6024C15.4274 15.6024 16.3658 15.841 17.2247 16.3181C18.0835 16.7634 18.7833 17.3837 19.3241 18.1789C20.0557 17.3519 20.6123 16.4135 20.994 15.3638C21.4076 14.3141 21.6143 13.1849 21.6143 11.9761C21.6143 10.6402 21.3598 9.3996 20.8509 8.25447C20.3419 7.07754 19.6581 6.05964 18.7992 5.2008C17.9404 4.34195 16.9225 3.65805 15.7455 3.14911C14.6004 2.64016 13.3598 2.38569 12.0239 2.38569C10.6879 2.38569 9.43141 2.64016 8.25447 3.14911C7.10934 3.65805 6.09145 4.34195 5.2008 5.2008C4.34195 6.05964 3.65805 7.07754 3.14911 8.25447C2.64016 9.3996 2.38569 10.6402 2.38569 11.9761C2.38569 13.1849 2.57654 14.3141 2.95825 15.3638C3.37177 16.4135 3.94433 17.3519 4.67594 18.1789C5.2167 17.3837 5.9165 16.7634 6.77535 16.3181C7.6342 15.841 8.57257 15.6024 9.59046 15.6024H14.4095ZM16.7952 9.59046C16.7952 10.2584 16.668 10.8946 16.4135 11.499C16.159 12.0716 15.8091 12.5805 15.3638 13.0258C14.9503 13.4394 14.4573 13.7734 13.8847 14.0278C13.3121 14.2823 12.6918 14.4095 12.0239 14.4095C11.3559 14.4095 10.7197 14.2823 10.1153 14.0278C9.54274 13.7734 9.0338 13.4394 8.58847 13.0258C8.17495 12.5805 7.84095 12.0716 7.58648 11.499C7.33201 10.8946 7.20477 10.2584 7.20477 9.59046C7.20477 8.92247 7.33201 8.30219 7.58648 7.72962C7.84095 7.15706 8.17495 6.64811 8.58847 6.20278C9.0338 5.75746 9.54274 5.40755 10.1153 5.15308C10.7197 4.89861 11.3559 4.77137 12.0239 4.77137C12.6918 4.77137 13.3121 4.89861 13.8847 5.15308C14.4573 5.40755 14.9503 5.75746 15.3638 6.20278C15.8091 6.64811 16.159 7.15706 16.4135 7.72962C16.668 8.30219 16.7952 8.92247 16.7952 9.59046ZM14.4095 9.59046C14.4095 8.92247 14.171 8.36581 13.6938 7.92048C13.2167 7.44334 12.66 7.20477 12.0239 7.20477C11.3559 7.20477 10.7833 7.44334 10.3062 7.92048C9.82903 8.36581 9.59046 8.92247 9.59046 9.59046C9.59046 10.2584 9.82903 10.831 10.3062 11.3082C10.7833 11.7535 11.3559 11.9761 12.0239 11.9761C12.66 11.9761 13.2167 11.7535 13.6938 11.3082C14.171 10.831 14.4095 10.2584 14.4095 9.59046ZM6.48907 19.8489C7.25249 20.3897 8.09543 20.8191 9.01789 21.1372C9.97217 21.4553 10.9742 21.6143 12.0239 21.6143C13.0417 21.6143 14.0119 21.4553 14.9344 21.1372C15.8887 20.8191 16.7475 20.3897 17.5109 19.8489C17.1928 19.2763 16.7475 18.831 16.175 18.5129C15.6342 18.163 15.0457 17.9881 14.4095 17.9881H9.59046C8.95428 17.9881 8.3499 18.163 7.77734 18.5129C7.23658 18.831 6.80716 19.2763 6.48907 19.8489Z"/>&#xa;</g>&#xa;<defs>&#xa;<linearGradient gradientUnits="userSpaceOnUse" y2="24" x2="12" y1="0" x1="12" id="paint0_linear_995_55">&#xa;<stop stop-color="#5B738B"/>&#xa;<stop stop-color="#223548" offset="1"/>&#xa;</linearGradient>&#xa;<clipPath id="clip0_995_55">&#xa;<rect fill="white" height="24" width="24"/>&#xa;</clipPath>&#xa;</defs>&#xa;</svg>