<svg xmlns="http://www.w3.org/2000/svg" fill="none" viewBox="0 0 17 17" height="17" width="17">&#xa;<g clip-path="url(#clip0_2_28793)">&#xa;<path fill="url(#paint0_linear_2_28793)" d="M8.88887 11.2914C8.88887 11.7314 8.52887 12.0914 8.08887 12.0914H7.28887V13.6354H8.08887C8.52887 13.6354 8.88887 13.9954 8.88887 14.4354C8.88887 14.8754 8.52887 15.2354 8.08887 15.2354H4.08887C3.64887 15.2354 3.28887 14.8754 3.28887 14.4354C3.28887 13.9954 3.64887 13.6354 4.08887 13.6354H5.68887V12.0914H2.48887C1.16887 12.0914 0.0888672 11.0754 0.0888672 9.8274V3.9554C0.0888672 2.7074 1.16887 1.6834 2.48887 1.6994H11.2889C12.6089 1.6994 13.6889 2.7154 13.6889 3.9634C13.6889 4.4034 13.3289 4.7794 12.8889 4.7794C12.4489 4.7794 12.0889 4.4354 12.0889 3.9954C12.0889 3.5874 11.7289 3.2914 11.2889 3.2914H2.48887C2.04887 3.2914 1.68887 3.5874 1.68887 3.9554V9.8274C1.68887 10.1954 2.04887 10.4914 2.48887 10.4914H8.08887C8.52887 10.4914 8.88887 10.8514 8.88887 11.2914ZM9.68887 7.40339C9.68887 6.29939 10.5849 5.40339 11.6889 5.40339H14.0889C15.1929 5.40339 16.0889 6.29939 16.0889 7.40339V13.2354C16.0889 14.3394 15.1929 15.2354 14.0889 15.2354H11.6889C10.5849 15.2354 9.68887 14.3394 9.68887 13.2354V7.40339ZM14.0889 13.6354C14.3129 13.6354 14.4889 13.4594 14.4889 13.2354V7.40339C14.4889 7.17939 14.3129 7.00339 14.0889 7.00339H11.6889C11.4649 7.00339 11.2889 7.17939 11.2889 7.40339V13.2354C11.2889 13.4594 11.4649 13.6354 11.6889 13.6354H14.0889Z" clip-rule="evenodd" fill-rule="evenodd"/>&#xa;</g>&#xa;<defs>&#xa;<linearGradient gradientUnits="userSpaceOnUse" y2="15.2354" x2="8.08887" y1="1.69922" x1="8.08887" id="paint0_linear_2_28793">&#xa;<stop stop-color="#5B738B"/>&#xa;<stop stop-color="#223548" offset="1"/>&#xa;</linearGradient>&#xa;<clipPath id="clip0_2_28793">&#xa;<rect transform="translate(0.0888672 0.458984)" fill="white" height="16" width="16"/>&#xa;</clipPath>&#xa;</defs>&#xa;</svg>