<svg xmlns="http://www.w3.org/2000/svg" fill="none" viewBox="0 0 16 16" height="16" width="16">&#xa;<path fill="url(#paint0_linear_958_409)" d="M13.595 1.00037C13.9118 0.994727 14.2265 1.05336 14.5195 1.17264C14.8125 1.29193 15.0778 1.46934 15.2988 1.69394C15.7659 2.15596 16 2.7068 16 3.34538V4.93128C16 5.17445 15.9219 5.37216 15.7659 5.52652C15.6078 5.6593 15.4057 5.7297 15.1983 5.72423C14.991 5.7297 14.7889 5.6593 14.6308 5.52652C14.5527 5.44836 14.4917 5.35523 14.4514 5.25286C14.4112 5.15049 14.3925 5.04105 14.3967 4.93128V3.34538C14.4006 3.2455 14.3816 3.14602 14.3411 3.05445C14.3005 2.96289 14.2395 2.88161 14.1626 2.81675C14.0889 2.74204 14.0005 2.68305 13.9029 2.64341C13.8053 2.60377 13.7005 2.58432 13.595 2.58627H2.40508C2.29958 2.58432 2.1948 2.60377 2.09719 2.64341C1.99957 2.68305 1.9112 2.74204 1.83752 2.81675C1.76062 2.88161 1.69959 2.96289 1.65905 3.05445C1.6185 3.14602 1.59949 3.2455 1.60344 3.34538V4.13833H5.61168C5.83507 4.13833 6.02426 4.21551 6.18031 4.36987C6.25584 4.44276 6.31548 4.53017 6.35556 4.62672C6.39563 4.72328 6.41529 4.82692 6.41332 4.93128C6.41332 5.17445 6.3353 5.37216 6.18031 5.52652C6.02186 5.65946 5.81937 5.72986 5.61168 5.72423H1.60344V12.8608C1.60344 13.0817 1.68146 13.2689 1.83752 13.4232C1.9112 13.4979 1.99957 13.5569 2.09719 13.5966C2.1948 13.6362 2.29958 13.6557 2.40508 13.6537H4.4092C4.6326 13.6537 4.82179 13.7309 4.97784 13.8853C5.13283 14.0174 5.21085 14.2045 5.21085 14.4467C5.21297 14.5512 5.19338 14.655 5.1533 14.7518C5.11322 14.8485 5.0535 14.9361 4.97784 15.0091C4.81939 15.1421 4.6169 15.2125 4.4092 15.2068H2.40508C1.75949 15.2068 1.19192 14.9753 0.701314 14.5133C0.476521 14.2998 0.29833 14.043 0.177734 13.7588C0.0571393 13.4746 -0.00330211 13.169 0.0001391 12.8608V3.34538C0.0001391 2.7068 0.23422 2.15596 0.701314 1.69394C1.19192 1.23086 1.75949 1.00037 2.40508 1.00037H13.595ZM10.4547 4.93128C11.235 4.93128 11.9586 5.08564 12.6266 5.39436C13.2947 5.67982 13.8729 6.07735 14.3635 6.58378C14.8755 7.09021 15.2763 7.67382 15.566 8.33461C15.8546 8.9954 16 9.71117 16 10.4819C16.0025 11.2196 15.8549 11.9502 15.566 12.6303C15.2811 13.2841 14.873 13.8783 14.3635 14.3811C13.8467 14.8907 13.2337 15.2948 12.5593 15.5705C11.8734 15.8603 11.1343 16.0065 10.3884 15.9998C9.64303 16.0021 8.90477 15.8562 8.21757 15.5705C7.55658 15.2888 6.95588 14.8851 6.44753 14.3811C5.93796 13.8783 5.52986 13.2841 5.24506 12.6303C4.95579 11.9503 4.80784 11.2197 4.81003 10.4819C4.81003 9.71117 4.95539 8.9954 5.24506 8.33461C5.51455 7.68108 5.91111 7.08622 6.41226 6.58378C6.92089 6.07963 7.52198 5.67596 8.18336 5.39436C8.86466 5.0878 9.60468 4.92986 10.3532 4.93128H10.4547ZM13.595 8.10307C13.1718 7.57444 12.6822 7.1896 12.1253 6.94748C12.2365 7.12299 12.3263 7.31012 12.3926 7.50783C12.4813 7.6844 12.5711 7.88316 12.6598 8.10307H13.595ZM10.3884 7.11242C10.2324 7.37673 10.0656 7.7066 9.88713 8.10307H10.9229C10.7444 7.66325 10.5669 7.33233 10.3884 7.11242ZM6.41332 10.4819V10.8784L6.48066 11.2749H7.78254C7.76082 11.1438 7.75009 11.0112 7.75047 10.8784V10.4819V10.0854C7.75047 9.95328 7.76116 9.82113 7.78254 9.68897H6.48173L6.41439 10.0854L6.41332 10.4819ZM7.21497 12.8608C7.63824 13.3894 8.12778 13.7753 8.68466 14.0174C8.57614 13.846 8.47591 13.6696 8.38431 13.4888C8.31251 13.2772 8.23445 13.0678 8.15023 12.8608H7.21497ZM8.15023 8.10307C8.24001 7.88316 8.31697 7.6844 8.38431 7.50889C8.47101 7.31503 8.57137 7.12743 8.68466 6.94748C8.12885 7.1896 7.63824 7.57444 7.21497 8.10307H8.15023ZM10.3884 13.8525C10.4996 13.6981 10.5894 13.5438 10.6556 13.3894L10.9229 12.8608H9.88713L10.3884 13.8525ZM11.391 11.2749C11.4348 11.1427 11.4573 11.0105 11.4573 10.8784V10.4819V10.0854C11.4573 9.95328 11.4359 9.82113 11.39 9.68897H9.42111C9.37714 9.81666 9.3544 9.95055 9.35377 10.0854V10.8784C9.35377 11.0105 9.37622 11.1427 9.42111 11.2749H11.3921H11.391ZM12.1253 14.0174C12.6811 13.7742 13.1728 13.3894 13.595 12.8608H12.6598C12.5747 13.0717 12.4856 13.2811 12.3926 13.4888C12.3215 13.6734 12.232 13.8505 12.1253 14.0174ZM14.3304 11.2749C14.3518 11.1427 14.3625 11.0105 14.3625 10.8784C14.4067 10.6159 14.4067 10.3479 14.3625 10.0854C14.3625 9.95328 14.3518 9.82113 14.3304 9.68897H13.0264C13.0499 9.82113 13.0606 9.95328 13.0606 10.0854V10.8784C13.0606 11.0105 13.0499 11.1427 13.0275 11.2749H14.3304Z"/>&#xa;<defs>&#xa;<linearGradient gradientUnits="userSpaceOnUse" y2="16" x2="8" y1="1" x1="8" id="paint0_linear_958_409">&#xa;<stop stop-color="#5B738B"/>&#xa;<stop stop-color="#223548" offset="1"/>&#xa;</linearGradient>&#xa;</defs>&#xa;</svg>