<svg xmlns="http://www.w3.org/2000/svg" fill="none" viewBox="0 0 24 24" height="24" width="24">&#xa;<path fill="url(#paint0_linear_995_49)" d="M20.3925 1.00057C20.8678 0.991915 21.3397 1.08181 21.7793 1.26472C22.2188 1.44763 22.6166 1.71966 22.9482 2.06404C23.6488 2.77247 24 3.61709 24 4.59626V7.02796C24 7.40083 23.8829 7.70398 23.6488 7.94066C23.4116 8.14426 23.1085 8.25221 22.7975 8.24382C22.4865 8.25221 22.1833 8.14426 21.9461 7.94066C21.8291 7.82082 21.7376 7.67802 21.6772 7.52105C21.6168 7.36408 21.5888 7.19627 21.595 7.02796V4.59626C21.6009 4.44309 21.5724 4.29057 21.5116 4.15016C21.4508 4.00976 21.3592 3.88514 21.2439 3.78569C21.1334 3.67113 21.0008 3.58067 20.8544 3.51989C20.708 3.45911 20.5508 3.4293 20.3925 3.43228H3.60763C3.44937 3.4293 3.2922 3.45911 3.14578 3.51989C2.99936 3.58067 2.8668 3.67113 2.75628 3.78569C2.64092 3.88514 2.54939 4.00976 2.48857 4.15016C2.42775 4.29057 2.39923 4.44309 2.40515 4.59626V5.81211H8.41751C8.7526 5.81211 9.03639 5.93045 9.27047 6.16714C9.38376 6.27889 9.47322 6.41293 9.53334 6.56098C9.59345 6.70902 9.62294 6.86795 9.61999 7.02796C9.61999 7.40083 9.50295 7.70398 9.27047 7.94066C9.03279 8.14451 8.72906 8.25246 8.41751 8.24382H2.40515V19.1865C2.40515 19.5253 2.52219 19.8123 2.75628 20.0489C2.8668 20.1635 2.99936 20.254 3.14578 20.3147C3.2922 20.3755 3.44937 20.4053 3.60763 20.4024H6.61381C6.9489 20.4024 7.23268 20.5207 7.46676 20.7574C7.69924 20.96 7.81628 21.247 7.81628 21.6182C7.81945 21.7785 7.79007 21.9377 7.72995 22.0861C7.66983 22.2344 7.58025 22.3687 7.46676 22.4807C7.22908 22.6845 6.92535 22.7924 6.61381 22.7838H3.60763C2.63923 22.7838 1.78788 22.4288 1.05197 21.7203C0.714781 21.393 0.447494 20.9993 0.266602 20.5635C0.085709 20.1277 -0.00495316 19.6591 0.00020865 19.1865V4.59626C0.00020865 3.61709 0.351331 2.77247 1.05197 2.06404C1.78788 1.35398 2.63923 1.00057 3.60763 1.00057H20.3925ZM15.6821 7.02796C16.8525 7.02796 17.9379 7.26465 18.9399 7.73802C19.942 8.17573 20.8094 8.78528 21.5453 9.5618C22.3133 10.3383 22.9145 11.2332 23.349 12.2464C23.7819 13.2596 24 14.3571 24 15.5389C24.0037 16.67 23.7824 17.7903 23.349 18.8331C22.9217 19.8356 22.3096 20.7467 21.5453 21.5177C20.7701 22.299 19.8505 22.9187 18.8389 23.3415C17.8101 23.7859 16.7014 24.01 15.5826 23.9997C14.4645 24.0033 13.3572 23.7794 12.3264 23.3415C11.3349 22.9094 10.4338 22.2905 9.67129 21.5177C8.90694 20.7467 8.2948 19.8356 7.86758 18.8331C7.43369 17.7904 7.21177 16.6701 7.21504 15.5389C7.21504 14.3571 7.43309 13.2596 7.86758 12.2464C8.27182 11.2443 8.86667 10.3322 9.61838 9.5618C10.3813 8.78877 11.283 8.16981 12.275 7.73802C13.297 7.26796 14.407 7.02579 15.5297 7.02796H15.6821ZM20.3925 11.8914C19.7576 11.0808 19.0233 10.4907 18.188 10.1195C18.3547 10.3886 18.4894 10.6755 18.5888 10.9787C18.7219 11.2494 18.8566 11.5542 18.9897 11.8914H20.3925ZM15.5826 10.3724C15.3486 10.7777 15.0985 11.2835 14.8307 11.8914H16.3843C16.1165 11.217 15.8504 10.7096 15.5826 10.3724ZM9.61999 15.5389V16.1469L9.72099 16.7548H11.6738C11.6412 16.5538 11.6251 16.3505 11.6257 16.1469V15.5389V14.931C11.6257 14.7284 11.6417 14.5257 11.6738 14.3231H9.7226L9.62159 14.931L9.61999 15.5389ZM10.8225 19.1865C11.4574 19.9971 12.1917 20.5888 13.027 20.96C12.8642 20.6972 12.7139 20.4267 12.5765 20.1495C12.4688 19.8251 12.3517 19.5039 12.2253 19.1865H10.8225ZM12.2253 11.8914C12.36 11.5542 12.4755 11.2494 12.5765 10.9803C12.7065 10.683 12.8571 10.3954 13.027 10.1195C12.1933 10.4907 11.4574 11.0808 10.8225 11.8914H12.2253ZM15.5826 20.7071C15.7494 20.4704 15.8841 20.2338 15.9835 19.9971L16.3843 19.1865H14.8307L15.5826 20.7071ZM17.0865 16.7548C17.1523 16.5521 17.1859 16.3495 17.1859 16.1469V15.5389V14.931C17.1859 14.7284 17.1539 14.5257 17.0849 14.3231H14.1317C14.0657 14.5189 14.0316 14.7242 14.0307 14.931V16.1469C14.0307 16.3495 14.0643 16.5521 14.1317 16.7548H17.0881H17.0865ZM18.188 20.96C19.0217 20.5872 19.7592 19.9971 20.3925 19.1865H18.9897C18.862 19.51 18.7284 19.831 18.5888 20.1495C18.4823 20.4325 18.348 20.704 18.188 20.96ZM21.4956 16.7548C21.5277 16.5521 21.5437 16.3495 21.5437 16.1469C21.6101 15.7444 21.6101 15.3335 21.5437 14.931C21.5437 14.7284 21.5277 14.5257 21.4956 14.3231H19.5396C19.5749 14.5257 19.5909 14.7284 19.5909 14.931V16.1469C19.5909 16.3495 19.5749 16.5521 19.5412 16.7548H21.4956Z"/>&#xa;<defs>&#xa;<linearGradient gradientUnits="userSpaceOnUse" y2="24" x2="12" y1="1" x1="12" id="paint0_linear_995_49">&#xa;<stop stop-color="#5B738B"/>&#xa;<stop stop-color="#223548" offset="1"/>&#xa;</linearGradient>&#xa;</defs>&#xa;</svg>