<svg xmlns="http://www.w3.org/2000/svg" fill="none" viewBox="0 0 24 24" height="24" width="24">&#xa;<path fill="url(#paint0_linear_995_109)" d="M20.3907 3C21.4218 3 22.2813 3.35937 22.9688 4.07812C23.6562 4.76562 24 5.60937 24 6.60938V17.3907C24 18.4218 23.6562 19.2813 22.9688 19.9688C22.2813 20.6562 21.4218 21 20.3907 21H3.60938C2.57812 21 1.71874 20.6562 1.03125 19.9688C0.343751 19.2813 0 18.4218 0 17.3907V6.60938C0 5.60937 0.343751 4.76562 1.03125 4.07812C1.71874 3.35937 2.57812 3 3.60938 3H20.3907ZM3.70312 5.4375C3.39063 5.4375 3.20313 5.46874 3.14062 5.53125L11.3906 10.6875C11.6094 10.8125 11.8437 10.875 12.0938 10.875C12.3438 10.875 12.5469 10.8125 12.7031 10.6875L21 5.53125C20.9375 5.46874 20.8437 5.4375 20.7188 5.4375C20.5938 5.4375 20.4843 5.4375 20.3907 5.4375H3.70312ZM20.3907 18.6093C21.2031 18.6093 21.6093 18.2031 21.6093 17.3907V8.0625L13.9219 12.8438C13.3281 13.2188 12.6875 13.4062 12 13.4062C11.3438 13.4062 10.7031 13.2188 10.0781 12.8438L2.39062 8.0625V17.3907C2.39062 18.2031 2.79687 18.6093 3.60938 18.6093H20.3907Z"/>&#xa;<defs>&#xa;<linearGradient gradientUnits="userSpaceOnUse" y2="18.5098" x2="20.7774" y1="4.69322" x1="3.10178" id="paint0_linear_995_109">&#xa;<stop stop-color="#2395FF"/>&#xa;<stop stop-color="#0057D2" offset="1"/>&#xa;</linearGradient>&#xa;</defs>&#xa;</svg>