<svg xmlns="http://www.w3.org/2000/svg" fill="none" viewBox="0 0 24 24" height="24" width="24">&#xa;<path fill="url(#paint0_linear_995_123)" d="M6.62763 0C4.62414 0 3 1.61178 3 3.6V20.4C3 22.3883 4.62414 24 6.62763 24H17.3725C19.3759 24 21 22.3883 21 20.4V3.6C21 1.61178 19.3759 0 17.3725 0H6.62763ZM5.41843 3.6C5.41843 2.93726 5.95981 2.4 6.62763 2.4H8.88014V3.70946C8.88014 4.3722 9.42152 4.90945 10.0893 4.90945H13.9104C14.5783 4.90945 15.1197 4.3722 15.1197 3.70946V2.4H17.3725C18.0403 2.4 18.5817 2.93726 18.5817 3.6V20.4C18.5817 21.0627 18.0403 21.6 17.3725 21.6H6.62763C5.9598 21.6 5.41843 21.0627 5.41843 20.4V3.6Z" clip-rule="evenodd" fill-rule="evenodd"/>&#xa;<defs>&#xa;<linearGradient gradientUnits="userSpaceOnUse" y2="16.9554" x2="22.3502" y1="3.40642" x1="4.63233" id="paint0_linear_995_123">&#xa;<stop stop-color="#00CEAC"/>&#xa;<stop stop-color="#07838F" offset="1"/>&#xa;</linearGradient>&#xa;</defs>&#xa;</svg>