<svg xmlns="http://www.w3.org/2000/svg" fill="none" viewBox="0 0 16 16" height="16" width="16">&#xa;<path fill="url(#paint0_linear_963_488)" d="M14.2057 5.60831C14.441 5.84314 14.6273 6.11742 14.7647 6.43021C14.9209 6.72422 15 7.04735 15 7.39959V13.6808C15 14.3459 14.7741 14.8944 14.3224 15.3246C13.8725 15.7755 13.3135 16 12.6472 16H3.32267C2.67612 16 2.12745 15.7746 1.67572 15.3246C1.22493 14.8944 1 14.3459 1 13.6808V7.39865C1 6.65565 1.26351 6.05824 1.79336 5.60831L6.44152 1.58708C6.88221 1.20686 7.44571 0.998365 8.02823 1.00001C8.61643 1.00001 9.12651 1.19539 9.55754 1.58708L14.2057 5.60831ZM9.17639 9.80613H6.82361V14.4736H9.17639V9.80613ZM13.3531 7.39865C13.3531 7.14504 13.274 6.93839 13.1178 6.78246L8.47056 2.76123C8.1374 2.50762 7.7939 2.50762 7.44098 2.76123L2.79564 6.78246C2.63848 6.93933 2.56037 7.14504 2.56037 7.39959V13.6808C2.56037 13.9157 2.62907 14.111 2.76647 14.2679C2.92017 14.4037 3.11929 14.4771 3.32455 14.4736H5.26607V9.80613C5.26607 9.37592 5.41288 9.01334 5.70651 8.72027C6.02084 8.40654 6.39352 8.25062 6.82455 8.25062H9.17733C9.60836 8.25062 9.97163 8.40654 10.2653 8.72027C10.5598 9.01334 10.7066 9.37592 10.7066 9.80613V14.4736H12.6482C12.8834 14.4736 13.0688 14.405 13.2062 14.2679C13.2835 14.1913 13.3443 14.0996 13.3847 13.9987C13.4252 13.8977 13.4445 13.7895 13.4415 13.6808L13.3531 7.39865Z"/>&#xa;<defs>&#xa;<linearGradient gradientUnits="userSpaceOnUse" y2="9.40577" x2="15.5928" y1="2.41102" x1="2.80937" id="paint0_linear_963_488">&#xa;<stop stop-color="#2395FF"/>&#xa;<stop stop-color="#0057D2" offset="1"/>&#xa;</linearGradient>&#xa;</defs>&#xa;</svg>