<svg xmlns="http://www.w3.org/2000/svg" fill="none" viewBox="0 0 49 49" height="49" width="49">&#xa;<circle stroke-width="0.857143" stroke="#D5DADD" fill="url(#paint0_linear_2622_2958)" r="23.5714" cy="24.0349" cx="24.5"/>&#xa;<g clip-path="url(#clip0_2622_2958)">&#xa;<path fill="url(#paint1_radial_2622_2958)" d="M29.5625 10.5351C30.0054 10.5316 30.4444 10.6186 30.8525 10.7909C31.2606 10.9632 31.6292 11.217 31.9356 11.5369C32.2555 11.8433 32.5093 12.2119 32.6816 12.62C32.8539 13.0281 32.9409 13.4671 32.9374 13.91V34.1598C32.9463 34.6074 32.8618 35.052 32.6893 35.4651C32.5168 35.8783 32.2602 36.251 31.9356 36.5594C31.6254 36.8724 31.2555 37.1199 30.8479 37.2875C30.4402 37.455 30.0032 37.5391 29.5625 37.5348H19.4376C18.9969 37.5394 18.5597 37.4554 18.1521 37.2879C17.7444 37.1203 17.3745 36.8726 17.0644 36.5594C16.7396 36.2512 16.4827 35.8786 16.3102 35.4654C16.1377 35.0521 16.0534 34.6075 16.0626 34.1598V13.91C16.0587 13.467 16.1456 13.0279 16.3179 12.6198C16.4902 12.2116 16.7443 11.8431 17.0644 11.5369C17.3707 11.2168 17.7392 10.9627 18.1474 10.7904C18.5555 10.6182 18.9946 10.5312 19.4376 10.5351H29.5625ZM31.25 13.91H17.7501V32.4723H31.25V13.91ZM24.5 35.8473C24.8322 35.8546 25.154 35.7317 25.3967 35.5047C25.5205 35.3861 25.6175 35.2424 25.6812 35.0832C25.7448 34.924 25.7736 34.753 25.7657 34.5817C25.7657 34.4155 25.7329 34.2509 25.6693 34.0973C25.6057 33.9438 25.5125 33.8043 25.395 33.6867C25.2774 33.5692 25.1379 33.476 24.9844 33.4124C24.8308 33.3488 24.6662 33.3161 24.5 33.3161C24.3338 33.3161 24.1693 33.3488 24.0157 33.4124C23.8622 33.476 23.7226 33.5692 23.6051 33.6867C23.4876 33.8043 23.3944 33.9438 23.3308 34.0973C23.2672 34.2509 23.2344 34.4155 23.2344 34.5817C23.226 34.753 23.2546 34.9241 23.3183 35.0834C23.382 35.2427 23.4792 35.3864 23.6034 35.5047C23.8457 35.7322 24.1678 35.8552 24.5 35.8473Z"/>&#xa;<path fill="url(#paint2_radial_2622_2958)" d="M21.8587 18.1208L24.5681 25.3706L27.1461 18.135C27.3232 17.6381 27.7936 17.3064 28.3211 17.3064C29.0099 17.3064 29.5683 17.8648 29.5683 18.5536L29.5683 28.1098C29.5683 28.6383 29.1399 29.0667 28.6114 29.0667C28.0829 29.0667 27.6544 28.6383 27.6544 28.1098L27.6544 21.8234L25.219 27.8509C25.0808 28.1928 24.749 28.4166 24.3802 28.4166C24.0024 28.4166 23.6643 28.1817 23.5325 27.8276L21.3455 21.9538L21.3454 28.1098C21.3454 28.6383 20.917 29.0667 20.3885 29.0667C19.86 29.0667 19.4316 28.6383 19.4316 28.1098L19.4316 18.5595C19.4316 17.8674 19.9927 17.3064 20.6848 17.3064C21.2077 17.3064 21.6756 17.631 21.8587 18.1208Z"/>&#xa;</g>&#xa;<defs>&#xa;<linearGradient gradientUnits="userSpaceOnUse" y2="44.2792" x2="41.5645" y1="6.84775" x1="4.85287" id="paint0_linear_2622_2958">&#xa;<stop stop-color="white"/>&#xa;<stop stop-color="#EAECEE" offset="1"/>&#xa;</linearGradient>&#xa;<radialGradient gradientTransform="translate(18.679 14.4993) rotate(58.2781) scale(22.2217 37.5588)" gradientUnits="userSpaceOnUse" r="1" cy="0" cx="0" id="paint1_radial_2622_2958">&#xa;<stop stop-color="#0195FF"/>&#xa;<stop stop-color="#1147E9" offset="1"/>&#xa;</radialGradient>&#xa;<radialGradient gradientTransform="translate(21.0012 19.0755) rotate(49.2405) scale(10.8151 9.74758)" gradientUnits="userSpaceOnUse" r="1" cy="0" cx="0" id="paint2_radial_2622_2958">&#xa;<stop stop-color="#1348FF"/>&#xa;<stop stop-color="#06238D" offset="1"/>&#xa;</radialGradient>&#xa;<clipPath id="clip0_2622_2958">&#xa;<rect transform="translate(11 10.5349)" fill="white" height="27" width="27"/>&#xa;</clipPath>&#xa;</defs>&#xa;</svg>