<svg xmlns="http://www.w3.org/2000/svg" fill="none" viewBox="0 0 16 16" height="16" width="16">&#xa;<g clip-path="url(#clip0_3106_27101)">&#xa;<circle stroke-width="0.273809" stroke="#D5DADD" fill="url(#paint0_linear_3106_27101)" r="7.52974" cy="7.99989" cx="7.99892"/>&#xa;<g clip-path="url(#clip1_3106_27101)">&#xa;<mask height="13" width="12" y="2" x="2" maskUnits="userSpaceOnUse" style="mask-type:alpha" id="mask0_3106_27101">&#xa;<path fill="black" d="M8.42118 10.7333C8.64106 11.3524 9.28675 11.7047 10.0105 11.7047C10.7342 11.7047 11.3468 11.1791 11.5197 10.707L12.8877 6.93849C13.1601 6.18804 12.7742 5.35824 12.0258 5.0851C11.3374 4.83389 10.5822 5.141 10.2534 5.77572C10.2011 5.89409 10.1475 6.07216 10.2116 6.26177L10.8996 8.16531C10.9341 8.26075 10.8895 8.36673 10.7972 8.40845C10.6833 8.45993 10.5468 8.39263 10.5168 8.27106C10.2974 7.38287 9.56278 6.81617 8.6546 7.15063C7.74642 7.4851 7.55521 8.34772 7.82763 9.09818L8.42118 10.7333Z"/>&#xa;<path fill="black" d="M3.47213 6.93245C3.19972 6.18199 3.58562 5.3522 4.33406 5.07906C5.08251 4.80591 5.91008 5.19285 6.1825 5.94331L7.54974 9.70982C7.82215 10.4603 7.43626 11.2901 6.68781 11.5632C5.93936 11.8364 5.11179 11.4494 4.83937 10.699L3.47213 6.93245Z"/>&#xa;</mask>&#xa;<g mask="url(#mask0_3106_27101)">&#xa;<g filter="url(#filter0_d_3106_27101)">&#xa;<path fill="url(#paint1_radial_3106_27101)" d="M6.63434 0.871954C8.67249 0.292835 11.0823 1.29183 12.5514 3.93884C16.3335 9.01949 19.7537 14.9196 11.9609 17.6768C4.16813 20.434 4.35067 14.7782 1.75225 10.0964C-0.846167 5.41455 4.59619 1.45107 6.63434 0.871954Z"/>&#xa;</g>&#xa;<g filter="url(#filter1_d_3106_27101)">&#xa;<path fill="url(#paint2_radial_3106_27101)" d="M12.6542 10.2798C11.8462 12.0107 9.53298 14.0961 7.96381 14.2357C4.74603 14.9314 -0.262255 11.7473 0.16611 9.58481C0.594475 7.42237 4.66565 6.36599 7.45269 6.38993C10.2397 6.41388 13.4621 8.54895 12.6542 10.2798Z"/>&#xa;</g>&#xa;<g filter="url(#filter2_d_3106_27101)">&#xa;<path fill="url(#paint3_radial_3106_27101)" d="M3.35361 8.39936C6.96201 7.44557 10.1109 7.30686 10.4867 10.6896C10.7917 13.4349 6.9568 15.6578 4.21147 15.9628C1.46614 16.2678 -0.102296 9.31284 3.35361 8.39936Z"/>&#xa;</g>&#xa;</g>&#xa;</g>&#xa;</g>&#xa;<defs>&#xa;<filter color-interpolation-filters="sRGB" filterUnits="userSpaceOnUse" height="19.0352" width="16.9414" y="0.0851254" x="0.614829" id="filter0_d_3106_27101">&#xa;<feFlood result="BackgroundImageFix" flood-opacity="0"/>&#xa;<feColorMatrix result="hardAlpha" values="0 0 0 0 0 0 0 0 0 0 0 0 0 0 0 0 0 0 127 0" type="matrix" in="SourceAlpha"/>&#xa;<feOffset dy="0.0448404" dx="0.224202"/>&#xa;<feGaussianBlur stdDeviation="0.336303"/>&#xa;<feComposite operator="out" in2="hardAlpha"/>&#xa;<feColorMatrix values="0 0 0 0 0 0 0 0 0 0 0 0 0 0 0 0 0 0 0.4 0" type="matrix"/>&#xa;<feBlend result="effect1_dropShadow_3106_27101" in2="BackgroundImageFix" mode="normal"/>&#xa;<feBlend result="shape" in2="effect1_dropShadow_3106_27101" in="SourceGraphic" mode="normal"/>&#xa;</filter>&#xa;<filter color-interpolation-filters="sRGB" filterUnits="userSpaceOnUse" height="9.28857" width="13.9853" y="5.76188" x="-0.308023" id="filter1_d_3106_27101">&#xa;<feFlood result="BackgroundImageFix" flood-opacity="0"/>&#xa;<feColorMatrix result="hardAlpha" values="0 0 0 0 0 0 0 0 0 0 0 0 0 0 0 0 0 0 127 0" type="matrix" in="SourceAlpha"/>&#xa;<feOffset dy="0.0448404" dx="0.224202"/>&#xa;<feGaussianBlur stdDeviation="0.336303"/>&#xa;<feComposite operator="out" in2="hardAlpha"/>&#xa;<feColorMatrix values="0 0 0 0 0 0 0 0 0 0 0 0 0 0 0 0 0 0 0.4 0" type="matrix"/>&#xa;<feBlend result="effect1_dropShadow_3106_27101" in2="BackgroundImageFix" mode="normal"/>&#xa;<feBlend result="shape" in2="effect1_dropShadow_3106_27101" in="SourceGraphic" mode="normal"/>&#xa;</filter>&#xa;<filter color-interpolation-filters="sRGB" filterUnits="userSpaceOnUse" height="9.50537" width="10.4778" y="7.18449" x="0.922934" id="filter2_d_3106_27101">&#xa;<feFlood result="BackgroundImageFix" flood-opacity="0"/>&#xa;<feColorMatrix result="hardAlpha" values="0 0 0 0 0 0 0 0 0 0 0 0 0 0 0 0 0 0 127 0" type="matrix" in="SourceAlpha"/>&#xa;<feOffset dy="0.0448404" dx="0.224202"/>&#xa;<feGaussianBlur stdDeviation="0.336303"/>&#xa;<feComposite operator="out" in2="hardAlpha"/>&#xa;<feColorMatrix values="0 0 0 0 0 0 0 0 0 0 0 0 0 0 0 0 0 0 0.4 0" type="matrix"/>&#xa;<feBlend result="effect1_dropShadow_3106_27101" in2="BackgroundImageFix" mode="normal"/>&#xa;<feBlend result="shape" in2="effect1_dropShadow_3106_27101" in="SourceGraphic" mode="normal"/>&#xa;</filter>&#xa;<linearGradient gradientUnits="userSpaceOnUse" y2="14.4668" x2="13.4501" y1="2.50957" x1="1.72277" id="paint0_linear_3106_27101">&#xa;<stop stop-color="white"/>&#xa;<stop stop-color="#EAECEE" offset="1"/>&#xa;</linearGradient>&#xa;<radialGradient gradientTransform="translate(7.1422 10.5113) rotate(-75.6513) scale(15.9705 15.7498)" gradientUnits="userSpaceOnUse" r="1" cy="0" cx="0" id="paint1_radial_3106_27101">&#xa;<stop stop-color="#1348FF"/>&#xa;<stop stop-color="#06238D" offset="1"/>&#xa;</radialGradient>&#xa;<radialGradient gradientTransform="translate(3.19299 7.30215) rotate(31.98) scale(15.2685 27.576)" gradientUnits="userSpaceOnUse" r="1" cy="0" cx="0" id="paint2_radial_3106_27101">&#xa;<stop stop-color="#0195FF"/>&#xa;<stop stop-color="#1147E9" offset="1"/>&#xa;</radialGradient>&#xa;<radialGradient gradientTransform="translate(3.86437 15.2542) rotate(-46.9579) scale(11.7644 16.182)" gradientUnits="userSpaceOnUse" r="1" cy="0" cx="0" id="paint3_radial_3106_27101">&#xa;<stop stop-color="#00BBFF"/>&#xa;<stop stop-color="#008BFF" offset="1"/>&#xa;</radialGradient>&#xa;<clipPath id="clip0_3106_27101">&#xa;<rect transform="translate(-0.000976562)" fill="white" height="15.9999" width="15.9999"/>&#xa;</clipPath>&#xa;<clipPath id="clip1_3106_27101">&#xa;<rect transform="translate(3.33228 3.5)" fill="white" height="9.66664" width="9.66664"/>&#xa;</clipPath>&#xa;</defs>&#xa;</svg>