<svg xmlns="http://www.w3.org/2000/svg" fill="none" viewBox="0 0 16 16" height="16" width="16">&#xa;<g clip-path="url(#clip0_3106_27065)">&#xa;<circle stroke-width="0.273893" stroke="#D5DADD" fill="url(#paint0_linear_3106_27065)" r="7.53205" cy="8.00005" cx="7.99932"/>&#xa;<g clip-path="url(#clip1_3106_27065)">&#xa;<mask height="12" width="13" y="2" x="2" maskUnits="userSpaceOnUse" style="mask-type:alpha" id="mask0_3106_27065">&#xa;<path fill="black" d="M9.53563 9.35135C10.5103 9.04221 11.2154 8.1417 11.2154 7.07898C11.2154 5.76077 10.1304 4.69214 8.79203 4.69214L7.87388 4.69214C6.55568 4.69214 5.48706 5.76076 5.48706 7.07897V9.94317C5.48706 10.7341 6.12823 11.3753 6.91915 11.3753C7.71008 11.3753 8.35125 10.7341 8.35125 9.94317L8.35125 7.23662C8.35125 7.05216 8.61568 7.02179 8.65749 7.20145L9.08651 9.04491C9.14804 9.30071 9.30309 9.42511 9.53563 9.35135Z"/>&#xa;</mask>&#xa;<g mask="url(#mask0_3106_27065)">&#xa;<g filter="url(#filter0_d_3106_27065)">&#xa;<path fill="url(#paint1_radial_3106_27065)" d="M13.8507 4.2371C12.9414 5.08723 11.5996 5.41171 11.4386 9.25824C11.2776 13.1048 6.64093 11.9142 5.65711 11.4779C3.91701 10.7062 1.39294 5.61561 4.30118 4.02152C7.20942 2.42742 9.00029 1.09939 10.7404 1.8711C12.4805 2.6428 14.76 3.38697 13.8507 4.2371Z"/>&#xa;</g>&#xa;<g filter="url(#filter1_d_3106_27065)">&#xa;<path fill="url(#paint2_radial_3106_27065)" d="M13.2067 6.54558C12.1483 6.7894 9.93935 5.76517 8.13465 8.59822C6.32996 11.4313 3.14583 9.14396 2.59412 8.38412C1.61831 7.04017 1.7568 2.75191 4.64959 2.82121C7.54239 2.89051 10.7781 3.31562 11.7539 4.65956C12.7297 6.0035 14.265 6.30175 13.2067 6.54558Z"/>&#xa;</g>&#xa;<g filter="url(#filter2_d_3106_27065)">&#xa;<path fill="url(#paint3_radial_3106_27065)" d="M3.57905 9.30289C2.29589 8.9387 1.55092 7.60327 1.91511 6.32011C2.27929 5.03696 4.89175 2.46609 6.17491 2.83027C7.45806 3.19446 7.96994 5.6041 7.60575 6.88725C7.24157 8.17041 5.23958 9.77418 3.57905 9.30289Z"/>&#xa;</g>&#xa;</g>&#xa;</g>&#xa;</g>&#xa;<defs>&#xa;<filter color-interpolation-filters="sRGB" filterUnits="userSpaceOnUse" height="11.6987" width="12.4294" y="1.0175" x="2.52498" id="filter0_d_3106_27065">&#xa;<feFlood result="BackgroundImageFix" flood-opacity="0"/>&#xa;<feColorMatrix result="hardAlpha" values="0 0 0 0 0 0 0 0 0 0 0 0 0 0 0 0 0 0 127 0" type="matrix" in="SourceAlpha"/>&#xa;<feOffset dy="0.0448405" dx="0.224202"/>&#xa;<feGaussianBlur stdDeviation="0.336304"/>&#xa;<feComposite operator="out" in2="hardAlpha"/>&#xa;<feColorMatrix values="0 0 0 0 0 0 0 0 0 0 0 0 0 0 0 0 0 0 0.4 0" type="matrix"/>&#xa;<feBlend result="effect1_dropShadow_3106_27065" in2="BackgroundImageFix" mode="normal"/>&#xa;<feBlend result="shape" in2="effect1_dropShadow_3106_27065" in="SourceGraphic" mode="normal"/>&#xa;</filter>&#xa;<filter color-interpolation-filters="sRGB" filterUnits="userSpaceOnUse" height="8.5022" width="12.8601" y="2.19255" x="1.60091" id="filter1_d_3106_27065">&#xa;<feFlood result="BackgroundImageFix" flood-opacity="0"/>&#xa;<feColorMatrix result="hardAlpha" values="0 0 0 0 0 0 0 0 0 0 0 0 0 0 0 0 0 0 127 0" type="matrix" in="SourceAlpha"/>&#xa;<feOffset dy="0.0448405" dx="0.224202"/>&#xa;<feGaussianBlur stdDeviation="0.336304"/>&#xa;<feComposite operator="out" in2="hardAlpha"/>&#xa;<feColorMatrix values="0 0 0 0 0 0 0 0 0 0 0 0 0 0 0 0 0 0 0.4 0" type="matrix"/>&#xa;<feBlend result="effect1_dropShadow_3106_27065" in2="BackgroundImageFix" mode="normal"/>&#xa;<feBlend result="shape" in2="effect1_dropShadow_3106_27065" in="SourceGraphic" mode="normal"/>&#xa;</filter>&#xa;<filter color-interpolation-filters="sRGB" filterUnits="userSpaceOnUse" height="7.93677" width="7.24268" y="2.16764" x="1.37435" id="filter2_d_3106_27065">&#xa;<feFlood result="BackgroundImageFix" flood-opacity="0"/>&#xa;<feColorMatrix result="hardAlpha" values="0 0 0 0 0 0 0 0 0 0 0 0 0 0 0 0 0 0 127 0" type="matrix" in="SourceAlpha"/>&#xa;<feOffset dy="0.0448405" dx="0.224202"/>&#xa;<feGaussianBlur stdDeviation="0.336304"/>&#xa;<feComposite operator="out" in2="hardAlpha"/>&#xa;<feColorMatrix values="0 0 0 0 0 0 0 0 0 0 0 0 0 0 0 0 0 0 0.4 0" type="matrix"/>&#xa;<feBlend result="effect1_dropShadow_3106_27065" in2="BackgroundImageFix" mode="normal"/>&#xa;<feBlend result="shape" in2="effect1_dropShadow_3106_27065" in="SourceGraphic" mode="normal"/>&#xa;</filter>&#xa;<linearGradient gradientUnits="userSpaceOnUse" y2="14.4689" x2="13.4521" y1="2.50804" x1="1.72124" id="paint0_linear_3106_27065">&#xa;<stop stop-color="white"/>&#xa;<stop stop-color="#EAECEE" offset="1"/>&#xa;</linearGradient>&#xa;<radialGradient gradientTransform="translate(8.3387 5.25878) rotate(79.0967) scale(10.9044 10.098)" gradientUnits="userSpaceOnUse" r="1" cy="0" cx="0" id="paint1_radial_3106_27065">&#xa;<stop stop-color="#1348FF"/>&#xa;<stop stop-color="#06238D" offset="1"/>&#xa;</radialGradient>&#xa;<radialGradient gradientTransform="translate(9.25005 1.63802) rotate(108.549) scale(14.3518 25.47)" gradientUnits="userSpaceOnUse" r="1" cy="0" cx="0" id="paint2_radial_3106_27065">&#xa;<stop stop-color="#0195FF"/>&#xa;<stop stop-color="#1147E9" offset="1"/>&#xa;</radialGradient>&#xa;<radialGradient gradientTransform="translate(7.14136 3.78706) rotate(144.746) scale(8.70165 11.8371)" gradientUnits="userSpaceOnUse" r="1" cy="0" cx="0" id="paint3_radial_3106_27065">&#xa;<stop stop-color="#00BBFF"/>&#xa;<stop stop-color="#008BFF" offset="1"/>&#xa;</radialGradient>&#xa;<clipPath id="clip0_3106_27065">&#xa;<rect transform="translate(-0.000732422)" fill="white" height="16" width="16"/>&#xa;</clipPath>&#xa;<clipPath id="clip1_3106_27065">&#xa;<rect transform="translate(3.49927 3.16675)" fill="white" height="9.66667" width="9.66666"/>&#xa;</clipPath>&#xa;</defs>&#xa;</svg>