<svg xmlns="http://www.w3.org/2000/svg" fill="none" viewBox="0 0 17 16" height="16" width="17">&#xa;<g clip-path="url(#clip0_3106_27077)">&#xa;<circle stroke-width="0.273893" stroke="#D5DADD" fill="url(#paint0_linear_3106_27077)" r="7.53205" cy="8.00006" cx="8.33257"/>&#xa;<g clip-path="url(#clip1_3106_27077)">&#xa;<mask height="13" width="13" y="1" x="2" maskUnits="userSpaceOnUse" style="mask-type:alpha" id="mask0_3106_27077">&#xa;<path fill="black" d="M6.76359 5.27349C7.09148 4.69937 7.67137 4.3186 8.3346 4.3186C8.9985 4.3186 9.57424 4.70013 9.90639 5.2752L11.9662 8.85662C12.3628 9.54187 12.1287 10.4236 11.4406 10.8213C10.7573 11.2191 9.87803 10.9843 9.48142 10.2942L8.98924 9.43645C8.87456 9.21602 8.84589 8.97642 8.8889 8.66494L9.08481 7.58195C9.11826 7.40944 8.88412 7.32318 8.79811 7.47653L8.22948 8.47805L7.18301 10.2942C6.7864 10.9795 5.91195 11.2191 5.22386 10.8213C4.54055 10.4236 4.30163 9.54667 4.69824 8.85662L6.76359 5.27349Z"/>&#xa;</mask>&#xa;<g mask="url(#mask0_3106_27077)">&#xa;<g filter="url(#filter0_d_3106_27077)">&#xa;<path fill="url(#paint1_radial_3106_27077)" d="M14.0066 7.81884C13.5821 8.81851 11.6801 8.20676 12.7757 10.7094C12.1203 11.7167 11.141 12.4068 10.202 12.4068C8.54118 12.4068 3.93309 10.6665 5.6888 8.3664C7.44452 6.06629 9.68961 3.69775 11.3505 3.69775C13.0113 3.69775 14.4311 6.81916 14.0066 7.81884Z"/>&#xa;</g>&#xa;<g filter="url(#filter1_d_3106_27077)">&#xa;<path fill="url(#paint2_radial_3106_27077)" d="M10.3447 7.40949C9.83267 8.61514 8.0927 7.87058 9.18829 10.3732C8.53287 11.3805 7.55362 12.0706 6.61462 12.0706C4.95377 12.0706 0.345685 10.3303 2.1014 8.03022C3.85712 5.7301 6.10221 3.36157 7.76305 3.36157C9.42389 3.36157 10.8567 6.20384 10.3447 7.40949Z"/>&#xa;</g>&#xa;<g filter="url(#filter2_d_3106_27077)">&#xa;<path fill="url(#paint3_radial_3106_27077)" d="M6.84735 12.2326C5.68159 12.8808 4.21111 12.4612 3.56295 11.2954C2.91479 10.1297 3.33439 8.6592 4.50015 8.01104C5.21327 7.08302 6.78014 6.67824 7.81168 7.72283C8.84321 8.76742 8.35597 11.3939 6.84735 12.2326Z"/>&#xa;</g>&#xa;</g>&#xa;</g>&#xa;</g>&#xa;<defs>&#xa;<filter color-interpolation-filters="sRGB" filterUnits="userSpaceOnUse" height="10.0542" width="10.1313" y="3.06999" x="4.84798" id="filter0_d_3106_27077">&#xa;<feFlood result="BackgroundImageFix" flood-opacity="0"/>&#xa;<feColorMatrix result="hardAlpha" values="0 0 0 0 0 0 0 0 0 0 0 0 0 0 0 0 0 0 127 0" type="matrix" in="SourceAlpha"/>&#xa;<feOffset dy="0.0448405" dx="0.224202"/>&#xa;<feGaussianBlur stdDeviation="0.336303"/>&#xa;<feComposite operator="out" in2="hardAlpha"/>&#xa;<feColorMatrix values="0 0 0 0 0 0 0 0 0 0 0 0 0 0 0 0 0 0 0.4 0" type="matrix"/>&#xa;<feBlend result="effect1_dropShadow_3106_27077" in2="BackgroundImageFix" mode="normal"/>&#xa;<feBlend result="shape" in2="effect1_dropShadow_3106_27077" in="SourceGraphic" mode="normal"/>&#xa;</filter>&#xa;<filter color-interpolation-filters="sRGB" filterUnits="userSpaceOnUse" height="10.0542" width="10.0862" y="2.73381" x="1.26058" id="filter1_d_3106_27077">&#xa;<feFlood result="BackgroundImageFix" flood-opacity="0"/>&#xa;<feColorMatrix result="hardAlpha" values="0 0 0 0 0 0 0 0 0 0 0 0 0 0 0 0 0 0 127 0" type="matrix" in="SourceAlpha"/>&#xa;<feOffset dy="0.0448405" dx="0.224202"/>&#xa;<feGaussianBlur stdDeviation="0.336303"/>&#xa;<feComposite operator="out" in2="hardAlpha"/>&#xa;<feColorMatrix values="0 0 0 0 0 0 0 0 0 0 0 0 0 0 0 0 0 0 0.4 0" type="matrix"/>&#xa;<feBlend result="effect1_dropShadow_3106_27077" in2="BackgroundImageFix" mode="normal"/>&#xa;<feBlend result="shape" in2="effect1_dropShadow_3106_27077" in="SourceGraphic" mode="normal"/>&#xa;</filter>&#xa;<filter color-interpolation-filters="sRGB" filterUnits="userSpaceOnUse" height="6.77759" width="6.44531" y="6.47721" x="2.8099" id="filter2_d_3106_27077">&#xa;<feFlood result="BackgroundImageFix" flood-opacity="0"/>&#xa;<feColorMatrix result="hardAlpha" values="0 0 0 0 0 0 0 0 0 0 0 0 0 0 0 0 0 0 127 0" type="matrix" in="SourceAlpha"/>&#xa;<feOffset dy="0.0448405" dx="0.224202"/>&#xa;<feGaussianBlur stdDeviation="0.336303"/>&#xa;<feComposite operator="out" in2="hardAlpha"/>&#xa;<feColorMatrix values="0 0 0 0 0 0 0 0 0 0 0 0 0 0 0 0 0 0 0.4 0" type="matrix"/>&#xa;<feBlend result="effect1_dropShadow_3106_27077" in2="BackgroundImageFix" mode="normal"/>&#xa;<feBlend result="shape" in2="effect1_dropShadow_3106_27077" in="SourceGraphic" mode="normal"/>&#xa;</filter>&#xa;<linearGradient gradientUnits="userSpaceOnUse" y2="14.469" x2="13.7854" y1="2.50804" x1="2.0545" id="paint0_linear_3106_27077">&#xa;<stop stop-color="white"/>&#xa;<stop stop-color="#EAECEE" offset="1"/>&#xa;</linearGradient>&#xa;<radialGradient gradientTransform="translate(9.68655 6.97809) rotate(51.0373) scale(9.22888 8.91426)" gradientUnits="userSpaceOnUse" r="1" cy="0" cx="0" id="paint1_radial_3106_27077">&#xa;<stop stop-color="#1348FF"/>&#xa;<stop stop-color="#06238D" offset="1"/>&#xa;</radialGradient>&#xa;<radialGradient gradientTransform="translate(3.97674 4.0049) rotate(50.0605) scale(13.1516 24.31)" gradientUnits="userSpaceOnUse" r="1" cy="0" cx="0" id="paint2_radial_3106_27077">&#xa;<stop stop-color="#0195FF"/>&#xa;<stop stop-color="#1147E9" offset="1"/>&#xa;</radialGradient>&#xa;<radialGradient gradientTransform="translate(6.23824 7.37818) rotate(108.445) scale(7.24827 10.0488)" gradientUnits="userSpaceOnUse" r="1" cy="0" cx="0" id="paint3_radial_3106_27077">&#xa;<stop stop-color="#00BBFF"/>&#xa;<stop stop-color="#008BFF" offset="1"/>&#xa;</radialGradient>&#xa;<clipPath id="clip0_3106_27077">&#xa;<rect transform="translate(0.33252)" fill="white" height="16" width="16"/>&#xa;</clipPath>&#xa;<clipPath id="clip1_3106_27077">&#xa;<rect transform="translate(3.49927 2.83325)" fill="white" height="9.66666" width="9.66666"/>&#xa;</clipPath>&#xa;</defs>&#xa;</svg>