<svg xmlns="http://www.w3.org/2000/svg" fill="none" viewBox="0 0 16 16" height="16" width="16">&#xa;<circle stroke-width="0.285708" stroke="#D5DADD" fill="url(#paint0_linear_3890_21434)" r="7.85696" cy="7.99933" cx="7.99884"/>&#xa;<g clip-path="url(#clip0_3890_21434)">&#xa;<path fill="url(#paint1_linear_3890_21434)" d="M7.36749 3.50513C6.14659 3.50513 5.27916 4.49895 5.13463 5.53651C4.74191 5.55988 4.39513 5.70747 4.12579 5.95538C3.76143 6.29076 3.57324 6.77755 3.57324 7.29091C3.57324 7.768 3.71796 8.21895 4.04286 8.55235C4.36996 8.88801 4.83433 9.05804 5.38112 9.05804H6.3159C6.31814 9.05541 6.32041 9.05278 6.3227 9.05016L6.49998 8.81833L6.50836 8.80827C6.65929 8.62716 6.88499 8.49755 7.16016 8.49755C7.32869 8.49755 7.49008 8.54693 7.62887 8.64053C7.64568 8.63161 7.6626 8.6229 7.67961 8.61438L7.68314 8.56313L7.68809 8.53342C7.71734 8.35793 7.79685 8.1885 7.93417 8.05118C8.07655 7.9088 8.28115 7.79659 8.53347 7.79659H8.83388C9.04966 7.79659 9.26857 7.87578 9.43352 8.05008C9.57678 8.185 9.67233 8.36944 9.68606 8.58279C9.70662 8.59204 9.72708 8.60157 9.74744 8.61137L9.76744 8.59746L9.7855 8.58662C9.82233 8.56452 9.86584 8.54136 9.91531 8.52073L9.91187 8.50229L9.91515 8.43571C9.92014 8.33451 9.94957 8.22343 10.0219 8.12284C10.0941 8.02242 10.1897 7.9594 10.2832 7.92237L10.307 7.91289L10.3385 7.90481C10.3407 7.89498 10.343 7.88518 10.3454 7.8754L10.3233 7.85322L10.3167 7.84602C10.2211 7.74044 10.1902 7.61233 10.1771 7.54617L10.1673 7.49684L10.1698 7.44661C10.1755 7.33115 10.2149 7.19721 10.3199 7.08835L10.4431 6.94271L10.4489 6.93642C10.5532 6.82304 10.7047 6.74569 10.8843 6.75453C10.9944 6.75995 11.0981 6.79737 11.1857 6.86294C11.197 6.85766 11.2083 6.85251 11.2197 6.84749L11.2236 6.81415L11.2278 6.79492C11.2307 6.78176 11.234 6.76868 11.2377 6.7557C11.1468 5.72137 10.3752 4.94671 9.45768 4.86004C9.06594 4.04997 8.33876 3.50513 7.36749 3.50513Z"/>&#xa;<path fill="url(#paint2_linear_3890_21434)" d="M13.2181 8.41104C13.285 8.44554 13.3166 8.50014 13.313 8.57485L13.312 8.59353L13.2557 8.78734C13.233 8.86735 13.1812 8.90536 13.1003 8.90138L13.0816 8.90046L12.7851 8.83905C12.7232 8.95458 12.6276 9.05908 12.4982 9.15256L12.5946 9.47559C12.6002 9.48835 12.6026 9.50406 12.6016 9.52274C12.598 9.59745 12.5675 9.64588 12.5102 9.66802L12.3282 9.75267C12.3027 9.76389 12.2837 9.7692 12.2713 9.76858C12.2152 9.76582 12.173 9.73566 12.1447 9.6781L11.9824 9.36119C11.951 9.36588 11.9164 9.37042 11.8788 9.37481L11.776 9.36975L11.6827 9.36515C11.6581 9.3577 11.6304 9.3501 11.5995 9.34234L11.3971 9.65065C11.3635 9.69892 11.3219 9.72183 11.272 9.71938C11.2409 9.71785 11.2194 9.71055 11.2076 9.69748L11.0343 9.6047C10.9795 9.57704 10.9536 9.53208 10.9567 9.46982C10.9579 9.44492 10.962 9.42639 10.9688 9.41425L11.0965 9.10226C10.9884 9.01581 10.9034 8.90553 10.8413 8.77141L10.5215 8.80247L10.5028 8.80155C10.4219 8.79757 10.3741 8.75465 10.3594 8.67279L10.3224 8.47439L10.3233 8.45571C10.3269 8.381 10.3638 8.32977 10.4338 8.30201L10.7088 8.2313L10.7106 8.19395C10.7183 8.03831 10.7533 7.8965 10.8158 7.76852L10.6196 7.57163C10.6018 7.55203 10.5879 7.51703 10.5779 7.46661C10.5801 7.42303 10.5942 7.3894 10.6203 7.36572L10.7496 7.21295C10.7825 7.17713 10.8208 7.16029 10.8644 7.16244C10.8955 7.16397 10.9231 7.17469 10.947 7.19459L11.1545 7.35458C11.2904 7.25518 11.4373 7.18753 11.5951 7.15161L11.6271 6.88172C11.6352 6.84467 11.6523 6.81431 11.6784 6.79063C11.711 6.76104 11.746 6.74716 11.7834 6.749L11.9795 6.75865C12.0231 6.7608 12.0566 6.77805 12.0799 6.8104C12.1098 6.83684 12.1239 6.86874 12.122 6.90609L12.1278 7.16849C12.2816 7.2135 12.4277 7.28935 12.566 7.39601L12.7881 7.25717C12.8202 7.24002 12.8486 7.23206 12.8735 7.23329C12.9233 7.23574 12.9598 7.25626 12.9828 7.29484L13.0964 7.45957C13.1201 7.4857 13.1309 7.52056 13.1287 7.56414C13.1269 7.60149 13.1096 7.63496 13.077 7.66456L12.881 7.84213C12.9088 7.91215 12.927 7.98482 12.9358 8.06014C12.9508 8.13576 12.9561 8.21716 12.9518 8.30432L12.9514 8.31366L13.2181 8.41104ZM11.3511 8.68419C11.2327 8.55354 11.178 8.39795 11.1869 8.2174C11.1958 8.03686 11.2655 7.8874 11.3962 7.76901C11.5268 7.65063 11.6824 7.59589 11.863 7.60478C12.0435 7.61367 12.193 7.68344 12.3113 7.81408C12.4297 7.94473 12.4845 8.10032 12.4756 8.28086C12.4667 8.46141 12.3969 8.61087 12.2663 8.72925C12.1356 8.84763 11.98 8.90238 11.7995 8.89349C11.619 8.8846 11.4695 8.81483 11.3511 8.68419Z" clip-rule="evenodd" fill-rule="evenodd"/>&#xa;<path fill="url(#paint3_linear_3890_21434)" d="M10.851 10.8535C10.9559 10.9012 11.0084 10.9823 11.0084 11.0967V11.1253L10.9368 11.4257C10.9082 11.5497 10.8319 11.6117 10.708 11.6117H10.6793L10.2216 11.5402C10.1357 11.7214 9.99746 11.8883 9.80672 12.0409L9.97838 12.5273C9.98792 12.5463 9.99269 12.5702 9.99269 12.5988C9.99269 12.7132 9.94977 12.7895 9.86394 12.8277L9.59214 12.9707C9.55399 12.9898 9.52538 12.9993 9.50631 12.9993C9.42048 12.9993 9.35372 12.9564 9.30603 12.8706L9.03423 12.3985C8.98655 12.408 8.9341 12.4176 8.87687 12.4271H8.71952H8.57646C8.53832 12.4176 8.4954 12.408 8.44771 12.3985L8.16161 12.8849C8.11392 12.9612 8.05193 12.9993 7.97564 12.9993C7.92795 12.9993 7.89458 12.9898 7.8755 12.9707L7.6037 12.842C7.51787 12.8038 7.47495 12.7371 7.47495 12.6417C7.47495 12.6035 7.47972 12.5749 7.48926 12.5559L7.66092 12.0695C7.48926 11.9455 7.35097 11.7834 7.24607 11.5831L6.75969 11.6546H6.73108C6.6071 11.6546 6.5308 11.5926 6.50219 11.4687L6.43066 11.1682V11.1396C6.43066 11.0252 6.48312 10.9441 6.58802 10.8964L7.00288 10.7677V10.7105C7.00288 10.4721 7.04579 10.2527 7.13162 10.0524L6.81691 9.76633C6.7883 9.73772 6.76445 9.68527 6.74538 9.60897C6.74538 9.54221 6.76445 9.48976 6.8026 9.45161L6.98857 9.20842C7.03626 9.1512 7.09348 9.12259 7.16024 9.12259C7.20792 9.12259 7.25084 9.1369 7.28898 9.16551L7.61801 9.39439C7.81828 9.23226 8.03763 9.11782 8.27605 9.05106L8.30466 8.63621C8.3142 8.57899 8.33804 8.5313 8.37619 8.49316C8.42387 8.44547 8.47633 8.42163 8.53355 8.42163H8.83396C8.90072 8.42163 8.95317 8.44547 8.99132 8.49316C9.039 8.5313 9.06284 8.57899 9.06284 8.63621L9.09145 9.03676C9.32988 9.09398 9.55876 9.19889 9.77811 9.35148L10.1071 9.12259C10.1548 9.09398 10.1977 9.07968 10.2359 9.07968C10.3122 9.07968 10.3694 9.10829 10.4075 9.16551L10.5935 9.4087C10.6317 9.44684 10.6507 9.4993 10.6507 9.56606C10.6507 9.62328 10.6269 9.67573 10.5792 9.72341L10.2931 10.0095C10.3408 10.1144 10.3742 10.2241 10.3932 10.3385C10.4218 10.453 10.4362 10.577 10.4362 10.7105V10.7248L10.851 10.8535ZM8.01855 11.4114C7.82782 11.2207 7.73245 10.987 7.73245 10.7105C7.73245 10.4339 7.82782 10.2003 8.01855 10.0095C8.20929 9.81878 8.44295 9.72341 8.71952 9.72341C8.99609 9.72341 9.22974 9.81878 9.42048 10.0095C9.61121 10.2003 9.70658 10.4339 9.70658 10.7105C9.70658 10.987 9.61121 11.2207 9.42048 11.4114C9.22974 11.6022 8.99609 11.6975 8.71952 11.6975C8.44295 11.6975 8.20929 11.6022 8.01855 11.4114Z" clip-rule="evenodd" fill-rule="evenodd"/>&#xa;</g>&#xa;<defs>&#xa;<linearGradient gradientUnits="userSpaceOnUse" y2="14.7473" x2="13.6869" y1="2.27041" x1="1.44995" id="paint0_linear_3890_21434">&#xa;<stop stop-color="white"/>&#xa;<stop stop-color="#EAECEE" offset="1"/>&#xa;</linearGradient>&#xa;<linearGradient gradientUnits="userSpaceOnUse" y2="9.43628" x2="8.41638" y1="4.33553" x1="4.72218" id="paint1_linear_3890_21434">&#xa;<stop stop-color="#0195FF"/>&#xa;<stop stop-color="#1147E9" offset="0.991028"/>&#xa;</linearGradient>&#xa;<linearGradient gradientUnits="userSpaceOnUse" y2="9.34616" x2="12.8187" y1="7.1428" x1="10.8308" id="paint2_linear_3890_21434">&#xa;<stop stop-color="#1348FF"/>&#xa;<stop stop-color="#06238D" offset="1"/>&#xa;</linearGradient>&#xa;<linearGradient gradientUnits="userSpaceOnUse" y2="12.3126" x2="10.3111" y1="9.09511" x1="7.10745" id="paint3_linear_3890_21434">&#xa;<stop stop-color="#1348FF"/>&#xa;<stop stop-color="#06238D" offset="1"/>&#xa;</linearGradient>&#xa;<clipPath id="clip0_3890_21434">&#xa;<rect transform="translate(3.39893 2.99927)" fill="white" height="9.99996" width="9.99996"/>&#xa;</clipPath>&#xa;</defs>&#xa;</svg>