<svg xmlns="http://www.w3.org/2000/svg" fill="none" viewBox="0 0 17 12" height="12" width="17">&#xa;<path fill="url(#paint0_linear_724_14)" d="M12.3461 11.9974H3.81485C3.35652 11.9974 2.91902 11.9036 2.50235 11.7162C2.08568 11.5078 1.7211 11.237 1.4086 10.9036C1.0961 10.5495 0.8461 10.1432 0.6586 9.68491C0.49193 9.22661 0.4086 8.73701 0.4086 8.21621C0.4086 7.71616 0.49193 7.23699 0.6586 6.77866C0.8461 6.32033 1.08568 5.92449 1.37735 5.59116C1.66902 5.23699 2.01277 4.96616 2.4086 4.77866C2.82527 4.57033 3.26277 4.46616 3.7211 4.46616C3.82527 3.84116 4.01277 3.25783 4.2836 2.71616C4.55443 2.15366 4.89818 1.67449 5.31485 1.27866C5.73152 0.882834 6.20027 0.570334 6.7211 0.341164C7.26277 0.111994 7.82527 -0.00258636 8.4086 -0.00258636C9.30443 -0.00258636 10.1377 0.268244 10.9086 0.809914C11.6794 1.35158 12.2731 2.08074 12.6898 2.99741C13.2106 3.03908 13.7002 3.18491 14.1586 3.43491C14.6169 3.68491 15.0128 4.01824 15.3461 4.43491C15.6795 4.83074 15.9398 5.28908 16.1273 5.80991C16.3148 6.33074 16.4086 6.89324 16.4086 7.49741C16.4086 8.12241 16.3045 8.71621 16.0961 9.27861C15.8878 9.82031 15.5961 10.2995 15.2211 10.7162C14.867 11.112 14.4398 11.4245 13.9398 11.6536C13.4398 11.8828 12.9087 11.9974 12.3461 11.9974ZM3.81485 6.05991C3.31485 6.05991 2.88777 6.26824 2.5336 6.68491C2.17943 7.10158 2.00235 7.61199 2.00235 8.21621C2.00235 8.82031 2.17943 9.34121 2.5336 9.77861C2.88777 10.1953 3.31485 10.4036 3.81485 10.4036H12.3461C13.0337 10.4036 13.617 10.1224 14.0961 9.55991C14.5753 8.99741 14.8148 8.30991 14.8148 7.49741C14.8148 6.66408 14.5753 5.96616 14.0961 5.40366C13.617 4.84116 13.0337 4.55991 12.3461 4.55991H12.1273C11.7731 4.55991 11.5231 4.38283 11.3773 4.02866C11.1273 3.29949 10.7315 2.71616 10.1898 2.27866C9.64815 1.82033 9.05443 1.59116 8.4086 1.59116C7.9711 1.59116 7.56485 1.69533 7.18985 1.90366C6.81485 2.09116 6.48152 2.35158 6.18985 2.68491C5.91902 2.99741 5.70027 3.38283 5.5336 3.84116C5.36693 4.27866 5.2836 4.74741 5.2836 5.24741C5.2836 5.47658 5.20027 5.67449 5.0336 5.84116C4.88777 5.98699 4.70027 6.05991 4.4711 6.05991H3.81485Z"/>&#xa;<defs>&#xa;<linearGradient gradientUnits="userSpaceOnUse" y2="10.3373" x2="14.2602" y1="1.12623" x1="2.47646" id="paint0_linear_724_14">&#xa;<stop stop-color="#2395FF"/>&#xa;<stop stop-color="#0057D2" offset="1"/>&#xa;</linearGradient>&#xa;</defs>&#xa;</svg>