<svg xmlns="http://www.w3.org/2000/svg" fill="none" viewBox="0 0 24 24" height="24" width="24">&#xa;<g clip-path="url(#clip0_995_47)">&#xa;<path fill="url(#paint0_linear_995_47)" d="M23.6476 21.9801C23.8986 22.2311 24.0233 22.4971 24.0233 22.7781C24.0217 22.9373 23.9875 23.0945 23.9229 23.24C23.8583 23.3855 23.7646 23.5163 23.6476 23.6243C23.5395 23.7412 23.4088 23.8348 23.2633 23.8995C23.1178 23.9641 22.9606 23.9983 22.8014 24C22.6425 23.9981 22.4856 23.9638 22.3404 23.8992C22.1952 23.8346 22.0647 23.741 21.9568 23.6243L17.5412 19.2087C16.5719 19.9917 15.4762 20.3509 14.2544 20.2893C13.0325 20.2262 11.9699 19.7407 11.0607 18.833L5.28349 13.1054C4.86301 12.6614 4.51463 12.1543 4.25099 11.6025C4.0082 11.0694 3.86507 10.4963 3.82867 9.9117C3.82741 9.32412 3.90629 8.7391 4.06312 8.17284C4.25099 7.60924 4.54856 7.09374 4.95585 6.62484L0.352435 2.065C0.235618 1.9572 0.14204 1.82668 0.0774332 1.68145C0.0128263 1.53621 -0.0214488 1.37931 -0.0232925 1.22036C-0.0232925 0.909262 0.101449 0.626714 0.352435 0.375728C0.460411 0.258728 0.591171 0.165043 0.73668 0.100429C0.882189 0.0358162 1.03937 0.00163966 1.19857 0C1.51118 0 1.79222 0.124742 2.04321 0.375728L6.59854 4.93105C7.51696 4.16507 8.69315 3.77857 9.88691 3.85046C11.1073 3.91358 12.1713 4.39902 13.0806 5.30829L18.8578 11.0374C19.2951 11.5063 19.6393 12.0233 19.8903 12.5869C20.3897 13.6469 20.457 14.8596 20.0782 15.9684C19.8905 16.5312 19.604 17.0559 19.232 17.5179L23.6476 21.9801ZM6.97427 7.93688C6.74775 8.15571 6.56848 8.41864 6.44751 8.70944C6.32654 9.00023 6.26643 9.31273 6.2709 9.62765C6.2709 10.2544 6.50536 10.8029 6.97427 11.2718L8.99418 13.3383L13.3151 9.01747L11.2951 6.95097C11.0764 6.72418 10.8136 6.54463 10.5228 6.4234C10.232 6.30217 9.91939 6.24183 9.60436 6.2461C8.97915 6.2461 8.41556 6.48206 7.91358 6.95097L6.97427 7.93688ZM12.7515 17.049C12.9629 17.2725 13.2179 17.4503 13.5006 17.5715C13.7834 17.6928 14.088 17.7548 14.3956 17.7539C15.0524 17.7539 15.616 17.5179 16.0864 17.0475L17.0723 16.1097C17.5427 15.6077 17.7772 15.0441 17.7772 14.4189C17.7772 13.7607 17.5427 13.1971 17.0723 12.7282L15.0058 10.7082L10.685 15.0291L12.7515 17.049Z"/>&#xa;</g>&#xa;<defs>&#xa;<linearGradient gradientUnits="userSpaceOnUse" y2="24" x2="12" y1="0" x1="12" id="paint0_linear_995_47">&#xa;<stop stop-color="#5B738B"/>&#xa;<stop stop-color="#223548" offset="1"/>&#xa;</linearGradient>&#xa;<clipPath id="clip0_995_47">&#xa;<rect fill="white" height="24" width="24"/>&#xa;</clipPath>&#xa;</defs>&#xa;</svg>