<svg xmlns="http://www.w3.org/2000/svg" fill="none" viewBox="0 0 16 16" height="16" width="16">&#xa;<path fill="url(#paint0_linear_963_715)" d="M15.8597 8.03125C16.0468 8.34375 16.0468 8.65625 15.8597 8.96875C15.6729 9.28125 15.382 9.4375 14.9873 9.4375H7.0107C6.61603 9.4375 6.32521 9.28125 6.13826 8.96875C5.95131 8.65625 5.95131 8.34375 6.13826 8.03125L10.1265 1.49805C10.3136 1.16602 10.5939 1 10.9679 1C11.3625 1 11.6637 1.16602 11.8714 1.49805L15.8597 8.03125ZM10.0019 5.21875C10.0019 5.47265 10.0954 5.69727 10.2824 5.89258C10.4693 6.06836 10.7082 6.15625 10.999 6.15625C11.2898 6.15625 11.5287 6.06836 11.7157 5.89258C11.9026 5.69727 11.996 5.47265 11.996 5.21875V3.7832C11.996 3.50976 11.9026 3.28516 11.7157 3.10938C11.5287 2.93359 11.2898 2.8457 10.999 2.8457C10.7082 2.8457 10.4693 2.93359 10.2824 3.10938C10.0954 3.28516 10.0019 3.50976 10.0019 3.7832V5.21875ZM10.999 8.5C11.2898 8.5 11.5287 8.41211 11.7157 8.23633C11.9026 8.06055 11.996 7.83594 11.996 7.5625C11.996 7.28906 11.9026 7.06445 11.7157 6.88867C11.5287 6.71289 11.2898 6.625 10.999 6.625C10.7082 6.625 10.4693 6.71289 10.2824 6.88867C10.0954 7.06445 10.0019 7.28906 10.0019 7.5625C10.0019 7.83594 10.0954 8.06055 10.2824 8.23633C10.4693 8.41211 10.7082 8.5 10.999 8.5ZM13.1802 11.4883C13.4086 11.4883 13.5955 11.5664 13.7409 11.7227C13.9071 11.8593 13.9902 12.0351 13.9902 12.25V15.2383C13.9902 15.4532 13.9071 15.6289 13.7409 15.7656C13.5955 15.9219 13.4086 16 13.1802 16H12.8063C12.5777 16 12.3804 15.9219 12.2142 15.7656C12.0688 15.6289 11.996 15.4532 11.996 15.2383V14.623H1.99415V15.2383C1.99415 15.4532 1.91107 15.6289 1.74489 15.7656C1.59948 15.9219 1.41253 16 1.18403 16H0.810125C0.581628 16 0.384291 15.9219 0.218111 15.7656C0.0727036 15.6289 0 15.4532 0 15.2383V8.5L0.93476 6.03906C1.14248 5.53125 1.48523 5.12109 1.963 4.80859C2.44077 4.47656 2.98084 4.31055 3.58325 4.31055H5.14118C5.36968 4.31055 5.55663 4.37891 5.70204 4.51562C5.84744 4.65234 5.92015 4.82812 5.92015 5.04297C5.92015 5.25782 5.84744 5.44336 5.70204 5.59961C5.55663 5.73632 5.36968 5.80469 5.14118 5.80469H3.58325C3.33398 5.80469 3.10548 5.87305 2.89776 6.00977C2.69003 6.14648 2.54462 6.32226 2.46153 6.53711L1.93184 7.91406H4.20642C4.43492 7.91406 4.62187 7.99218 4.76728 8.14844C4.91268 8.28515 4.98539 8.46093 4.98539 8.67578C4.98539 8.89063 4.91268 9.06641 4.76728 9.20312C4.62187 9.33984 4.43492 9.4082 4.20642 9.4082H1.58909V13.1289H12.4011V12.25C12.4011 12.0351 12.4738 11.8593 12.6192 11.7227C12.7647 11.5664 12.9516 11.4883 13.1802 11.4883ZM3.98831 10.375C4.27913 10.375 4.51801 10.4629 4.70496 10.6386C4.89191 10.8145 4.98539 11.039 4.98539 11.3125C4.98539 11.5664 4.89191 11.791 4.70496 11.9864C4.51801 12.1621 4.27913 12.25 3.98831 12.25C3.71827 12.25 3.47938 12.1621 3.27166 11.9864C3.08471 11.791 2.99123 11.5664 2.99123 11.3125C2.99123 11.039 3.08471 10.8145 3.27166 10.6386C3.47938 10.4629 3.71827 10.375 3.98831 10.375ZM10.999 11.3125C10.999 11.5664 10.9055 11.791 10.7186 11.9864C10.5316 12.1621 10.2927 12.25 10.0019 12.25C9.71111 12.25 9.47223 12.1621 9.28528 11.9864C9.09833 11.791 9.00486 11.5664 9.00486 11.3125C9.00486 11.039 9.09833 10.8145 9.28528 10.6386C9.47223 10.4629 9.71111 10.375 10.0019 10.375C10.2927 10.375 10.5316 10.4629 10.7186 10.6386C10.9055 10.8145 10.999 11.039 10.999 11.3125Z"/>&#xa;<defs>&#xa;<linearGradient gradientUnits="userSpaceOnUse" y2="15.5647" x2="12.8852" y1="3.12901" x1="1.45096" id="paint0_linear_963_715">&#xa;<stop stop-color="#00CEAC"/>&#xa;<stop stop-color="#07838F" offset="1"/>&#xa;</linearGradient>&#xa;</defs>&#xa;</svg>