<svg xmlns="http://www.w3.org/2000/svg" fill="none" viewBox="0 0 48 48" height="48" width="48">&#xa;<g clip-path="url(#clip0_3173_15088)">&#xa;<circle stroke-width="0.821678" stroke="#D5DADD" fill="url(#paint0_linear_3173_15088)" r="22.5962" cy="24.0011" cx="23.9992"/>&#xa;<mask height="21" width="18" y="14" x="15" maskUnits="userSpaceOnUse" style="mask-type:alpha" id="mask0_3173_15088">&#xa;<path fill="black" d="M23.2138 25.2165C22.8498 25.1941 22.5646 24.8639 22.5641 24.5009C22.5646 24.1379 22.8498 23.8078 23.2138 23.7854L28.3032 23.4266C31.1886 23.2293 32.6084 21.004 32.6084 18.7646C32.6084 15.9497 30.456 14.4634 27.5037 14.4634C23.999 14.4634 20.4353 15.4656 18.5001 17.1513C16.3594 19.0159 15.3905 21.6241 15.3896 24.5028C15.3905 27.3815 16.3594 29.9859 18.5001 31.8506C20.4353 33.5363 23.9985 34.5385 27.5037 34.5385C30.456 34.5385 32.6084 33.0521 32.6084 30.2372C32.6084 27.9979 31.1886 25.7725 28.3032 25.5752L23.2138 25.2165Z"/>&#xa;</mask>&#xa;<g mask="url(#mask0_3173_15088)">&#xa;<g filter="url(#filter0_d_3173_15088)">&#xa;<path fill="url(#paint1_radial_3173_15088)" d="M50.4367 14.3199C47.5346 17.0331 43.2522 18.0688 42.7383 30.3454C42.2244 42.622 27.4259 38.822 24.2859 37.4295C18.7322 34.9665 10.6764 18.7195 19.9584 13.6318C29.2403 8.54408 34.9561 4.30554 40.5098 6.76852C46.0635 9.23149 53.3387 11.6066 50.4367 14.3199Z"/>&#xa;</g>&#xa;<g filter="url(#filter1_d_3173_15088)">&#xa;<path fill="url(#paint2_radial_3173_15088)" d="M15.1154 7.98533C16.91 10.951 16.0072 18.6695 26.396 21.3163C36.7849 23.9631 33.0249 35.8976 31.2713 38.3279C28.1696 42.6265 15.0302 46.4824 12.3559 37.6427C9.68161 28.8031 7.74419 18.5691 10.8459 14.2705C13.9475 9.97193 13.3209 5.01967 15.1154 7.98533Z"/>&#xa;</g>&#xa;<g filter="url(#filter2_d_3173_15088)">&#xa;<path fill="url(#paint3_radial_3173_15088)" d="M32.8997 34.1734C33.1787 40.9445 27.9158 46.6597 21.1448 46.9387C14.3737 47.2177 -2.1809 38.6895 -2.4599 31.9185C-2.7389 25.1474 8.40643 3.37299 14.8495 18.5732C21.2926 33.7735 32.5386 25.411 32.8997 34.1734Z"/>&#xa;</g>&#xa;</g>&#xa;</g>&#xa;<defs>&#xa;<filter color-interpolation-filters="sRGB" filterUnits="userSpaceOnUse" height="37.3373" width="39.6699" y="4.04427" x="14.2896" id="filter0_d_3173_15088">&#xa;<feFlood result="BackgroundImageFix" flood-opacity="0"/>&#xa;<feColorMatrix result="hardAlpha" values="0 0 0 0 0 0 0 0 0 0 0 0 0 0 0 0 0 0 127 0" type="matrix" in="SourceAlpha"/>&#xa;<feOffset dy="0.143113" dx="0.715566"/>&#xa;<feGaussianBlur stdDeviation="1.07335"/>&#xa;<feComposite operator="out" in2="hardAlpha"/>&#xa;<feColorMatrix values="0 0 0 0 0 0 0 0 0 0 0 0 0 0 0 0 0 0 0.4 0" type="matrix"/>&#xa;<feBlend result="effect1_dropShadow_3173_15088" in2="BackgroundImageFix" mode="normal"/>&#xa;<feBlend result="shape" in2="effect1_dropShadow_3173_15088" in="SourceGraphic" mode="normal"/>&#xa;</filter>&#xa;<filter color-interpolation-filters="sRGB" filterUnits="userSpaceOnUse" height="40.1899" width="28.436" y="5.08138" x="7.82326" id="filter1_d_3173_15088">&#xa;<feFlood result="BackgroundImageFix" flood-opacity="0"/>&#xa;<feColorMatrix result="hardAlpha" values="0 0 0 0 0 0 0 0 0 0 0 0 0 0 0 0 0 0 127 0" type="matrix" in="SourceAlpha"/>&#xa;<feOffset dy="0.143113" dx="0.715566"/>&#xa;<feGaussianBlur stdDeviation="1.07335"/>&#xa;<feComposite operator="out" in2="hardAlpha"/>&#xa;<feColorMatrix values="0 0 0 0 0 0 0 0 0 0 0 0 0 0 0 0 0 0 0.4 0" type="matrix"/>&#xa;<feBlend result="effect1_dropShadow_3173_15088" in2="BackgroundImageFix" mode="normal"/>&#xa;<feBlend result="shape" in2="effect1_dropShadow_3173_15088" in="SourceGraphic" mode="normal"/>&#xa;</filter>&#xa;<filter color-interpolation-filters="sRGB" filterUnits="userSpaceOnUse" height="37.9453" width="39.6684" y="11.2899" x="-3.89598" id="filter2_d_3173_15088">&#xa;<feFlood result="BackgroundImageFix" flood-opacity="0"/>&#xa;<feColorMatrix result="hardAlpha" values="0 0 0 0 0 0 0 0 0 0 0 0 0 0 0 0 0 0 127 0" type="matrix" in="SourceAlpha"/>&#xa;<feOffset dy="0.143113" dx="0.715566"/>&#xa;<feGaussianBlur stdDeviation="1.07335"/>&#xa;<feComposite operator="out" in2="hardAlpha"/>&#xa;<feColorMatrix values="0 0 0 0 0 0 0 0 0 0 0 0 0 0 0 0 0 0 0.4 0" type="matrix"/>&#xa;<feBlend result="effect1_dropShadow_3173_15088" in2="BackgroundImageFix" mode="normal"/>&#xa;<feBlend result="shape" in2="effect1_dropShadow_3173_15088" in="SourceGraphic" mode="normal"/>&#xa;</filter>&#xa;<linearGradient gradientUnits="userSpaceOnUse" y2="43.4078" x2="40.3576" y1="7.5251" x1="5.16495" id="paint0_linear_3173_15088">&#xa;<stop stop-color="white"/>&#xa;<stop stop-color="#EAECEE" offset="1"/>&#xa;</linearGradient>&#xa;<radialGradient gradientTransform="translate(32.8445 17.5807) rotate(79.0967) scale(34.8024 32.2287)" gradientUnits="userSpaceOnUse" r="1" cy="0" cx="0" id="paint1_radial_3173_15088">&#xa;<stop stop-color="#1348FF"/>&#xa;<stop stop-color="#06238D" offset="1"/>&#xa;</radialGradient>&#xa;<radialGradient gradientTransform="translate(4.18154 24.8745) rotate(0.344615) scale(45.8053 81.2902)" gradientUnits="userSpaceOnUse" r="1" cy="0" cx="0" id="paint2_radial_3173_15088">&#xa;<stop stop-color="#0195FF"/>&#xa;<stop stop-color="#1147E9" offset="1"/>&#xa;</radialGradient>&#xa;<radialGradient gradientTransform="translate(0.449404 21.5006) rotate(41.5362) scale(47.7459 66.4011)" gradientUnits="userSpaceOnUse" r="1" cy="0" cx="0" id="paint3_radial_3173_15088">&#xa;<stop stop-color="#00BBFF"/>&#xa;<stop stop-color="#008BFF" offset="1"/>&#xa;</radialGradient>&#xa;<clipPath id="clip0_3173_15088">&#xa;<rect transform="translate(-0.000976562 0.000976562)" fill="white" height="48" width="48"/>&#xa;</clipPath>&#xa;</defs>&#xa;</svg>