<svg xmlns="http://www.w3.org/2000/svg" fill="none" viewBox="0 0 24 24" height="24" width="24">&#xa;<g clip-path="url(#clip0_995_234)">&#xa;<path fill="url(#paint0_linear_995_234)" d="M23.6243 18.3637C23.8753 18.6147 24 18.8958 24 19.2099V22.7796C24 23.5927 23.5942 24 22.7781 24H19.2102C19.051 23.9983 18.8939 23.9641 18.7484 23.8994C18.6029 23.8348 18.4721 23.7412 18.3641 23.6242L17.518 22.7796H15.5942C15.2654 22.7859 14.9462 22.6684 14.7 22.4504C14.5906 22.3392 14.505 22.2067 14.4487 22.0612C14.3923 21.9157 14.3664 21.7601 14.3724 21.6042V20.3838H13.1986C12.8703 20.3898 12.5517 20.2723 12.3059 20.0546C12.1964 19.9436 12.1108 19.8115 12.0542 19.6662C11.9976 19.521 11.9712 19.3657 11.9767 19.2099V17.988H10.803C9.98839 17.988 9.5811 17.5822 9.5811 16.7675V14.8888L9.1122 14.3718H7.18547C6.21609 14.3718 5.29181 14.1839 4.41561 13.8081C3.55629 13.4441 2.7751 12.918 2.11466 12.2585C1.4542 11.5983 0.927099 10.8171 0.562155 9.95744C0.187166 9.08178 -0.00414235 8.13848 6.80151e-05 7.1859C6.80151e-05 6.1834 0.187931 5.26056 0.563658 4.41437C0.927707 3.555 1.45378 2.77375 2.11316 2.11327C2.77448 1.45353 3.55673 0.927408 4.41711 0.563674C5.29214 0.188347 6.23486 -0.00348223 7.18697 4.78492e-05C8.18791 4.78492e-05 9.11069 0.187923 9.95683 0.563674C10.8345 0.939425 11.601 1.45495 12.2593 2.11177C12.9161 2.77008 13.4316 3.53812 13.8073 4.41437C14.183 5.26056 14.3724 6.1834 14.3724 7.1859V9.10975L23.6243 18.3637ZM21.6044 19.6789L12.3525 10.4264C12.2357 10.3186 12.1421 10.188 12.0775 10.0428C12.0129 9.89755 11.9786 9.74065 11.9767 9.58169V7.1859C11.9767 6.52759 11.852 5.91737 11.601 5.35374C11.3608 4.77466 11.0095 4.24823 10.567 3.80415C10.1234 3.36177 9.59753 3.01048 9.01902 2.77008C8.4413 2.51652 7.81635 2.38845 7.18547 2.39433C6.5287 2.39433 5.90199 2.52058 5.30683 2.77008C4.74617 3.01875 4.23656 3.36938 3.80393 3.80415C3.36658 4.24152 3.02242 4.75855 2.77143 5.35374C2.52044 5.91737 2.3957 6.52759 2.3957 7.1859C2.3957 7.84272 2.52044 8.46947 2.77143 9.06466C3.02242 9.62828 3.36658 10.1288 3.80543 10.5677C4.24278 11.005 4.74324 11.3492 5.30834 11.6002C5.90199 11.8512 6.5287 11.976 7.18697 11.976H9.5811C9.89521 11.976 10.1763 12.1022 10.4272 12.3517L11.6476 13.5737C11.7539 13.677 11.8379 13.8009 11.8945 13.9379C11.9511 14.0749 11.9791 14.2221 11.9767 14.3703V15.5922H13.1986C13.9801 15.5922 14.3709 15.983 14.3709 16.7645V17.9865H15.5927C15.9384 17.9865 16.2194 18.0962 16.4389 18.3156C16.6884 18.5351 16.8146 18.8327 16.8146 19.2084V20.3823H17.9884C18.301 20.3823 18.5835 20.507 18.8345 20.758L19.6791 21.6042H21.6044V19.6789ZM7.18547 4.79012C7.84374 4.79012 8.40733 5.02459 8.87624 5.49503C9.34665 5.96396 9.58261 6.52759 9.58261 7.1859C9.58261 7.84272 9.34665 8.40634 8.87624 8.87678C8.65753 9.10358 8.39467 9.28314 8.10387 9.40438C7.81306 9.52562 7.5005 9.58597 7.18547 9.58169C6.5287 9.58169 5.96511 9.34572 5.4947 8.87528C5.26864 8.65648 5.08976 8.39372 4.96906 8.10319C4.84835 7.81265 4.78838 7.50049 4.79284 7.1859C4.79284 6.52759 5.02729 5.96396 5.4977 5.49503C5.71624 5.26841 5.97886 5.08896 6.26939 4.96773C6.55992 4.84649 6.87219 4.78605 7.18697 4.79012H7.18547Z"/>&#xa;</g>&#xa;<defs>&#xa;<linearGradient gradientUnits="userSpaceOnUse" y2="14.6816" x2="24.2938" y1="2.25763" x1="3.10178" id="paint0_linear_995_234">&#xa;<stop stop-color="#2395FF"/>&#xa;<stop stop-color="#0057D2" offset="1"/>&#xa;</linearGradient>&#xa;<clipPath id="clip0_995_234">&#xa;<rect fill="white" height="24" width="24"/>&#xa;</clipPath>&#xa;</defs>&#xa;</svg>