<svg xmlns="http://www.w3.org/2000/svg" fill="none" viewBox="0 0 16 16" height="16" width="16">&#xa;<g clip-path="url(#clip0_963_687)">&#xa;<path fill="url(#paint0_linear_963_687)" d="M7.26462 12.281C7.34637 12.1989 7.4441 12.1343 7.55179 12.0913C7.65948 12.0483 7.77485 12.0278 7.8908 12.031C8.14126 12.031 8.32962 12.146 8.45485 12.375C8.62116 12.542 8.70532 12.74 8.70532 12.969C8.70532 13.198 8.62116 13.396 8.45485 13.563L7.26362 14.719C6.85548 15.1294 6.36479 15.4488 5.82392 15.656C5.30194 15.886 4.76994 16 4.22693 16C3.67632 15.9983 3.13223 15.8811 2.62993 15.656C2.12899 15.448 1.67013 15.136 1.25235 14.719C0.84643 14.3193 0.52693 13.8408 0.313588 13.313C0.107519 12.8067 0.00105186 12.2655 0 11.719C0 11.177 0.104195 10.646 0.313588 10.125C0.521979 9.605 0.834565 9.135 1.25235 8.719L3.63181 6.375C4.04959 5.958 4.51947 5.645 5.04045 5.437C5.55437 5.21413 6.10818 5.09745 6.6685 5.094C7.21152 5.094 7.74352 5.208 8.2655 5.437C8.78748 5.646 9.24734 5.958 9.64308 6.375C9.81039 6.542 9.89355 6.74 9.89355 6.969C9.89355 7.198 9.81039 7.396 9.64308 7.562C9.56627 7.64205 9.47383 7.70554 9.37147 7.74854C9.26911 7.79153 9.15901 7.81313 9.04797 7.812C8.93709 7.813 8.82718 7.79133 8.725 7.74834C8.62283 7.70534 8.53055 7.64193 8.45385 7.562C7.97295 7.042 7.38885 6.782 6.70056 6.782C6.01127 6.782 5.41615 7.042 4.91522 7.562L2.53776 9.906C2.01678 10.386 1.75629 10.969 1.75629 11.656C1.75629 12.344 2.01678 12.948 2.53776 13.469C3.01866 13.969 3.60276 14.219 4.29105 14.219C4.98034 14.219 5.57545 13.969 6.07639 13.469L7.26362 12.28L7.26462 12.281ZM14.7166 1.281C15.1334 1.677 15.447 2.135 15.6554 2.656C15.8858 3.177 16 3.708 16 4.25C16 4.792 15.8848 5.323 15.6554 5.844C15.447 6.344 15.1344 6.802 14.7166 7.219L12.3682 9.562C11.9294 10 11.4495 10.322 10.9275 10.532C10.4102 10.7392 9.85782 10.8452 9.30044 10.844C8.75291 10.843 8.2107 10.7367 7.70344 10.531C7.18783 10.3123 6.72776 9.98117 6.35692 9.562C6.27905 9.49027 6.21666 9.40343 6.1736 9.30679C6.13053 9.21015 6.10768 9.10576 6.10645 9C6.10645 8.77 6.18961 8.573 6.35692 8.406C6.4289 8.32815 6.51607 8.26581 6.61307 8.22282C6.71007 8.17983 6.81485 8.15709 6.92098 8.156C7.15041 8.156 7.34878 8.24 7.51509 8.406C7.74552 8.656 8.01603 8.844 8.32962 8.969C8.94134 9.21982 9.62747 9.21982 10.2392 8.969C10.5528 8.844 10.8343 8.656 11.0848 8.406L13.4642 6.031C13.9652 5.552 14.2157 4.969 14.2157 4.281C14.2157 3.594 13.9652 2.99 13.4642 2.469C12.9833 1.969 12.3992 1.719 11.711 1.719C11.0217 1.719 10.4165 1.969 9.89455 2.469L8.70632 3.656C8.62951 3.73605 8.53707 3.79954 8.43471 3.84254C8.33236 3.88554 8.22226 3.90713 8.11121 3.906C8.00016 3.90713 7.89006 3.88554 7.7877 3.84254C7.68535 3.79954 7.59291 3.73605 7.51609 3.656C7.43589 3.57933 7.37229 3.48706 7.32921 3.3849C7.28613 3.28273 7.26449 3.17284 7.26562 3.062C7.26562 2.833 7.34978 2.635 7.51609 2.469L8.70632 1.28C9.12311 0.864 9.59299 0.551 10.115 0.343C10.6286 0.120262 11.182 0.0035867 11.742 0C12.285 0 12.817 0.115 13.339 0.344C13.86 0.552 14.3198 0.864 14.7166 1.281Z"/>&#xa;</g>&#xa;<defs>&#xa;<linearGradient gradientUnits="userSpaceOnUse" y2="14.7481" x2="13.6882" y1="2.27095" x1="1.45096" id="paint0_linear_963_687">&#xa;<stop stop-color="#00CEAC"/>&#xa;<stop stop-color="#07838F" offset="1"/>&#xa;</linearGradient>&#xa;<clipPath id="clip0_963_687">&#xa;<rect fill="white" height="16" width="16"/>&#xa;</clipPath>&#xa;</defs>&#xa;</svg>