<svg xmlns:xlink="http://www.w3.org/1999/xlink" xmlns="http://www.w3.org/2000/svg" viewBox="0 0 331.41 39.83" id="Layout"><defs><style>.cls-1{fill:url(#linear-gradient);}.cls-1,.cls-2{fill-rule:evenodd;}.cls-3{fill:#002a86;}.cls-2{fill:#fff;}</style><linearGradient gradientUnits="userSpaceOnUse" y2="39.83" x2="40.26" y1="0" x1="40.26" id="linear-gradient"><stop stop-color="#00b8f1" offset="0"/><stop stop-color="#00b5ef" offset=".02"/><stop stop-color="#0d90d8" offset=".31"/><stop stop-color="#1675c8" offset=".58"/><stop stop-color="#1c64be" offset=".82"/><stop stop-color="#1e5fbb" offset="1"/></linearGradient></defs><polyline points="0 39.83 40.69 39.83 80.52 0 0 0 0 39.83" class="cls-1"/><path d="m47.78,7.49h-7.92s0,18.84,0,18.84l-6.92-18.84h-6.86l-5.91,15.76c-.63-3.97-4.74-5.35-7.97-6.37-2.14-.69-4.4-1.69-4.38-2.81.02-.92,1.22-1.77,3.59-1.64,1.6.08,3,.21,5.8,1.56l2.75-4.79c-2.56-1.3-6.09-2.12-8.98-2.12h-.02c-3.37,0-6.18,1.09-7.93,2.89-1.21,1.26-1.87,2.86-1.9,4.62-.04,2.43.85,4.16,2.72,5.53,1.58,1.16,3.61,1.91,5.39,2.47,2.2.68,4,1.27,3.98,2.54-.02.46-.19.89-.52,1.24-.55.57-1.39.78-2.55.8-2.24.05-3.91-.3-6.56-1.87l-2.45,4.86c2.64,1.51,5.78,2.39,8.97,2.39h.41c2.78-.06,5.03-.85,6.82-2.29.1-.08.2-.17.29-.25l-.8,2.12h7.2l1.21-3.67c1.26.43,2.7.67,4.23.67s2.89-.23,4.13-.63l1.16,3.64h11.74v-7.61h2.56c6.19,0,9.85-3.15,9.85-8.44,0-5.88-3.56-8.59-11.13-8.59Zm-18.32,16.12c-.92,0-1.79-.16-2.54-.44l2.51-7.93h.05l2.47,7.95c-.74.26-1.59.42-2.49.42Zm18.78-4.55h-1.75v-6.39h1.75c2.33,0,4.18.77,4.18,3.15s-1.86,3.24-4.18,3.24" class="cls-2"/><path d="m78.61,28.39l2.99-3.01c1.51,1.97,3.62,3.29,7.11,3.29,2.85,0,5.01-.95,5.01-3.27,0-2.45-2.5-3.15-5.88-3.98-3.89-.93-8.11-2.22-8.11-7.39,0-4.87,3.99-7,9.13-7,4.05,0,6.97,1.34,8.89,3.57l-2.9,2.9c-1.53-1.74-3.43-2.69-6.14-2.69-3.06,0-4.38,1.27-4.38,2.96,0,2.23,2.27,2.83,5.4,3.62,4.17.98,8.6,2.16,8.6,7.65,0,4.45-3.33,7.5-9.71,7.5-4.68,0-7.99-1.57-10.01-4.15Z" class="cls-3"/><path d="m101.67,25.63v-12.68h4.47v11.63c0,2.57.88,4.15,3.47,4.15s4.31-1.78,4.31-5.01v-10.77h4.43v19.25h-4.29v-4.06h-.09c-.88,2.22-2.62,4.42-6.32,4.42-4.12,0-5.98-2.81-5.98-6.91Z" class="cls-3"/><path d="m121.81,22.57c0-6.4,4.01-9.99,9.69-9.99,3.64,0,6.16,1.44,7.69,3.52l-2.85,2.52c-1.11-1.55-2.59-2.41-4.64-2.41-3.11,0-5.23,2.11-5.23,6.37s2.11,6.37,5.23,6.37c2.04,0,3.52-.88,4.64-2.43l2.85,2.53c-1.53,2.08-4.05,3.5-7.69,3.5-5.68,0-9.69-3.59-9.69-9.98Z" class="cls-3"/><path d="m140.26,22.57c0-6.4,4.01-9.99,9.69-9.99,3.64,0,6.16,1.44,7.69,3.52l-2.85,2.52c-1.11-1.55-2.59-2.41-4.64-2.41-3.11,0-5.23,2.11-5.23,6.37s2.11,6.37,5.23,6.37c2.04,0,3.52-.88,4.64-2.43l2.85,2.53c-1.53,2.08-4.05,3.5-7.69,3.5-5.68,0-9.69-3.59-9.69-9.98Z" class="cls-3"/><path d="m158.71,22.57c0-6.7,4.42-9.99,9.66-9.99,6.44,0,8.73,4.72,8.73,9.4,0,.56-.04,1.14-.07,1.69h-13.62c.32,3.66,2.22,5.4,5.56,5.4,2.16,0,3.61-.63,4.91-2.15l2.59,2.59c-1.79,2.02-3.99,3.04-7.71,3.04-6.18,0-10.05-3.54-10.05-9.98Zm13.95-1.67c-.25-3.4-1.9-4.89-4.4-4.89s-4.34,1.5-4.79,4.89h9.18Z" class="cls-3"/><path d="m178.76,29.57l2.67-2.67c1.53,1.69,3.18,2.22,5.21,2.22s3.48-.56,3.48-2.15c0-1.74-1.64-2.22-4.4-2.94-2.97-.77-6.07-2.02-6.07-5.82,0-3.57,2.75-5.63,7.3-5.63,2.97,0,5.42.92,7.14,2.62l-2.6,2.6c-1.3-1.34-2.9-1.83-4.47-1.83-1.85,0-3.06.63-3.06,2.04s1.57,1.88,4.17,2.57c3.04.77,6.32,1.83,6.32,6.07,0,3.73-3.01,5.89-7.74,5.89-3.36,0-6.09-.95-7.95-2.97Z" class="cls-3"/><path d="m196.07,29.57l2.67-2.67c1.53,1.69,3.18,2.22,5.21,2.22s3.48-.56,3.48-2.15c0-1.74-1.64-2.22-4.4-2.94-2.97-.77-6.07-2.02-6.07-5.82,0-3.57,2.75-5.63,7.3-5.63,2.97,0,5.42.92,7.14,2.62l-2.6,2.6c-1.3-1.34-2.9-1.83-4.47-1.83-1.85,0-3.06.63-3.06,2.04s1.57,1.88,4.17,2.57c3.04.77,6.32,1.83,6.32,6.07,0,3.73-3.01,5.89-7.74,5.89-3.36,0-6.09-.95-7.95-2.97Z" class="cls-3"/><path d="m214.63,7.4h16.27v4.1h-11.59v6.74h11.19v4.06h-11.19v9.89h-4.68V7.4Z" class="cls-3"/><path d="m232.56,26.95c0-4.13,3.38-6.07,8.38-6.07h3.48v-1.11c0-2.32-1.13-3.59-3.47-3.59-2.18,0-3.71.93-4.91,2.45l-2.66-2.64c1.78-1.94,4.19-3.41,8.04-3.41,4.89,0,7.42,2.55,7.42,7.21v12.4h-4.29v-3.57h-.11c-1.18,2.69-3.11,3.92-6.14,3.92-3.36,0-5.75-2.01-5.75-5.59Zm7.34,2.16c2.87,0,4.52-2.16,4.52-4.43v-1.25h-2.73c-2.55,0-4.7.69-4.7,3.1,0,1.6,1.09,2.59,2.9,2.59Z" class="cls-3"/><path d="m251.12,22.57c0-6.4,4.01-9.99,9.69-9.99,3.64,0,6.16,1.44,7.69,3.52l-2.85,2.52c-1.11-1.55-2.59-2.41-4.64-2.41-3.11,0-5.23,2.11-5.23,6.37s2.11,6.37,5.23,6.37c2.04,0,3.52-.88,4.64-2.43l2.85,2.53c-1.53,2.08-4.05,3.5-7.69,3.5-5.68,0-9.69-3.59-9.69-9.98Z" class="cls-3"/><path d="m272.03,27.39v-11h-2.81v-2.04l6.42-6.4h.84v5h4.17v3.45h-4.17v10.13c0,1.69.55,2.15,2.06,2.15.76,0,1.48-.12,2.11-.3v3.82c-.77.19-1.92.32-3.04.32-3.87,0-5.58-1.43-5.58-5.12Z" class="cls-3"/><path d="m282.17,22.57c0-6.07,4.05-9.99,9.8-9.99s9.8,3.92,9.8,9.99-4.05,9.98-9.8,9.98-9.8-3.91-9.8-9.98Zm14.94,0c0-4.15-2.15-6.37-5.14-6.37s-5.14,2.22-5.14,6.37,2.15,6.37,5.14,6.37,5.14-2.23,5.14-6.37Z" class="cls-3"/><path d="m304.55,12.94h4.31v4.13h.07c.65-3.08,2.09-4.5,4.5-4.5.7,0,1.3.12,1.65.25v4.17c-.47-.12-1.18-.23-1.85-.23-3.17,0-4.24,2.18-4.24,5.75v9.68h-4.45V12.94Z" class="cls-3"/><path d="m315.71,29.57l2.67-2.67c1.53,1.69,3.18,2.22,5.21,2.22s3.48-.56,3.48-2.15c0-1.74-1.64-2.22-4.4-2.94-2.97-.77-6.07-2.02-6.07-5.82,0-3.57,2.75-5.63,7.3-5.63,2.97,0,5.42.92,7.14,2.62l-2.6,2.6c-1.3-1.34-2.9-1.83-4.47-1.83-1.85,0-3.06.63-3.06,2.04s1.57,1.88,4.17,2.57c3.04.77,6.32,1.83,6.32,6.07,0,3.73-3.01,5.89-7.74,5.89-3.36,0-6.09-.95-7.95-2.97Z" class="cls-3"/></svg>