<svg xmlns:xlink="http://www.w3.org/1999/xlink" xmlns="http://www.w3.org/2000/svg" viewBox="0 0 372.355 39.832" id="a"><defs><linearGradient gradientUnits="userSpaceOnUse" y2="39.832" x2="40.258" y1="0" x1="40.258" id="b"><stop stop-color="#00b8f1" offset="0"/><stop stop-color="#00b5ef" offset=".016"/><stop stop-color="#0d90d8" offset=".308"/><stop stop-color="#1675c8" offset=".578"/><stop stop-color="#1c64be" offset=".817"/><stop stop-color="#1e5fbb" offset="1"/></linearGradient></defs><polyline fill-rule="evenodd" fill="url(#b)" points="0 39.832 40.692 39.832 80.517 0 0 0 0 39.832"/><path fill-rule="evenodd" fill="#fff" d="m47.782,7.489l-7.925-.005v18.845l-6.924-18.845h-6.865l-5.912,15.759c-.63-3.973-4.74-5.345-7.974-6.374-2.135-.686-4.401-1.694-4.38-2.809.017-.915,1.215-1.765,3.589-1.637,1.595.084,3.001.213,5.8,1.563l2.753-4.795c-2.555-1.3-6.086-2.121-8.978-2.124h-.017c-3.374,0-6.185,1.093-7.928,2.894-1.214,1.258-1.869,2.856-1.896,4.623-.044,2.432.848,4.157,2.721,5.533,1.583,1.16,3.606,1.912,5.39,2.465,2.201.681,3.996,1.274,3.975,2.539-.016.459-.191.888-.521,1.236-.548.566-1.391.779-2.555.799-2.244.048-3.91-.303-6.562-1.87l-2.448,4.861c2.644,1.506,5.776,2.388,8.972,2.388l.411-.006c2.782-.05,5.026-.842,6.82-2.286.103-.081.196-.166.291-.25l-.795,2.123h7.2l1.208-3.674c1.265.433,2.704.671,4.232.671,1.487,0,2.889-.229,4.131-.635l1.164,3.637h11.742v-7.607h2.561c6.188,0,9.851-3.154,9.851-8.436,0-5.885-3.557-8.585-11.132-8.585Zm-18.317,16.124c-.925,0-1.792-.16-2.539-.443l2.512-7.926h.048l2.468,7.948c-.742.263-1.589.421-2.488.421Zm18.783-4.553h-1.746v-6.386h1.746c2.328,0,4.185.773,4.185,3.151,0,2.461-1.857,3.236-4.185,3.236"/><path fill="#002a86" d="m80.506,7.401h10.063c5.595,0,8.674,1.917,8.674,6.158,0,2.903-1.513,5.014-4.311,5.7,3.29.458,5.278,2.586,5.278,5.894,0,5.014-4.064,7.037-9.184,7.037h-10.521V7.401Zm13.969,6.826c0-2.164-1.496-2.973-4.24-2.973h-5.049v6.298h4.891c3.202,0,4.398-1.161,4.398-3.325Zm1.021,10.521c0-2.357-1.777-3.466-4.839-3.466h-5.471v7.055h5.506c2.815,0,4.804-.774,4.804-3.589Z"/><path fill="#002a86" d="m103.592,25.628v-12.685h4.469v11.629c0,2.569.88,4.152,3.466,4.152,2.656,0,4.311-1.777,4.311-5.014v-10.767h4.434v19.247h-4.293v-4.064h-.088c-.88,2.217-2.621,4.416-6.316,4.416-4.116,0-5.981-2.815-5.981-6.915Z"/><path fill="#002a86" d="m122.25,29.569l2.675-2.674c1.53,1.689,3.185,2.217,5.207,2.217,1.953,0,3.484-.563,3.484-2.146,0-1.742-1.637-2.217-4.398-2.938-2.974-.774-6.07-2.023-6.07-5.824,0-3.571,2.745-5.63,7.302-5.63,2.973,0,5.419.915,7.143,2.622l-2.604,2.604c-1.302-1.337-2.903-1.83-4.469-1.83-1.848,0-3.062.633-3.062,2.041,0,1.425,1.566,1.882,4.17,2.568,3.044.774,6.315,1.83,6.315,6.07,0,3.73-3.008,5.894-7.74,5.894-3.36,0-6.088-.95-7.953-2.974Z"/><path fill="#002a86" d="m140.843,7.577c0-1.548,1.108-2.621,2.656-2.621s2.674,1.073,2.674,2.621-1.126,2.604-2.674,2.604-2.656-1.056-2.656-2.604Zm.439,5.366h4.451v19.247h-4.451V12.943Z"/><path fill="#002a86" d="m150.754,12.943h4.311v4.046h.07c.88-2.199,2.639-4.416,6.316-4.416,4.134,0,5.981,2.815,5.981,6.914v12.703h-4.451v-11.629c0-2.586-.897-4.152-3.483-4.152-2.657,0-4.293,1.759-4.293,4.997v10.785h-4.451V12.943Z"/><path fill="#002a86" d="m170.736,22.567c0-6.703,4.416-9.993,9.659-9.993,6.438,0,8.726,4.715,8.726,9.395,0,.563-.035,1.144-.07,1.689h-13.617c.316,3.659,2.217,5.401,5.56,5.401,2.164,0,3.606-.633,4.908-2.146l2.587,2.586c-1.795,2.023-3.994,3.044-7.706,3.044-6.176,0-10.046-3.537-10.046-9.976Zm13.951-1.671c-.246-3.396-1.899-4.891-4.398-4.891-2.463,0-4.345,1.496-4.785,4.891h9.184Z"/><path fill="#002a86" d="m190.788,29.569l2.675-2.674c1.53,1.689,3.185,2.217,5.207,2.217,1.953,0,3.484-.563,3.484-2.146,0-1.742-1.637-2.217-4.398-2.938-2.974-.774-6.07-2.023-6.07-5.824,0-3.571,2.745-5.63,7.302-5.63,2.973,0,5.419.915,7.143,2.622l-2.604,2.604c-1.302-1.337-2.903-1.83-4.469-1.83-1.848,0-3.062.633-3.062,2.041,0,1.425,1.565,1.882,4.17,2.568,3.044.774,6.315,1.83,6.315,6.07,0,3.73-3.008,5.894-7.74,5.894-3.36,0-6.088-.95-7.953-2.974Z"/><path fill="#002a86" d="m208.096,29.569l2.675-2.674c1.53,1.689,3.185,2.217,5.207,2.217,1.953,0,3.484-.563,3.484-2.146,0-1.742-1.637-2.217-4.398-2.938-2.974-.774-6.07-2.023-6.07-5.824,0-3.571,2.745-5.63,7.302-5.63,2.973,0,5.419.915,7.143,2.622l-2.604,2.604c-1.302-1.337-2.903-1.83-4.469-1.83-1.848,0-3.062.633-3.062,2.041,0,1.425,1.565,1.882,4.17,2.568,3.044.774,6.315,1.83,6.315,6.07,0,3.73-3.008,5.894-7.74,5.894-3.36,0-6.088-.95-7.953-2.974Z"/><path fill="#002a86" d="m235.554,7.401h5.507l11.207,19.546c-.088-1.003-.158-3.255-.158-5.454V7.401h4.24v24.789h-5.647l-11.066-19.3c.088,1.003.158,3.237.158,5.454v13.846h-4.24V7.401Z"/><path fill="#002a86" d="m259.156,22.567c0-6.703,4.416-9.993,9.659-9.993,6.438,0,8.726,4.715,8.726,9.395,0,.563-.035,1.144-.07,1.689h-13.617c.316,3.659,2.217,5.401,5.56,5.401,2.164,0,3.606-.633,4.908-2.146l2.587,2.586c-1.795,2.023-3.994,3.044-7.706,3.044-6.176,0-10.046-3.537-10.046-9.976Zm13.951-1.671c-.246-3.396-1.899-4.891-4.398-4.891-2.463,0-4.345,1.496-4.785,4.891h9.184Z"/><path fill="#002a86" d="m281.425,27.387v-10.996h-2.814v-2.041l6.422-6.404h.844v4.997h4.17v3.448h-4.17v10.134c0,1.689.546,2.146,2.059,2.146.757,0,1.479-.123,2.111-.299v3.818c-.774.193-1.918.317-3.044.317-3.87,0-5.577-1.425-5.577-5.12Z"/><path fill="#002a86" d="m291.451,12.943h4.434l2.656,11.418c.3,1.354.634,3.062.739,3.871.123-.809.492-2.498.774-3.8l2.832-11.488h4.927l2.727,11.488c.299,1.302.634,3.044.739,3.8.123-.756.422-2.234.791-3.8l2.798-11.488h4.223l-5.19,19.247h-5.19l-2.568-11.084c-.334-1.442-.774-3.431-.862-4.046-.07.616-.492,2.604-.844,4.046l-2.657,11.084h-5.189l-5.138-19.247Z"/><path fill="#002a86" d="m319.735,22.567c0-6.07,4.047-9.993,9.8-9.993s9.799,3.923,9.799,9.993-4.046,9.976-9.799,9.976-9.8-3.906-9.8-9.976Zm14.937,0c0-4.152-2.146-6.369-5.137-6.369s-5.138,2.217-5.138,6.369,2.146,6.369,5.138,6.369,5.137-2.234,5.137-6.369Z"/><path fill="#002a86" d="m341.895,12.943h4.311v4.134h.07c.651-3.079,2.094-4.504,4.504-4.504.704,0,1.302.123,1.653.247v4.169c-.475-.123-1.179-.229-1.847-.229-3.167,0-4.24,2.181-4.24,5.753v9.676h-4.451V12.943Z"/><path fill="#002a86" d="m355.079,5.958h4.451v15.377l7.143-8.392h5.261l-7.301,8.093,7.723,11.154h-5.225l-5.612-8.462-1.988,2.023v6.439h-4.451V5.958Z"/></svg>