<svg xmlns="http://www.w3.org/2000/svg" fill="none" viewBox="0 0 24 24" height="24" width="24">&#xa;<path fill="url(#paint0_linear_995_8)" d="M23.0156 18.0293C23.6718 18.0293 24 18.3578 24 19.0147C24 19.6716 23.6718 20 23.0156 20H0.984372C0.703123 20 0.468749 19.9218 0.281249 19.7655C0.0937497 19.5778 0 19.3275 0 19.0147C0 18.7018 0.0937497 18.4673 0.281249 18.3108C0.468749 18.1232 0.703123 18.0293 0.984372 18.0293H2.20312C2.20312 17.9667 2.18749 17.9199 2.15624 17.8886V17.8416C2.06249 17.5601 2.01562 17.2786 2.01562 16.9971V7.00294C2.01562 6.15836 2.29687 5.45455 2.85937 4.8915C3.42186 4.29716 4.14062 4 5.01561 4H18.9843C19.8593 4 20.5781 4.29716 21.1406 4.8915C21.7031 5.45455 21.9843 6.15836 21.9843 7.00294V16.9971C21.9843 17.3412 21.9218 17.6852 21.7968 18.0293H23.0156ZM3.98436 16.9971H20.0156V7.00294C20.0156 6.34605 19.6718 6.0176 18.9843 6.0176H5.01561C4.32812 6.0176 3.98436 6.34605 3.98436 7.00294V16.9971Z"/>&#xa;<defs>&#xa;<linearGradient gradientUnits="userSpaceOnUse" y2="20" x2="12" y1="4" x1="12" id="paint0_linear_995_8">&#xa;<stop stop-color="#5B738B"/>&#xa;<stop stop-color="#223548" offset="1"/>&#xa;</linearGradient>&#xa;</defs>&#xa;</svg>