<svg xmlns="http://www.w3.org/2000/svg" fill="none" viewBox="0 0 16 16" height="16" width="16">&#xa;<circle stroke-width="0.285708" stroke="#D5DADD" fill="url(#paint0_linear_3890_21467)" r="7.85696" cy="7.99884" cx="7.99884"/>&#xa;<g clip-path="url(#clip0_3890_21467)">&#xa;<path fill="url(#paint1_linear_3890_21467)" d="M3.86025 4.18465C3.60436 4.42918 3.4045 4.76913 3.39893 5.19515C3.39893 5.19515 3.41166 10.6823 3.41167 10.6809L3.41167 10.6817C3.41208 11.6383 4.16439 12.1552 4.8328 12.4113C5.37784 12.6202 6.21927 12.7287 6.96871 12.7677C7.31891 12.7859 7.60343 12.5006 7.60364 12.1499L7.60367 12.0997C7.60386 11.7768 7.34212 11.5251 7.0194 11.515C6.33642 11.4937 5.70412 11.3945 5.24261 11.2176C4.68057 11.0022 4.61354 10.7831 4.61354 10.6809L4.61287 9.90165C4.68837 9.92578 4.76795 9.95532 4.8493 9.98553C5.0006 10.0417 5.15806 10.1002 5.30695 10.1303C5.36465 10.142 5.49229 10.1596 5.63102 10.1773C5.85456 10.2059 6.05207 10.0304 6.05207 9.80501V9.7414C6.05207 9.72489 6.051 9.7086 6.04892 9.69257C6.04661 9.68048 6.04443 9.66836 6.04239 9.65621C6.0078 9.50608 5.88396 9.38627 5.72723 9.35844C5.63999 9.34295 5.56379 9.3289 5.53655 9.32338C5.16027 9.24715 4.83182 9.11713 4.60999 9.01478L4.60859 8.06379C4.67265 8.08433 4.73961 8.10759 4.80811 8.13139C4.9719 8.18829 5.14445 8.24824 5.30695 8.28116C5.49677 8.31962 5.82657 8.37118 6.12729 8.41156C6.21308 8.42308 6.29535 8.40373 6.36364 8.36221C6.408 8.30425 6.45633 8.24896 6.50847 8.19675L6.50922 8.196C6.50931 8.19591 6.5094 8.19582 6.50949 8.19574C6.524 8.16283 6.53398 8.12724 6.53855 8.08968L6.54304 8.05274C6.56817 7.84607 6.42017 7.65811 6.21404 7.62889C5.98789 7.59683 5.75307 7.55969 5.63009 7.53477C5.2514 7.45804 4.82794 7.3175 4.60573 7.21441L4.60406 6.21096C4.66208 6.23545 4.72091 6.25846 4.78025 6.28011C5.46161 6.52873 6.3543 6.64931 7.29599 6.64931C7.40111 6.64931 7.50564 6.6478 7.60935 6.64479C7.78259 6.06153 8.27267 5.59819 8.87295 5.46949C8.93769 5.37508 9.01242 5.2869 9.09637 5.20664C9.67318 4.65523 10.563 4.60144 11.2013 5.04259C11.1581 4.68523 10.9746 4.39651 10.7497 4.18313C10.4998 3.9461 10.1748 3.77494 9.83326 3.64923C9.14678 3.39653 8.24535 3.27393 7.29581 3.27393C6.34627 3.27393 5.45126 3.39651 4.76975 3.64987C4.4304 3.77603 4.1083 3.94761 3.86025 4.18465Z"/>&#xa;<path fill="url(#paint2_linear_3890_21467)" d="M12.2676 6.75092C12.2132 6.59989 12.1243 6.46204 12.0063 6.34916C11.8009 6.1527 11.5098 6.04496 11.2323 6.06032C11.1778 5.90932 11.0888 5.77152 10.9707 5.6587C10.5724 5.27813 9.92656 5.27759 9.52807 5.65854C9.40994 5.77147 9.32101 5.90941 9.26665 6.06055C8.68306 6.02693 8.16685 6.52429 8.16685 7.1064V8.44624C8.02083 8.37185 7.85802 8.33203 7.6911 8.33203C7.41351 8.33203 7.14696 8.44249 6.95051 8.63853C6.75427 8.83503 6.64404 9.10138 6.64404 9.37909C6.64404 9.65691 6.75467 9.92354 6.95083 10.12L6.95188 10.121C7.48735 10.6495 7.93989 11.2553 8.48551 11.7746C9.05953 12.321 9.74887 12.7992 10.5831 12.7992C11.4774 12.7992 12.1843 12.4106 12.6605 11.7868C13.1313 11.1701 13.3675 10.3375 13.3675 9.44584V7.79658C13.3675 7.20816 12.8564 6.71852 12.2676 6.75092ZM10.5818 12.0035C10.1496 12.0035 9.7526 11.827 9.42796 11.5325L7.50639 9.56227C7.46229 9.51289 7.43876 9.4485 7.44063 9.38231C7.4425 9.31613 7.46963 9.25317 7.51644 9.20635C7.56326 9.15953 7.62622 9.13241 7.69241 9.13054C7.75859 9.12867 7.82298 9.1522 7.87237 9.1963L8.1814 9.50521C8.46732 9.79102 8.95607 9.58852 8.95607 9.18424C8.95607 8.50173 8.95478 7.79766 8.95478 7.10639C8.95478 7.03788 8.982 6.97217 9.03044 6.92372C9.07889 6.87527 9.1446 6.84806 9.21311 6.84806C9.28163 6.84806 9.34733 6.87527 9.39578 6.92372C9.44423 6.97217 9.47144 7.03788 9.47144 7.10639V8.74637C9.47144 8.88928 9.5873 9.00513 9.73021 9.00513C9.87312 9.00513 9.98897 8.88928 9.98897 8.74637V6.41578C9.98897 6.34727 10.0162 6.28156 10.0646 6.23311C10.1131 6.18466 10.1788 6.15745 10.2473 6.15745C10.3158 6.15745 10.3815 6.18466 10.43 6.23311C10.4784 6.28156 10.5056 6.34727 10.5056 6.41578V8.74594C10.5056 8.88909 10.6217 9.00513 10.7648 9.00513C10.908 9.00513 11.024 8.88909 11.024 8.74594V7.10639C11.024 7.03788 11.0512 6.97217 11.0997 6.92372C11.1481 6.87527 11.2138 6.84806 11.2824 6.84806C11.3509 6.84806 11.4166 6.87527 11.465 6.92372C11.5135 6.97217 11.5407 7.03788 11.5407 7.10639V8.74616C11.5407 8.88919 11.6566 9.00513 11.7997 9.00513C11.9427 9.00513 12.0586 8.88919 12.0586 8.74616V7.79657C12.0587 7.73658 12.0797 7.67849 12.118 7.63228C12.1562 7.58607 12.2094 7.55462 12.2683 7.54331C12.3462 7.52836 12.4293 7.55154 12.488 7.6034C12.5476 7.65609 12.5568 7.74135 12.5569 7.82094C12.5569 7.93277 12.5577 8.04884 12.5586 8.16742C12.5704 9.76438 12.5859 11.8804 10.5818 12.0035Z" clip-rule="evenodd" fill-rule="evenodd"/>&#xa;</g>&#xa;<defs>&#xa;<linearGradient gradientUnits="userSpaceOnUse" y2="14.7468" x2="13.6869" y1="2.26992" x1="1.44995" id="paint0_linear_3890_21467">&#xa;<stop stop-color="white"/>&#xa;<stop stop-color="#EAECEE" offset="1"/>&#xa;</linearGradient>&#xa;<linearGradient gradientUnits="userSpaceOnUse" y2="10.0556" x2="11.091" y1="4.69378" x1="4.56854" id="paint1_linear_3890_21467">&#xa;<stop stop-color="#0195FF"/>&#xa;<stop stop-color="#1147E9" offset="0.991028"/>&#xa;</linearGradient>&#xa;<linearGradient gradientUnits="userSpaceOnUse" y2="11.17" x2="12.8119" y1="6.46559" x1="7.63807" id="paint2_linear_3890_21467">&#xa;<stop stop-color="#1348FF"/>&#xa;<stop stop-color="#06238D" offset="1"/>&#xa;</linearGradient>&#xa;<clipPath id="clip0_3890_21467">&#xa;<rect transform="translate(3.39893 2.79907)" fill="white" height="9.99998" width="9.99998"/>&#xa;</clipPath>&#xa;</defs>&#xa;</svg>