<svg xmlns="http://www.w3.org/2000/svg" fill="none" viewBox="0.00001037792968749951 0.00001037792968749951 24.134779201416016 24.134779201416016" height="24.134779201416016" width="24.134779201416016">&#xa;<circle stroke-width="0.430979" stroke="#D5DADD" fill="url(#paint0_linear_7142_2121)" r="11.8519" cy="12.0674" cx="12.0674"/>&#xa;<mask height="12" width="10" y="6" x="7" maskUnits="userSpaceOnUse" style="mask-type:luminance" id="mask0_7142_2121">&#xa;<path fill="white" d="M14.1363 9.79C15.6496 10.2664 16.7332 11.6676 16.7332 13.3117C16.7332 15.3575 15.0517 17.0109 12.978 17.0109H11.5581C9.51231 17.0109 7.85889 15.3575 7.85889 13.3117V8.87455C7.85889 7.65083 8.84907 6.66064 10.0728 6.66064C11.2965 6.66064 12.2867 7.65083 12.2867 8.87455V13.0688C12.2867 13.3584 12.6977 13.4051 12.7631 13.1249L13.4263 10.2664C13.5198 9.87408 13.7626 9.67791 14.1176 9.79H14.1363Z"/>&#xa;</mask>&#xa;<g mask="url(#mask0_7142_2121)">&#xa;<g filter="url(#filter0_d_7142_2121)">&#xa;<path fill="url(#paint1_radial_7142_2121)" d="M15.8436 1.48486C13.4996 1.56341 10.9251 3.02271 7.57482 4.92179C6.77573 5.37475 5.9325 5.85273 5.03773 6.34295C-0.922064 9.61243 4.25305 20.0374 7.81211 21.6161C9.82051 22.5035 19.3207 24.9416 19.6476 17.0668C19.7819 13.9191 20.3003 11.9224 20.9931 10.5488L15.8436 1.48486Z"/>&#xa;</g>&#xa;<g filter="url(#filter1_d_7142_2121)">&#xa;<path fill="url(#paint2_radial_7142_2121)" d="M12.4736 2.71831C14.7904 3.11495 16.2173 3.84551 17.1943 4.77105V13.8124C14.6183 13.8492 11.7639 14.4748 9.84865 17.132C9.45514 17.5868 9.06512 17.9562 8.6804 18.2506L4.9754 5.86563C7.26863 3.7778 10.0413 2.29802 12.4736 2.71831Z"/>&#xa;</g>&#xa;<g filter="url(#filter2_d_7142_2121)">&#xa;<path fill="#01ABFF" d="M2.33907 16.4429C4.5234 16.4561 6.84282 15.5091 8.02705 14.3763C10.8949 12.452 11.5674 8.57536 9.97006 6.29606C8.69935 4.99406 4.95808 5.45797 2.04602 6.46228L2.33907 16.4429Z"/>&#xa;</g>&#xa;</g>&#xa;<defs>&#xa;<filter color-interpolation-filters="sRGB" filterUnits="userSpaceOnUse" height="26.764" width="24.2468" y="-1.30056" x="-0.468349" id="filter0_d_7142_2121">&#xa;<feFlood result="BackgroundImageFix" flood-opacity="0"/>&#xa;<feColorMatrix result="hardAlpha" values="0 0 0 0 0 0 0 0 0 0 0 0 0 0 0 0 0 0 127 0" type="matrix" in="SourceAlpha"/>&#xa;<feOffset/>&#xa;<feGaussianBlur stdDeviation="1.39271"/>&#xa;<feColorMatrix values="0 0 0 0 0 0 0 0 0 0 0 0 0 0 0 0 0 0 0.6 0" type="matrix"/>&#xa;<feBlend result="effect1_dropShadow_7142_2121" in2="BackgroundImageFix" mode="normal"/>&#xa;<feBlend result="shape" in2="effect1_dropShadow_7142_2121" in="SourceGraphic" mode="normal"/>&#xa;</filter>&#xa;<filter color-interpolation-filters="sRGB" filterUnits="userSpaceOnUse" height="21.1746" width="17.7897" y="-0.138698" x="2.18998" id="filter1_d_7142_2121">&#xa;<feFlood result="BackgroundImageFix" flood-opacity="0"/>&#xa;<feColorMatrix result="hardAlpha" values="0 0 0 0 0 0 0 0 0 0 0 0 0 0 0 0 0 0 127 0" type="matrix" in="SourceAlpha"/>&#xa;<feOffset/>&#xa;<feGaussianBlur stdDeviation="1.39271"/>&#xa;<feColorMatrix values="0 0 0 0 0 0 0 0 0 0 0 0 0 0 0 0 0 0 0.6 0" type="matrix"/>&#xa;<feBlend result="effect1_dropShadow_7142_2121" in2="BackgroundImageFix" mode="normal"/>&#xa;<feBlend result="shape" in2="effect1_dropShadow_7142_2121" in="SourceGraphic" mode="normal"/>&#xa;</filter>&#xa;<filter color-interpolation-filters="sRGB" filterUnits="userSpaceOnUse" height="16.5154" width="14.3412" y="2.71311" x="-0.739406" id="filter2_d_7142_2121">&#xa;<feFlood result="BackgroundImageFix" flood-opacity="0"/>&#xa;<feColorMatrix result="hardAlpha" values="0 0 0 0 0 0 0 0 0 0 0 0 0 0 0 0 0 0 127 0" type="matrix" in="SourceAlpha"/>&#xa;<feOffset/>&#xa;<feGaussianBlur stdDeviation="1.39271"/>&#xa;<feColorMatrix values="0 0 0 0 0 0 0 0 0 0 0 0 0 0 0 0 0 0 0.6 0" type="matrix"/>&#xa;<feBlend result="effect1_dropShadow_7142_2121" in2="BackgroundImageFix" mode="normal"/>&#xa;<feBlend result="shape" in2="effect1_dropShadow_7142_2121" in="SourceGraphic" mode="normal"/>&#xa;</filter>&#xa;<linearGradient gradientUnits="userSpaceOnUse" y2="22.2464" x2="20.6476" y1="3.42556" x1="2.18866" id="paint0_linear_7142_2121">&#xa;<stop stop-color="white"/>&#xa;<stop stop-color="#EAECEE" offset="1"/>&#xa;</linearGradient>&#xa;<radialGradient gradientTransform="translate(15.2388 10.328) rotate(79.1) scale(22.3259 20.6818)" gradientUnits="userSpaceOnUse" r="1" cy="0" cx="0" id="paint1_radial_7142_2121">&#xa;<stop stop-color="#103CD8"/>&#xa;<stop stop-color="#0F3CD8" offset="1"/>&#xa;</radialGradient>&#xa;<radialGradient gradientTransform="translate(15.8234 2.42393) rotate(119.36) scale(28.271 48.5148)" gradientUnits="userSpaceOnUse" r="1" cy="0" cx="0" id="paint2_radial_7142_2121">&#xa;<stop stop-color="#0874F6"/>&#xa;<stop stop-color="#0776F6" offset="1"/>&#xa;</radialGradient>&#xa;</defs>&#xa;</svg>