<svg xmlns="http://www.w3.org/2000/svg" fill="none" viewBox="0 0 16 16" height="16" width="16">&#xa;<g clip-path="url(#clip0_963_527)">&#xa;<path fill="url(#paint0_linear_963_527)" d="M8 0.000131818C9.10398 0.000131818 10.135 0.208127 11.0939 0.625118C12.0729 1.04211 12.9269 1.6151 13.6559 2.34408C14.3891 3.07895 14.9728 3.94898 15.3749 4.90602C15.7919 5.865 15.9999 6.89597 15.9999 7.99995C16.0061 9.07324 15.7934 10.1365 15.3749 11.1249C14.9672 12.0697 14.3839 12.9286 13.6559 13.6558C12.921 14.389 12.051 14.9727 11.0939 15.3748C10.1171 15.7952 9.06348 16.0081 8 15.9998C6.9267 16.006 5.8634 15.7933 4.87505 15.3748C2.96754 14.553 1.44688 13.0324 0.625122 11.1249C0.20659 10.1365 -0.00606946 9.07324 0.000131819 7.99995C0.000131819 6.89597 0.208128 5.865 0.625122 4.90602C1.04211 3.92704 1.61511 3.07306 2.34409 2.34408C3.07136 1.61608 3.93021 1.03277 4.87505 0.625118C5.8634 0.206589 6.9267 -0.00606943 8 0.000131818ZM4.00007 7.99995C3.86739 7.99526 3.73516 8.01777 3.61151 8.06609C3.48786 8.11442 3.37541 8.18753 3.28108 8.28094C3.18767 8.37528 3.11455 8.48773 3.06623 8.61137C3.0179 8.73502 2.99539 8.86725 3.00008 8.99993C3.00008 9.24992 3.09408 9.48991 3.28108 9.71891L5.28104 11.7189C5.51104 11.9059 5.75004 11.9999 6.00003 11.9999C6.27003 11.9999 6.51002 11.9059 6.71902 11.7189L12.7189 5.719C12.9059 5.48901 12.9999 5.25001 12.9999 5.00002C13.0014 4.8694 12.9742 4.74005 12.9201 4.62115C12.866 4.50225 12.7864 4.39671 12.6869 4.31203C12.6023 4.21288 12.4968 4.13355 12.3781 4.07963C12.2594 4.02572 12.1303 3.99855 11.9999 4.00004C11.7499 4.00004 11.5099 4.09404 11.2809 4.28103L6.00003 9.59391L4.71905 8.27994C4.52399 8.09813 4.26671 7.99794 4.00007 7.99995Z"/>&#xa;</g>&#xa;<defs>&#xa;<linearGradient gradientUnits="userSpaceOnUse" y2="9.78772" x2="16.1959" y1="1.50509" x1="2.06785" id="paint0_linear_963_527">&#xa;<stop stop-color="#2395FF"/>&#xa;<stop stop-color="#0057D2" offset="1"/>&#xa;</linearGradient>&#xa;<clipPath id="clip0_963_527">&#xa;<rect fill="white" height="16" width="16"/>&#xa;</clipPath>&#xa;</defs>&#xa;</svg>