<svg xmlns="http://www.w3.org/2000/svg" fill="none" viewBox="0 0 24 24" height="24" width="24">&#xa;<g clip-path="url(#clip0_995_164)">&#xa;<path fill="url(#paint0_linear_995_164)" d="M12 0.000197727C13.656 0.000197727 15.2024 0.312191 16.6409 0.937676C18.1094 1.56316 19.3904 2.42264 20.4839 3.51612C21.5836 4.61843 22.4592 5.92347 23.0623 7.35903C23.6878 8.7975 23.9998 10.344 23.9998 11.9999C24.0091 13.6099 23.6901 15.2048 23.0623 16.6873C22.4508 18.1046 21.5759 19.3928 20.4839 20.4837C19.3815 21.5835 18.0765 22.4591 16.6409 23.0622C15.1756 23.6929 13.5952 24.0121 12 23.9996C10.3901 24.0089 8.7951 23.69 7.31258 23.0622C4.45131 21.8295 2.17032 19.5486 0.937682 16.6873C0.309885 15.2048 -0.0091042 13.6099 0.000197729 11.9999C0.000197729 10.344 0.312193 8.7975 0.937682 7.35903C1.56317 5.89056 2.42266 4.60959 3.51614 3.51612C4.60703 2.42412 5.89532 1.54915 7.31258 0.937676C8.7951 0.309883 10.3901 -0.00910414 12 0.000197727ZM6.0001 11.9999C5.80109 11.9929 5.60274 12.0267 5.41727 12.0991C5.2318 12.1716 5.06312 12.2813 4.92162 12.4214C4.7815 12.5629 4.67183 12.7316 4.59934 12.9171C4.52685 13.1025 4.49309 13.3009 4.50012 13.4999C4.50012 13.8749 4.64112 14.2349 4.92162 14.5784L7.92157 17.5783C8.26656 17.8588 8.62506 17.9998 9.00005 17.9998C9.40504 17.9998 9.76504 17.8588 10.0785 17.5783L19.0784 8.5785C19.3589 8.23351 19.4999 7.87502 19.4999 7.50003C19.5021 7.3041 19.4613 7.11007 19.3801 6.93172C19.299 6.75337 19.1796 6.59507 19.0304 6.46805C18.9034 6.31932 18.7453 6.20032 18.5672 6.11945C18.3891 6.03858 18.1955 5.99782 17.9999 6.00006C17.6249 6.00006 17.2649 6.14106 16.9214 6.42155L9.00005 14.3909L7.07858 12.4199C6.78599 12.1472 6.40006 11.9969 6.0001 11.9999Z"/>&#xa;</g>&#xa;<defs>&#xa;<linearGradient gradientUnits="userSpaceOnUse" y2="22.1221" x2="20.5322" y1="3.40642" x1="2.17643" id="paint0_linear_995_164">&#xa;<stop stop-color="#00CEAC"/>&#xa;<stop stop-color="#07838F" offset="1"/>&#xa;</linearGradient>&#xa;<clipPath id="clip0_995_164">&#xa;<rect fill="white" height="24" width="24"/>&#xa;</clipPath>&#xa;</defs>&#xa;</svg>