<svg xmlns="http://www.w3.org/2000/svg" fill="none" viewBox="0 0 16 16" height="16" width="16">&#xa;<g clip-path="url(#clip0_958_376)">&#xa;<path fill="url(#paint0_linear_958_376)" d="M12.7126 7.82822C13.6858 8.36349 14.5052 9.13974 15.0922 10.0826C15.6974 11.0424 16 12.1275 16 13.3389V15.1233C16 15.7074 15.6974 16 15.0922 16H4.44662C4.17509 16 3.95566 15.9168 3.78834 15.7495C3.62202 15.6032 3.53786 15.3948 3.53786 15.1233V14.2156H0.876699C0.292567 14.2156 0 13.923 0 13.3389V11.5544C0 10.6767 0.240466 9.88419 0.720396 9.17382C1.17899 8.4831 1.81795 7.93112 2.56798 7.57774C2.30304 7.27591 2.10074 6.92444 1.97282 6.54374C1.84934 6.15934 1.78581 5.7582 1.78446 5.35445C1.78446 4.85348 1.87864 4.3946 2.06701 3.97679C2.25437 3.53794 2.50485 3.16222 2.81846 2.84961C3.14323 2.52211 3.52527 2.2569 3.94565 2.0671C4.38077 1.87999 4.84967 1.78417 5.32331 1.78556C5.4696 1.78556 5.60486 1.79558 5.7301 1.81562C5.85534 1.81562 5.99061 1.83766 6.13689 1.87874C6.5272 1.30004 7.0545 0.826791 7.67186 0.501079C8.32006 0.166878 9.03967 -0.00503005 9.76893 0.000112052C10.3951 0.000112052 10.9803 0.115334 11.5223 0.344777C12.0654 0.575222 12.5343 0.897845 12.9311 1.31565C13.3278 1.71242 13.6414 2.18132 13.8709 2.72437C14.1013 3.24538 14.2155 3.82049 14.2155 4.4467C14.2176 5.10497 14.0789 5.75608 13.8088 6.35638C13.5676 6.92833 13.1915 7.43334 12.7126 7.82822ZM9.76793 1.78456C9.01647 1.78456 8.38024 2.04506 7.85823 2.56807C7.35725 3.06904 7.10677 3.69525 7.10677 4.4467C7.10677 5.19815 7.35725 5.83437 7.85823 6.35638C8.37924 6.85735 9.01647 7.10783 9.76793 7.10783C10.5194 7.10783 11.1456 6.85735 11.6466 6.35638C12.1686 5.83538 12.4291 5.19815 12.4291 4.4467C12.4291 3.69525 12.1686 3.06904 11.6476 2.56807C11.1466 2.04606 10.5194 1.78456 9.76793 1.78456ZM5.22913 3.57101C4.7482 3.57101 4.33139 3.74835 3.97671 4.10303C3.64306 4.43668 3.47573 4.85448 3.47573 5.35545C3.47573 5.83638 3.64306 6.25318 3.97671 6.60787C4.33139 6.94151 4.7482 7.10884 5.22913 7.10884H6.23107C5.95097 6.73762 5.72931 6.32574 5.5738 5.88748C5.4099 5.42506 5.32522 4.9383 5.32331 4.4477V4.00685C5.34003 3.85821 5.37124 3.71156 5.41649 3.569H5.22913V3.57101ZM1.78446 12.4632H3.63204C3.8204 11.0224 4.41455 9.83309 5.41649 8.89328H4.44762C3.69616 8.89328 3.05893 9.15378 2.53692 9.67579C2.03594 10.1768 1.78546 10.804 1.78546 11.5554L1.78446 12.4632ZM14.2155 13.3399C14.2225 12.748 14.1051 12.1612 13.8709 11.6175C13.6521 11.0914 13.3329 10.6129 12.9311 10.2088C12.534 9.79086 12.0542 9.46021 11.5223 9.23795C10.9672 9.00575 10.3707 8.8885 9.76893 8.89328C9.14271 8.89328 8.55858 9.0085 8.01553 9.23795C7.49452 9.46839 7.02361 9.79101 6.6068 10.2088C6.20496 10.6129 5.88573 11.0914 5.66698 11.6175C5.43317 12.1613 5.31609 12.748 5.32331 13.3399V14.2166H14.2155V13.3399Z"/>&#xa;</g>&#xa;<defs>&#xa;<linearGradient gradientUnits="userSpaceOnUse" y2="16" x2="8" y1="0" x1="8" id="paint0_linear_958_376">&#xa;<stop stop-color="#5B738B"/>&#xa;<stop stop-color="#223548" offset="1"/>&#xa;</linearGradient>&#xa;<clipPath id="clip0_958_376">&#xa;<rect fill="white" height="16" width="16"/>&#xa;</clipPath>&#xa;</defs>&#xa;</svg>